<svg id="Group_2" data-name="Group 2" xmlns="http://www.w3.org/2000/svg" xmlns:xlink="http://www.w3.org/1999/xlink" viewBox="0 0 12.00437 12.00441"><defs><style>.cls-1{fill:none;}.cls-2{clip-path:url(#clip-path);}.cls-3{fill:#d3d3d3;fill-rule:evenodd;}</style><clipPath id="clip-path" transform="translate(0.00729 0.00832)"><rect class="cls-1" width="12" height="12"/></clipPath></defs><g class="cls-2"><g id="Group_1" data-name="Group 1"><path id="Path_1" data-name="Path 1" class="cls-3" d="M6.861,1.172a4.022,4.022,0,1,0-.179,5.852l.953.953a.506.506,0,0,0,.134.506l3.365,3.365a.50558.50558,0,1,0,.715-.715L8.484,7.769a.505.505,0,0,0-.506-.134l-.953-.953a4.03,4.03,0,0,0-.164-5.509m-5.346.342a3.538,3.538,0,0,1,5,5,3.538,3.538,0,0,1-5-5" transform="translate(0.00729 0.00832)"/></g></g></svg>