<?xml version="1.0" encoding="utf-8"?>
<!-- Generator: Adobe Illustrator 25.2.3, SVG Export Plug-In . SVG Version: 6.00 Build 0)  -->
<svg version="1.1" id="Layer_1" xmlns="http://www.w3.org/2000/svg" xmlns:xlink="http://www.w3.org/1999/xlink" x="0px" y="0px"
	 viewBox="0 0 800 800" style="enable-background:new 0 0 800 800;" xml:space="preserve">
<style type="text/css">
	.st0{fill:#29FD2E;}
</style>
<path class="st0" d="M799.2,187.2c-0.2-14.4-1.2-28.8-3.9-43c-3.3-17.3-7.9-34.2-16.2-49.8C770.3,77.9,759.3,63,745.7,50
	C725,30.1,701,16,673,8.6c-25.2-6.7-50.9-8.2-76.9-8.2C596,0.3,596,0.1,596,0H203.8c0,0.1,0,0.3,0,0.4c-14.7,0.3-29.4,0.2-44.1,2
	c-16,2-31.9,5-47.1,10.6c-23.9,8.8-44.7,22.6-62.4,41C30.1,74.7,16,98.8,8.5,126.8c-6.7,25-8.2,50.5-8.2,76.2L0,596.5
	c0.5,17.8,0.6,35.6,3.6,53.3c3.2,18.7,7.7,36.9,16.4,53.8c11.7,22.9,27.7,42.3,48.1,58.1c14.6,11.4,30.5,20.4,48.1,26.1
	c25.7,8.3,52.2,11.5,79.1,11.6c16.8,0.1,33.6,0.5,50.4,0.5c122-0.5,243.9,0.9,365.9-0.8c16.2-0.2,32.1-2.2,48-5.1
	c30.4-5.6,57.3-18.6,80.4-39.1c26.8-23.9,44.9-53.2,53.1-88.5c5.3-23.1,6.7-46.5,6.9-70v-4.7C800,590,799.3,192.5,799.2,187.2z
	 M699.6,419.7c-3.7,51.3-18.9,98.1-45.5,140.5c-20.7,32.8-49.5,63.2-80.4,84.9c-32.3,22.6-64.6,37.5-101.4,46.5
	c-25.6,6.2-45.4,8.7-72.2,8.7c-27.2,0-48.8-2.7-74.7-9.3c-63.8-16.2-120.6-53.4-162.1-106.4c-26.4-33.7-46.4-75.6-55.7-117.2
	c-22.8-101.5,7.2-206,80.2-279c12.7-12.7,24.1-22.3,38.5-32.6c43.6-31.2,96.8-50.6,149.2-54.4c4.2-0.3,8.5-0.7,9.7-0.7l0,0
	c5.1-0.4,23.8-0.3,31.7,0.2c41.3,2.5,77.5,11.9,113.6,29.4c22.2,10.8,43.4,24.3,60.8,38.9l4.3,3.6l3-0.8c14-3.7,29.2,1.3,38,12.3
	c8,10,10.2,22.2,6.3,34.7c-3.5,11.1-14.4,21.1-26.1,23.9c-4.6,1.1-12.5,1.1-17.1,0c-6.7-1.6-14.5-6.3-18.9-11.3
	c-8.5-9.9-11.5-24-7.4-35.3l0.8-2.2l-2-1.7c-1.1-1-5.2-4.2-9.1-7.1c-52.3-39.8-116.5-58.8-182.5-54.1c-18.3,1.3-32.6,3.7-50.6,8.4
	c-33.3,8.7-66.2,24.9-94,46.3c-23.7,18.1-45.1,41-61.2,65.5c-7.9,11.9-12,19.1-18.6,32.9c-14.3,29.6-22.8,60.9-25.5,94.6
	c-1.8,22.2-0.5,49.5,3.4,70c7.6,40.3,22.1,75.1,45.3,108c13.4,19.1,35.1,41.9,52.9,55.8c37.8,29.4,77.6,47,123.5,54.7
	c60.4,10.1,124.7-1.2,176.5-30.8c22.2-12.7,39.3-25.6,57.1-43.1c38.1-37.5,63.4-83.2,74.7-135.1c8.9-40.5,8-84.9-2.4-125.3
	c-1.2-4.8-2-9.2-2-11c0-7.7,6.6-14.3,14.5-14.3c1.8,0,4,0.3,5,0.6c2.8,1,6.7,4,8,6.4c3.4,6,9.3,34.9,11.6,56.8
	C699.9,382.2,700.4,408.9,699.6,419.7z M390.1,422.8l32.8,0.3l4.6,13.1c4.3,12.3,12.4,35.4,12.9,36.8c0.2,0.5-9.9,0.7-49.4,0.7
	h-49.5l-6.6,17.7c-3.6,9.8-7.5,20.1-8.6,23.1l-1.9,5.4h-33c-18.1,0-32.8-0.2-32.7-0.4c0.1-0.2,11.7-30.1,25.6-66.5
	c14-36.3,33-85.8,42.3-109.9c9.3-24.1,21.3-55.5,26.9-69.9l10-26.1h72.6l1,2.7c0.6,1.5,7.4,19.4,15.3,39.8s17.2,44.5,20.7,53.8
	s9.1,23.5,12.2,31.7c3.2,8.2,12.7,33,21.2,55.1c8.5,22.1,19.7,51.2,25,64.7c5.2,13.5,9.5,24.7,9.5,24.8s-14.8,0.2-32.8,0.1
	l-32.8-0.2l-18.8-53.5c-10.4-29.4-27.3-77.3-37.5-106.3s-18.7-53.2-18.9-53.7c-0.2-0.5-8.8,22.6-21.6,57.8l-21.3,58.7L390.1,422.8z"
	/>
</svg>
