<?xml version="1.0" encoding="utf-8"?>
<!-- Generator: Adobe Illustrator 25.2.3, SVG Export Plug-In . SVG Version: 6.00 Build 0)  -->
<svg version="1.1" id="Layer_1" xmlns="http://www.w3.org/2000/svg" xmlns:xlink="http://www.w3.org/1999/xlink" x="0px" y="0px"
	 viewBox="0 0 800 800" style="enable-background:new 0 0 800 800;" xml:space="preserve">
<style type="text/css">
	.st0{fill:#29FD2E;}
</style>
<path class="st0" d="M799.2,187.2c-0.2-14.4-1.2-28.8-3.9-43c-3.3-17.3-7.9-34.2-16.2-49.8C770.3,77.9,759.3,63,745.7,50
	C725,30.1,701,16,673,8.6c-25.2-6.7-50.9-8.2-76.9-8.2c-0.1-0.1-0.1-0.3-0.1-0.4H203.8c0,0.1,0,0.3,0,0.4c-14.7,0.3-29.4,0.2-44.1,2
	c-16,2-31.9,5-47.1,10.6c-23.9,8.8-44.7,22.6-62.4,41C30.1,74.7,16,98.8,8.5,126.8c-6.7,25-8.2,50.5-8.2,76.2L0,596.5v0
	c0.5,17.8,0.6,35.6,3.6,53.3c3.2,18.7,7.7,36.9,16.4,53.8c11.7,22.9,27.7,42.3,48.1,58.1c14.6,11.4,30.5,20.4,48.1,26.1
	c25.7,8.3,52.2,11.5,79.1,11.6c16.8,0.1,33.6,0.5,50.4,0.5c122-0.5,243.9,0.9,365.9-0.8c16.2-0.2,32.1-2.2,48-5.1
	c30.4-5.6,57.3-18.6,80.4-39.1c26.8-23.9,44.9-53.2,53.1-88.5c5.3-23.1,6.7-46.5,6.9-70v-4.7C800,590,799.3,192.5,799.2,187.2z
	 M465.3,598.8c2.3-10.2,3.6-21.2,3.8-32.7c1.5-60.9-27.7-112.9-65.2-116.1c-37.5-3.2-69.2,43.7-70.8,104.6l-0.1,3.1
	c-0.1,13.7,1.4,27.4,4.5,40.7c-68.7,12.9-142.4,46.8-237.5,101.7c121-217.4,180.6-330.6,218.7-410c19.9,16.7,46.6,32.9,85.6,49
	c-36.3-25.4-58.7-47.9-77-67.3c29.7-63.5,45.8-106.4,72.6-171.9l0,0c55,129,68,168.6,228.3,467.2c-20.3-12.2-46.3-23-82.6-32.5
	c52.9,27.1,78.8,52.2,103.6,71.4c15.7,29.3,32.3,59.9,50.8,94C606.2,645.9,533.2,612.1,465.3,598.8z"/>
</svg>
