<?xml version="1.0" encoding="utf-8"?>
<!-- Generator: Adobe Illustrator 25.2.3, SVG Export Plug-In . SVG Version: 6.00 Build 0)  -->
<svg version="1.1" id="Layer_1" xmlns="http://www.w3.org/2000/svg" xmlns:xlink="http://www.w3.org/1999/xlink" x="0px" y="0px"
	 viewBox="0 0 800 800" style="enable-background:new 0 0 800 800;" xml:space="preserve">
<style type="text/css">
	.st0{fill:#29FD2E;}
</style>
<path class="st0" d="M799.2,187.2c-0.2-14.4-1.2-28.8-3.9-43c-3.3-17.3-7.9-34.2-16.2-49.8C770.3,77.9,759.3,63,745.7,50
	C725,30.1,701,16,673,8.6c-25.2-6.7-50.9-8.2-76.9-8.2c-0.1-0.1-0.1-0.3-0.1-0.4H203.8c0,0.1,0,0.3,0,0.4c-14.7,0.3-29.4,0.2-44.1,2
	c-16,2-31.9,5-47.1,10.6c-23.9,8.8-44.7,22.6-62.4,41C30.1,74.7,16,98.8,8.5,126.8c-6.7,25-8.2,50.5-8.2,76.2L0,596.5v0
	c0.5,17.8,0.6,35.6,3.6,53.3c3.2,18.7,7.7,36.9,16.4,53.8c11.7,22.9,27.7,42.3,48.1,58.1c14.6,11.4,30.5,20.4,48.1,26.1
	c25.7,8.3,52.2,11.5,79.1,11.6c16.8,0.1,33.6,0.5,50.4,0.5c122-0.5,243.9,0.9,365.9-0.8c16.2-0.2,32.1-2.2,48-5.1
	c30.4-5.6,57.3-18.6,80.4-39.1c26.8-23.9,44.9-53.2,53.1-88.5c5.3-23.1,6.7-46.5,6.9-70v-4.7C800,590,799.3,192.5,799.2,187.2z
	 M451.8,124.5l64.1,27.5l-68.9,25.4l-59.8-25.4L451.8,124.5z M362.3,161.1L362.3,161.1l82.6,34.4l-2.6,112.8l-80.1-23.2V161.1
	L362.3,161.1L362.3,161.1z M355.2,294.4L355.2,294.4l64.1,27.5l-68.9,25.4L291,322L355.2,294.4z M258.7,328.9l91.7,36.6v128.7
	l-93.8-41.3L258.7,328.9z M143.8,498.7L50,457.4l2.1-124l91.7,36.6V498.7z M84.4,326.5l64.1-27.5l64.1,27.5l-68.9,25.4L84.4,326.5z
	 M245,333.4v119.2l-84.8,34.4V365.7L245,333.4z M249.5,675.5l-93.8-41.3l2.1-124v0l91.7,36.6V675.5z M190.1,503.3l64.1-27.5
	l64.1,27.5l-68.9,25.4L190.1,503.3z M350.6,510.2v119.2l-84.8,34.4V542.5L350.6,510.2L350.6,510.2z M451.6,448.1l-84.8,34.4V361.1
	l84.8-32.3V448.1z M541.3,287.7l-75.8,34.4V200.3l75.8-32.3h0V287.7z M648.8,324.2L555,282.9l2.1-124l91.7,36.6V324.2z M648.8,177.5
	l-59.4-25.4l64.1-27.5h0h0l0,0l64.1,27.5L648.8,177.5z M750,278.2l-84.8,34.4V191.3L750,159V278.2z"/>
</svg>
