<?xml version="1.0" encoding="UTF-8" standalone="no"?>
<!-- Generator: Adobe Illustrator 25.2.3, SVG Export Plug-In . SVG Version: 6.00 Build 0)  -->

<svg
   version="1.1"
   id="Layer_1"
   x="0px"
   y="0px"
   viewBox="0 0 800 800"
   xml:space="preserve"
   width="800"
   height="800"
   xmlns="http://www.w3.org/2000/svg"
   xmlns:svg="http://www.w3.org/2000/svg"><defs
   id="defs1" />

  <g
   id="layer1"
   style="display:inline"><path
     id="path1"
     style="display:inline"
     fill="#29FD2E"
     d="m 203.80078,0 v 0.40039062 c -14.7,0.30000001 -29.40156,0.20000005 -44.10156,1.99999998 C 143.69922,4.4003906 127.79961,7.4 112.59961,13 88.699607,21.8 67.899219,35.6 50.199219,54 30.099219,74.7 16,98.800783 8.5,126.80078 1.8,151.80078 0.30078125,177.3 0.30078125,203 L 0,596.5 c 0.5,17.8 0.59960934,35.60078 3.5996094,53.30078 3.2,18.7 7.7003906,36.89883 16.4003906,53.79883 11.7,22.9 27.699609,42.29961 48.099609,58.09961 14.6,11.4 30.499608,20.40156 48.099611,26.10156 25.7,8.3 52.20156,11.49961 79.10156,11.59961 16.8,0.1 33.59844,0.5 50.39844,0.5 122,-0.5 243.90039,0.89922 365.90039,-0.80078 16.2,-0.2 32.1,-2.19961 48,-5.09961 30.4,-5.6 57.30039,-18.59961 80.40039,-39.09961 26.8,-23.9 44.89961,-53.2 53.09961,-88.5 5.3,-23.1 6.70039,-46.5 6.90039,-70 v -4.70117 c 0,-1.7 -0.70078,-399.2 -0.80078,-404.5 -0.2,-14.4 -1.19844,-28.8 -3.89844,-43 -3.3,-17.3 -7.90117,-34.19883 -16.20117,-49.798829 C 770.29961,77.900391 759.29922,63 745.69922,50 724.99922,30.1 701,15.999609 673,8.5996094 647.8,1.8996094 622.09961,0.40039062 596.09961,0.40039062 595.99961,0.30039064 596,0.1 596,0 Z m 74.96875,100.43945 h 287.37305 a 124.1988,124.1988 0 0 1 124.22656,124.19727 c 0,49.40715 -22.74322,86.12277 -74.62891,113.84961 -74.1652,39.65646 -176.9826,78.3044 -228.65039,99.57617 -44.34115,18.24851 -76.42672,19.14844 -92.55078,19.14844 -119.37792,0 -194.14062,-79.85834 -194.14062,-178.37305 A 178.39959,178.39959 0 0 1 278.76953,100.43945 Z m 280.28125,320.94532 c 74.04216,-0.87957 140.55078,58.63204 140.55078,139.16211 A 139.0155,139.0155 0 0 1 560.56055,699.56055 l -97.97071,-0.0254 a 119.45964,119.45964 0 0 1 -119.45898,-119.47461 119.48687,119.48687 0 0 1 0,-0.006 119.45964,119.45964 0 0 1 0,-0.008 119.48687,119.48687 0 0 1 73.67383,-110.33399 L 507.3125,432.125 c 17.16415,-7.11896 34.65163,-10.53726 51.73828,-10.74023 z M 203.24219,480.71484 A 102.81809,102.81809 0 0 1 306.06055,583.5332 v 13.34571 a 102.84532,102.84532 0 0 1 -205.66211,0 V 583.56055 A 102.81809,102.81809 0 0 1 203.24219,480.71484 Z" />
     </g>
</svg>
