<svg id="Layer_1" data-name="Layer 1" xmlns="http://www.w3.org/2000/svg" viewBox="0 0 800 799.97219"><defs><style>.cls-1{fill:#29fd2e;}</style></defs><path class="cls-1" d="M521.59906,318.72284c2.84583-9.34412,5.71246-18.67743,8.13672-28.14.84753-3.30792,2.23065-6.291,5.343-7.95172,2.04-1.08844,2.67395-2.66406,2.85772-4.77508.61133-7.0221.11512-14.05579.33918-21.07874.0625-1.966-.95417-2.35186-2.56977-2.57446-13.90259-1.91565-27.58276-5.1394-41.6654-6.1203a232.5612,232.5612,0,0,0-34.38819-.27954,139.46409,139.46409,0,0,0-39.0578,8.81006,49.965,49.965,0,0,1-20.64148,3.39831c-7.48742-.42248-14.70257-2.51452-21.8352-5.04956-13.29291-4.72412-27.17017-6.73919-41.21686-7.62616a97.61841,97.61841,0,0,0-18.21265-.07965c-3.89422.6051-7.84661.63941-11.75878.902a197.40261,197.40261,0,0,0-38.83881,6.88367c-2.04144.55706-2.46765,1.57208-2.42847,3.47808.11084,5.38337.12177,10.77222.00232,16.155a12.28386,12.28386,0,0,0,1.945,6.83332c2.98407,4.967,6.585,9.56549,8.21435,15.32061q3.585,12.66422,7.73926,25.16517c3.24481,9.75231,9.64569,16.49957,19.9527,18.60974,8.85724,1.81329,17.89563,2.402,26.92371,2.85925l.00134.00012q8.20806.022,16.41626.04407a55.15829,55.15829,0,0,0,17.86-4.86578c.8321,1.41449-.10058,2.6911-.36352,3.99469-5.0072,24.83422-12.61389,49.13275-15.17194,74.47631-.9068,8.98407-.88617,17.79712,3.04065,26.14051,5.102,10.84008,12.93146,18.61767,25.49445,19.05981,14.49945.51038,29.03186.23016,43.54748.05744,7.15833-.085,13.15381-3.29633,18.09687-8.34015a36.92411,36.92411,0,0,0,10.54907-22.89142c1.08038-11.28357-.82147-22.4018-3.0813-33.34522-4.30347-20.839-9.20435-41.55468-13.85706-62.32165,8.3462,5.83221,18.15265,7.34411,27.80854,8.28454A116.88594,116.88594,0,0,0,495.857,341.795C508.99207,339.07855,517.64734,331.69812,521.59906,318.72284ZM318.68689,247.257a97.53934,97.53934,0,0,1,18.21411.07879Q327.79306,247.29675,318.68689,247.257ZM421.71216,360.48639A29.65648,29.65648,0,0,1,407.87744,370.759a2.67081,2.67081,0,0,0-2.12323,3.08c.29047,18.38367-1.39129,36.65021-3.40289,54.89221-.26373,2.39136-.83069,4.75079-1.29505,7.11768-.19451.99212-.58947,2.21246-1.65472,2.18054-1.04187-.03125-1.37738-1.28766-1.6109-2.25647a127.74835,127.74835,0,0,1-2.67462-20.22266c-1.08-14.01935-2.43488-28.02942-2.05487-42.11566.05359-1.99072-1.16907-2.26807-2.49231-2.83081-13.46332-5.72656-19.30493-16.9646-22.51612-30.93707,21.072,10.84546,41.59742,10.8659,62.57081.08313A44.52822,44.52822,0,0,1,421.71216,360.48639Z"/><path class="cls-1" d="M799.2,187.2a248.257,248.257,0,0,0-3.9-43c-3.3-17.3-7.9-34.2-16.2-49.8A174.34643,174.34643,0,0,0,745.7,50C725,30.1,701,16,673,8.6,647.8,1.9,622.1.4,596.1.4A.60169.60169,0,0,1,596,0H203.8V.4C189.1.7,174.4.6,159.7,2.4c-16,2-31.9,5-47.1,10.6A164.75222,164.75222,0,0,0,50.2,54C30.1,74.7,16,98.8,8.5,126.8,1.8,151.8.3,177.3.3,203L0,596.5c.5,17.8.6,35.6,3.6,53.3,3.2,18.7,7.7,36.9,16.4,53.8a170.98905,170.98905,0,0,0,48.1,58.1c14.6,11.4,30.5,20.4,48.1,26.1,25.7,8.3,52.2,11.5,79.1,11.6,16.8.1,33.6.5,50.4.5,122-.5,243.9.9,365.9-.8a286.41751,286.41751,0,0,0,48-5.1A163.68876,163.68876,0,0,0,740,754.9c26.8-23.9,44.9-53.2,53.1-88.5,5.3-23.1,6.7-46.5,6.9-70v-4.7C800,590,799.3,192.5,799.2,187.2ZM241.8103,733.80145c-.46869,5.44452-.48718,5.37982-6.045,5.57587-34.15735,1.20453-68.29755,2.76868-102.39722,5.11871q-26.8038,1.84736-53.59479,3.87848c-1.79766.13605-2.36633-.261-2.15112-2.05639,1.46387-12.21241,2.09723-24.51569,4.00879-36.67994.92383-8.95166,1.764-17.913,2.78906-26.85315q3.078-26.84162,6.33094-53.66278c2.44549-20.05938,4.9118-40.11706,7.53436-60.15368,2.70733-20.68586,5.53955-41.35755,8.9646-61.939q2.56777-15.43029,5.6358-30.77527c.47241-2.37927.06854-2.84143-2.32049-3.11236-15.63172-1.772-26.40845-12.67609-28.46973-28.60907-.18176-1.40387-.436-2.12091-2.10364-2.16358C70.76514,442.13257,64.181,437.6828,61.181,429.0108c-3.04425-8.79895-.52435-16.41424,6.60425-22.45611.13794-.11688.15594-.37543.25775-.64038-13.51233-7.70014-20.2287-19.16278-17.40826-34.72577,2.53064-13.96375,11.77813-22.10169,25.68945-25.51178-3.93189-6.37024-5.14661-13.06159-2.07672-20.03632,3.09106-7.02246,8.78235-10.7406,16.1626-11.9945.08837-.83057-.52686-.98279-.93812-1.22651-7.88659-4.67425-12.67858-11.48114-13.67626-20.62487-3.4079-31.228,2.04364-60.38282,20.68145-86.34095a29.09369,29.09369,0,0,1,4.2453-4.59192c3.19489-2.86389,6.88251-4.4978,11.18787-2.92285,4.47345,1.63642,6.82349,5.21631,7.23395,9.78253.81573,9.07886,1.30761,18.18641,1.9685,27.27955,1.16266,15.99609,2.89472,31.90216,7.82276,48.20672,2.786-8.00452,7.48742-13.24359,15.22552-15.0918,7.8866-1.88409,14.42005.89838,20.1565,6.52564,3.06182-13.13147,10.5896-21.82715,23.41363-25.38184,7.71375-2.13824,15.22522-1.10656,22.44019,2.38245,1.88684.91235,2.1817,1.76361,1.30194,3.77515-8.756,20.01751-4.51233,41.45794,11.16913,56.97161,1.06121,1.04993,1.88641,1.74915,1.00225,3.56275-6.95727,14.27087-5.31579,27.62561,4.60975,39.99206a4.81861,4.81861,0,0,1,.449.87085c-5.52795,1.40107-10.96557,3.06623-16.35144,4.96576a40.65194,40.65194,0,0,1-23.98059,1.41028c-6.04559-1.55041-11.93829-3.69049-17.97192-5.29449-16.25043-4.32025-32.811-4.35535-49.41053-3.07373a145.322,145.322,0,0,0-29.73877,5.41375c-1.22216.35816-2.61517.40485-2.60406,2.33423.02014,3.51087-.21893,7.02259-.22516,10.53418-.00684,3.88281.57575,7.57782,3.1615,10.77973,3.30225,4.08929,4.9425,8.99047,6.40356,13.96881,1.66632,5.67816,3.24781,11.39715,5.26941,16.95166,3.08838,8.48547,9.18885,13.43438,18.31794,14.38336,5.45977.56763,10.90612,1.37787,16.38031,1.66919,10.318.549,20.70446,1.20264,30.31048-3.92267-.18329,1.188-.318,2.38586-.55707,3.5625-3.90857,19.23969-9.746,38.07758-11.97876,57.66809-.77563,6.805-1.20434,13.54743,1.0755,20.20648,4.06342,11.86853,12.79889,18.2237,25.2757,18.22522q13.365.00174,26.73016.00019c13.782-.00037,23.19831-7.50776,26.50794-20.96,1.83752-7.46813.55743-14.8432-.34455-22.23669-1.69268-13.87677-5.90344-27.23132-8.55468-40.90881-1.16169-5.99347-3.17017-11.81342-3.65656-17.94251-.50195.062-.43793-.3-.43292-.61767q.22128.29535.4422.59033a37.19081,37.19081,0,0,0,10.388,4.63324,86.29748,86.29748,0,0,0,46.55231-1.36627c-1.90973,12.69922-3.90815,25.386-5.70838,38.10077q-3.94866,27.88714-7.65777,55.80822c-2.10517,15.77924-4.07166,31.57715-6.09967,47.367-3.19623,27.05322-6.52063,54.09253-9.55323,81.16442C247.57379,678.06885,244.21277,705.88489,241.8103,733.80145ZM220.77155,428.19153c-2.41779,10.99512-7.00916,19.80078-17.33051,24.45221-1.91443.86279-2.60419,1.68829-2.60553,3.77728a361.91644,361.91644,0,0,1-3.16449,45.31226c-.23285,1.836-.00775,4.95843-2.01392,4.9544-1.88922-.00384-1.72814-3.10144-1.98181-4.981a359.11355,359.11355,0,0,1-3.19854-44.9784c-.01783-2.07861-.42237-3.13006-2.59046-4.09387-10.37207-4.61072-14.93426-13.50256-17.33118-24.43134C187.39386,436.78119,203.82947,436.819,220.77155,428.19153ZM544.071,738.70935c-20.43615-.55-40.87237-1.10858-61.311-1.55713q-18.63365-.409-37.27374-.51068c-22.99036-.12732-45.98218-.31311-68.97168-.168-27.3783.17285-54.75592.59589-82.13135,1.05585-13.07391.21936-26.14441.71429-39.21088,1.226-2.76874.10834-3.47967-.485-3.10437-3.43176,1.44171-11.3194,2.52344-22.68445,3.78-34.028.39862-3.59906.92413-7.1842,1.39166-10.77569.94794-9.06073,1.82642-18.12927,2.85822-27.1806q3.39651-29.79365,6.93121-59.5716c2.68018-22.35651,5.35913-44.71417,8.24677-67.04443q4.24648-32.838,8.92279-65.61988c3.401-24.13519,7.07013-48.23156,12.14252-72.08441.48144-2.26367.335-3.07257-2.18677-3.23651a39.35762,39.35762,0,0,1-36.44586-36.587c-.05982-1.00678.00817-1.82288-1.57044-1.81781-11.86395.03826-20.36828-5.441-24.308-16.5774-3.89307-11.004-.71985-20.50824,8.2254-28.043a3.216,3.216,0,0,0,.5097-.81512c-15.16033-8.14813-23.65-20.68665-22.566-37.93683,1.27325-20.26147,13.22576-32.22235,32.76281-37.22485-5.26794-8.09406-6.507-16.58161-2.45721-25.41077,3.98395-8.68573,11.21484-13.12042,20.87475-14.56213-2.17565-1.47412-3.90191-2.62458-5.60839-3.80353-10.06177-6.9502-13.32709-17.30695-14.30884-28.75452A159.56463,159.56463,0,0,1,263.79114,81.535a109.04189,109.04189,0,0,1,12.82995-20.68109,25.40274,25.40274,0,0,1,13.50867-9.28076h2.64087c4.71368,1.65289,8.44666,4.39136,10.30749,9.2356a28.139,28.139,0,0,1,1.46576,8.407c1.13764,17.54236,1.9524,35.11023,4.07435,52.57526a224.09579,224.09579,0,0,0,7.684,37.65289c2.97229-10.12225,8.89593-16.822,18.703-19.22846,9.92767-2.436,18.33471.86536,25.36706,8.26575,4.3722-18.71173,17.81385-31.38776,34.46778-32.891,8.9082-.8042,17.30847.681,24.99164,5.36871,10.20269,6.22467,16.21789,15.44562,18.6961,27.211,13.9856-14.74292,38.15552-10.24133,44.17053,10.81555a209.88294,209.88294,0,0,0,6.81427-31.61041c2.676-18.95679,3.65686-38.05908,4.6781-57.14831.46-8.60206,2.87-15.61524,11.83631-18.65357h2.641c7.27057,1.78729,11.96734,6.80353,16.1142,12.62567,12.957,18.1911,19.99621,38.67078,23.468,60.51306a164.18071,164.18071,0,0,1,1.48572,38.425c-1.09747,14.38422-5.97247,26.28534-20.60767,33.55707,10.2956,1.56152,17.553,6.093,21.51349,14.80273,3.95941,8.70771,2.76972,17.10975-2.54425,25.24512,19.48383,5.05487,31.53479,16.96912,32.75507,37.3606,1.03351,17.27282-7.47583,29.726-22.69818,37.91919.61389.57354,1.16082,1.09045,1.71423,1.60064,8.14862,7.51062,10.806,17.69129,7.18976,27.54963-3.58161,9.76391-12.3075,15.9793-23.33661,16.26477-2.11212.05456-2.50171.61065-2.66919,2.50708a39.2344,39.2344,0,0,1-34.77118,35.72906c-1.11444.13373-3.43292-1.07379-3.44806,1.69757,3.45429,12.9195,5.531,26.11536,7.72986,39.27789,3.3103,19.81647,5.96509,39.73267,8.46936,59.66437,2.17413,17.30561,4.09229,34.64368,6.11444,51.96826,2.15045,18.42548,4.33875,36.84687,6.42188,55.28009,2.33056,20.61927,4.56738,41.24927,6.83392,61.8758q3.50976,31.93936,6.99774,63.881c.26294,2.4021.41107,4.8222.79834,7.20367C546.50336,738.394,545.72467,738.75391,544.071,738.70935ZM734.05829,404.52686c-2.28131,1.3927-1.925,1.83062-.26709,3.46032,6.14233,6.037,7.95044,13.41492,4.92657,21.44092-3.0177,8.0094-9.12256,12.49933-17.81262,12.87329-2.24017.09625-2.81842.71112-3.02222,2.94513-1.24316,13.63428-12.366,25.28424-25.84906,27.58173-1.5603.26593-3.91021-.71332-4.60919,1.89093a355.61029,355.61029,0,0,1,6.734,35.52948c2.4845,16.82061,4.86456,33.65954,7.01392,50.52569,2.03857,15.99561,3.77728,32.03022,5.54724,48.05854,1.91748,17.36242,3.72223,34.73724,5.57,52.10723q2.51,23.59653,5.00922,47.19422,1.83527,17.20587,3.7027,34.40814c.09412.87421.09613,1.76593.273,2.62238.553,2.67578-.32691,3.20044-3.08081,2.97815q-45.51663-3.67173-91.12323-6.02723c-22.28137-1.11163-44.5777-1.93011-66.87024-2.80951-1.95929-.07745-3.05-.52014-3.23431-2.69342-.55707-6.56488-1.25592-13.11792-1.89972-19.67553-2.27912-20.74628-4.5141-41.49756-6.84937-62.23767q-4.09258-36.35047-8.33447-72.68427c-2.66858-22.80255-5.2926-45.61206-8.20966-68.38354-3.7113-28.97358-7.43078-57.94977-12.29944-86.76123a10.42369,10.42369,0,0,1-.02233-1.64148,23.975,23.975,0,0,0,10.026,3.88348c5.88665.65,11.76739,1.47852,17.67419,1.79266,10.07233.5354,20.19525.98426,29.63055-3.72827a.66893.66893,0,0,1,.3844-.402c-.02081.23151.07422.574-.332.43775.38135,1.20587-.125,2.32672-.359,3.4696-3.55958,17.39832-8.7237,34.456-11.19452,52.08179-1.0785,7.69507-2.40284,15.39874-.38221,23.19611,3.439,13.27093,12.76984,20.63629,26.4115,20.63678,9.34314.0003,18.68634-.03345,28.0293.00958,9.02338.04162,15.80243-3.97168,20.64966-11.39313,5.35748-8.20239,5.55737-17.2337,4.51233-26.62939-1.63141-14.66877-5.69226-28.814-8.64429-43.198-1.4259-6.94818-3.56647-13.75122-4.29474-20.842-.47742.04583-.44079-.2779-.40851-.59809q.20178.28024.40314.56061a38.95264,38.95264,0,0,0,10.44043,4.66516,93.119,93.119,0,0,0,36.59894,1.21356c12.82525-1.949,21.26538-8.53973,24.46344-21.45465,1.65741-6.69354,3.84186-13.25518,5.69281-19.90295.82263-2.95471,1.97693-5.588,4.861-7.08362,1.6156-.83777,1.84912-2.35827,1.8595-3.92718.035-5.27448-.021-10.54993.06067-15.82355.025-1.61475-.4494-2.19922-2.15015-2.4892-12.86218-2.19177-25.65454-4.65033-38.75092-5.3764-17.98529-.99707-35.47991.83307-52.43463,7.09418a42.32893,42.32893,0,0,1-24.57617,1.8684c-8.96692-2.05609-17.48248-5.76367-26.59039-7.31744,5.69159-7.616,9.04791-15.98975,8.38537-25.68378a32.18594,32.18594,0,0,0-3.70208-13.55194c-1.00037-1.81384-.89221-2.93451.62579-4.49145,15.89887-16.30561,19.71411-35.15912,11.37012-56.33844-.96533-2.4505.17364-3.05127,1.80658-3.94751,18.46423-10.13349,41.19854.508,46.02905,21.56219.04883.213.107.424.28571,1.12775,5.63855-5.61786,12.15026-8.37763,19.96667-6.55255,7.89313,1.8432,12.73,6.94751,15.19592,15.113,1.82038-4.39819,2.56678-8.64508,3.48114-12.82891,3.31971-15.18891,4.23145-30.65973,5.28443-46.11072.32116-4.7132.54846-9.433.8601-14.14685a24.26366,24.26366,0,0,1,.49488-3.58747c1.92486-8.76635,10.31244-11.84838,17.45581-6.4093,3.74255,2.84967,6.34363,6.69855,8.83929,10.57855,10.07154,15.6576,15.2284,32.99768,17.24665,51.35743a113.1759,113.1759,0,0,1-.57941,31.20465A26.31726,26.31726,0,0,1,712.341,311.251c-.89538.6192-1.79968,1.22516-3.10882,2.11535,1.18329.35346,2.02661.63483,2.88525.85724,12.96332,3.35919,19.19318,17.06055,12.89533,28.84845-1.30213,2.43653-.844,2.806,1.53021,3.49408,12.94385,3.752,20.98889,12.35028,23.00964,25.63819C751.6828,386.21112,746.15515,397.14221,734.05829,404.52686Zm-154.89612,23.62c17.01178,8.67987,33.44147,8.62372,50.32007.062-2.45789,11.01886-7.03406,19.87879-17.42926,24.48316-1.95642.86663-2.53064,1.78021-2.52844,3.82281a348.985,348.985,0,0,1-3.181,45.29041c-.23334,1.79736.15118,4.84222-2.06293,4.90014-1.684.044-1.63159-2.97326-1.8728-4.75213a378.88515,378.88515,0,0,1-3.28211-45.62439c-.01977-1.3982.18451-2.60773-1.67621-3.3501C586.52563,448.62061,581.921,439.49628,579.16217,428.14685Z"/></svg>