<?xml version="1.0" encoding="utf-8"?>
<!-- Generator: Adobe Illustrator 25.2.3, SVG Export Plug-In . SVG Version: 6.00 Build 0)  -->
<svg version="1.1" id="Layer_1" xmlns="http://www.w3.org/2000/svg" xmlns:xlink="http://www.w3.org/1999/xlink" x="0px" y="0px"
	 viewBox="0 0 800 800" style="enable-background:new 0 0 800 800;" xml:space="preserve">
<style type="text/css">
	.st0{fill:#29FD2E;}
</style>
<g>
	<path class="st0" d="M499.9,362.3c-30,0-53.9,27.1-53.9,60.5c0,33.3,24.4,60.5,53.9,60.5c30.3,0,53.9-27.1,53.9-60.5
		C554.3,389.7,530.1,362.3,499.9,362.3z"/>
	<path class="st0" d="M799.2,187.2c-0.2-14.4-1.2-28.8-3.9-43c-3.3-17.3-7.9-34.2-16.2-49.8C770.3,77.9,759.3,63,745.7,50
		C725,30.1,701,16,673,8.6c-25.2-6.7-50.9-8.2-76.9-8.2C596,0.3,596,0.1,596,0H203.8c0,0.1,0,0.3,0,0.4c-14.7,0.3-29.4,0.2-44.1,2
		c-16,2-31.9,5-47.1,10.6c-23.9,8.8-44.7,22.6-62.4,41C30.1,74.7,16,98.8,8.5,126.8c-6.7,25-8.2,50.5-8.2,76.2L0,596.5
		c0.5,17.8,0.6,35.6,3.6,53.3c3.2,18.7,7.7,36.9,16.4,53.8c11.7,22.9,27.7,42.3,48.1,58.1c14.6,11.4,30.5,20.4,48.1,26.1
		c25.7,8.3,52.2,11.5,79.1,11.6c16.8,0.1,33.6,0.5,50.4,0.5c122-0.5,243.9,0.9,365.9-0.8c16.2-0.2,32.1-2.2,48-5.1
		c30.4-5.6,57.3-18.6,80.4-39.1c26.8-23.9,44.9-53.2,53.1-88.5c5.3-23.1,6.7-46.5,6.9-70v-4.7C800,590,799.3,192.5,799.2,187.2z
		 M697.4,551.5c0,0.5-0.3,1-0.8,1.4c-51.3,37.7-101,60.6-150.1,75.7c-0.8,0.2-1.6,0-2.1-0.7c-11.3-15.8-21.6-32.4-30.6-49.8
		c-0.5-1,0-2.3,1-2.7c16.3-6.2,31.9-13.5,46.8-22.3c1.2-0.7,1.3-2.4,0.2-3.2c-3.2-2.4-6.3-4.8-9.3-7.3c-0.6-0.5-1.3-0.5-2-0.2
		c-97,44.8-203.3,44.8-301.5,0c-0.6-0.3-1.4-0.2-1.9,0.3c-3,2.5-6.1,4.9-9.3,7.3c-1.1,0.8-1,2.5,0.2,3.2
		c14.9,8.6,30.5,16.1,46.8,22.3c1.1,0.4,1.6,1.6,1,2.6c-8.8,17.5-19.1,34.1-30.6,49.9c-0.5,0.6-1.3,0.9-2.1,0.7
		c-48.8-15.2-98.5-38-149.8-75.7c-0.4-0.3-0.7-0.9-0.8-1.4C92,439.5,113.3,326.1,191.1,209.9c0.2-0.3,0.5-0.5,0.8-0.7
		c38.3-17.6,79.3-30.5,122.1-37.9c0.8-0.1,1.6,0.2,2,0.9c5.3,9.4,11.4,21.4,15.4,31.2c45.2-6.9,91.1-6.9,137.2,0
		c4.1-9.6,9.9-21.9,15.2-31.2c0.4-0.7,1.2-1.1,2-0.9c42.9,7.4,83.9,20.3,122.1,37.9c0.3,0.1,0.6,0.4,0.8,0.7
		C676.5,309.6,709.9,422,697.4,551.5z"/>
	<path class="st0" d="M300.5,362.3c-30,0-53.9,27.1-53.9,60.5c0,33.3,24.4,60.5,53.9,60.5c30,0,53.9-27.1,53.9-60.5
		C354.9,389.7,330.8,362.3,300.5,362.3z"/>
</g>
</svg>
