<?xml version="1.0" encoding="utf-8"?>
<!-- Generator: Adobe Illustrator 25.2.3, SVG Export Plug-In . SVG Version: 6.00 Build 0)  -->
<svg version="1.1" id="Layer_1" xmlns="http://www.w3.org/2000/svg" xmlns:xlink="http://www.w3.org/1999/xlink" x="0px" y="0px"
	 viewBox="0 0 800 800" style="enable-background:new 0 0 800 800;" xml:space="preserve">
<style type="text/css">
	.st0{fill:#29FD2E;}
</style>
<path class="st0" d="M799.2,187.2c-0.2-14.4-1.2-28.8-3.9-43c-3.3-17.3-7.9-34.2-16.2-49.8C770.3,77.9,759.3,63,745.7,50
	C725,30.1,701,16,673,8.6c-25.2-6.7-50.9-8.2-76.9-8.2C596,0.3,596,0.1,596,0H203.8c0,0.1,0,0.3,0,0.4c-14.7,0.3-29.4,0.2-44.1,2
	c-16,2-31.9,5-47.1,10.6c-23.9,8.8-44.7,22.6-62.4,41C30.1,74.7,16,98.8,8.5,126.8c-6.7,25-8.2,50.5-8.2,76.2L0,596.5
	c0.5,17.8,0.6,35.6,3.6,53.3c3.2,18.7,7.7,36.9,16.4,53.8c11.7,22.9,27.7,42.3,48.1,58.1c14.6,11.4,30.5,20.4,48.1,26.1
	c25.7,8.3,52.2,11.5,79.1,11.6c16.8,0.1,33.6,0.5,50.4,0.5c122-0.5,243.9,0.9,365.9-0.8c16.2-0.2,32.1-2.2,48-5.1
	c30.4-5.6,57.3-18.6,80.4-39.1c26.8-23.9,44.9-53.2,53.1-88.5c5.3-23.1,6.7-46.5,6.9-70v-4.7C800,590,799.3,192.5,799.2,187.2z
	 M444.8,325c0-2.8,2.2-4.7,4.7-4.7h52.9c2.8,0,4.7,2.2,4.7,4.7v47.3c0,2.8-2.2,4.7-4.7,4.7h-52.9c-2.5,0-4.5-1.9-4.7-4.7V325z
	 M371.1,189.5c0-2.8,2.2-4.7,4.7-4.7h52.9c2.5,0,4.7,2.2,4.7,4.7v47.3c0,2.8-2.2,4.7-4.7,4.7h-52.9c-2.5,0-4.7-2.2-4.7-4.7V189.5z
	 M371.1,257.4c0-2.8,2.2-4.7,4.7-4.7h52.9c2.5,0,4.7,2.2,4.7,4.7v47.3c0,2.5-2.2,4.7-4.7,4.7h-52.9c-2.5,0-4.7-2.2-4.7-4.7V257.4z
	 M371.1,325c0-2.8,2.2-4.7,4.7-4.7h52.9c2.8,0,4.7,2.2,4.7,4.7v47.3c0,2.8-2.2,4.7-4.7,4.7h-52.9c-2.5,0-4.7-1.9-4.7-4.7V325z
	 M297.9,257.4c0-2.8,2.2-4.7,4.7-4.7h52.9c2.8,0,4.7,2.2,4.7,4.7v47.3c0,2.5-2.2,4.7-4.7,4.7h-52.9c-2.8,0-4.7-2.2-4.7-4.7V257.4z
	 M297.9,325c0-2.8,2.2-4.7,4.7-4.7h52.9c2.8,0,4.7,2.2,4.7,4.7v47.3c0,2.8-2.2,4.7-4.7,4.7h-52.9c-2.8,0-4.7-1.9-4.7-4.7V325z
	 M223.6,257.4c0-2.8,2.2-4.7,4.7-4.7h52.9c2.8,0,4.7,2.2,4.7,4.7v47.3c0,2.5-2.2,4.7-4.7,4.7h-52.9c-2.5,0-4.5-2.2-4.7-4.7V257.4z
	 M223.6,325c0-2.8,2.2-4.7,4.7-4.7h52.9c2.8,0,4.7,2.2,4.7,4.7v47.3c0,2.8-2.2,4.7-4.7,4.7h-52.9c-2.5,0-4.5-1.9-4.7-4.7V325z
	 M150.7,325c0-2.8,2.2-4.7,4.7-4.7h52.9c2.8,0,4.7,2.2,4.7,4.7v47.3c0,2.8-2.2,4.7-4.7,4.7h-52.9c-2.5,0-4.5-1.9-4.7-4.7V325z
	 M697.5,359c-4.2,10-10,18.9-17.8,26.2c-11.7,11.7-32.8,25.3-67.1,25.3h-5.6c-13.6,35.1-32.3,74.6-63.7,109.9
	c-18.6,21.1-40.6,39.2-65.1,53.4c-29.8,17-62.1,28.7-95.7,34.8c-24.2,4.5-48.7,6.7-73.2,6.7c-54.3,0-102.4-10.3-131.9-28.4
	c-26.2-16.1-46.5-42.6-60.1-78.2c-12-32.6-17.8-67.1-17.3-101.6c0-10.3,8.3-18.6,18.6-18.6h395.2c5-0.3,28.9-2.2,43.7-10.6
	c-12.2-19.5-15.9-42.3-10-66.5c3.1-12.5,8.3-24.8,15.3-35.6l5.6-8.1l8.6,5c1.4,1.1,36.7,21.7,42.9,64.3c8.3-1.4,17-2.2,25.3-2.2
	c32.3,0,47.3,11.4,49,12.8l5.8,4.2L697.5,359z"/>
</svg>
