<?xml version="1.0" encoding="utf-8"?>
<!-- Generator: Adobe Illustrator 25.2.3, SVG Export Plug-In . SVG Version: 6.00 Build 0)  -->
<svg version="1.1" id="Layer_1" xmlns="http://www.w3.org/2000/svg" xmlns:xlink="http://www.w3.org/1999/xlink" x="0px" y="0px"
	 viewBox="0 0 800 800" style="enable-background:new 0 0 800 800;" xml:space="preserve">
<style type="text/css">
	.st0{fill:#29FD2E;}
</style>
<path class="st0" d="M616.4,0H183.6v0c-0.3,0-0.5,0-0.8,0C81.6,0.2-0.2,82.4,0,183.6v432.8c0,0.3,0,0.5,0,0.8
	c0.2,101.2,82.4,183,183.6,182.8h432.8c0.3,0,0.5,0,0.8,0c101.2-0.2,183-82.4,182.8-183.6V183.6c0-0.3,0-0.5,0-0.8
	C799.8,81.6,717.6-0.2,616.4,0z M175.3,227.5L175.3,227.5l459.7,0c5.4,0,10.8,1.3,15.6,3.9L577,307.3l-76.4,78.6L425,463.9
	c-3,2.3-4.1,4.1-6.7,5.4c-3.4,1.7-7.3,2.8-11.2,2.6c-3.5-0.1-7-1.6-10.1-3.2c-2.5-1.2-5.6-4.2-6.7-4.8L325,397l-4.4-4.7l-2.2-2.2
	l-2.2-2.2l-1.4-1.7l-76.1-78.9l-75.3-77.5C167.1,228.3,171.1,227.5,175.3,227.5z M139.2,523.3V268.9c0-12.9,5-24.3,13.1-31.9
	l0.6,0.6l76.4,78.9l76.4,78.6l1.4,1.7l-69.7,67.5l-78.6,76.4l-10.6,10C142.5,543.3,139.2,533.8,139.2,523.3z M635,565H175.3
	c-6.5,0-12.5-2.2-17.8-5.6l10-9.7l78.9-76.4l69.4-67.5l0,0l66.1,67.8c3.2,2.7,4.7,4.1,7.5,5.4c5.5,2.7,11.5,5.1,17.7,5.2
	c6.1,0.1,12.2-2.1,17.8-4.6c3.4-1.6,5.8-4.2,9.3-6.5l65.3-67.2l72.5,70l78.9,76.4l5,5C649.9,562,642.8,565,635,565z M671.1,523.3
	c0,9-2.4,17.4-6.7,24.2l-4.7-4.4l-78.6-76.4l-72.5-70.3l1.4-1.4l76.1-78.6l74.4-76.9h0c6.6,7.5,10.6,17.9,10.6,29.4V523.3z"/>
</svg>
