<?xml version="1.0" encoding="utf-8"?>
<!-- Generator: Adobe Illustrator 25.2.3, SVG Export Plug-In . SVG Version: 6.00 Build 0)  -->
<svg version="1.1" id="Layer_1" xmlns="http://www.w3.org/2000/svg" xmlns:xlink="http://www.w3.org/1999/xlink" x="0px" y="0px"
	 viewBox="0 0 800 800" style="enable-background:new 0 0 800 800;" xml:space="preserve">
<style type="text/css">
	.st0{fill:#29FD2E;}
</style>
<desc>Created with Sketch.</desc>
<g>
	<path class="st0" d="M378.1,146.1c7.8,0,10.4-5.5,6.3-12.8c-3.4-6.5-9.4-7-12.5-1.3C368,139,371.1,146.1,378.1,146.1z"/>
	<path class="st0" d="M376,348.2c-0.5-0.3-5.5,0.3-11.2,1.3c-5.7,1-22.1,2.1-36.5,2.3h-26.1l-5.7,8.9c-3.6,5.7-4.7,9.9-3.1,12.2
		c1.3,2.1,2.3,6.3,2.3,9.4c0,5.5,0.5,5.7,29.4,4.2c32.8-1.6,33.3-1.8,45.3-25C373.9,354.5,376.6,348.5,376,348.2z"/>
	<path class="st0" d="M324.7,413.9c0.3,9.6,1,20.3,2.1,24c1.8,6,2.6,5.5,9.9-9.1c4.4-8.6,9.9-20.1,12-25.5l4.2-9.6l-7,0.3
		C323.9,395.1,324.4,394.9,324.7,413.9z"/>
	<path class="st0" d="M616.4,0H182.8C81.6,0.2-0.2,82.4,0,183.6v433.6c0.2,101.2,82.4,183,183.6,182.8h433.6
		c101.2-0.2,183-82.4,182.8-183.6V182.8C799.8,81.6,717.6-0.2,616.4,0z M261.4,615c-1,0-2.1-4.2-2.1-9.1c0-9.4,11.5-38,40.4-100.6
		l17.5-37.5l-1-34.4c-0.8-19-1.8-35.2-2.6-36s-6.8-1.6-13.3-1.8c-10.4-0.5-12.2-1.3-12.2-6c0-2.9-1.6-7.6-3.6-10.4
		c-5.5-8.3-3.9-13.3,7.6-26.6l10.9-12.5l32.8-0.3c50.5-0.8,41.7,7.3,85.2-77.1c20.8-40.1,41.9-82.3,47.2-93.3l9.6-20.3l-12.5-9.4
		c-6.8-5.2-27.9-25.8-46.9-45.9c-32.8-34.9-34.7-36.2-38.6-31.5c-2.6,2.6-12,10.4-21.4,17.5c-33.3,24.5-55,43.8-64.3,56.5
		c-9.6,13-9.6,13.3-8.9,36.2c1,32.3,19,132.3,26.1,144.1c4.4,7.6,4.7,9.6,1.8,10.7c-2.1,0.8-3.4,2.9-2.6,5c0.8,1.8-0.5,3.9-2.9,5
		c-2.3,0.8-4.4,0-5-1.8c-0.5-1.6-5.2-16.7-10.2-33.1c-13.5-43-13.3-41.7-8.3-41.7c2.9,0,3.9-1.6,2.9-4.7c-0.8-2.3-3.1-18.5-5.5-35.7
		c-2.1-17.2-5.5-41.7-7.3-54.2l-3.4-22.9l18.5-17.5c23.4-22.4,53.1-48.5,72.4-63.8c15.9-12.8,24.8-15.1,30.7-7.8
		c2.1,2.3,24.8,23.2,50.5,46.1c28.7,25.3,46.6,43.2,46.1,45.6c-0.5,2.1-7.6,16.7-15.4,32.6c-7.8,15.9-54.5,112.5-103.7,215.2
		C264,614.8,264,615,261.4,615z M363.5,139.3c0-8.6,1.3-12,6-15.4c8.3-5.7,15.1-3.9,21.9,6.3c7.8,11.7,7.6,13.5-3.1,20.8
		c-8.1,5.5-9.9,5.7-16.9,2.9C364.3,151,363.5,149.5,363.5,139.3z M529.5,205.5c-6.3,12.5-20.6,43.5-31.5,68.8
		c-18.8,42.7-19.8,46.6-17.5,56c2.9,12,6.8,39.6,6,45.1c-1,8.9,8.3,100.3,18.2,178.5c5.7,45.9,10.4,85.5,10.4,88.1
		c-0.3,5.7-96.9,107.1-103.2,108.1c-4.2,0.8-19.5-11.2-52.4-41.2c-7.3-6.5-24-20.8-37-32.3c-22.7-19.5-23.7-20.8-22.9-30.2
		c0.5-5.5,5.7-18.5,12.5-30.5c6.5-11.5,28.9-54.2,49.8-95.1c37-71.9,38-74.5,36.5-86.2c-1.6-10.2-1-12.2,2.6-12.2
		c2.6,0,4.2,2.3,4.2,5.7c0.3,6.5,104.5-199.6,114.9-226.7c3.4-8.9,7.8-16.2,9.4-16.2c1.8,0,3.4-1.3,3.4-2.6c0-1.6,1.8-2.6,3.9-2.6
		s3.9,0.5,3.9,1.3C540.7,182,535.5,193,529.5,205.5z"/>
	<path class="st0" d="M467.2,343c-0.5-0.3-13,24-28.1,54.2l-27.4,54.7v93.3c0,51.3-0.8,93.5-1.8,93.5c-8.3,1.8-8.6,1.6-7.6-82.1
		c0.5-56,0-82.3-1.8-81.3c-1.6,0.8-9.9,15.4-19,32.3c-8.9,16.7-28.1,52.1-42.7,78.7c-14.6,26.6-27.9,50.8-29.4,53.7
		c-2.9,5.2,1,9.6,47.9,52.9l50.8,47.4l9.9-7.8c10.7-8.3,41.9-40.9,71.4-74c16.9-18.8,18-20.6,16.4-29.7
		c-2.6-18.2-12-89.9-20.1-154.5c-4.2-35.2-9.9-78.9-12.8-97.2C470.3,358.7,467.7,343.3,467.2,343z"/>
</g>
</svg>
