<?xml version="1.0" encoding="utf-8"?>
<!-- Generator: Adobe Illustrator 25.2.3, SVG Export Plug-In . SVG Version: 6.00 Build 0)  -->
<svg version="1.1" id="Layer_1" xmlns="http://www.w3.org/2000/svg" xmlns:xlink="http://www.w3.org/1999/xlink" x="0px" y="0px"
	 viewBox="0 0 800 800" style="enable-background:new 0 0 800 800;" xml:space="preserve">
<style type="text/css">
	.st0{fill:#29FD2E;}
</style>
<path class="st0" d="M799.2,187.2c-0.2-14.4-1.2-28.8-3.9-43c-3.3-17.3-7.9-34.2-16.2-49.8C770.3,77.9,759.3,63,745.7,50
	C725,30.1,701,16,673,8.6c-25.2-6.7-50.9-8.2-76.9-8.2c-0.1-0.1-0.1-0.3-0.1-0.4H203.8c0,0.1,0,0.3,0,0.4c-14.7,0.3-29.4,0.2-44.1,2
	c-16,2-31.9,5-47.1,10.6c-23.9,8.8-44.7,22.6-62.4,41C30.1,74.7,16,98.8,8.5,126.8c-6.7,25-8.2,50.5-8.2,76.2L0,596.5v0
	c0.5,17.8,0.6,35.6,3.6,53.3c3.2,18.7,7.7,36.9,16.4,53.8c11.7,22.9,27.7,42.3,48.1,58.1c14.6,11.4,30.5,20.4,48.1,26.1
	c25.7,8.3,52.2,11.5,79.1,11.6c16.8,0.1,33.6,0.5,50.4,0.5c122-0.5,243.9,0.9,365.9-0.8c16.2-0.2,32.1-2.2,48-5.1
	c30.4-5.6,57.3-18.6,80.4-39.1c26.8-23.9,44.9-53.2,53.1-88.5c5.3-23.1,6.7-46.5,6.9-70v-4.7C800,590,799.3,192.5,799.2,187.2z
	 M609.1,632.2c-50.6,46.7-119.8,74.3-202.6,74.3c-119.8,0-223.2-69-273.6-169.1C112,496,100,449.6,100,400c0-49.6,12-96,33-137.4
	C183.3,162.5,286.7,93.5,406.5,93.5c82.8,0,152,30.4,204.9,79.9L524,260.8c-31.9-30.4-72.3-46-117.5-46
	c-79.9,0-147.6,53.9-171.9,126.7c-6.1,18.4-9.7,38.1-9.7,58.5c0,20.4,3.3,40.1,9.7,58.5c24.3,72.8,92,126.7,171.9,126.7
	c41.4,0,76.4-11.2,104-29.6c32.2-21.7,53.9-53.6,61.3-91.4H406.5V348.9h288.6c3.1,18.6,4.9,37.8,4.9,58
	C700,500.1,666.8,578.8,609.1,632.2z"/>
</svg>
