<?xml version="1.0" encoding="utf-8"?>
<!-- Generator: Adobe Illustrator 25.2.3, SVG Export Plug-In . SVG Version: 6.00 Build 0)  -->
<svg version="1.1" id="Artwork" xmlns="http://www.w3.org/2000/svg" xmlns:xlink="http://www.w3.org/1999/xlink" x="0px" y="0px"
	 viewBox="0 0 800 800" style="enable-background:new 0 0 800 800;" xml:space="preserve">
<style type="text/css">
	.st0{fill:#29FD2E;}
</style>
<path class="st0" d="M799.2,187.2c-0.2-14.4-1.2-28.8-3.9-43c-3.3-17.3-7.9-34.2-16.2-49.8C770.3,77.9,759.3,63,745.7,50
	C725,30.1,701,16,673,8.6c-25.2-6.7-50.9-8.2-76.9-8.2c-0.1-0.1-0.1-0.3-0.1-0.4H203.8c0,0.1,0,0.3,0,0.4c-14.7,0.3-29.4,0.2-44.1,2
	c-16,2-31.9,5-47.1,10.6c-23.9,8.8-44.7,22.6-62.4,41C30.1,74.7,16,98.8,8.5,126.8c-6.7,25-8.2,50.5-8.2,76.2L0,596.5v0
	c0.5,17.8,0.6,35.6,3.6,53.3c3.2,18.7,7.7,36.9,16.4,53.8c11.7,22.9,27.7,42.3,48.1,58.1c14.6,11.4,30.5,20.4,48.1,26.1
	c25.7,8.3,52.2,11.5,79.1,11.6c16.8,0.1,33.6,0.5,50.4,0.5c122-0.5,243.9,0.9,365.9-0.8c16.2-0.2,32.1-2.2,48-5.1
	c30.4-5.6,57.3-18.6,80.4-39.1c26.8-23.9,44.9-53.2,53.1-88.5c5.3-23.1,6.7-46.5,6.9-70v-4.7C800,590,799.3,192.5,799.2,187.2z
	 M369.7,649.9H218l-20.7,0c-1.8,0-3.6,0-5.4,0c-1.5,0-3,0-4.6-0.1c-3.3-0.1-6.7-0.3-9.9-0.9c-3.3-0.6-6.4-1.6-9.4-3.1
	c-3-1.5-5.7-3.5-8-5.8c-2.4-2.4-4.3-5.1-5.8-8c-1.5-3-2.5-6.1-3.1-9.4c-0.6-3.3-0.8-6.6-0.9-9.9c0-1.5-0.1-3-0.1-4.6
	c0-1.8,0-3.6,0-5.4l0-20.7V430.2c0-2.6,2.1-4.2,4.2-4.2c1.4,0,2.8,0.7,3.6,2.3c47.5,92.7,121.1,166.2,213.8,213.8
	C375.4,644.1,374,649.9,369.7,649.9z M649.9,603.4c0,1.5,0,3.1,0,4.6c0,1.5,0,3-0.1,4.6c-0.1,3.3-0.3,6.7-0.9,9.9
	c-0.6,3.3-1.6,6.4-3.1,9.5c-1.5,3-3.5,5.7-5.9,8.1c-2.4,2.4-5.1,4.3-8.1,5.9c-3,1.5-6.1,2.5-9.5,3.1c-3.3,0.6-6.6,0.8-10,0.9
	c-1.5,0-3,0.1-4.6,0.1c-1.8,0-3.6,0-5.4,0h-62.4c-12.7,0-19.2-2.4-28.8-11.9L161.9,288.5c-9.4-9.4-11.9-16-11.9-28.8v-62.4v-0.8
	c0-1.5,0-3.1,0-4.6c0-1.5,0-3,0.1-4.6c0.1-3.3,0.3-6.7,0.9-9.9c0.6-3.3,1.6-6.4,3.1-9.5c1.5-3,3.5-5.7,5.9-8.1
	c2.4-2.4,5.1-4.3,8.1-5.9c3-1.5,6.1-2.5,9.5-3.1c3.3-0.6,6.6-0.8,10-0.9c1.5,0,3-0.1,4.6-0.1c1.8,0,3.6,0,5.4,0v0h62.4
	c12.7,0,19.2,2.4,28.8,11.9L638,511.3c9.4,9.4,11.9,16,11.9,28.8V603.4z M649.9,369.7c0,4.4-5.9,5.8-7.9,1.9
	C594.6,278.9,521,205.3,428.3,157.8c-3.9-2-2.5-7.9,1.9-7.9h151.7l20.7,0c1.8,0,3.6,0,5.4,0c1.5,0,3,0,4.6,0.1
	c3.3,0.1,6.7,0.3,9.9,0.9c3.3,0.6,6.4,1.6,9.4,3.1c3,1.5,5.7,3.5,8,5.8c2.4,2.4,4.3,5.1,5.8,8c1.5,3,2.5,6.1,3.1,9.4
	c0.6,3.3,0.8,6.6,0.9,9.9c0,1.5,0.1,3,0.1,4.6c0,1.8,0,3.6,0,5.4l0,20.7V369.7z"/>
</svg>
