<?xml version="1.0" encoding="UTF-8" standalone="no"?>
<!-- Generator: Adobe Illustrator 25.2.3, SVG Export Plug-In . SVG Version: 6.00 Build 0)  -->

<svg
   version="1.1"
   id="Layer_1"
   x="0px"
   y="0px"
   viewBox="0 0 640000 640000"
   xml:space="preserve"
   width="640000"
   height="640000"
   xmlns="http://www.w3.org/2000/svg"
   xmlns:svg="http://www.w3.org/2000/svg"><defs
   id="defs1" />
<style
   type="text/css"
   id="style1">
	.st0{fill:#29FD2E;}
</style>

<g
   id="layer1"
   style="display:inline"><path
     id="path1"
     style="display:inline"
     class="st0"
     d="m 203.80078,0 v 0.40039062 c -14.7,0.3 -29.40156,0.20000001 -44.10156,1.99999998 C 143.69922,4.4003906 127.79961,7.4 112.59961,13 88.699609,21.8 67.899219,35.6 50.199219,54 30.099219,74.7 16,98.800781 8.5,126.80078 1.8,151.80078 0.30078125,177.3 0.30078125,203 L 0,596.5 c 0.5,17.8 0.59960938,35.60078 3.5996094,53.30078 3.2,18.7 7.7003906,36.89883 16.4003906,53.79883 11.7,22.9 27.699609,42.29961 48.099609,58.09961 14.6,11.4 30.49961,20.40156 48.099611,26.10156 25.7,8.3 52.20156,11.49961 79.10156,11.59961 16.8,0.1 33.59844,0.5 50.39844,0.5 122,-0.5 243.90039,0.89922 365.90039,-0.80078 16.2,-0.2 32.1,-2.19961 48,-5.09961 30.4,-5.6 57.30039,-18.59961 80.40039,-39.09961 26.8,-23.9 44.89961,-53.2 53.09961,-88.5 5.3,-23.1 6.70039,-46.5 6.90039,-70 v -4.70117 c 0,-1.7 -0.70078,-399.2 -0.80078,-404.5 -0.2,-14.4 -1.19844,-28.8 -3.89844,-43 -3.3,-17.3 -7.90117,-34.19883 -16.20117,-49.798829 C 770.29961,77.900391 759.29922,63 745.69922,50 724.99922,30.1 701,15.999609 673,8.5996094 647.8,1.8996094 622.09961,0.40039062 596.09961,0.40039062 595.99961,0.30039062 596,0.1 596,0 Z m 194.25391,91.40625 a 303.09617,303.09617 0 0 1 149.46484,39.41602 h 0.0312 C 640.03487,183.40584 697.0312,280.518 697.0312,385.6543 c 0,30.70461 -4.78256,60.32933 -13.66992,88.16406 a 41.104063,41.104063 0 0 1 34.71679,12.34375 43.511057,43.511057 0 0 1 6.17188,53.16992 c 6.29522,5.09172 10.86175,11.88176 13.20703,19.50391 l 0.52539,1.91211 c 1.85154,6.85067 3.70298,21.29358 -6.17187,35.98242 7.52957,11.41779 8.60889,25.79706 2.86914,38.14062 -7.86902,17.58958 -27.55722,31.41507 -65.66797,46.28907 l -6.23242,2.40625 -4.04297,1.48242 c -14.75056,5.33859 -27.46532,9.10354 -32.74219,10.64648 l -2.6543,0.74024 c -27.46442,7.49871 -55.79105,11.57188 -84.30468,12.1582 -40.73376,0 -70.97608,-11.11049 -90.20118,-32.92773 a 304.02194,304.02194 0 0 1 -98.13086,0.55664 c -19.25595,21.47779 -49.37483,32.37109 -89.73828,32.37109 a 347.13183,347.13183 0 0 1 -78.41211,-10.58398 l -6.82031,-1.85157 -8.42383,-2.46875 A 511.45551,511.45551 0 0 1 131.04883,681.19141 C 92.876361,666.28655 73.18738,652.49153 65.318359,634.87109 59.578603,622.52753 60.65988,608.11741 68.189453,596.73047 a 43.819647,43.819647 0 0 1 -6.171875,-35.98242 c 2.129265,-8.42448 6.973151,-15.92313 13.792969,-21.41602 a 43.511057,43.511057 0 0 1 6.171875,-53.13867 c 7.190125,-7.65301 17.189622,-12.06681 28.298828,-12.56055 l 2.40625,-0.0293 A 289.61083,289.61083 0 0 1 99.109375,385.6543 c 0,-105.1363 56.996325,-202.24846 149.480465,-254.83203 A 303.09617,303.09617 0 0 1 398.05469,91.40625 Z m 0.0469,30.375 C 250.04053,121.78125 130,239.9401 130,385.625 c 0,21.35436 2.5614,42.08976 7.40625,61.96289 l 0.24609,-0.27734 c 7.77645,-9.19596 18.88496,-14.19532 31.38282,-14.19532 10.95491,0.24688 21.57201,3.61142 30.64453,9.62891 6.78896,4.32025 14.34777,11.84976 22.0625,21.41602 8.05417,-11.47952 21.29318,-18.45391 35.48828,-18.66993 26.29179,0 42.18368,22.46516 48.20117,42.67774 l 1.45117,3.24023 1.85157,3.91992 c 5.9249,12.22013 18.3608,35.14713 35.27148,51.8418 32.71044,32.09326 40.85757,65.26656 24.6875,100.78516 a 273.5642,273.5642 0 0 0 62.45898,-0.43164 c -15.58374,-34.56198 -8.02492,-66.96376 22.83399,-98.31641 l 2.03711,-2.03711 c 21.44694,-21.10749 35.70317,-52.15127 38.63476,-59.00195 6.01749,-20.21258 21.84884,-42.67774 48.14063,-42.67774 14.19509,0.21602 27.4341,7.19041 35.48828,18.66993 7.71473,-9.56626 15.27471,-17.06491 22.15625,-21.41602 a 57.706154,57.706154 0 0 1 30.55078,-9.62891 c 11.01663,0 21.04621,3.8884 28.54492,11.10938 4.32025,-18.82393 6.63477,-38.41945 6.63477,-58.57031 0,-145.71576 -120.0421,-263.84375 -268.07227,-263.84375 z m 92.66992,138.67773 c 3.77636,-0.003 7.5903,0.54162 11.32422,1.66797 14.90485,4.5054 25.61253,17.40492 27.09375,32.71094 1.48123,15.27516 -6.542,29.93292 -20.33593,37.12305 -9.93657,5.18429 -13.79312,-14.71998 -23.66797,-18.05274 l 0.0625,-0.0918 c -8.85651,-3.02418 -23.82351,11.17057 -28.54493,2.4375 a 37.493571,37.493571 0 0 1 4.32032,-41.96875 h 0.0312 c 7.40613,-8.88737 18.38772,-13.8175 29.71679,-13.82618 z m -194.25586,0.0234 a 38.943939,38.943939 0 0 1 31.13477,13.80274 c 9.93657,11.84982 11.63387,28.39083 4.32031,41.96875 -4.69055,8.73307 -19.75013,-5.46168 -28.54492,-2.4375 l 0.0937,0.0918 c -3.33276,1.11092 -5.98793,4.13521 -8.42578,7.40625 l -3.64063,5.0918 c -3.39447,4.62884 -6.78796,8.08512 -11.63281,5.55469 a 37.833019,37.833019 0 0 1 -20.30664,-37.1543 c 1.48123,-15.27516 12.1889,-28.17429 27.09375,-32.67969 a 38.943939,38.943939 0 0 1 9.9082,-1.64453 z m -75.85351,39.75586 c 13.82479,0 25.05859,11.04591 25.05859,24.68555 0,13.60878 -11.2338,24.6875 -25.05859,24.6875 a 24.872278,24.872278 0 0 1 -25.08789,-24.6875 c 0,-13.63964 11.23224,-24.68555 25.08789,-24.68555 z m 358.70508,0 c 13.88651,0 25.08789,11.04591 25.08789,24.68555 0,13.60878 -11.23224,24.6875 -25.08789,24.6875 a 24.872278,24.872278 0 0 1 -25.0586,-24.6875 c 0,-13.63964 11.23381,-24.68555 25.0586,-24.68555 z m -90.28125,83.54492 c 4.73298,0.1273 7.33203,3.33704 7.33203,11.5918 0,33.72878 -23.79174,98.99573 -97.35938,100.66211 h -5.67773 c -71.74696,-1.60466 -96.15627,-63.56888 -97.39063,-97.97656 l -0.0312,-2.68555 c 0,-34.16081 44.80671,18.08398 100.29102,18.08398 22.09498,0 42.55416,-8.39426 59.15625,-16.23242 l 13.54687,-6.54101 c 8.53249,-4.07338 15.39983,-7.02964 20.13282,-6.90235 z m -319.65821,79.68555 c -8.49423,-0.22434 -13.13435,7.02705 -10.48242,21.64453 3.85737,21.20007 72.73349,72.51853 66.03711,83.53516 -5.86319,9.72055 -24.56335,-7.37585 -29.2539,-11.91211 l -1.26563,-1.23438 -5.18359,-4.53515 c -17.31185,-14.78142 -71.09825,-58.63338 -84.55274,-44.19141 -13.269327,14.1951 3.67075,26.50847 32.55469,43.82031 l 24.19336,14.41211 4.19727,2.56055 c 32.24755,19.84228 34.56242,25.92122 29.3164,34.3457 -5.80147,9.10338 -94.73645,-64.80343 -103.068358,-33.41992 -8.331905,31.19835 90.785848,40.23939 84.675778,61.90234 -6.17178,21.60124 -69.89473,-40.85627 -82.855466,-16.57031 -13.115035,24.37854 89.891416,53.01446 90.724606,53.23047 l 4.9375,1.23438 5.40039,1.29687 c 37.86388,8.76393 110.01213,20.0584 136.85938,-18.63867 20.76804,-30.02572 19.75036,-52.73714 -7.65234,-80.54102 l -1.7598,-1.75972 c -29.16167,-28.63707 -46.13281,-70.60547 -46.13281,-70.60547 l -0.52539,-1.78906 -0.77149,-2.22266 c -2.53043,-6.78896 -8.76422,-19.71872 -19.4414,-18.02148 -14.1951,2.2527 -24.62535,37.3394 3.70312,59.65039 l 1.54297,1.17187 c 30.14915,22.24927 -6.01697,37.33914 -17.68164,16.47852 l -1.79102,-3.20899 -4.41211,-7.71484 c -14.28767,-24.65627 -39.56154,-65.1431 -53.66406,-73.96875 -5.13029,-3.20161 -9.78742,-4.84725 -13.64844,-4.94922 z m 462.03907,0 c -4.02579,-0.13384 -8.99765,1.51231 -14.51368,4.94922 -16.44779,10.33773 -48.23337,64.0011 -59.86718,84.89258 a 18.916509,18.916509 0 0 1 -21.19922,9.32031 13.454483,13.454483 0 0 1 -5.43164,-3.02344 9.3502485,9.3502485 0 0 1 -1.51172,-1.85156 l -0.43164,-0.86524 -0.24805,-0.61718 -0.21484,-0.58594 -0.0937,-0.40039 -0.0918,-0.52539 a 8.9182238,8.9182238 0 0 1 -0.12305,-1.48047 c 0,-3.70307 2.1911,-8.20945 7.71485,-13.17773 0.80233,-0.74062 1.66603,-1.45041 2.5918,-2.16016 l 1.45117,-1.11133 c 0.67889,-0.49374 1.32618,-0.98712 1.94336,-1.51172 27.24841,-21.90982 17.6826,-55.85434 4.04297,-59.15625 l -0.95704,-0.18554 -1.72851,-0.12305 a 11.356077,11.356077 0 0 0 -1.91211,0.18555 l -0.86524,0.15429 -1.29492,0.43164 -1.20508,0.52539 -0.86328,0.46289 -0.86328,0.58594 -1.11133,0.83203 -0.71093,0.61719 c -5.33859,4.87571 -8.42463,13.20865 -9.56641,16.72656 l -0.49219,1.66602 c 0,0 -16.3555,40.39496 -44.40625,68.93945 l -1.66601,1.66602 c -11.2635,11.04749 -18.39302,21.29234 -21.66407,31.41406 -4.41282,13.48534 -2.03658,26.78538 6.48047,41.75195 1.69724,2.99332 3.61136,6.01802 5.77149,9.13477 27.21755,39.3451 101.27869,27.03268 138.67969,18.20703 l 8.82617,-2.16016 7.71289,-2.2832 c 8.51706,-2.59215 22.71272,-7.19032 37.03125,-12.96094 l 5.80273,-2.37695 2.00586,-0.86328 1.97461,-0.86524 3.82617,-1.72656 2.5,-1.17383 c 16.32436,-7.77644 29.74806,-16.7556 30.67383,-25.51953 l 0.0293,-1.11133 a 9.2268129,9.2268129 0 0 0 -1.14063,-4.28906 c -2.90073,-5.43117 -8.36338,-6.54334 -15.15234,-5.18555 l -1.38867,0.3086 c -1.35779,0.30859 -2.77776,0.74063 -4.19727,1.23437 l -2.99219,1.08008 -1.66601,0.67969 c -17.25013,7.09755 -38.20486,21.75588 -49.5918,22.99023 h 0.18555 a 13.948226,13.948226 0 0 1 -1.54297,0.0918 h -0.74024 l -0.74023,-0.0918 -0.71094,-0.15429 c -2.0984,-0.49375 -3.5797,-1.85239 -4.32031,-4.38282 a 6.7889593,6.7889593 0 0 1 -0.1543,-3.08593 c 1.91326,-10.64633 29.56286,-18.36148 52.86133,-28.08203 l 2.03711,-0.86329 c 16.2935,-6.91239 29.9336,-14.90407 30.39649,-25.67382 v -1.23438 a 14.503686,14.503686 0 0 0 -0.49415,-3.02539 c -1.48122,-5.5546 -5.40047,-7.74414 -11.10937,-7.74414 -24.22424,0 -78.68963,41.9668 -90.10742,41.9668 -0.77147,0 -1.48048,-0.21564 -1.78906,-0.74024 a 18.515344,18.515344 0 0 1 -1.41993,-2.71484 c -3.08589,-7.34442 2.09891,-14.25771 32.71094,-32.89649 l 6.44922,-3.88867 c 16.60209,-9.87485 31.16656,-18.14386 41.38086,-25.64258 8.94908,-6.54208 14.65743,-12.52899 15.52148,-18.51562 l 0.0937,-0.86328 c 0.24687,-3.48706 -1.17348,-7.0067 -4.53711,-10.61719 a 8.208469,8.208469 0 0 0 -2.16015,-1.66601 l -1.04883,-0.4629 -0.40039,-0.15429 a 12.436139,12.436139 0 0 0 -4.01172,-0.61719 c -4.99914,0 -11.38721,2.16021 -18.36133,5.55469 -19.65712,9.65884 -44.15839,29.37828 -56.34765,39.65429 l -7.68555,6.63477 -1.01758,1.01758 c -2.46871,2.40699 -8.88681,8.33247 -15.21289,11.91211 l -2.19141,1.14258 -1.26562,0.58593 a 16.509515,16.509515 0 0 1 -3.76367,1.10938 h 0.15429 a 10.677181,10.677181 0 0 1 -0.64843,0.0625 l -0.40235,0.0312 c -2.43785,0.15429 -4.47463,-0.64808 -5.86328,-2.93164 a 3.4870564,3.4870564 0 0 1 -0.43164,-2.00586 c 0.83319,-14.34939 62.76685,-61.44015 66.4082,-81.5293 l 0.2793,-1.48047 c 2.02512,-13.16325 -2.21089,-19.90855 -9.89648,-20.16406 z" /></g></svg>
