<?xml version="1.0" encoding="UTF-8" standalone="no"?>
<!-- Generator: Adobe Illustrator 25.2.3, SVG Export Plug-In . SVG Version: 6.00 Build 0)  -->

<svg
   version="1.1"
   id="Layer_1"
   x="0px"
   y="0px"
   viewBox="0 0 800 800"
   xml:space="preserve"
   width="800"
   height="800"
   xmlns="http://www.w3.org/2000/svg"
   xmlns:svg="http://www.w3.org/2000/svg">
  <defs id="defs1" />

  <g
   id="layer1"
   style="display:inline">
   <path
     id="path1"
     style="display:inline"
     fill="#29FD2E"
     d="m 203.80078,0 v 0.40039062 c -14.7,0.3 -29.40156,0.20000001 -44.10156,1.99999998 C 143.69922,4.4003906 127.79961,7.4 112.59961,13 88.699609,21.8 67.899219,35.6 50.199219,54 30.099219,74.7 16,98.800781 8.5,126.80078 1.8,151.80078 0.30078125,177.3 0.30078125,203 L 0,596.5 c 0.5,17.8 0.59960938,35.60078 3.5996094,53.30078 3.2,18.7 7.7003906,36.89883 16.4003906,53.79883 11.7,22.9 27.699609,42.29961 48.099609,58.09961 14.6,11.4 30.49961,20.40156 48.099611,26.10156 25.7,8.3 52.20156,11.49961 79.10156,11.59961 16.8,0.1 33.59844,0.5 50.39844,0.5 122,-0.5 243.90039,0.89922 365.90039,-0.80078 16.2,-0.2 32.1,-2.19961 48,-5.09961 30.4,-5.6 57.30039,-18.59961 80.40039,-39.09961 26.8,-23.9 44.89961,-53.2 53.09961,-88.5 5.3,-23.1 6.70039,-46.5 6.90039,-70 v -4.70117 c 0,-1.7 -0.70078,-399.2 -0.80078,-404.5 -0.2,-14.4 -1.19844,-28.8 -3.89844,-43 -3.3,-17.3 -7.90117,-34.19883 -16.20117,-49.798829 C 770.29961,77.900391 759.29922,63 745.69922,50 724.99922,30.1 701,15.999609 673,8.5996094 647.8,1.8996094 622.09961,0.40039062 596.09961,0.40039062 595.99961,0.30039062 596,0.1 596,0 Z m 194.5957,166.70898 c 124.13911,0 224.80469,99.0635 224.80469,221.26172 0,16.89061 -1.9237,33.33957 -5.5664,49.14649 -6.29034,-6.07622 -14.67746,-9.34571 -23.9336,-9.34571 l -4.55469,0.31055 c -7.53064,0.90575 -14.75205,3.57136 -21.0664,7.76367 -5.7709,3.64887 -12.11046,9.93666 -18.58008,17.95899 -6.75429,-9.6268 -17.85566,-15.4751 -29.75977,-15.65625 -22.04847,0 -35.32478,18.8406 -40.37109,35.79101 -2.45846,5.74503 -14.41484,31.77763 -32.40039,49.47852 l -3.90625,3.98633 c -24.05141,25.60311 -29.65315,52.01248 -16.95312,80.1875 -9.08134,1.09934 -18.33003,1.66601 -27.7129,1.66601 v -0.0273 c -8.33101,0 -16.5562,-0.44545 -24.65234,-1.31445 12.88899,-28.29627 7.33669,-54.81076 -16.80664,-80.51172 l -3.90625,-3.98633 c -17.9079,-17.70089 -29.89115,-43.73349 -32.34961,-49.47852 -5.0463,-16.95041 -18.3734,-35.79101 -40.42187,-35.79101 -11.90411,0.18115 -23.00548,6.02945 -29.75977,15.65625 -6.46962,-8.02233 -12.81064,-14.31012 -18.50391,-17.95899 a 48.392771,48.392771 0 0 0 -25.69726,-8.07422 c -10.48079,0 -19.79698,4.19251 -26.31836,11.9043 a 37.653199,37.653199 0 0 0 -0.18945,0.23047 c -4.07196,-16.65757 -6.22852,-34.04836 -6.22852,-51.93555 0,-122.19822 100.66897,-221.26172 224.83398,-221.26172 z m -85.1914,116.28907 a 32.658651,32.658651 0 0 0 -8.3086,1.38086 c -12.4993,3.77826 -21.47853,14.59444 -22.7207,27.40429 a 31.727025,31.727025 0 0 0 17.02734,31.15821 c 8.28112,4.34758 11.59389,-12.3438 19.875,-15.13868 L 319,327.72461 c 7.37537,-2.53609 20.00397,9.36853 23.9375,2.04492 6.1332,-11.38653 4.70983,-25.25797 -3.62305,-35.19531 a 32.658651,32.658651 0 0 0 -26.10937,-11.57617 z m 164.0664,0 a 32.658651,32.658651 0 0 0 -26.10937,11.57617 c -8.33287,9.93734 -9.75625,23.80878 -3.62305,35.19531 3.95941,7.32361 16.51038,-4.58101 23.9375,-2.04492 l -0.0527,0.0781 c 8.28111,2.79488 11.51673,19.48626 19.84961,15.13868 11.56768,-6.02969 18.29685,-18.32248 17.05468,-31.15821 a 31.959931,31.959931 0 0 0 -22.74804,-27.40429 32.658651,32.658651 0 0 0 -8.3086,-1.38086 z M 249.59375,316.3125 a 20.858061,20.858061 0 0 0 -21.03906,20.70312 c 0,11.4383 9.41962,20.70313 21.03906,20.70313 a 20.858061,20.858061 0 0 0 21.01367,-20.70313 c 0,-11.41241 -9.42011,-20.70312 -21.01367,-20.70312 z m 300.8125,0 a 20.858061,20.858061 0 0 0 -21.01367,20.70312 c 0,11.4383 9.42011,20.70313 21.01367,20.70313 a 20.858061,20.858061 0 0 0 21.03906,-20.70313 c 0,-11.41241 -9.41962,-20.70312 -21.03906,-20.70312 z m -231.94922,70.07617 c -3.73944,0.26849 -5.79687,3.01696 -5.79687,9.73242 0,18.19258 8.28014,47.38459 30.71679,66.25 l 4.65821,3.62305 h 0.0273 a 56.052803,56.052803 0 0 1 34.28906,-28.62109 c 1.8115,-0.51757 3.72513,1.55131 5.66602,4.42383 l 4.96875,7.91992 c 1.78561,2.58785 3.59866,4.52734 5.41015,4.52734 1.91501,0 3.88041,-1.91508 5.76954,-4.45117 l 5.30468,-7.81445 c 2.07028,-2.84664 4.064,-4.86474 6.05664,-4.26954 13.89675,4.34759 25.51574,13.87033 32.34766,26.55079 24.11875,-18.73603 32.99609,-49.29914 32.99609,-68.13868 0,-13.14627 -7.92013,-11.02333 -20.96289,-4.91601 l -15.9414,7.66015 c -13.45682,6.21084 -29.70732,12.42188 -47.20118,12.42188 -17.49385,0 -33.69504,-6.21104 -47.17773,-12.42188 l -15.24219,-7.32421 c -6.7284,-3.20894 -12.14923,-5.42084 -15.88867,-5.15235 z m -111.82812,66.83594 c 3.23787,0.0855 7.14301,1.46745 11.44531,4.15234 13.84499,8.6693 40.50064,53.67167 50.20508,71.19141 9.78206,17.49386 40.1114,4.83808 14.82812,-13.82031 -25.36092,-18.65839 -16.51152,-49.09085 -4.40039,-51.00586 12.08525,-1.91501 17.39063,18.47656 17.39063,18.47656 0,0 14.23428,35.1957 38.68945,59.21094 24.40342,23.98935 25.69698,43.29436 7.89258,69.01758 -24.76571,35.73819 -95.62204,20.65222 -123.44141,13.50976 -0.69872,-0.18115 -87.08039,-24.19662 -76.08203,-44.64062 10.86896,-20.36637 64.30868,32.01142 69.48437,13.89648 5.12395,-18.1667 -78.0243,-25.74896 -71.0371,-51.91211 6.98719,-26.31842 81.59431,35.65955 86.43359,28.02539 4.78752,-7.63415 2.14789,-12.99154 -31.70117,-33.125 -33.69379,-20.10758 -57.449,-32.21801 -43.99219,-46.6582 13.53445,-14.49195 75.43555,41.01758 75.43555,41.01758 0,0 19.79599,20.23715 25.4375,10.86914 5.61563,-9.23862 -52.1441,-52.27422 -55.37891,-70.05274 -2.22393,-12.2583 1.66769,-18.34048 8.79102,-18.15234 z m 386.75781,0 c 7.14104,-0.18814 11.0527,5.89404 8.77539,18.15234 -3.23481,17.77852 -60.94229,60.81412 -55.30078,70.05274 5.56387,9.36801 25.35937,-10.86914 25.35937,-10.86914 0,0 61.97874,-55.50953 75.43555,-41.01758 13.45681,14.44019 -10.22076,26.55062 -43.99219,46.6582 -33.84906,20.13346 -36.43693,25.49085 -31.70117,33.125 4.83928,7.63416 79.4464,-54.34381 86.43359,-28.02539 6.9872,26.16315 -76.08243,33.74541 -70.98437,51.91211 5.1757,18.11494 58.56365,-34.26285 69.48437,-13.89648 10.9466,20.444 -75.35938,44.45947 -76.08398,44.64062 -27.87113,7.14246 -98.7255,22.22843 -123.43945,-13.50976 -17.77852,-25.72322 -16.5626,-45.02823 7.89257,-69.01758 24.40342,-24.01524 38.63672,-59.21094 38.63672,-59.21094 0,0 5.30391,-20.39157 17.4668,-18.47656 12.0335,1.91501 20.88484,32.34747 -4.39844,51.00586 -25.36091,18.65839 5.04557,31.31417 14.75,13.82031 9.75619,-17.51974 36.41185,-62.52211 50.20508,-71.19141 4.3023,-2.68489 8.215,-4.06681 11.46094,-4.15234 z" />
  </g>
</svg>
