<svg id="Layer_1" data-name="Layer 1" xmlns="http://www.w3.org/2000/svg" viewBox="0 0 800 799.97219"><defs><style>.cls-1{fill:#29fd2e;}</style></defs><path class="cls-1" d="M207.3905,427.68121,130.8017,345.016c-5.30817-6.06708-9.09967-4.55041-6.82477,3.792l48.53155,213.1095c1.51661,8.34241,5.30811,8.34241,7.583,0L213.45691,454.2251C215.73187,445.88269,213.45691,433.74829,207.3905,427.68121Z"/><path class="cls-1" d="M218.76508,412.51349c6.06646,6.06732,15.92437,6.82556,21.99084.75842L424.26575,242.63269c6.0664-6.06708,6.82477-15.92639.7583-21.99347l-91.75488-99.35c-6.06647-6.06733-15.92444-6.82557-21.99091-.75843L127.76849,291.17c-6.06646,5.30866-6.82476,15.16791-.75836,21.99347Z"/><path class="cls-1" d="M490.23834,527.03119,250.61389,453.46661c-8.34131-2.27533-17.441,2.27515-19.71588,10.61756L190.70782,593.0116c-2.2749,8.3424,2.27491,17.44323,10.61628,19.71832l239.62439,73.56457c8.34137,2.27533,16.68267-2.27508,19.71594-10.61749l40.19018-128.92743C503.12952,538.40717,498.57965,529.30627,490.23834,527.03119Z"/><path class="cls-1" d="M443.22339,210.78c6.06647,6.06708,17.441,9.85907,25.78235,7.58392L578.96,193.33691c8.34131-2.27533,8.34131-6.06732,0-8.3424L369.66779,120.53082c-8.34131-2.27533-9.858.75818-3.03321,7.58393Z"/><path class="cls-1" d="M431.84882,260.83392,258.95526,421.61414c-6.06647,6.06707-4.5498,12.89282,3.79151,15.1679l225.97491,69.77259c8.34137,2.27533,13.64954-2.27509,11.37457-10.6175L447.01489,265.38434C444.74,257.04193,437.91528,254.76685,431.84882,260.83392Z"/><path class="cls-1" d="M799.2,187.2a248.25328,248.25328,0,0,0-3.9-43c-3.3-17.3-7.9-34.2-16.2-49.8a174.91962,174.91962,0,0,0-33.4-44.4C725,30.1,701,16,673,8.6,647.8,1.9,622.1.4,596.1.4A.60144.60144,0,0,1,596,0H203.8V.4C189.1.7,174.4.6,159.7,2.4c-16,2-31.9,5-47.1,10.6A163.9856,163.9856,0,0,0,50.2,54C30.1,74.7,16,98.8,8.5,126.8,1.8,151.8.3,177.3.3,203L0,596.5c.5,17.8.6,35.6,3.6,53.3,3.2,18.7,7.7,36.9,16.4,53.8a170.04647,170.04647,0,0,0,48.1,58.1c14.6,11.4,30.5,20.4,48.1,26.1,25.7,8.3,52.2,11.5,79.1,11.6,16.8.1,33.6.5,50.4.5,122-.5,243.9.9,365.9-.8a286.40692,286.40692,0,0,0,48-5.1A164.10537,164.10537,0,0,0,740,754.9c26.8-23.9,44.9-53.2,53.1-88.5,5.3-23.1,6.7-46.5,6.9-70v-4.7C800,590,799.3,192.5,799.2,187.2Zm-70.0957,333.00568L495.54639,737.10718A58.41581,58.41581,0,0,1,459.90607,750c-4.54981,0-9.09961,0-12.89118-1.51691L161.89221,660.50928c-15.92444-4.55017-30.33221-20.47657-34.12372-36.403L56.48779,313.1637c-3.7915-15.16791,2.275-36.40314,14.40784-47.02063L289.28748,62.89282A58.41593,58.41593,0,0,1,324.9278,50c4.5498,0,9.0996,0,12.89117,1.51691L642.65759,145.558c15.92438,4.55018,30.33222,20.47657,34.12372,36.4029l66.7309,290.46582C747.30371,488.35315,741.2373,508.82971,729.10431,520.20569Z"/><path class="cls-1" d="M649.48242,505.03772l-109.95428,25.027c-8.34131,1.51666-17.441,9.85907-19.71588,18.20148L486.44678,655.95862c-2.27484,8.34241.7583,10.61749,6.82477,4.55041L653.27393,511.86328C659.34033,506.55463,657.82373,502.76263,649.48242,505.03772Z"/><path class="cls-1" d="M625.97491,216.84705c-2.275-8.34241-10.61627-13.65107-18.95764-11.376L475.07214,235.807c-8.34131,2.27508-13.64947,10.61749-11.37457,18.9599l56.11462,244.20379c2.27491,8.34241,10.61628,13.65106,18.95765,11.376L670.7149,480.01074c8.34137-1.51684,13.64954-9.85931,11.37458-18.9599Z"/></svg>