<?xml version="1.0" encoding="utf-8"?>
<!-- Generator: Adobe Illustrator 25.2.3, SVG Export Plug-In . SVG Version: 6.00 Build 0)  -->
<svg version="1.1" id="Layer_1" xmlns="http://www.w3.org/2000/svg" xmlns:xlink="http://www.w3.org/1999/xlink" x="0px" y="0px"
	 viewBox="0 0 800 800" style="enable-background:new 0 0 800 800;" xml:space="preserve">
<style type="text/css">
	.st0{fill:#29FD2E;}
</style>
<g>
	<path class="st0" d="M494.1,487.7c17.8,15.3,45.8,22.9,71.2,17.8c28-5.1,50.8-22.9,63.6-48.3c12.7-25.4,15.3-55.9,12.7-83.9
		c-2.5-25.4-12.7-50.8-30.5-71.2c-20.3-17.8-48.3-25.4-73.7-22.9l0,0c-30.5,2.5-58.5,22.9-71.2,50.8c-12.7,30.5-15.3,63.6-10.2,96.6
		C461,449.6,473.7,472.5,494.1,487.7z"/>
	<path class="st0" d="M799.2,187.2c-0.2-14.4-1.2-28.8-3.9-43c-3.3-17.3-7.9-34.2-16.2-49.8C770.3,77.9,759.3,63,745.7,50
		C725,30.1,701,16,673,8.6c-25.2-6.7-50.9-8.2-76.9-8.2C596,0.3,596,0.1,596,0H203.8c0,0.1,0,0.3,0,0.4c-14.7,0.3-29.4,0.2-44.1,2
		c-16,2-31.9,5-47.1,10.6c-23.9,8.8-44.7,22.6-62.4,41C30.1,74.7,16,98.8,8.5,126.8c-6.7,25-8.2,50.5-8.2,76.2L0,596.5
		c0.5,17.8,0.6,35.6,3.6,53.3c3.2,18.7,7.7,36.9,16.4,53.8c11.7,22.9,27.7,42.3,48.1,58.1c14.6,11.4,30.5,20.4,48.1,26.1
		c25.7,8.3,52.2,11.5,79.1,11.6c16.8,0.1,33.6,0.5,50.4,0.5c122-0.5,243.9,0.9,365.9-0.8c16.2-0.2,32.1-2.2,48-5.1
		c30.4-5.6,57.3-18.6,80.4-39.1c26.8-23.9,44.9-53.2,53.1-88.5c5.3-23.1,6.7-46.5,6.9-70v-4.7C800,590,799.3,192.5,799.2,187.2z
		 M428,297c20.3-35.6,61-58.5,101.7-61c38.1-5.1,78.8,2.5,109.3,28c33.1,22.9,50.8,63.6,53.4,101.7c5.1,45.8,0,91.5-25.4,129.7
		c-22.9,30.5-58.5,50.8-99.2,53.4c-38.1,5.1-81.4-2.5-114.4-28c-30.5-25.4-45.8-63.6-50.8-101.7C397.5,378.4,402.5,332.6,428,297z
		 M100,126.7L100,126.7h55.9v371.2h221.2v45.8H100V126.7z M700,673.3H100v-63.6h600V673.3z"/>
</g>
</svg>
