<?xml version="1.0" encoding="utf-8"?>
<!-- Generator: Adobe Illustrator 25.2.3, SVG Export Plug-In . SVG Version: 6.00 Build 0)  -->
<svg version="1.1" id="Layer_1" xmlns="http://www.w3.org/2000/svg" xmlns:xlink="http://www.w3.org/1999/xlink" x="0px" y="0px"
	 viewBox="0 0 800 800" style="enable-background:new 0 0 800 800;" xml:space="preserve">
<style type="text/css">
	.st0{fill:#29FD2E;}
</style>
<desc>Created with Sketch.</desc>
<g>
	<path class="st0" d="M504.6,280c-2-1.1-3.5-1.2-12.3-1.2c-9.3,0-10.2,0.1-12.7,1.4c-2.9,1.5-4.9,4.2-5.9,7.5
		c-0.4,1.4-0.6,29.6-0.6,79.8v77.7l18.9,28.9l18.8,28.9l0.2-106.9c0.1-74.5,0-107.5-0.5-109.1C509.7,284.1,507.4,281.4,504.6,280z"
		/>
	<path class="st0" d="M799.2,187.2c-0.2-14.4-1.2-28.8-3.9-43c-3.3-17.3-7.9-34.2-16.2-49.8C770.3,77.9,759.3,63,745.7,50
		C725,30.1,701,16,673,8.6c-25.2-6.7-50.9-8.2-76.9-8.2C596,0.3,596,0.1,596,0H203.8c0,0.1,0,0.3,0,0.4c-14.7,0.3-29.4,0.2-44.1,2
		c-16,2-31.9,5-47.1,10.6c-23.9,8.8-44.7,22.6-62.4,41C30.1,74.7,16,98.8,8.5,126.8c-6.7,25-8.2,50.5-8.2,76.2L0,596.5
		c0.5,17.8,0.6,35.6,3.6,53.3c3.2,18.7,7.7,36.9,16.4,53.8c11.7,22.9,27.7,42.3,48.1,58.1c14.6,11.4,30.5,20.4,48.1,26.1
		c25.7,8.3,52.2,11.5,79.1,11.6c16.8,0.1,33.6,0.5,50.4,0.5c122-0.5,243.9,0.9,365.9-0.8c16.2-0.2,32.1-2.2,48-5.1
		c30.4-5.6,57.3-18.6,80.4-39.1c26.8-23.9,44.9-53.2,53.1-88.5c5.3-23.1,6.7-46.5,6.9-70v-4.7C800,590,799.3,192.5,799.2,187.2z
		 M701.4,444.3c-8.3,57.4-33.1,111.3-71.6,155.4c-18.1,20.8-40.9,40.8-62.5,54.8l-2.4,1.6l-48.2-72.9
		c-26.5-40.1-80.5-121.9-120-181.7S324.3,292,323.4,291c-3.2-3.4-5.2-3.9-17.3-3.9c-10.3,0-11.2,0.1-13.7,1.3
		c-1.4,0.8-3.4,2.4-4.4,3.6l-1.8,2.3L286,413.6l-0.1,119.2l1.2,2.7c0.9,1.7,2.2,3.2,4,4.3l2.7,1.7h10.3c9,0,10.6-0.2,12.5-1.1
		c2.5-1.3,3.7-2.5,5.2-5.4c1.1-2,1.1-5.5,1.3-91.1c0.1-48.9,0.4-89,0.6-88.9c0.2,0,27.8,40.5,61.4,90.1l60.9,90.2l48.6,65.7
		c26.8,36.1,49,66,49.5,66.4c0.7,0.6-0.3,1.3-5.5,4c-34.1,17.4-68.7,27.5-109.6,32c-9.2,1-49,1-58.3,0c-23.7-2.6-44.5-7-64.2-13.3
		c-110.2-35.5-191.5-131.5-208-245.7c-2.4-16.7-2.7-21.6-2.7-44.3c0-22.6,0.3-27.6,2.7-44.3c6.9-47.9,25.1-93,53.7-132.9
		c51.2-71.6,132.2-118.2,218.5-126c3.7-0.3,7.9-0.7,9.2-0.8c4.9-0.5,44.2,0.2,49.9,0.8c23.2,2.6,43.9,7,63.3,13.3
		c110.2,35.5,191.5,131.5,208,245.7c2.4,16.7,2.7,21.6,2.7,44.3C704.1,422.7,703.8,427.6,701.4,444.3z"/>
</g>
</svg>
