<?xml version="1.0" encoding="UTF-8" standalone="no"?>
<!-- Generator: Adobe Illustrator 25.2.3, SVG Export Plug-In . SVG Version: 6.00 Build 0)  -->

<svg
   version="1.1"
   id="Layer_1"
   x="0px"
   y="0px"
   viewBox="0 0 640000 640000"
   xml:space="preserve"
   width="640000"
   height="640000"
   xmlns="http://www.w3.org/2000/svg"
   xmlns:svg="http://www.w3.org/2000/svg"><defs
   id="defs1" />
<style
   type="text/css"
   id="style1">
	.st0{fill:#29FD2E;}
</style>

<g
   id="layer1"
   style="display:inline"><path
     id="path1"
     style="display:inline"
     class="st0"
     d="m 203.80078,0 v 0.40039062 c -14.7,0.3 -29.40156,0.20000001 -44.10156,1.99999998 C 143.69922,4.4003906 127.79961,7.4 112.59961,13 88.699609,21.8 67.899219,35.6 50.199219,54 30.099219,74.7 16,98.800781 8.5,126.80078 1.8,151.80078 0.30078125,177.3 0.30078125,203 L 0,596.5 c 0.5,17.8 0.59960938,35.60078 3.5996094,53.30078 3.2,18.7 7.7003906,36.89883 16.4003906,53.79883 11.7,22.9 27.699609,42.29961 48.099609,58.09961 14.6,11.4 30.49961,20.40156 48.099611,26.10156 25.7,8.3 52.20156,11.49961 79.10156,11.59961 16.8,0.1 33.59844,0.5 50.39844,0.5 122,-0.5 243.90039,0.89922 365.90039,-0.80078 16.2,-0.2 32.1,-2.19961 48,-5.09961 30.4,-5.6 57.30039,-18.59961 80.40039,-39.09961 26.8,-23.9 44.89961,-53.2 53.09961,-88.5 5.3,-23.1 6.70039,-46.5 6.90039,-70 v -4.70117 c 0,-1.7 -0.70078,-399.2 -0.80078,-404.5 -0.2,-14.4 -1.19844,-28.8 -3.89844,-43 -3.3,-17.3 -7.90117,-34.19883 -16.20117,-49.798829 C 770.29961,77.900391 759.29922,63 745.69922,50 724.99922,30.1 701,15.999609 673,8.5996094 647.8,1.8996094 622.09961,0.40039062 596.09961,0.40039062 595.99961,0.30039062 596,0.1 596,0 Z M 213.125,105.55469 386.18555,264.89844 V 110.2168 h 26.74609 V 269.46289 L 591.02148,105.57812 v -0.0234 h 0.0254 l -0.0254,0.0234 v 178.41016 h 66.61914 V 537.89844 H 585.62305 V 694.44531 L 412.95508,542.46289 V 693.24414 H 386.18555 V 542.29102 L 213.32031,694.44531 V 535.8125 H 142.35938 V 281.92773 H 213.125 Z m 26.76953,60.7539 v 115.57032 h 125.50781 z m 324.35742,0 -125.50781,115.57032 h 125.50781 z m -199.04492,141.9961 -0.0254,0.0234 h 0.0488 z m -0.0254,0.0234 H 169.10547 v 201.08399 h 44.16601 v -63.20899 z m 70.64258,2.08594 149.79883,135.9375 v 65.14453 h 45.24804 v -201.082 z M 385.99023,325.50586 240.0918,457.95703 V 635.48242 L 385.99023,507.05664 V 325.5293 Z m 26.96485,1.9375 v 0.0254 179.58789 L 558.85352,635.48242 V 459.87109 Z" /></g></svg>
