<?xml version="1.0" encoding="utf-8"?>
<!-- Generator: Adobe Illustrator 25.2.3, SVG Export Plug-In . SVG Version: 6.00 Build 0)  -->
<svg version="1.1" id="Layer_1" xmlns="http://www.w3.org/2000/svg" xmlns:xlink="http://www.w3.org/1999/xlink" x="0px" y="0px"
	 viewBox="0 0 800 800" style="enable-background:new 0 0 800 800;" xml:space="preserve">
<style type="text/css">
	.st0{fill:#29FD2E;}
</style>
<g>
	<path class="st0" d="M189.5,507.2l0.1,0.1c0,0-41.4,19.5-70.1,50c-26.7,28.3-34.2,63.7-19.3,72.4c13.8,8,46-1.5,69.1-26.7
		c7.6-8.2,13.7-17.2,18.3-26.7c0.9-1.9,1.8-3.8,2.6-5.8c0.8-2,1.5-3.9,2.2-5.9c6-18,6.6-38,0.8-59.3
		C191.9,505.9,190.7,506.5,189.5,507.2z"/>
	<path class="st0" d="M799.2,187.2c-0.2-14.4-1.2-28.8-3.9-43c-3.3-17.3-7.9-34.2-16.2-49.8C770.3,77.9,759.3,63,745.7,50
		C725,30.1,701,16,673,8.6c-25.2-6.7-50.9-8.2-76.9-8.2C596,0.3,596,0.1,596,0H203.8c0,0.1,0,0.3,0,0.4c-14.7,0.3-29.4,0.2-44.1,2
		c-16,2-31.9,5-47.1,10.6c-23.9,8.8-44.7,22.6-62.4,41C30.1,74.7,16,98.8,8.5,126.8c-6.7,25-8.2,50.5-8.2,76.2L0,596.5
		c0.5,17.8,0.6,35.6,3.6,53.3c3.2,18.7,7.7,36.9,16.4,53.8c11.7,22.9,27.7,42.3,48.1,58.1c14.6,11.4,30.5,20.4,48.1,26.1
		c25.7,8.3,52.2,11.5,79.1,11.6c16.8,0.1,33.6,0.5,50.4,0.5c122-0.5,243.9,0.9,365.9-0.8c16.2-0.2,32.1-2.2,48-5.1
		c30.4-5.6,57.3-18.6,80.4-39.1c26.8-23.9,44.9-53.2,53.1-88.5c5.3-23.1,6.7-46.5,6.9-70v-4.7C800,590,799.3,192.5,799.2,187.2z
		 M380.7,550.4c-1.3,33.6-32.1,47.4-37.9,48.4c-4.2,0.7-6.4,0.8-7-2.4c-0.4-2.2,1.1-3.3,6-6.3c4.9-3,19.5-13,22.1-31.2
		c2.6-18.2-11-61.7-80.7-69.8c-24.7-2.9-44.1-0.9-60.7,3.5c12.1,26.6,14.4,80.1-13.4,121.6c-28.8,42.9-82.3,69.1-134.5,54.5
		c-16.8-4.7-42.3-39.5-20.3-88c20.8-46,109.7-91,121.8-97v-0.2C134.9,447.9,34.7,400.1,20.5,327c-4-20.7,5.7-70.3,66.6-127.3
		c51.2-47.9,122.5-84.6,188.3-108C386.1,52.3,503,75.5,521,146c17.7,69.3-42.5,152.2-119.5,182c-68.8,26.6-125.7,22.4-149.1,14.7
		c-26.6-8.7-42.1-26.2-45.9-36.1c-1.5-3.9-4.1-10.4,0-12.6c2.5-1.4,3.5-1,10.2,6.3c6.3,7,31.9,25.8,80.3,20.3
		c127.2-14.3,203.8-113.1,179.6-166.2c-16.9-37.2-115-54-237.4,7C89.5,235.9,81.4,297.3,80.2,320.6c-3.5,64.1,79.2,97.9,123.9,145.6
		c1.1,1.1,2.1,2.3,3.1,3.4c13.5-5,32.3-7.9,62.1-8.4C341.5,460,382.4,507.7,380.7,550.4z M647.8,661.4c-10.1,2-13.7-4.3-13.7-9.6
		c0-6.6,0.2-28.1,0.2-54.9c0-18.7-6.4-30.8-13.6-37c44.5-5,91.3-21.9,91.3-98.7c0-21.8-7.8-39.7-20.6-53.7c2.1-5,8.9-25.4-2-52.9
		c0,0-16.8-5.4-54.9,20.5c-16-4.4-33.1-6.7-50.1-6.7c-17,0.1-34.1,2.3-50.1,6.7c-38.2-25.9-55-20.5-55-20.5
		c-10.9,27.5-4,47.9-1.9,52.9c-12.8,14-20.6,31.8-20.6,53.7c0,76.6,46.7,93.8,91.1,98.8c-5.7,5-10.9,13.8-12.7,26.7
		c-11.4,5.1-40.4,13.9-58.2-16.6c0,0-10.6-19.2-30.7-20.6c0,0-19.5-0.3-1.4,12.2c0,0,13.1,6.1,22.2,29.3c0,0,11.7,35.7,67.4,23.6
		c0.1,16.7,0.3,32.5,0.3,37.2c0,5.3-3.7,11.5-13.7,9.6C441.8,635,384.5,560,384.5,471.6c0-110.5,89.6-200,200-200
		c110.5,0,200,89.5,200,200C784.5,560,727.3,634.9,647.8,661.4z M531.7,598.9c-2.3,0.4-4.5-0.6-4.8-2.2c-0.3-1.6,1.4-3.3,3.7-3.7
		c2.4-0.4,4.5,0.6,4.8,2.2C535.7,596.8,534.1,598.4,531.7,598.9z M518.9,595.8c0.1,1.6-1.9,3-4.2,3c-2.4,0.1-4.3-1.3-4.4-2.9
		c0-1.7,1.9-3,4.3-3.1C517,592.8,518.9,594.2,518.9,595.8z M502.2,593.9c-0.5,1.6-2.7,2.3-5,1.6c-2.3-0.7-3.7-2.5-3.3-4.1
		c0.5-1.6,2.7-2.3,5-1.6C501.1,590.5,502.6,592.3,502.2,593.9z M487.4,589.5c-1.1,1.2-3.4,0.9-5.1-0.8c-1.7-1.6-2.2-3.9-1.1-5.1
		c1.1-1.2,3.5-0.9,5.2,0.8C488,586,488.6,588.4,487.4,589.5z M476,576.5c-1.2,0.9-3.2,0.1-4.5-1.7c-1.2-1.8-1.2-3.9,0-4.8
		c1.2-0.9,3.2-0.1,4.5,1.7C477.2,573.5,477.2,575.7,476,576.5z M469.2,565.3c-1,0.9-2.8,0.5-4.1-0.9c-1.3-1.4-1.6-3.3-0.6-4.2
		c1-0.9,2.8-0.5,4.1,0.9C470,562.6,470.2,564.4,469.2,565.3z M459.4,556.5c-0.4,1-2,1.3-3.4,0.6c-1.5-0.7-2.3-2-1.8-3
		c0.4-1,2-1.3,3.4-0.6C459.1,554.2,459.9,555.5,459.4,556.5z"/>
</g>
</svg>
