<?xml version="1.0" encoding="utf-8"?>
<!-- Generator: Adobe Illustrator 25.2.3, SVG Export Plug-In . SVG Version: 6.00 Build 0)  -->
<svg version="1.1" id="svg2" xmlns="http://www.w3.org/2000/svg" xmlns:xlink="http://www.w3.org/1999/xlink" x="0px" y="0px"
	 viewBox="0 0 800 800" style="enable-background:new 0 0 800 800;" xml:space="preserve">
<style type="text/css">
	.st0{fill:#29FD2E;}
</style>
<g>
	<path class="st0" d="M400,223.9c0,0-81.7,1.1-102.5,83.6v61.6h205v-61.6C481.7,225.1,400,223.9,400,223.9z"/>
	<path class="st0" d="M616.4,0H182.8C81.6,0.2-0.2,82.4,0,183.6v433.6c0.2,101.2,82.4,183,183.6,182.8h433.6
		c101.2-0.2,183-82.4,182.8-183.6V182.8C799.8,81.6,717.6-0.2,616.4,0z M580.5,633.7c0,0-1,19.9-23,19.9H242.4
		c-21.9,0-23-19.9-23-19.9V462.5c0,0,121,86.5,139.2,99.1c18.2,12.6,41.3,14.9,41.3,14.9s23.2-2.3,41.3-14.9
		c18.2-12.6,139.2-99.1,139.2-99.1V633.7z M580.5,420.6c0,0-1.3,12.1-35.3,36.7C511.2,481.8,423.1,551,400,551
		c-23.1,0-111.2-69.2-145.2-93.8c-34-24.6-35.3-36.7-35.3-36.7V307.5C250.3,141.5,400,146.4,400,146.4s149.6-4.9,180.5,161.1
		L580.5,420.6z"/>
</g>
</svg>
