<?xml version="1.0" encoding="utf-8"?>
<!-- Generator: Adobe Illustrator 25.2.3, SVG Export Plug-In . SVG Version: 6.00 Build 0)  -->
<svg version="1.1" id="Layer_2_1_" xmlns="http://www.w3.org/2000/svg" xmlns:xlink="http://www.w3.org/1999/xlink" x="0px" y="0px"
	 viewBox="0 0 800 800" style="enable-background:new 0 0 800 800;" xml:space="preserve">
<style type="text/css">
	.st0{fill:#29FD2E;}
</style>
<g>
	<path class="st0" d="M252,292.1c24-6,50.1-10.5,77.8-13.5c16.3-22.6,33.4-43,50.5-61c-39.9-36.8-77.4-57-102.7-57v0.1
		c-5.6,0-10.4,1-14.1,3.2c-16.5,9.7-23.6,46-17.9,92.7C247.1,268,249.2,279.8,252,292.1z"/>
	<path class="st0" d="M400,275.1c11.4,0,22.6,0.4,33.6,0.9c-11.3-14.3-22.6-27.4-34-39.1c-11.3,11.7-22.6,24.8-33.6,39.1
		C377.1,275.3,388.5,275.1,400,275.1z"/>
	<path class="st0" d="M490.6,308.8c6,9.3,12,18.8,17.6,28.6c5.7,9.8,11,19.6,16,29.4c6.4-16.3,12-32.5,16.5-48.3
		C524.7,314.6,508,311.4,490.6,308.8z"/>
	<path class="st0" d="M524.3,432.8c-5,9.8-10.3,19.7-15.9,29.5c-5.6,9.9-11.6,19.6-17.6,29c17.5-2.6,34.4-5.9,50.4-9.8
		C536.5,465.6,530.9,449.2,524.3,432.8z"/>
	<path class="st0" d="M309.1,308.8c-17.5,2.6-34.4,5.9-50.4,9.7c4.6,15.9,10.3,32.3,16.9,48.7c5-9.8,10.3-19.6,15.9-29.4
		C297.1,327.9,303.1,318.2,309.1,308.8z"/>
	<path class="st0" d="M547.7,291.9c2.7-12.4,4.9-24.5,6.2-36c5.6-46.7-1.6-83-18.2-92.6c-3.8-2.1-8.3-3.2-13.9-3.2v-0.1
		c-25.4,0.1-62.8,20.4-102.6,57.4c17.2,18,34.4,38.5,50.9,61.1C497.6,281.6,523.8,286.1,547.7,291.9z"/>
	<path class="st0" d="M309.3,491.3c-6-9.3-11.9-18.8-17.6-28.6c-5.7-9.8-11-19.6-16-29.4c-6.4,16.3-12,32.5-16.5,48.3
		C275.1,485.5,291.9,488.7,309.3,491.3z"/>
	<path class="st0" d="M345,495.6c18.1,1.5,36.6,2.3,55,2.3c18.6,0,37.1-0.9,55.3-2.4c10.2-14.6,19.9-30.2,29.5-46.7
		c9.2-16,17.6-32.4,25.3-48.8c-7.7-16.4-16.1-32.7-25.4-48.7c-9.5-16.4-19.4-31.9-29.6-46.5c-18.1-1.5-36.6-2.3-55-2.3
		c-18.6,0-37.1,0.9-55.3,2.4c-10.2,14.6-19.9,30.2-29.5,46.7c-9.2,16-17.7,32.4-25.3,48.8c7.7,16.4,16.1,32.7,25.4,48.7
		C324.9,465.5,334.8,481,345,495.6z M399.9,344.2c30.9,0,55.9,25,55.9,55.9s-25,55.9-55.9,55.9s-55.9-25-55.9-55.9
		S369,344.2,399.9,344.2z"/>
	<path class="st0" d="M601.5,338.2c-10.8-4.5-22.3-8.7-34.4-12.5c-6.8,23.8-15.9,48.7-27.2,74.1c11.4,25.6,20.5,50.5,27.5,74.5
		c11.9-3.8,23.4-7.8,33.9-12.4c43.3-18.3,71.3-42.7,71.4-61.9C672.8,380.9,644.8,356.6,601.5,338.2z"/>
	<path class="st0" d="M232.3,325.8c-11.9,3.8-23.4,7.8-33.9,12.4c-43.3,18.3-71.3,42.7-71.3,61.9c0,19.2,28,43.4,71.3,61.9
		c10.6,4.5,22.1,8.7,34.2,12.5c6.8-23.8,15.9-48.7,27.2-74.1C248.5,374.7,239.3,349.8,232.3,325.8z"/>
	<path class="st0" d="M799.2,187.2c-0.2-14.4-1.2-28.8-3.9-43c-3.3-17.3-7.9-34.2-16.2-49.8C770.3,77.9,759.3,63,745.7,50
		C725,30.1,701,16,673,8.6c-25.2-6.7-50.9-8.2-76.9-8.2C596,0.3,596,0.1,596,0H203.8c0,0.1,0,0.3,0,0.4c-14.7,0.3-29.4,0.2-44.1,2
		c-16,2-31.9,5-47.1,10.6c-23.9,8.8-44.7,22.6-62.4,41C30.1,74.7,16,98.8,8.5,126.8c-6.7,25-8.2,50.5-8.2,76.2L0,596.5
		c0.5,17.8,0.6,35.6,3.6,53.3c3.2,18.7,7.7,36.9,16.4,53.8c11.7,22.9,27.7,42.3,48.1,58.1c14.6,11.4,30.5,20.4,48.1,26.1
		c25.7,8.3,52.2,11.5,79.1,11.6c16.8,0.1,33.6,0.5,50.4,0.5c122-0.5,243.9,0.9,365.9-0.8c16.2-0.2,32.1-2.2,48-5.1
		c30.4-5.6,57.3-18.6,80.4-39.1c26.8-23.9,44.9-53.2,53.1-88.5c5.3-23.1,6.7-46.5,6.9-70v-4.7C800,590,799.3,192.5,799.2,187.2z
		 M574.6,500.7c17.7,77.5,10,139.3-24.3,159.1c-8.1,4.6-17.4,6.8-27.6,6.8c-33.6,0-77.7-23.7-122.2-65.1
		c-44.5,41.6-88.5,65.6-122.2,65.6c-10.3,0-19.6-2.2-27.5-6.8c-34.5-19.8-42.3-81.7-24.7-159.5c-76.3-23.4-126.1-61-126.1-100.8
		c0-39.6,49.5-77.2,125.6-100.7c-17.7-77.5-10-139.3,24.3-159.1c8.1-4.6,17.4-6.8,27.6-6.8v-0.1c33.6,0,77.7,23.7,122.2,65.1
		c44.5-41.6,88.5-65.6,122.2-65.6v0.1c10.1,0,19.4,2.2,27.3,6.8c34.5,19.8,42.3,81.7,24.7,159.5c76.3,23.4,126.1,61,126.1,100.8
		C700,439.7,650.5,477.4,574.6,500.7z"/>
	<path class="st0" d="M548,507.9c-24,6-50.1,10.5-77.8,13.5c-16.3,22.6-33.4,43-50.5,61c39.9,36.8,77.4,57,102.7,57
		c5.6,0,10.4-1,14.1-3.2c16.5-9.7,23.6-46,17.9-92.7C553,532.1,550.8,520.3,548,507.9z"/>
	<path class="st0" d="M399.9,525.1c-11.4,0-22.6-0.4-33.6-0.9c11.3,14.3,22.6,27.4,34,39.1c11.3-11.7,22.6-24.8,33.6-39.1
		C422.7,524.8,411.4,525.1,399.9,525.1z"/>
	<path class="st0" d="M252.3,508.2c-2.7,12.4-4.9,24.5-6.2,36c-5.6,46.7,1.6,83,18.2,92.6c3.7,2.1,8.3,3.2,13.8,3.3
		c25.4,0,62.9-20.3,102.7-57.4c-17.2-18-34.4-38.5-50.9-61.1C302.4,518.6,276.2,514,252.3,508.2z"/>
</g>
</svg>
