<?xml version="1.0" encoding="utf-8"?>
<!-- Generator: Adobe Illustrator 25.2.3, SVG Export Plug-In . SVG Version: 6.00 Build 0)  -->
<svg version="1.1" id="Layer_1" xmlns="http://www.w3.org/2000/svg" xmlns:xlink="http://www.w3.org/1999/xlink" x="0px" y="0px"
	 viewBox="0 0 25 25" style="enable-background:new 0 0 25 25;" xml:space="preserve">
<style type="text/css">
	.st0{fill-rule:evenodd;clip-rule:evenodd;fill:#0A94CF;}
	.st1{fill:#FFFFFF;}
</style>
<path class="st0" d="M5.6,0.1h13.7c3.1,0,5.6,2.5,5.6,5.6v13.6c0,3.1-2.5,5.6-5.6,5.6H5.6c-3.1,0-5.6-2.5-5.6-5.6V5.7
	C0,2.6,2.5,0.1,5.6,0.1z"/>
<path class="st1" d="M12.5,5.2c-4,0-7.3,3.3-7.3,7.3c0,1.4,0.4,2.7,1.1,3.9l-0.7,3l3-0.7c3.4,2.2,7.9,1.1,10.1-2.3s1.1-7.9-2.3-10.1
	C15.3,5.6,13.9,5.2,12.5,5.2L12.5,5.2z M8.3,19.5l-1.2,0.3l0.2,0.8l0.9-0.2c0.7,0.4,1.4,0.6,2.1,0.8l0.2-0.8
	C9.8,20.2,9,19.9,8.3,19.5L8.3,19.5L8.3,19.5z M4.4,17.7l0.8,0.2l0.3-1.2c-0.4-0.7-0.7-1.4-0.9-2.2l-0.8,0.2
	c0.2,0.7,0.5,1.5,0.8,2.1L4.4,17.7L4.4,17.7z M6.4,20l-1.7,0.4L5,18.6l-0.8-0.2l-0.4,1.7c-0.1,0.5,0.2,0.9,0.6,1c0,0,0,0,0,0
	c0.1,0,0.3,0,0.4,0l1.7-0.4L6.4,20L6.4,20z M11.3,4.4c0.8-0.1,1.6-0.1,2.5,0l0.1-0.8c-0.9-0.1-1.8-0.1-2.7,0L11.3,4.4L11.3,4.4z
	 M20.2,7.8l-0.7,0.4c0.4,0.7,0.7,1.5,0.9,2.2l0.8-0.2C21,9.4,20.7,8.6,20.2,7.8L20.2,7.8z M5.9,7.7C6.4,7,7,6.4,7.7,5.9L7.2,5.2
	C6.4,5.8,5.8,6.4,5.3,7.2L5.9,7.7L5.9,7.7z M17.3,5.9C18,6.4,18.6,7,19.1,7.7l0.7-0.5c-0.5-0.7-1.2-1.4-1.9-1.9L17.3,5.9z
	 M19.1,17.3c-0.5,0.7-1.1,1.2-1.7,1.7l0.5,0.7c0.7-0.5,1.4-1.2,1.9-1.9C19.7,17.8,19.1,17.3,19.1,17.3z M13.7,20.6
	c-0.8,0.1-1.6,0.1-2.5,0l-0.1,0.8c0.9,0.1,1.8,0.1,2.7,0L13.7,20.6L13.7,20.6z M21.2,14.7l-0.8-0.2c-0.2,0.8-0.5,1.6-0.9,2.3
	l0.7,0.4C20.7,16.4,21,15.5,21.2,14.7z M20.7,12.5c0,0.4,0,0.8-0.1,1.2l0.8,0.1c0.1-0.9,0.1-1.8,0-2.7l-0.8,0.1
	C20.6,11.7,20.7,12.1,20.7,12.5L20.7,12.5z M17.2,20.2l-0.4-0.7c-0.7,0.4-1.5,0.7-2.2,0.9l0.2,0.8C15.6,21,16.4,20.7,17.2,20.2
	L17.2,20.2z M4.3,12.5c0-0.4,0-0.8,0.1-1.2l-0.8-0.1c-0.1,0.9-0.1,1.8,0,2.7l0.8-0.1C4.4,13.3,4.3,12.9,4.3,12.5L4.3,12.5z M4.8,7.8
	c-0.5,0.8-0.8,1.6-1,2.5l0.8,0.2C4.8,9.7,5.1,9,5.5,8.3L4.8,7.8z M14.7,3.8l-0.2,0.8c0.8,0.2,1.6,0.5,2.3,0.9l0.4-0.7
	C16.4,4.3,15.5,4,14.7,3.8z M10.3,3.8l0.2,0.8C9.7,4.8,9,5.1,8.3,5.5L7.8,4.8C8.6,4.3,9.5,4,10.3,3.8L10.3,3.8z"/>
</svg>
