<?xml version="1.0" encoding="utf-8"?>
<!-- Generator: Adobe Illustrator 25.2.3, SVG Export Plug-In . SVG Version: 6.00 Build 0)  -->
<svg version="1.1"
	 id="Layer_1" xmlns:cc="http://creativecommons.org/ns#" xmlns:dc="http://purl.org/dc/elements/1.1/" xmlns:rdf="http://www.w3.org/1999/02/22-rdf-syntax-ns#"
	 xmlns="http://www.w3.org/2000/svg" xmlns:xlink="http://www.w3.org/1999/xlink" x="0px" y="0px" viewBox="0 0 800 800"
	 style="enable-background:new 0 0 800 800;" xml:space="preserve">
<style type="text/css">
	.st0{fill:#29FD2E;}
</style>
<path class="st0" d="M721.9,0H78.1C35,0,0,35,0,78.1v643.8C0,765,35,800,78.1,800h643.8c43.1,0,78.1-35,78.1-78.1V78.1
	C800,35,765,0,721.9,0z M464.1,443.8h-100v285.9h-79.7V443.8h-100v-64.1h279.7V443.8z M721.9,678.3c-6.2,14.1-17,24.5-29.7,32.8
	c-12.5,7.7-26.6,13.6-43.8,17.2c-17.2,3.6-34.4,5.3-53.1,5.3s-37.5-1.6-54.7-4.8c-17.2-3.3-32.7-8.1-45.3-14.7V639
	c-1-0.8-2-1.6-3-2.4l3-0.7v3.1c13.3,10.5,27.9,18.7,43.9,24.2c15.6,5.9,32.8,8.9,50,8.9c10.9,0,19.2-0.9,26.6-2.7
	c7.7-1.9,13.8-4.4,18.8-7.5s8.7-6.9,11.1-11.3c2.4-4.4,3.6-9.1,3.6-14.1c0-7.2-2-13.4-5.9-18.8c-3.6-5.3-8.9-10.3-15.6-14.8
	c-6.2-4.5-14.1-8.9-23.4-13.1c-9.4-4.2-18.9-8.6-29.7-13c-26.6-12.5-47.5-25-60.9-42.2c-13.6-15.6-20.3-35.9-20.3-59.4
	c0-18.8,3.6-33.8,10.9-46.9c7.8-14.1,17-24.4,29.7-32.8c12.5-8.6,26.6-14.8,43.8-18.8s34.4-5.9,53.1-5.9s34.4,1.1,48.4,3.3
	c14.1,2.2,27.2,5.6,39.1,10.2v73.4c-5.5-4.1-11.9-7.7-18.8-10.8c-7.3-3.1-14.5-5.6-21.9-7.7c-7.3-2-14.7-3.5-21.9-4.5
	c-6.9-1-13.7-1.5-20.3-1.5c-9.5,0-17.7,0.8-25,2.5c-7.5,1.7-13.7,4.1-18.8,7.2c-5,3.1-8.9,6.7-11.7,11.1c-2.8,4.4-4.2,9.2-4.2,14.5
	c0,5.8,1.6,10.9,4.7,15.6c3.1,4.5,7.5,8.9,13.3,13.1c5.2,4.1,12.2,8.1,20.3,12.2c9.4,4.1,17.8,8.1,28.1,12.3
	c14.1,5.9,26.6,12.5,37.5,18.8s20.2,13.6,28.1,21.9c8.4,7.8,14.5,17.2,18.8,28.1s6.4,23.3,6.4,37.5
	C733,648.6,728.1,664.2,721.9,678.3z"/>
</svg>
