<?xml version="1.0" encoding="utf-8"?>
<!-- Generator: Adobe Illustrator 25.2.3, SVG Export Plug-In . SVG Version: 6.00 Build 0)  -->
<svg version="1.1" id="Layer_1" xmlns="http://www.w3.org/2000/svg" xmlns:xlink="http://www.w3.org/1999/xlink" x="0px" y="0px"
	 viewBox="0 0 800 800.6" style="enable-background:new 0 0 800 800.6;" xml:space="preserve">
<style type="text/css">
	.st0{fill:#29FD2E;}
</style>
<g>
	<path class="st0" d="M379.9,268.4c-0.4-0.4-0.8-0.7-1.2-1C379.1,267.8,379.5,268.1,379.9,268.4z"/>
	<path class="st0" d="M180.3,306.3c-0.6-0.9-1.1-1.8-1.5-2.7C179.2,304.5,179.7,305.4,180.3,306.3z"/>
	<path class="st0" d="M799.2,187.4c0-14.4-1.4-28.8-3.9-43c-3.3-17.3-7.9-34.2-16.2-49.9C770.4,78,759.2,63,745.7,50.1
		C725,30.1,701,16.1,673,8.6c-25.2-6.7-50.9-8.2-76.9-8.2c-0.1-0.1-0.1-0.3-0.1-0.4H203.8c0,0.1,0,0.3,0,0.4
		c-14.7,0.3-29.4,0.2-44.1,2c-16,2-31.9,5-47.1,10.6c-23.6,8.7-45,22.8-62.4,41C30.1,74.8,16,98.9,8.5,126.9
		c-6.7,25-8.2,50.5-8.2,76.2L0,597v0c0.5,17.8,0.6,35.7,3.6,53.3c3.2,18.7,7.7,36.9,16.4,53.9c11.5,22.7,28,42.6,48.1,58.2
		c14.6,11.4,30.5,20.4,48.1,26.1c25.7,8.3,52.2,11.5,79.1,11.6c16.8,0.1,33.6,0.5,50.4,0.5c122-0.5,243.9,0.9,365.9-0.8
		c16.1-0.4,32.2-2.1,48-5.1c29.9-5.3,57.8-18.8,80.4-39.1c26.8-23.9,44.9-53.2,53.1-88.6c5.3-23.1,6.7-46.5,6.9-70.1v-4.7
		C800,590.5,799.3,192.6,799.2,187.4z M522.2,524.4l-76.8,121.9c-8.8,14-27.4,18.2-41.4,9.4c-3.8-2.4-7-5.6-9.4-9.4l-214.3-340
		l-44.1-70l-31.5-50c-3-4.8-4.6-10.3-4.6-16c0-16.6,13.4-30,30-30h153.7c10.3,0,19.9,5.3,25.4,14l31.5,50h0l44.1,70c0,0,0,0,0,0
		l137.5,218.1C528.4,502.2,528.4,514.7,522.2,524.4L522.2,524.4z M695.4,249.8L645,329.7l-26.5,42c-8.8,14-27.4,18.2-41.4,9.4
		c-3.8-2.4-7-5.6-9.4-9.4L450.9,186.3c-8.8-14-4.6-32.5,9.4-41.4c4.8-3,10.3-4.6,16-4.6H630c10.3,0,19.9,5.3,25.4,14l40,63.4
		C701.5,227.5,701.5,240,695.4,249.8z"/>
</g>
</svg>
