<svg id="Layer_1" data-name="Layer 1" xmlns="http://www.w3.org/2000/svg" viewBox="0 0 25 25"><defs><style>.cls-1{fill:#0a94cf;}.cls-2{fill:#fff;fill-rule:evenodd;}</style></defs><path class="cls-1" d="M19.26249,0h-13.55A5.72416,5.72416,0,0,0,0,5.73751v13.55A5.72416,5.72416,0,0,0,5.73751,25h13.55A5.72416,5.72416,0,0,0,25,19.26249v-13.55A5.72416,5.72416,0,0,0,19.26249,0Z"/><path class="cls-2" d="M18.8468,6.11591A8.92152,8.92152,0,0,0,4.8084,16.87806L3.543,21.5l4.72835-1.24032a8.912,8.912,0,0,0,4.26237,1.08568h.00369A8.92321,8.92321,0,0,0,18.8468,6.11591ZM12.53744,19.839h-.003A7.40186,7.40186,0,0,1,8.76123,18.8056L8.49047,18.645l-2.80587.736.74892-2.73567-.17626-.28063a7.41465,7.41465,0,1,1,13.69358-3.93941v.00015A7.424,7.424,0,0,1,12.53744,19.839Zm4.06644-5.55245c-.22286-.11148-1.31849-.65067-1.52282-.72507-.20424-.07424-.35288-.11148-.50143.11164s-.57575.72507-.70576.87388c-.13.14863-.26.16734-.48281.05569a6.08407,6.08407,0,0,1-1.79229-1.10618,6.7151,6.7151,0,0,1-1.2398-1.54393c-.13-.22313-.0139-.3437.09775-.45484.10023-.09989.22287-.26036.33434-.39046a1.51929,1.51929,0,0,0,.22287-.37185.41.41,0,0,0-.01862-.39038c-.0557-.11165-.50143-1.20865-.68714-1.6549-.1809-.43449-.36464-.3757-.50143-.38257-.12984-.00644-.27856-.0079-.4272-.0079a.81878.81878,0,0,0-.59428.27891,2.49977,2.49977,0,0,0-.78,1.85931,4.335,4.335,0,0,0,.91,2.30548,9.93575,9.93575,0,0,0,3.80719,3.36523,12.82236,12.82236,0,0,0,1.27052.46951,3.05524,3.05524,0,0,0,1.40371.08831A2.2953,2.2953,0,0,0,16.901,15.60668a1.8635,1.8635,0,0,0,.13-1.05984C16.9753,14.454,16.82675,14.3982,16.60388,14.28656Z"/></svg>