<?xml version="1.0" encoding="utf-8"?>
<!-- Generator: Adobe Illustrator 25.2.3, SVG Export Plug-In . SVG Version: 6.00 Build 0)  -->
<svg version="1.1" id="Layer_1" xmlns="http://www.w3.org/2000/svg" xmlns:xlink="http://www.w3.org/1999/xlink" x="0px" y="0px"
	 viewBox="0 0 800 800" style="enable-background:new 0 0 800 800;" xml:space="preserve">
<style type="text/css">
	.st0{fill:#29FD2E;}
</style>
<path class="st0" d="M799.2,187.2c-0.2-14.4-1.2-28.8-3.9-43c-3.3-17.3-7.9-34.2-16.2-49.8C770.3,77.9,759.3,63,745.7,50
	C725,30.1,701,16,673,8.6c-25.2-6.7-50.9-8.2-76.9-8.2c-0.1-0.1-0.1-0.3-0.1-0.4H203.8c0,0.1,0,0.3,0,0.4c-14.7,0.3-29.4,0.2-44.1,2
	c-16,2-31.9,5-47.1,10.6c-23.9,8.8-44.7,22.6-62.4,41C30.1,74.7,16,98.8,8.5,126.8c-6.7,25-8.2,50.5-8.2,76.2L0,596.5v0
	c0.5,17.8,0.6,35.6,3.6,53.3c3.2,18.7,7.7,36.9,16.4,53.8c11.7,22.9,27.7,42.3,48.1,58.1c14.6,11.4,30.5,20.4,48.1,26.1
	c25.7,8.3,52.2,11.5,79.1,11.6c16.8,0.1,33.6,0.5,50.4,0.5c122-0.5,243.9,0.9,365.9-0.8c16.2-0.2,32.1-2.2,48-5.1
	c30.4-5.6,57.3-18.6,80.4-39.1c26.8-23.9,44.9-53.2,53.1-88.5c5.3-23.1,6.7-46.5,6.9-70v-4.7C800,590,799.3,192.5,799.2,187.2z
	 M248.3,596.4l-29,50.2c-10.6,18.3-34,24.6-52.3,14c-18.3-10.6-24.6-34-14-52.3l21.3-37l2-3.5c3.7-5.3,12.7-14.3,30.7-12.6
	c0,0,42.5,4.6,45.6,26.7C252.7,581.8,253.1,589.1,248.3,596.4L248.3,596.4L248.3,596.4z M469.9,544.8h-18.7v0H135.9
	c-21.2,0-38.3-17.1-38.3-38.3s17.1-38.3,38.3-38.3h85.9c13.9-0.8,17.2-8.8,17.2-8.8l0.1,0l112.1-194.2l0,0c2-3.8,0.3-7.3,0-7.9
	l-37-64.1c-10.6-18.3-4.3-41.7,14-52.3c18.3-10.6,41.7-4.3,52.3,14l17.2,29.7l17.1-29.7c10.6-18.3,34-24.6,52.3-14
	c18.3,10.6,24.6,34,14,52.3l-156,270.2c-0.7,1.6-0.9,4.2,4.2,4.7h93.2l0,0.9c0,0,53.9,0.8,61.2,51.2
	C483.7,520.2,488.6,544.8,469.9,544.8z M659.3,544.8h-45.6c-6.9,0-5.8,3.8-5.1,5.3l33.6,58.2c10.6,18.3,4.3,41.7-14,52.3
	c-18.3,10.6-41.7,4.3-52.3-14L441.4,413.8c-7.2-14.2-27.8-61.3-9.7-102.8c0,0,15.1-37.2,24.6-22.6l5.8,8.3l0.1-0.1l96.7,167.5
	l0.1,0.1c1.1,1.3,3.7,3.5,9.9,3.9h90.4h0c21.2,0,38.3,17.1,38.3,38.3C697.6,527.6,680.4,544.8,659.3,544.8z"/>
</svg>
