<?xml version="1.0" encoding="utf-8"?>
<!-- Generator: Adobe Illustrator 25.2.3, SVG Export Plug-In . SVG Version: 6.00 Build 0)  -->
<svg version="1.1" id="Layer_1" xmlns="http://www.w3.org/2000/svg" xmlns:xlink="http://www.w3.org/1999/xlink" x="0px" y="0px"
	 viewBox="0 0 800 800" style="enable-background:new 0 0 800 800;" xml:space="preserve">
<style type="text/css">
	.st0{fill:#29FD2E;}
</style>
<path class="st0" d="M180,0C80.6,0,0,80.6,0,180v440c0,99.4,80.6,180,180,180h440c99.4,0,180-80.6,180-180V180
	C800,80.6,719.4,0,620,0h-80v80H420.2c-11,0-20,9-20,20v120H280c-11,0-20-9-20-20V0H180z M440.2,120H520l-79.8,79.8V120z
	 M692.1,360.2c22.2,0,41.7,4.2,45.8,11.2c6.9,8.4-2.8,74.2-40.3,106.4c-5.6,4.2-11.1,2.8-8.4-4.2c8.3-22.4,26.4-70,18-81.2
	c-9.7-12.6-59.7-5.6-82-2.8c-6.9,0-6.9-5.6-1.4-9.8C643.5,365.8,669.9,360.2,692.1,360.2z M79.3,375.5c1.1-0.2,2.3-0.1,3.3,0.5
	l0.3,0.2c45,24.3,93.1,43,141.4,57.8c48.7,13.8,98.1,23.7,148,25.7c49.7,1.7,99.9-2.1,149-12.3c48.8-10.1,98.1-24.7,143.4-45.5
	l0.8-0.4c5-2.3,11-0.1,13.3,4.9c2.1,4.5,0.6,9.6-3.3,12.3c-44.3,31.4-93.8,52.1-145.7,65.5c-51.9,13.3-105.9,18.3-159.7,14.6
	c-53.8-3.6-106.2-16.7-155.7-35.9c-49.3-19.8-95.9-45.3-137.1-78.6c-2.1-1.7-2.5-4.9-0.7-7C77.1,376.3,78.1,375.7,79.3,375.5z"/>
</svg>
