<?xml version="1.0" encoding="utf-8"?>
<!-- Generator: Adobe Illustrator 25.2.3, SVG Export Plug-In . SVG Version: 6.00 Build 0)  -->
<svg version="1.1" id="Layer_1" xmlns="http://www.w3.org/2000/svg" xmlns:xlink="http://www.w3.org/1999/xlink" x="0px" y="0px"
	 viewBox="0 0 800 800" style="enable-background:new 0 0 800 800;" xml:space="preserve">
<style type="text/css">
	.st0{fill:#29FD2E;}
</style>
<path class="st0" d="M799.2,187.2c-0.2-14.4-1.2-28.8-3.9-43c-3.3-17.3-7.9-34.2-16.2-49.8C770.3,77.9,759.3,63,745.7,50
	C725,30.1,701,16,673,8.6c-25.2-6.7-50.9-8.2-76.9-8.2c-0.1-0.1-0.1-0.3-0.1-0.4H203.8c0,0.1,0,0.3,0,0.4c-14.7,0.3-29.4,0.2-44.1,2
	c-16,2-31.9,5-47.1,10.6c-23.9,8.8-44.7,22.6-62.4,41C30.1,74.7,16,98.8,8.5,126.8c-6.7,25-8.2,50.5-8.2,76.2L0,596.5v0
	c0.5,17.8,0.6,35.6,3.6,53.3c3.2,18.7,7.7,36.9,16.4,53.8c11.7,22.9,27.7,42.3,48.1,58.1c14.6,11.4,30.5,20.4,48.1,26.1
	c25.7,8.3,52.2,11.5,79.1,11.6c16.8,0.1,33.6,0.5,50.4,0.5c122-0.5,243.9,0.9,365.9-0.8c16.2-0.2,32.1-2.2,48-5.1
	c30.4-5.6,57.3-18.6,80.4-39.1c26.8-23.9,44.9-53.2,53.1-88.5c5.3-23.1,6.7-46.5,6.9-70v-4.7C800,590,799.3,192.5,799.2,187.2z
	 M495,692c-15.2,2.9-20.6-6.4-20.6-14.4c0-9.9,0.3-42.2,0.3-82.3c0-28-9.6-46.2-20.3-55.6c66.8-7.4,137-32.8,137-148
	c0-32.8-11.6-59.5-30.9-80.5c3.1-7.6,13.4-38.1-2.9-79.4c0,0-25.2-8.1-82.4,30.8c-24-6.6-49.7-10-75.2-10.1
	c-25.5,0.1-51.2,3.4-75.1,10.1c-57.3-38.8-82.5-30.8-82.5-30.8c-16.3,41.3-6,71.8-2.9,79.4c-19.2,21-30.9,47.8-30.9,80.5
	c0,115,70,140.7,136.7,148.3c-8.6,7.5-16.4,20.7-19,40.1c-17.1,7.7-60.5,20.9-87.3-24.9c0,0-15.9-28.8-46-30.9
	c0,0-29.3-0.4-2.1,18.2c0,0,19.7,9.2,33.3,43.9c0,0,17.6,53.5,101.1,35.4c0.1,25.1,0.4,48.7,0.4,55.9c0,7.9-5.5,17.2-20.5,14.4
	C186,652.4,100,540,100,407.4c0-165.7,134.3-300,300-300c165.7,0,300,134.3,300,300C700,539.9,614.1,652.3,495,692z M320.8,598.3
	c-3.5,0.6-6.7-0.9-7.2-3.2c-0.4-2.5,2.1-5,5.6-5.6c3.5-0.6,6.7,0.8,7.2,3.3C326.8,595.1,324.4,597.6,320.8,598.3z M301.7,593.7
	L301.7,593.7c0.1,2.5-2.8,4.5-6.4,4.6c-3.6,0.1-6.5-1.9-6.5-4.4c0-2.5,2.8-4.5,6.4-4.6C298.8,589.2,301.7,591.2,301.7,593.7z
	 M276.5,590.9L276.5,590.9c-0.7,2.3-4.1,3.4-7.5,2.4c-3.4-1-5.6-3.8-4.9-6.2c0.7-2.4,4.1-3.5,7.5-2.4
	C275,585.8,277.2,588.5,276.5,590.9z M254.4,584.3L254.4,584.3c-1.6,1.8-5.1,1.3-7.7-1.1c-2.6-2.4-3.4-5.9-1.7-7.7
	c1.7-1.8,5.2-1.3,7.8,1.1C255.3,579,256.1,582.5,254.4,584.3z M230.5,562.2c-1.8-2.7-1.8-5.9,0-7.1c1.9-1.3,4.8-0.1,6.7,2.5
	c1.8,2.7,1.8,5.9,0,7.2l0,0C235.4,566.1,232.4,564.9,230.5,562.2z M227.1,547.9L227.1,547.9C227.1,547.9,227.1,547.9,227.1,547.9
	c-1.4,1.3-4.2,0.7-6.1-1.4c-2-2.1-2.3-4.9-0.9-6.2c1.5-1.3,4.2-0.7,6.2,1.4C228.2,543.8,228.6,546.6,227.1,547.9
	C227.1,547.9,227.1,547.9,227.1,547.9z M207.2,535.7c-2.2-1-3.4-3-2.7-4.5c0.6-1.5,3-2,5.2-0.9c2.2,1,3.4,3,2.7,4.5l0,0
	C211.7,536.3,209.4,536.7,207.2,535.7z"/>
</svg>
