<svg id="Layer_1" data-name="Layer 1" xmlns="http://www.w3.org/2000/svg" viewBox="0 0 800 799.97219"><defs><style>.cls-1{fill:#29fd2e;}</style></defs><path class="cls-1" d="M799.2,187.2a248.25328,248.25328,0,0,0-3.9-43c-3.3-17.3-7.9-34.2-16.2-49.8a174.91962,174.91962,0,0,0-33.4-44.4C725,30.1,701,16,673,8.6,647.8,1.9,622.1.4,596.1.4A.60144.60144,0,0,1,596,0H203.8V.4C189.1.7,174.4.6,159.7,2.4c-16,2-31.9,5-47.1,10.6A163.9856,163.9856,0,0,0,50.2,54C30.1,74.7,16,98.8,8.5,126.8,1.8,151.8.3,177.3.3,203L0,596.5c.5,17.8.6,35.6,3.6,53.3,3.2,18.7,7.7,36.9,16.4,53.8a170.04647,170.04647,0,0,0,48.1,58.1c14.6,11.4,30.5,20.4,48.1,26.1,25.7,8.3,52.2,11.5,79.1,11.6,16.8.1,33.6.5,50.4.5,122-.5,243.9.9,365.9-.8a286.40692,286.40692,0,0,0,48-5.1A164.10537,164.10537,0,0,0,740,754.9c26.8-23.9,44.9-53.2,53.1-88.5,5.3-23.1,6.7-46.5,6.9-70v-4.7C800,590,799.3,192.5,799.2,187.2Zm-74.2442,196.39252a5.57959,5.57959,0,0,1-10.9856,1.24029c-1.701-6.62677-3.86273-14.28118-6.83941-22.75073-1.80731-5.28015-4.00446-10.80841-6.41419-16.65558-.63781-1.41748-1.27569-2.90582-1.91357-4.39422-.67328-1.48834-1.382-2.97675-2.09076-4.50055-.67328-1.52381-1.45288-3.04761-2.19714-4.57141-.35437-.7796-.74408-1.55921-1.134-2.33887-.3897-.7796-.7796-1.5592-1.20483-2.33881a253.53311,253.53311,0,0,0-24.77063-38.733c-5.06757-6.55591-10.702-13.07635-16.7619-19.49048-1.52374-1.63012-3.11841-3.18939-4.67767-4.78405-1.63013-1.55927-3.22486-3.15394-4.89039-4.7132-1.66558-1.52374-3.33111-3.11847-5.06756-4.64227-.85047-.77961-1.701-1.52381-2.58692-2.30341-.88592-.7442-1.77185-1.5238-2.65783-2.268a242.77043,242.77043,0,0,0-49.187-32.07074,231.609,231.609,0,0,0-60.24341-20.0221,236.26374,236.26374,0,0,0-33.16931-3.68548c-5.63453-.17719-11.34-.17719-17.08081,0-1.45289.07086-2.87043.14172-4.32331.21258l-1.06311.03546-.53161.0354c.81506,0-.10633.03546-.10633.03546l-2.516.17719c-1.701.10632-3.36658.21258-5.06756.31891l-1.2403.07086-1.06317.10632-2.09076.21265c-1.06317.10632-2.09082.21258-3.15393.31891-1.38208.17718-3.61463.42529-4.99671.60248-1.66552.248-3.36651.38977-5.032.67327-1.48834.21265-2.97674.4607-4.46509.67334l-2.2326.35437-2.23255.38978c-1.45294.2835-2.94134.53155-4.42968.81506s-2.94129.60242-4.42963.92139c-1.45294.3189-2.94134.567-4.39429.95678-2.90582.7442-5.8471,1.41748-8.71753,2.23255-1.41754.42529-2.90588.7442-4.32336,1.20489-1.41748.42523-2.835.88593-4.2879,1.31116-5.67,1.84277-11.34,3.79181-16.83271,6.13068-1.38208.53155-2.76409,1.134-4.11071,1.73645-1.34668.60241-2.7287,1.20483-4.07532,1.80731-2.69324,1.31115-5.38648,2.55145-8.00885,3.96893a171.23625,171.23625,0,0,0-15.37976,9.03656c-4.99664,3.26019-9.85163,6.73309-14.5293,10.48944a179.70007,179.70007,0,0,0-13.50165,12.01325c-17.36425,16.939-31.82269,37.95337-42.84369,61.80267a261.52174,261.52174,0,0,0-13.856,37.52814c-1.84272,6.485-3.47284,13.11181-4.85486,19.774-1.38208,6.69764-2.48065,13.43073-3.33112,20.12836-.85052,6.69763-1.38208,13.39533-1.63012,19.91577-.03547,1.59467-.10633,3.2248-.10633,4.81946v2.02l.03546,3.083v2.268l.0354.53156.07087,2.16168.03546,1.09851v.53156l.0354.60241.14178,2.48065a195.462,195.462,0,0,0,6.55591,39.08735A198.3975,198.3975,0,0,0,400.56262,607.1665a195.5256,195.5256,0,0,0,40.22138,7.26465c3.402.24811,6.80395.4253,10.24139.49616l.63788.0354c-.0354.03546.99225.03546.10632.03546h4.7132l2.05536-.03546h1.02771l1.16943-.0354a143.5853,143.5853,0,0,0,19.06531-1.91364A147.583,147.583,0,0,0,516.301,601.81549a149.88126,149.88126,0,0,0,58.6842-47.98218,151.40111,151.40111,0,0,0,18.32111-33.24023,145.95931,145.95931,0,0,0,5.8117-18.00214c.81507-3.04761,1.45294-6.13067,2.09082-9.21374.567-3.11847,1.09851-6.23694,1.48834-9.35541.42524-3.15393.67334-6.34332.92139-9.49725.0708-1.41748.17719-3.72089.248-5.13843l.0354-2.12622v-1.87818c0-.53155-.0354-1.34661-.0354-2.05542-.03546-.74414-.03546-1.45288-.07086-2.19708l-.10639-2.19708-.17718-2.19708c-.24805-2.90589-.60242-5.81177-1.02765-8.68219a111.72725,111.72725,0,0,0-10.70209-32.92127,115.81006,115.81006,0,0,0-47.13159-48.9035,118.272,118.272,0,0,0-48.0885-14.423l-2.09082-.14178-.53156-.0354c-.248-.03546.28351-.03546-.248-.03546l-1.31116-.0354-2.09082-.07092c-.53156,0-1.06311-.03541-1.73645-.03541-2.58692,0-5.17383.10633-7.72534.31891a90.13461,90.13461,0,0,0-15.13172,2.65784,92.48642,92.48642,0,0,0-14.35211,5.20929,91.09978,91.09978,0,0,0-13.18268,7.5127,92.73452,92.73452,0,0,0-38.76843,60.2434c-.42523,2.30347-.7796,4.6778-1.02765,7.01667-.07086.60241-.14178,1.16943-.17718,1.77185l-.07087.88592-.03546.42523c0,.0354-.0354.53156-.0354.21259-.07086,1.20489-.10632,2.37433-.17718,3.57916a73.10823,73.10823,0,0,0,.85046,13.041,72.36622,72.36622,0,0,0,8.32782,24.09741,74.66633,74.66633,0,0,0,15.37976,19.27789,76.59946,76.59946,0,0,0,19.66773,12.89917,77.65985,77.65985,0,0,0,21.29785,6.237c.88592.14172,1.77185.24805,2.65777.35437.4607.07086.88593.10632,1.34662.14172l.67334.07087.31891.03546c-.38977.0354.10638.0354.10638.0354.99225.03546,1.98444.10632,2.97675.14178.815,0,1.59467.0354,2.37427.0354.74414.03546,1.63006-.0354,2.44519-.07086a19.04328,19.04328,0,0,0,2.48059-.14172c1.63013-.14173,3.22479-.38983,4.81946-.60242a73.91033,73.91033,0,0,0,9.17828-2.268,67.73075,67.73075,0,0,0,8.36322-3.43744c.7796-.38977,1.55921-.77961,2.30341-1.20484a7.23152,7.23152,0,0,1,7.97339,12.01325c-.81507.63788-1.63013,1.27575-2.4806,1.87817a80.16919,80.16919,0,0,1-9.63891,5.88263,79.28224,79.28224,0,0,1-11.16278,4.67767c-2.02.60248-4.03986,1.2403-6.13068,1.70105-1.06311.28351-2.12622.4961-3.18933.70874-1.06317.17719-2.09082.42524-3.29571.567-.60242.07086-1.16944.17718-1.77186.24805l-.88592.10632c-.28357.03546-.60248.10632-.81513.10632-.95678.10633-1.949.17719-2.90582.28357q-.90361.05319-1.80731.10633c-.60242,0-1.20483.07086-1.80725.07086-1.134.0354-2.268.0708-3.402.0708a99.78709,99.78709,0,0,1-28.527-4.07526,102.56961,102.56961,0,0,1-28.70428-13.64337,105.46408,105.46408,0,0,1-41.816-57.86914,108.61215,108.61215,0,0,1-3.75629-19.73859c-.14178-1.59466-.28351-3.18939-.38983-4.81946l-.10632-2.69323c-.03546-.81507-.07086-1.66553-.07086-2.48065-.07093-3.33112,0-6.69764.21258-10.06415a135.42392,135.42392,0,0,1,9.0011-40.85926,138.18488,138.18488,0,0,1,22.64447-38.20147,140.25026,140.25026,0,0,1,81.96655-47.87586c4.18158-.7796,8.39862-1.34662,12.65113-1.77185,1.02764-.10632,2.23248-.21258,3.402-.28351l3.083-.21258,1.27576-.07086c-.10639,0,.85046-.03546,1.06311-.03546l.7796-.0354,3.083-.07093a176.56441,176.56441,0,0,1,74.77276,15.41529,179.185,179.185,0,0,1,45.00537,28.95227,181.52316,181.52316,0,0,1,57.01862,95.36181c1.09851,4.7132,2.0199,9.49726,2.72864,14.31671l.49609,3.61457.42523,3.65008c.14173,1.2049.24805,2.44519.35437,3.65009.10639,1.24029.21271,2.40967.28357,3.79175l.21265,3.969.14172,2.94128c0,.4607.03546,0,.03546,1.2049v.88592l.03547,1.77186.03546,3.5083c-.03546,4.67779-.14179,9.42633-.4607,14.13952-.14178,2.62238-.38983,5.24475-.63787,7.90253.35437.21265.67334.42523.92138.60242,0,0,.21259.14178.4961.35437.31891.21264.53155.38983.53155.38983,5.20929,4.03985,30.19257,25.40857,37.17371,69.2445,0,0-29.661,28.45618-71.72516,26.04645-.95679,1.59467-1.949,3.15393-2.97675,4.7132a231.63985,231.63985,0,0,1-38.66211,45.32434,238.90189,238.90189,0,0,1-22.29,17.64777c.07087.63787.07087,1.20489.10633,1.80731,0,0,.0354.46069.0354,1.16943v.567c0,8.396-2.12592,47.25-39.26734,86.43158h-.31439c-4.102-.53662-53.24286-7.744-81.68481-48.33655l-.07086-.10632-3.083.14178-3.11847.10632-1.55927.0354h-2.40979c-4.92578.03547-9.887-.07086-14.8482-.2835a285.99044,285.99044,0,0,1-59.074-8.78846c-6.41418-1.66552-12.7929-3.54376-19.0653-5.67-8.71753,6.91028-50.1438,36.89026-113.22217,34.516,0,0-23.56586-49.15161-2.90589-108.22558-4.99664-5.20929-9.8161-10.59577-14.38757-16.15943a289.27871,289.27871,0,0,1-29.05859-42.56024c-.07087.03546-.10627.10632-.17719.14179,0,0-66.05511-4.0398-122.71936-69.209v-.00024c.00256-.00879,20.13269-68.71491,87.99078-102.23652.319-2.72863.63788-5.45733.99225-8.15057a341.28171,341.28171,0,0,1,12.01325-54.67975c1.4884-4.92578,3.11853-9.81616,4.85492-14.63562-6.98114-8.93023-42.27668-58.18811-36.32324-136.32739,0,0,65.24011-33.77179,138.70166-5.70544,0,0,.81506.35437,1.84277.85052,7.19379-5.0321,14.60016-9.67438,22.11285-13.89142a248.658,248.658,0,0,1,23.70758-11.65887c3.969-1.77191,8.04425-3.33112,12.04871-4.89038,4.07532-1.45295,8.07971-2.94129,12.155-4.18158,2.94128-.95679,5.88257-1.77185,8.82391-2.62238.31891-1.73645.567-2.7641.567-2.7641l-.00019.00012S374.587,80.53259,427.67212,47.04431c0,0,47.59228,22.14832,64.10608,75.09168,1.31116.21264,2.587.38983,3.89813.567q11.10956,1.701,21.82935,4.217c7.12292,1.66553,14.10406,3.65,20.94348,5.81171s13.46618,4.60687,19.95123,7.22919c1.5238.63788,3.04761,1.27575,4.536,1.91363,8.96558-6.485,33.13385-20.66,71.12268-18.28564,0,0,22.00653,34.23242,12.08411,73.70959a266.17916,266.17916,0,0,1,52.589,71.93781,253.26188,253.26188,0,0,1,18.2857,48.65539,238.9985,238.9985,0,0,1,7.93793,65.70081Z"/></svg>