<svg id="Layer_1" data-name="Layer 1" xmlns="http://www.w3.org/2000/svg" viewBox="0 0 800 799.97219"><defs><style>.cls-1{fill:#29fd2e;}.cls-2{fill:#fff;stroke:#fff;stroke-miterlimit:10;stroke-width:2px;}</style></defs><path class="cls-1" d="M799.2,187.2a248.25328,248.25328,0,0,0-3.9-43c-3.3-17.3-7.9-34.2-16.2-49.8A174.34582,174.34582,0,0,0,745.7,50C725,30.1,701,16,673,8.6,647.8,1.9,622.1.4,596.1.4A.60144.60144,0,0,1,596,0H203.8V.4C189.1.7,174.4.6,159.7,2.4c-16,2-31.9,5-47.1,10.6A164.752,164.752,0,0,0,50.2,54C30.1,74.7,16,98.8,8.5,126.8,1.8,151.8.3,177.3.3,203L0,596.5c.5,17.8.6,35.6,3.6,53.3,3.2,18.7,7.7,36.9,16.4,53.8a170.98789,170.98789,0,0,0,48.1,58.1c14.6,11.4,30.5,20.4,48.1,26.1,25.7,8.3,52.2,11.5,79.1,11.6,16.8.1,33.6.5,50.4.5,122-.5,243.9.9,365.9-.8a286.41423,286.41423,0,0,0,48-5.1A163.6888,163.6888,0,0,0,740,754.9c26.8-23.9,44.9-53.2,53.1-88.5,5.3-23.1,6.7-46.5,6.9-70v-4.7C800,590,799.3,192.5,799.2,187.2Z"/><path class="cls-2" d="M676.48776,180.226a13.3863,13.3863,0,0,0-12.23054-1.69384,187.00735,187.00735,0,0,1-63.207,11.15943c-103.19925,0-189.79-102.75765-190.6031-103.829h-.00623a13.391,13.391,0,0,0-20.61884,0c-.89051,1.07109-87.40068,103.829-190.6031,103.829h-.00623a186.99513,186.99513,0,0,1-63.207-11.15943,13.395,13.395,0,0,0-17.85382,12.58545c0,410.66711,274.251,525.56145,276.75393,526.72519a13.37413,13.37413,0,0,0,10.80442,0c2.85841-1.33888,70.52443-34.72975,138.73248-116.59533,62.49124-75.17,137.395-207.29443,137.395-409.77437a13.39145,13.39145,0,0,0-5.35553-11.24664ZM399.73383,690.43521c-36.96-17.85351-247.38866-134.629-254.53071-481.01938a211.55053,211.55053,0,0,0,54.10412,7.05563c94.45022.08718,173.019-73.02892,200.42343-102.222,27.406,29.01293,105.97155,102.04187,200.94947,102.04187a211.56952,211.56952,0,0,0,54.1041-7.05563C647.1059,536.781,435.43763,669.897,399.18539,690.526Z"/><path class="cls-2" d="M695.76585,164.90222a14.31962,14.31962,0,0,0-13.08331-1.81195,200.04608,200.04608,0,0,1-67.61415,11.93752c-110.39481,0-203.02314-109.92241-203.89289-111.06841h-.00666a14.32472,14.32472,0,0,0-22.05649,0c-.9526,1.14577-93.49469,111.06841-203.89289,111.06841h-.00666a200.03311,200.03311,0,0,1-67.61412-11.93752A14.329,14.329,0,0,0,98.5,176.55324c0,439.30086,293.37315,562.2062,296.05058,563.45108a14.30669,14.30669,0,0,0,11.55776,0c3.05771-1.43224,75.44175-37.15129,148.4056-124.72494,66.84844-80.41117,146.97482-221.748,146.97482-438.34586a14.3251,14.3251,0,0,0-5.72894-12.03081ZM399.71527,710.68579c-39.53706-19.09835-264.63782-144.016-272.27785-514.55843a226.30057,226.30057,0,0,0,57.87653,7.54758c101.03576.09326,185.08279-78.12085,214.39794-109.34942,29.31687,31.03585,113.36041,109.15673,214.96066,109.15673a226.32069,226.32069,0,0,0,57.8765-7.54758C664.33535,546.318,437.90852,688.71558,399.12859,710.783Z"/></svg>