<svg id="Layer_1" data-name="Layer 1" xmlns="http://www.w3.org/2000/svg" viewBox="0 0 800 799.97219"><defs><style>.cls-1{fill:#29fd2e;}</style></defs><path class="cls-1" d="M759.27594,385.25623v-3.36152a9.06327,9.06327,0,0,0-7.95691-9.14837H706.00269v21.7008H751.319A9.10584,9.10584,0,0,0,759.27594,385.25623Z"/><path class="cls-1" d="M799.2,187.2a248.25328,248.25328,0,0,0-3.9-43c-3.3-17.3-7.9-34.2-16.2-49.8a174.91962,174.91962,0,0,0-33.4-44.4C725,30.1,701,16,673,8.6,647.8,1.9,622.1.4,596.1.4A.60144.60144,0,0,1,596,0H203.8V.4C189.1.7,174.4.6,159.7,2.4c-16,2-31.9,5-47.1,10.6A163.9856,163.9856,0,0,0,50.2,54C30.1,74.7,16,98.8,8.5,126.8,1.8,151.8.3,177.3.3,203L0,596.5c.5,17.8.6,35.6,3.6,53.3,3.2,18.7,7.7,36.9,16.4,53.8a170.04647,170.04647,0,0,0,48.1,58.1c14.6,11.4,30.5,20.4,48.1,26.1,25.7,8.3,52.2,11.5,79.1,11.6,16.8.1,33.6.5,50.4.5,122-.5,243.9.9,365.9-.8a286.40692,286.40692,0,0,0,48-5.1A164.10537,164.10537,0,0,0,740,754.9c26.8-23.9,44.9-53.2,53.1-88.5,5.3-23.1,6.7-46.5,6.9-70v-4.7C800,590,799.3,192.5,799.2,187.2ZM110.29468,443.08246c0,3.02106-1.27655,4.25506-4.25507,4.25506H92.80634c-3.02106,0-4.255-1.27655-4.255-4.25506V409.042H35.78857v34.04047c0,3.06366-1.27649,4.25506-4.255,4.25506H18.21521c-3.02106,0-4.25507-1.234-4.25507-4.25506V356.91754c0-3.02106,1.234-4.25506,4.25507-4.25506H31.53357c3.02106,0,4.255,1.27655,4.255,4.25506v33.48731H88.50879V356.91754c0-3.02106,1.27649-4.25506,4.255-4.25506h13.23328c2.97852,0,4.21246,1.36163,4.29761,4.25506ZM222.075,368.6615c0,3.02112-1.27649,4.25506-4.25506,4.25506H147.61151v17.70105h56.12421c3.06366,0,4.25506,1.27649,4.25506,4.25507v10.33978c0,3.02106-1.27655,4.25507-4.25506,4.25507H147.61151v17.74359H217.82c2.97857,0,4.21252,1.23395,4.25506,4.21246v11.61634c0,3.02105-1.27649,4.25506-4.25506,4.25506h-87.5691c-3.02105,0-4.25506-1.27655-4.25506-4.25506V356.91754c0-3.02106,1.27655-4.25506,4.25506-4.25506H217.82c3.02111,0,4.25506,1.27655,4.25506,4.25506Zm111.86542-.04254c0,3.02105-1.27649,4.25506-4.255,4.25506H297.47461v70.1659c0,3.02105-1.27655,4.25506-4.25507,4.25506H279.17786c-3.02106,0-4.25507-1.27655-4.25507-4.25506V372.91656H241.81848c-3.06366,0-4.25506-1.27655-4.25506-4.25506v-11.744c0-3.06366,1.23394-4.25506,4.25506-4.25506h87.8244c2.97852,0,4.21247,1.36163,4.29755,4.25506Zm111.908-3.19129a10.93547,10.93547,0,0,1-4.255,7.82929l-60.76226,53.401h60.63458c2.97851,0,4.21252,1.23395,4.12744,4.21246v12.212c0,3.02106-1.27655,4.25506-4.25507,4.25506H353.47119c-3.02112,0-4.25506-1.27655-4.25506-4.25506V433.849a11.14858,11.14858,0,0,1,4.25506-7.82935l56.54968-53.06054H353.64142c-3.02112,0-4.25507-1.27649-4.25507-4.25507v-11.7865c0-3.02106,1.27649-4.25506,4.25507-4.25506h87.952c2.97852,0,4.255,1.27655,4.255,4.25506ZM553.33124,447.295H540.77881c-3.02106,0-4.25507-1.27655-4.25507-4.25506V386.02216c0-7.957-7.7442-13.23328-15.70117-13.23328H483.4632v70.16589c0,3.06366-1.27655,4.25507-4.25507,4.25507H465.33667c-3.02112,0-4.25507-1.27649-4.25507-4.25507V356.91754c0-3.02106,1.23395-4.25506,4.25507-4.25506h64.50665a28.12594,28.12594,0,0,1,22.80713,14.04168,30.84918,30.84918,0,0,1,4.80817,17.02027l.12768,59.31549C557.5863,446.061,556.35229,447.295,553.33124,447.295ZM669.239,368.6615c0,3.02112-1.27649,4.25506-4.255,4.25506H594.60529v17.70105H650.772c3.02112,0,4.25507,1.27649,4.25507,4.25507v10.33978c0,3.02106-1.27655,4.25507-4.25507,4.25507h-56.1242v17.74359H664.984c2.85083,0,4.255,1.23395,4.255,4.21246v11.61634c0,3.02105-1.27649,4.25506-4.255,4.25506H577.24469c-3.02112,0-4.25507-1.27655-4.25507-4.25506V356.91754c0-3.02106,1.27649-4.25506,4.25507-4.25506H664.984c3.02112,0,4.255,1.27655,4.255,4.25506Zm113.993,78.46326H764.21191a13.1056,13.1056,0,0,1-8.51013-3.91468L730.93732,418.318a14.80776,14.80776,0,0,0-9.23346-3.87207H706.08777v28.50885c0,3.02112-1.27649,4.25507-4.255,4.25507H689.06757c-3.02112,0-4.25507-1.27649-4.25507-4.25507V356.91754c0-3.02106,1.27655-4.25506,4.25507-4.25506H738.1709l10.8504.383h4.638A27.53,27.53,0,0,1,776.126,366.61908a32.80612,32.80612,0,0,1,4.85077,17.27551,26.16861,26.16861,0,0,1-7.14844,20.33917,43.48616,43.48616,0,0,1-19.27539,8.51014l30.296,30.50872C786.9339,445.38019,786.21051,447.12476,783.232,447.12476Z"/></svg>