<?xml version="1.0" encoding="utf-8"?>
<!-- Generator: Adobe Illustrator 25.2.3, SVG Export Plug-In . SVG Version: 6.00 Build 0)  -->
<svg version="1.1" id="Layer_1" xmlns="http://www.w3.org/2000/svg" xmlns:xlink="http://www.w3.org/1999/xlink" x="0px" y="0px"
	 viewBox="0 0 800 800" style="enable-background:new 0 0 800 800;" xml:space="preserve">
<style type="text/css">
	.st0{fill:#29FD2E;}
</style>
<g>
	<path class="st0" d="M764.3,598v-3.4c0.1-4.7-3.4-8.7-8.1-9.3h-45.9v22h45.9C760.9,606.7,764.4,602.7,764.3,598z"/>
	<path class="st0" d="M799.2,187.2c0-14.4-1.4-28.8-3.9-43c-3.3-17.3-7.9-34.2-16.2-49.8c-8.7-16.5-20-31.5-33.4-44.4
		C725,30.1,701,16,673,8.6c-25.2-6.7-50.9-8.2-76.9-8.2C596,0.3,596,0.1,596,0H203.8v0.4c-14.7,0.3-29.4,0.2-44.1,2
		c-16,2-31.9,5-47.1,10.6c-23.7,8.7-45,22.7-62.4,41C30.1,74.7,16,98.8,8.5,126.8c-6.7,25-8.2,50.5-8.2,76.2L0,596.5
		c0.5,17.8,0.6,35.6,3.6,53.3c3.2,18.7,7.7,36.9,16.4,53.8c11.5,22.7,27.9,42.6,48.1,58.1c14.6,11.4,30.5,20.4,48.1,26.1
		c25.7,8.3,52.2,11.5,79.1,11.6c16.8,0.1,33.6,0.5,50.4,0.5c122-0.5,243.9,0.9,365.9-0.8c16.1-0.3,32.2-2.1,48-5.1
		c29.9-5.3,57.7-18.9,80.4-39.1c26.8-23.9,44.9-53.2,53.1-88.5c5.3-23.1,6.7-46.5,6.9-70v-4.7C800,590,799.3,192.5,799.2,187.2z
		 M106.3,656.6c0,3.1-1.3,4.3-4.3,4.3H88.5c-3.1,0-4.3-1.3-4.3-4.3v-34.5H30.7v34.5c0,3.1-1.3,4.3-4.3,4.3H12.9
		c-3.1,0-4.3-1.3-4.3-4.3v-87.4c0-3.1,1.3-4.3,4.3-4.3h13.5c3.1,0,4.3,1.3,4.3,4.3v34h53.5v-34c0-3.1,1.3-4.3,4.3-4.3h13.4
		c3,0,4.3,1.4,4.4,4.3V656.6z M219.6,581.2c0,3.1-1.3,4.3-4.3,4.3h-71.2v17.9H201c3.1,0,4.3,1.3,4.3,4.3v10.5c0,3.1-1.3,4.3-4.3,4.3
		h-56.9v18h71.2c3,0,4.3,1.3,4.3,4.3v11.8c0,3.1-1.3,4.3-4.3,4.3h-88.8c-3.1,0-4.3-1.3-4.3-4.3v-87.3c0-3.1,1.3-4.3,4.3-4.3h88.8
		c3.1,0,4.3,1.3,4.3,4.3V581.2z M333,581.1c0,3.1-1.3,4.3-4.3,4.3H296v71.1c0,3.1-1.3,4.3-4.3,4.3h-14.2c-3.1,0-4.3-1.3-4.3-4.3
		v-71.1h-33.6c-3.1,0-4.3-1.3-4.3-4.3v-11.9c0-3.1,1.3-4.3,4.3-4.3h89.1c3,0,4.3,1.4,4.4,4.3V581.1z M446.5,577.9
		c-0.2,3.1-1.8,6-4.3,7.9L380.6,640H442c3,0,4.3,1.3,4.2,4.3v12.4c0,3.1-1.3,4.3-4.3,4.3h-89.1c-3.1,0-4.3-1.3-4.3-4.3v-9.4
		c0.3-3.1,1.8-6,4.3-7.9l57.3-53.8H353c-3.1,0-4.3-1.3-4.3-4.3v-12c0-3.1,1.3-4.3,4.3-4.3h89.2c3,0,4.3,1.3,4.3,4.3V577.9z
		 M291.5,372.3v140.8c0,12.7-5.3,17.6-17.6,17.6h-55.1c-12.5,0-17.6-5.1-17.6-17.6V156.6c0-12.5,5.1-17.6,17.6-17.6h55.1
		c12.5,0,17.6,5.3,17.6,17.6v138.5h218.1V156.6c0-12.5,5.3-17.6,17.6-17.6H582c12.3,0,17.4,5.6,17.8,17.6v356.5
		c0,12.5-5.3,17.6-17.6,17.6h-54.7c-12.5,0-17.6-5.3-17.6-17.6V372.3H291.5z M555.5,660.9h-12.7c-3.1,0-4.3-1.3-4.3-4.3v-57.8
		c0-8.1-7.9-13.4-15.9-13.4h-37.9v71.1c0,3.1-1.3,4.3-4.3,4.3h-14.1c-3.1,0-4.3-1.3-4.3-4.3v-87.2c0-3.1,1.3-4.3,4.3-4.3h65.4
		c9.6,0.5,18.3,5.9,23.1,14.2c3.3,5.2,5,11.2,4.9,17.3l0.1,60.1C559.8,659.6,558.5,660.9,555.5,660.9z M673,581.2
		c0,3.1-1.3,4.3-4.3,4.3h-71.4v17.9h57c3.1,0,4.3,1.3,4.3,4.3v10.5c0,3.1-1.3,4.3-4.3,4.3h-56.9v18h71.3c2.9,0,4.3,1.3,4.3,4.3v11.8
		c0,3.1-1.3,4.3-4.3,4.3h-89c-3.1,0-4.3-1.3-4.3-4.3v-87.3c0-3.1,1.3-4.3,4.3-4.3h89c3.1,0,4.3,1.3,4.3,4.3V581.2z M788.6,660.7
		h-19.3c-3.3-0.2-6.3-1.6-8.6-4l-25.1-25.2c-2.6-2.4-5.9-3.7-9.4-3.9h-15.8v28.9c0,3.1-1.3,4.3-4.3,4.3h-12.9
		c-3.1,0-4.3-1.3-4.3-4.3v-87.2c0-3.1,1.3-4.3,4.3-4.3h49.8l11,0.4h4.7c9.4,0.4,18,5.6,22.8,13.8c3.2,5.3,4.9,11.3,4.9,17.5
		c0.7,7.6-2,15.1-7.2,20.6c-5.7,4.4-12.4,7.4-19.5,8.6l30.7,30.9C792.3,659,791.6,660.7,788.6,660.7z"/>
</g>
</svg>
