<?xml version="1.0" encoding="utf-8"?>
<!-- Generator: Adobe Illustrator 25.2.3, SVG Export Plug-In . SVG Version: 6.00 Build 0)  -->
<svg version="1.1" id="Layer_1" xmlns="http://www.w3.org/2000/svg" xmlns:xlink="http://www.w3.org/1999/xlink" x="0px" y="0px"
	 viewBox="0 0 800 800" style="enable-background:new 0 0 800 800;" xml:space="preserve">
<style type="text/css">
	.st0{fill:#29FD2E;}
</style>
<path class="st0" d="M799.2,187.2c-0.2-14.4-1.2-28.8-3.9-43c-3.3-17.3-7.9-34.2-16.2-49.8C770.3,77.9,759.3,63,745.7,50
	C725,30.1,701,16,673,8.6c-25.2-6.7-50.9-8.2-76.9-8.2C596,0.3,596,0.1,596,0H203.8c0,0.1,0,0.3,0,0.4c-14.7,0.3-29.4,0.2-44.1,2
	c-16,2-31.9,5-47.1,10.6c-23.9,8.8-44.7,22.6-62.4,41C30.1,74.7,16,98.8,8.5,126.8c-6.7,25-8.2,50.5-8.2,76.2L0,596.5
	c0.5,17.8,0.6,35.6,3.6,53.3c3.2,18.7,7.7,36.9,16.4,53.8c11.7,22.9,27.7,42.3,48.1,58.1c14.6,11.4,30.5,20.4,48.1,26.1
	c25.7,8.3,52.2,11.5,79.1,11.6c16.8,0.1,33.6,0.5,50.4,0.5c122-0.5,243.9,0.9,365.9-0.8c16.2-0.2,32.1-2.2,48-5.1
	c30.4-5.6,57.3-18.6,80.4-39.1c26.8-23.9,44.9-53.2,53.1-88.5c5.3-23.1,6.7-46.5,6.9-70v-4.7C800,590,799.3,192.5,799.2,187.2z
	 M204.8,348.9c25.6,0,46.4,20.8,46.4,46.4c0,9.2-2.7,17.8-7.3,25c-7.7,12-20.8,20.3-35.9,21.3c-1.1,0.1-2.1,0.1-3.2,0.1
	c-5.7,0-11.2-1-16.2-2.9c-10.2-3.8-18.7-11.1-24.1-20.5c-4-7-6.1-14.9-6.1-23C158.4,369.8,179.2,348.9,204.8,348.9z M657.8,514.7
	L657.8,514.7c-4.5,26-20.6,48.8-44.1,62.4c-21.9,12.7-48.2,16.5-76,20.5c-14.9,2.1-30.3,4.4-45.3,8.1
	c-39.8,9.8-78.3,28.9-115.6,47.5c-74.6,37-139,69-199.7,26.9c-44.5-30.8-42.4-87.9-37.2-119.1c4.8-29,17.8-55.6,30.3-81.4
	c2.1-4.4,4.3-8.8,6.4-13.2c6.3,2.5,13,4.2,19.7,5c-12.8,42.2,7.3,88,49.5,109.7l5.8,3l6.1-2.2c33.4-11.9,64.1-30.9,91.3-56.7
	c17.6-16.6,32.8-35,45.2-54.7c3.8,0.6,7.6,0.9,11.4,0.9c38.7,0,70.8-28.9,75.7-66.3c15.8-0.6,32.7-0.6,48.6,0
	c5,37.4,37,66.3,75.7,66.3c16.2,0,31.2-5.1,43.6-13.7C658,475.2,661.2,495,657.8,514.7z M359.3,394.9L359.3,394.9
	c0-23.3,17.2-42.6,39.5-45.9c2.2-0.3,4.6-0.5,6.9-0.5c14.9,0,28.1,7,36.6,18c2.1,2.7,3.9,5.7,5.4,8.8c2.9,6.1,4.4,12.9,4.4,19.6
	c0,3.7-0.4,7.3-1.3,10.8c-4.5,18.9-20.7,33.4-40.5,35.4c-1.5,0.2-3.1,0.2-4.7,0.2c-8.9,0-17.7-2.6-25.2-7.4
	C367.8,425.6,359.3,411.2,359.3,394.9z M456.5,337.9l48-97.1l48.5,99c-10.1,9.6-17.4,21.9-21,35.3c-17.5-0.6-35-0.6-52.5,0
	C475.6,360.5,467.4,347.6,456.5,337.9z M559.4,394.9c0-6.3,1.3-12.4,3.6-17.9c1.2-2.8,2.7-5.5,4.4-8c8.4-12.3,22.5-20.5,38.4-20.5
	c1.5,0,2.9,0.1,4.3,0.2c23.6,2.2,42.1,22.1,42.1,46.2h0c0,4.7-0.7,9.1-2,13.4c-3,10-9.3,18.7-17.9,24.7c-7.8,5.5-17.1,8.4-26.6,8.4
	c-21.4,0-39.5-14.6-44.8-34.4C559.9,403,559.4,399,559.4,394.9z M588,320.6c-3.2,0.8-6.4,1.8-9.5,2.9l-73.9-150.7l-74.1,149.8
	c-3.2-1.1-6.5-2-9.9-2.7l-74.5-220h316.7L588,320.6z"/>
</svg>
