<?xml version="1.0" encoding="utf-8"?>
<!-- Generator: Adobe Illustrator 25.2.3, SVG Export Plug-In . SVG Version: 6.00 Build 0)  -->
<svg version="1.1" id="Layer_1" xmlns="http://www.w3.org/2000/svg" xmlns:xlink="http://www.w3.org/1999/xlink" x="0px" y="0px"
	 viewBox="0 0 800 800" style="enable-background:new 0 0 800 800;" xml:space="preserve">
<style type="text/css">
	.st0{fill:#29FD2E;}
</style>
<g>
	<path class="st0" d="M613.8,444.7L613.8,444.7c-0.2,0-0.3,0-0.3,0h-0.1c-0.4,0-0.8,0-0.8-0.4c-0.8,0-1.6-0.4-2.5-0.4
		c-2.9-0.4-5.4-0.8-7.8-0.8c-1.2,0-2.5,0-4.1-0.4h-0.4c-8.7-0.8-15.7-1.6-22.3-3.7c-2.9-1.2-3.7-2.9-4.5-4.5c0-0.4-0.4-0.4-0.4-0.8
		l-5.4-1.6c2.5-19.4,1.6-39.1-2.9-58.2c-4.5-19.2-12.3-37.5-23.1-54.1l4.1-3.7v-0.8c0-2.1,0.4-4.1,2.1-6.2c5-4.5,11.1-8.3,18.6-12.8
		c1.2-0.8,2.5-1.2,3.7-2.1c2.5-1.2,4.5-2.5,7-4.1c0.4-0.4,1.2-0.8,2.1-1.6c0.4-0.4,0.8-0.4,0.8-0.8c5.8-5,7-13.2,2.9-18.6
		c-2.1-2.9-5.8-4.5-9.5-4.5c-3.3,0-6.2,1.2-9.1,3.3l-0.8,0.8c-0.8,0.4-1.2,1.2-2.1,1.7c-2.1,2.1-3.7,3.7-5.4,5.8
		c-0.8,0.8-1.6,2.1-2.9,2.9c-5.8,6.2-11.1,11.1-16.5,14.9c-1.2,0.8-2.5,1.2-3.7,1.2c-0.8,0-1.7,0-2.5-0.4h-0.8l-5,3.3
		c-5.4-5.8-11.1-10.7-16.9-15.7c-24.9-19.4-54.8-31.3-86.3-34.3l-0.4-5.4l-0.8-0.8c-1.2-1.2-2.9-2.5-3.3-5.4
		c-0.4-6.6,0.4-14,1.2-22.3v-0.4c0-1.2,0.4-2.9,0.8-4.1c0.4-2.5,0.8-5,1.2-7.8v-3.7c0-7.4-5.8-13.6-12.8-13.6
		c-3.3,0-6.6,1.6-9.1,4.1c-2.5,2.5-3.7,5.8-3.7,9.5v3.3c0,2.9,0.4,5.4,1.2,7.8c0.4,1.2,0.4,2.5,0.8,4.1v0.4
		c0.8,8.3,2.1,15.7,1.2,22.3c-0.4,2.9-2.1,4.1-3.3,5.4l-0.8,0.8l-0.4,5.4c-7.4,0.8-14.9,1.6-22.3,3.3c-31.8,7-59.8,23.1-81.7,46.2
		l-4.1-2.9H282c-0.8,0-1.7,0.4-2.5,0.4c-1.2,0-2.5-0.4-3.7-1.2c-5.4-3.7-10.7-9.1-16.5-15.3c-0.8-0.8-1.6-2.1-2.9-2.9
		c-1.7-2.1-3.3-3.7-5.4-5.8c-0.4-0.4-1.2-0.8-2.1-1.7c-0.4-0.4-0.8-0.4-0.8-0.8c-2.6-2.1-5.8-3.3-9.1-3.3c-3.7,0-7.4,1.7-9.5,4.5
		c-4.1,5.4-2.9,13.6,2.9,18.6c0.4,0,0.4,0.4,0.8,0.4c0.8,0.4,1.2,1.2,2.1,1.6c2.5,1.6,4.5,2.9,7,4.1c1.2,0.4,2.5,1.2,3.7,2.1
		c7.4,4.5,13.6,8.3,18.6,12.8c2.1,2.1,2.1,4.1,2.1,6.2v0.8l4.1,3.7c-0.8,1.2-1.6,2.1-2.1,3.3c-20.6,32.6-28.5,71-23.1,109l-5.4,1.6
		c0,0.4-0.4,0.4-0.4,0.8c-0.8,1.7-2.1,3.3-4.5,4.5c-6.2,2.1-13.6,2.9-22.3,3.7h-0.4c-1.2,0-2.9,0-4.1,0.4c-2.5,0-5,0.4-7.8,0.8
		c-0.8,0-1.6,0.4-2.5,0.4c-0.4,0-0.8,0-1.2,0.4c-7.4,1.6-12,8.7-10.7,15.3c1.2,5.8,6.6,9.5,13.2,9.5c1.2,0,2.1,0,3.3-0.4
		c0.4,0,0.8,0,0.8-0.4c0.8,0,1.6-0.4,2.5-0.4c2.9-0.8,5-1.6,7.4-2.9c1.2-0.4,2.5-1.2,3.7-1.6h0.4c7.8-2.9,14.9-5.4,21.5-6.2h0.8
		c2.5,0,4.1,1.2,5.4,2.1c0.4,0,0.4,0.4,0.8,0.4l5.8-0.8c9.9,30.5,28.9,57.8,54.1,77.6c5.8,4.5,11.6,8.3,17.7,12l-2.5,5.4
		c0,0.4,0.4,0.4,0.4,0.8c0.8,1.7,1.6,3.7,0.8,6.6c-2.5,6.2-6.2,12.4-10.7,19.4v0.4c-0.8,1.2-1.6,2.1-2.5,3.3
		c-1.7,2.1-2.9,4.1-4.5,6.6c-0.4,0.4-0.8,1.2-1.2,2.1c0,0.4-0.4,0.8-0.4,0.8c-3.3,7-0.8,14.9,5.4,17.7c1.6,0.8,3.3,1.2,5,1.2
		c5,0,9.9-3.3,12.4-7.8c0-0.4,0.4-0.8,0.4-0.8c0.4-0.8,0.8-1.6,1.2-2.1c1.2-2.9,1.7-5,2.5-7.4l1.2-3.7c2.9-8.3,5-14.9,8.7-20.6
		c1.6-2.5,3.7-2.9,5.4-3.7c0.4,0,0.4,0,0.8-0.4l2.9-5.4c18.2,7,38,10.7,57.8,10.7c12,0,24.4-1.2,35.9-4.1c7.3-1.6,14.4-3.7,21.5-6.2
		l2.5,4.5c0.4,0,0.4,0,0.8,0.4c2.1,0.4,3.7,1.2,5.4,3.7c3.3,5.8,5.8,12.8,8.7,20.6v0.4l1.2,3.7c0.8,2.5,1.2,5,2.5,7.4
		c0.4,0.8,0.8,1.2,1.2,2.1c0,0.4,0.4,0.8,0.4,0.8c2.5,5,7.4,7.8,12.4,7.8c1.7,0,3.3-0.4,5-1.2c2.9-1.6,5.4-4.1,6.2-7.4
		c0.8-3.3,0.8-7-0.8-10.3c0-0.4-0.4-0.4-0.4-0.8c-0.4-0.8-0.8-1.6-1.2-2.1c-1.2-2.5-2.9-4.5-4.5-6.6c-0.8-1.2-1.6-2.1-2.5-3.3v-0.4
		c-4.5-7-8.7-13.2-10.7-19.4c-0.8-2.9,0-4.5,0.4-6.6c0-0.4,0.4-0.4,0.4-0.8l-2.1-5c21.9-12.8,40.4-31,54.5-53.2
		c7.4-11.6,13.2-24.4,17.3-37.1l5,0.8c0.4,0,0.4-0.4,0.8-0.4c1.7-0.8,2.9-2.1,5.4-2.1h0.8c6.6,0.8,13.6,3.3,21.5,6.2h0.4
		c1.2,0.4,2.5,1.2,3.7,1.6c2.5,1.2,4.5,2.1,7.4,2.9c0.8,0,1.6,0.4,2.5,0.4c0.4,0,0.8,0,1.2,0.4c1.2,0.4,2.1,0.4,3.3,0.4
		c6.2,0,11.6-4.1,13.2-9.5C625.8,453.4,621.2,446.8,613.8,444.7z M495,317.6L440.9,356c-4.5,2.9-10.7,2.1-14.4-2.5
		c-1.2-1.2-1.6-2.9-2.1-4.5l-3.7-67.3C448.8,284.9,475,297.6,495,317.6z M394.3,389.4h20.2l12.4,15.7l-4.1,19.4h0l-18.2,8.7
		l-18.2-8.7l-4.5-19.4L394.3,389.4z M375.3,283.7L375.3,283.7c4.5-0.8,8.7-1.7,13.2-2.5l-3.7,66c-0.4,5.8-5,10.7-11.1,10.7
		c-1.6,0-3.7-0.4-5-1.2l-54.9-39.2C330.7,300.7,351.7,289.1,375.3,283.7z M294,342.3l49.1,43.7c4.5,3.7,5,10.7,1.2,15.3
		c-1.2,1.6-2.9,2.9-5,3.3l-64,18.6C272.9,395.2,279.1,366.7,294,342.3z M359.6,458.3L334.4,519c-23.1-14.9-41.7-37.6-51.6-64.8h0
		l65.6-11.1c5.4-0.4,10.3,3.3,11.6,8.7C360.4,454.2,360.4,456.2,359.6,458.3z M433.5,536.3L433.5,536.3c-9.5,2.1-19,3.3-28.9,3.3
		c-14.4,0-28.5-2.5-41.7-6.6l32.6-59c3.3-3.7,8.7-5.4,13.2-2.9c1.9,1.2,3.6,2.7,5,4.5l31.8,57.4
		C441.7,534.3,437.6,535.1,433.5,536.3z M513.9,478.9L513.9,478.9c-10.3,16.5-23.9,29.7-39.6,40l-26-62.3c-1.2-5,0.8-10.3,5.8-12.8
		c1.6-0.8,3.7-1.2,5.8-1.2l66,11.1C523.4,462.9,519.3,471.1,513.9,478.9z M533.3,423.2l-63.1-18.2c-5.8-1.6-9.1-7.4-7.8-13.2
		c0.4-1.7,1.2-3.3,2.5-4.5l49.9-45c7,11.6,12.4,24.8,15.7,39.2v0C533.7,395.2,534.6,409.3,533.3,423.2z"/>
	<path class="st0" d="M799.2,187.2c-0.2-14.4-1.2-28.8-3.9-43c-3.3-17.3-7.9-34.2-16.2-49.8C770.3,77.9,759.3,63,745.7,50
		C725,30.1,701,16,673,8.6c-25.2-6.7-50.9-8.2-76.9-8.2C596,0.3,596,0.1,596,0H203.8c0,0.1,0,0.3,0,0.4c-14.7,0.3-29.4,0.2-44.1,2
		c-16,2-31.9,5-47.1,10.6c-23.9,8.8-44.7,22.6-62.4,41C30.1,74.7,16,98.8,8.5,126.8c-6.7,25-8.2,50.5-8.2,76.2L0,596.5
		c0.5,17.8,0.6,35.6,3.6,53.3c3.2,18.7,7.7,36.9,16.4,53.8c11.7,22.9,27.7,42.3,48.1,58.1c14.6,11.4,30.5,20.4,48.1,26.1
		c25.7,8.3,52.2,11.5,79.1,11.6c16.8,0.1,33.6,0.5,50.4,0.5c122-0.5,243.9,0.9,365.9-0.8c16.2-0.2,32.1-2.2,48-5.1
		c30.4-5.6,57.3-18.6,80.4-39.1c26.8-23.9,44.9-53.2,53.1-88.5c5.3-23.1,6.7-46.5,6.9-70v-4.7C800,590,799.3,192.5,799.2,187.2z
		 M695.5,496.3L551.1,675.8c-7.4,9.5-19,14.9-31,14.9H288.6c-12,0-23.5-5.4-31-14.9L113.2,496.3c-7.4-9.5-10.3-21.9-7.8-33.8
		l51.6-224.1c2.9-12,10.7-21.9,21.5-26.8l208.8-99.9c5.4-2.1,11.6-3.3,17.3-3.3l0,0c5.8,0,11.6,1.2,16.9,3.7l208.8,99.5
		c10.7,5.4,19,15.3,21.5,26.8l51.6,224.1C706.3,474.4,703.4,486.8,695.5,496.3z"/>
</g>
</svg>
