<?xml version="1.0" encoding="utf-8"?>
<!-- Generator: Adobe Illustrator 25.2.3, SVG Export Plug-In . SVG Version: 6.00 Build 0)  -->
<svg version="1.1" id="Layer_1" xmlns="http://www.w3.org/2000/svg" xmlns:xlink="http://www.w3.org/1999/xlink" x="0px" y="0px"
	 viewBox="0 0 800 800" style="enable-background:new 0 0 800 800;" xml:space="preserve">
<style type="text/css">
	.st0{fill:#29FD2E;}
</style>
<g>
	<path class="st0" d="M554.9,559c-1.9-1-3.7-2.1-5.5-3.3C551.2,556.9,553,558,554.9,559z"/>
	<path class="st0" d="M535.9,542.3c-0.8-1.1-1.6-2.3-2.4-3.5C534.3,540,535,541.2,535.9,542.3z"/>
	<rect x="643.7" y="233.2" class="st0" width="0" height="0"/>
	<path class="st0" d="M549.4,555.7c-1.7-1.2-3.4-2.5-5-3.9C546,553.1,547.7,554.4,549.4,555.7z"/>
	<path class="st0" d="M799.2,187.2c-0.2-14.4-1.2-28.8-3.9-43c-3.3-17.3-7.9-34.2-16.2-49.8C770.3,77.9,759.3,63,745.7,50
		C725,30.1,701,16,673,8.6c-25.2-6.7-50.9-8.2-76.9-8.2c-0.1-0.1-0.1-0.3-0.1-0.4H203.8c0,0.1,0,0.3,0,0.4
		c-14.7,0.3-29.4,0.2-44.1,2c-16,2-31.9,5-47.1,10.6c-23.9,8.8-44.7,22.6-62.4,41C30.1,74.7,16,98.8,8.5,126.8
		c-6.7,25-8.2,50.5-8.2,76.2L0,596.5v0c0.5,17.8,0.6,35.6,3.6,53.3c3.2,18.7,7.7,36.9,16.4,53.8c11.7,22.9,27.7,42.3,48.1,58.1
		c14.6,11.4,30.5,20.4,48.1,26.1c25.7,8.3,52.2,11.5,79.1,11.6c16.8,0.1,33.6,0.5,50.4,0.5c122-0.5,243.9,0.9,365.9-0.8
		c16.2-0.2,32.1-2.2,48-5.1c30.4-5.6,57.3-18.6,80.4-39.1c26.8-23.9,44.9-53.2,53.1-88.5c5.3-23.1,6.7-46.5,6.9-70v-4.7
		C800,590,799.3,192.5,799.2,187.2z M695.3,312.2l-2.6,5.2L583.3,533l-2.1,4c-5.6,9.8-14.1,17.8-24.4,23c-0.6-0.3-1.3-0.6-1.9-1
		c0.6,0.3,1.3,0.7,1.9,1c-3.3,1.6-7,3-10.5,4c-4.5,1.2-9.4,1.9-14.3,1.9h-76.4c-21.1-0.2-39.4-11.7-49-28.8l-2.1-4l-98.3-194.9
		l-55.5,109.8l-44.1,86.7l-1.2,2.3c-9.6,17.1-27.9,28.8-49,28.8c0,0-0.1,0-0.1,0c0,0-0.1,0-0.1,0c-31.2,0-56.2-25.1-56.2-56
		c0-8.2,1.6-15.7,4.7-22.7l2.8-5.4L217,266l1.9-4c5.6-9.8,14.1-17.8,24.4-23c3.3-1.6,7-3,10.5-4c4.5-1.2,9.4-1.9,14.1-1.9h76.9
		c21.1,0.2,39.4,11.7,49,28.8l1.6,4l98.5,194.9l55.7-109.8l44.1-86.7l1.2-2.3c9.4-17.1,27.9-28.8,49-28.8l0,0h0h0
		c31.2,0,56.3,25.1,56.3,56.2C700,297.7,698.4,305.2,695.3,312.2z"/>
	<path class="st0" d="M541.3,548.8c-1-1-1.9-2.1-2.9-3.1C539.4,546.8,540.4,547.8,541.3,548.8z"/>
</g>
</svg>
