<?xml version="1.0" encoding="utf-8"?>
<!-- Generator: Adobe Illustrator 25.2.3, SVG Export Plug-In . SVG Version: 6.00 Build 0)  -->
<svg version="1.1"
	 id="svg2" xmlns:cc="http://creativecommons.org/ns#" xmlns:dc="http://purl.org/dc/elements/1.1/" xmlns:rdf="http://www.w3.org/1999/02/22-rdf-syntax-ns#" xmlns:svg="http://www.w3.org/2000/svg"
	 xmlns="http://www.w3.org/2000/svg" xmlns:xlink="http://www.w3.org/1999/xlink" x="0px" y="0px" viewBox="0 0 800 800"
	 style="enable-background:new 0 0 800 800;" xml:space="preserve">
<style type="text/css">
	.st0{display:none;}
	.st1{display:inline;}
	.st2{clip-path:url(#SVGID_2_);}
	.st3{fill:url(#path32_1_);}
	.st4{clip-path:url(#SVGID_4_);}
	.st5{fill:url(#path60_1_);}
	.st6{clip-path:url(#SVGID_6_);}
	.st7{fill:url(#path4389_1_);}
	.st8{clip-path:url(#SVGID_8_);}
	.st9{fill:#FFFFFF;}
	.st10{clip-path:url(#SVGID_10_);}
	.st11{clip-path:url(#SVGID_12_);}
	.st12{fill:#002D6A;}
	.st13{fill:none;stroke:#002D6A;stroke-width:1.3182;stroke-miterlimit:10;}
	.st14{fill:#29FD2E;}
</style>
<g id="layer1" transform="translate(1215.1765,-1422.0469)" class="st0">
	
		<image style="display:inline;overflow:visible;enable-background:new    ;" width="3001" height="1204" id="image4144" xlink:href="53316B0D4290D14.png"  transform="matrix(0.1666 0 0 0.1666 -1020.4489 1721.8958)">
	</image>
</g>
<g id="layer4" transform="translate(-33.024334,-1337.6177)" class="st0">
	<g id="g14" transform="matrix(0.19020245,0,0,-0.19020245,35.024702,1540.396)" class="st1">
		<g>
			<defs>
				<path id="SVGID_1_" d="M1097.8-854.2c-145.7-230.7-98.9-521.6,104.4-650.1c203.3-128.3,486.2-45.5,631.8,185.2
					c145.6,230.6,169.9,634.2-33.4,762.6C1597.3-428.1,1243.3-623.6,1097.8-854.2"/>
			</defs>
			<clipPath id="SVGID_2_">
				<use xlink:href="#SVGID_1_"  style="overflow:visible;"/>
			</clipPath>
			<g id="g16" class="st2">
				
					<radialGradient id="path32_1_" cx="-2909.5862" cy="-3854.5349" r="1" gradientTransform="matrix(94.4918 0.8126 0.8126 -94.4918 279545.125 -362898.2188)" gradientUnits="userSpaceOnUse">
					<stop  offset="0" style="stop-color:#FFFFFF"/>
					<stop  offset="0.2708" style="stop-color:#FFFFFF"/>
					<stop  offset="0.649" style="stop-color:#FFFFFF"/>
					<stop  offset="1" style="stop-color:#D6D7DD"/>
				</radialGradient>
				<path id="path32" class="st3" d="M1097.8-854.2c-145.7-230.7-98.9-521.6,104.4-650.1c203.3-128.3,486.2-45.5,631.8,185.2
					c145.6,230.6,169.9,634.2-33.4,762.6C1597.3-428.1,1243.3-623.6,1097.8-854.2"/>
			</g>
		</g>
	</g>
	<g id="g44" transform="matrix(0.19020245,0,0,-0.19020245,34.486193,1540.396)" class="st1">
		<g>
			<defs>
				<path id="SVGID_3_" d="M2180.1-553.2c-51.4,32.5-112.5,44.2-177.4,39.9C1811.1-526,1586-678.7,1477.3-851
					c-145.7-230.6-98.9-521.6,104.4-650.1c59.6-37.6,126-57,193.8-59.8c163.5-7.1,335,82,438,245.1
					C2359.2-1085.2,2383.5-681.5,2180.1-553.2"/>
			</defs>
			<clipPath id="SVGID_4_">
				<use xlink:href="#SVGID_3_"  style="overflow:visible;"/>
			</clipPath>
			<g id="g46" class="st4">
				
					<radialGradient id="path60_1_" cx="-2906.751" cy="-3854.5327" r="1" gradientTransform="matrix(94.4829 0.8126 0.8126 -94.4829 279630.4688 -362862.75)" gradientUnits="userSpaceOnUse">
					<stop  offset="0" style="stop-color:#F7ED1A"/>
					<stop  offset="0.19" style="stop-color:#F7ED1A"/>
					<stop  offset="1" style="stop-color:#EF7C29"/>
				</radialGradient>
				<path id="path60" class="st5" d="M2180.1-553.2c-51.4,32.5-112.5,44.2-177.4,39.9C1811.1-526,1586-678.7,1477.3-851
					c-145.7-230.6-98.9-521.6,104.4-650.1c59.6-37.6,126-57,193.8-59.8c163.5-7.1,335,82,438,245.1
					C2359.2-1085.2,2383.5-681.5,2180.1-553.2"/>
			</g>
		</g>
	</g>
	<g id="g4385" transform="matrix(0.19020245,0,0,-0.19020245,35.024702,1540.396)" class="st1">
		<g>
			<defs>
				<path id="SVGID_5_" d="M2571.6-549.9c-51.4,32.5-112.5,44.3-177.3,39.9c-191.7-12.7-416.7-165.4-525.5-337.7
					c-145.7-230.7-98.9-521.7,104.4-650.1c59.6-37.6,126-57,193.9-59.9c163.5-7,335,82.2,437.9,245.1
					C2750.6-1081.9,2774.9-678.2,2571.6-549.9"/>
			</defs>
			<clipPath id="SVGID_6_">
				<use xlink:href="#SVGID_5_"  style="overflow:visible;"/>
			</clipPath>
			<g id="g4387" class="st6">
				
					<radialGradient id="path4389_1_" cx="-2909.582" cy="-3854.5327" r="1" gradientTransform="matrix(94.4823 0.8125 0.8125 -94.4823 280287.7812 -362854.9375)" gradientUnits="userSpaceOnUse">
					<stop  offset="0" style="stop-color:#FFFFFF"/>
					<stop  offset="0.2708" style="stop-color:#FFFFFF"/>
					<stop  offset="0.649" style="stop-color:#FFFFFF"/>
					<stop  offset="1" style="stop-color:#D6D7DD"/>
				</radialGradient>
				<path id="path4389" class="st7" d="M2571.6-549.9c-51.4,32.5-112.5,44.3-177.3,39.9c-191.7-12.7-416.7-165.4-525.5-337.7
					c-145.7-230.7-98.9-521.7,104.4-650.1c59.6-37.6,126-57,193.9-59.9c163.5-7,335,82.2,437.9,245.1
					C2750.6-1081.9,2774.9-678.2,2571.6-549.9"/>
			</g>
		</g>
	</g>
	<g id="g34" transform="matrix(0.19020245,0,0,-0.19020245,35.563212,1540.396)" class="st1">
		<g>
			<defs>
				<rect id="SVGID_7_" x="2053.6" y="-1137.3" width="488.8" height="200.8"/>
			</defs>
			<clipPath id="SVGID_8_">
				<use xlink:href="#SVGID_7_"  style="overflow:visible;"/>
			</clipPath>
			<g id="g36" class="st8">
				<path id="path42" class="st9" d="M1477.3-851c108.8,172.3,333.8,325,525.5,337.7c-199.9,10.2-451.8-152.5-569-338
					c-145.6-230.7-98.9-521.6,104.4-650.1c72.3-45.6,154.6-64.5,237.3-59.5c-67.8,2.9-134.2,22.2-193.8,59.8
					C1378.3-1372.6,1331.6-1081.6,1477.3-851"/>
			</g>
		</g>
	</g>
	<g id="g62" transform="matrix(0.19020245,0,0,-0.19020245,35.563212,1540.396)" class="st1">
		<g>
			<defs>
				<rect id="SVGID_9_" x="2053.6" y="-1137.1" width="488.8" height="200.9"/>
			</defs>
			<clipPath id="SVGID_10_">
				<use xlink:href="#SVGID_9_"  style="overflow:visible;"/>
			</clipPath>
			<g id="g64" class="st10">
				<path id="path70" class="st9" d="M1868.8-847.6c108.8,172.3,333.9,325,525.5,337.7c-199.9,10.2-451.8-152.5-569-338
					c-145.6-230.7-98.9-521.7,104.4-650.1c72.3-45.7,154.6-64.4,237.3-59.5c-67.8,2.9-134.3,22.3-193.9,59.9
					C1769.9-1369.3,1723.1-1078.3,1868.8-847.6"/>
			</g>
		</g>
	</g>
	<g id="g92" transform="matrix(1.4271495,0,0,-1.4271495,-39.724188,1536.9408)" class="st1">
	</g>
	<g id="g4456" transform="matrix(0.13327437,0,0,0.13327437,30.356488,1335.1328)" class="st1">
		<g>
			<defs>
				<rect id="SVGID_11_" x="3033.8" y="2916.1" width="488.8" height="200.9"/>
			</defs>
			<clipPath id="SVGID_12_">
				<use xlink:href="#SVGID_11_"  style="overflow:visible;"/>
			</clipPath>
			<g id="g94" transform="matrix(1.4271495,0,0,-1.4271495,-1.3383912,1536.9408)" class="st11">
				<path id="path100" class="st12" d="M3130.3-1064.3l35.3,0.3l0.3-30.9l-35.3-0.3L3130.3-1064.3"/>
				<path id="path102" class="st12" d="M3260.7-1078.1l31.4-3.1c-1.7-6.1-4.5-11.3-8.5-15.9c-3.9-4.5-8.8-8-14.9-10.5
					c-6.1-2.5-14-3.8-23.4-3.9c-9.1-0.1-16.7,0.6-22.8,2.2c-6.1,1.6-11.4,4-15.8,7.6c-4.4,3.5-7.8,7.6-10.3,12.4
					c-2.6,4.8-3.9,11.1-4,19c-0.1,8.3,1.4,15.2,4.4,20.7c2.1,4.1,5.2,7.7,9,11c3.8,3.2,7.7,5.6,11.8,7.3c6.3,2.5,14.6,3.8,24.6,3.9
					c14,0.1,24.8-2.2,32.2-6.8c7.3-4.6,12.6-11.4,15.6-20.4l-31.1-4.1c-1,3.4-2.8,6.1-5.4,7.9c-2.6,1.8-5.9,2.6-10.3,2.6
					c-5.3,0-9.8-2-13.1-5.7c-3.3-3.7-5-9.2-5-16.7c0.1-6.6,1.9-11.7,5.2-15.1c3.4-3.4,7.7-5.1,12.8-5.1c4.4,0.1,7.9,1.1,10.8,3.2
					C3257.1-1085.6,3259.3-1082.4,3260.7-1078.1"/>
				<path id="path104" class="st12" d="M3327.8-1101c8.6-6.5,19.7-9.6,33.6-9.5c15.5,0.1,27.7,4.2,36.3,12.1
					c8.7,8,13.1,18.2,12.9,30.5c-0.1,11-3.7,20.3-10.9,27.7c-8.9,9.2-21.9,13.8-39.2,13.6c-15.1-0.1-27-4.2-35.7-12.2
					c-8.9-8-13.1-18.2-13.1-30.4C3312-1082.4,3317.4-1093,3327.8-1101z M3349.5-1053.1c3.1,3.5,7,5.3,11.8,5.4
					c4.5,0,8.3-1.7,11.4-5.1c3.1-3.4,4.7-8.5,4.8-15.5c0.1-7.5-1.4-12.9-4.5-16.3c-2.9-3.4-6.8-5.1-11.5-5.2
					c-4.8,0-8.5,1.7-11.7,5.1c-3,3.4-4.7,8.6-4.7,15.9C3344.9-1061.8,3346.5-1056.6,3349.5-1053.1"/>
				<path id="path106" class="st12" d="M3433.3-1027.8l30.9,0.3l0.1-11.7c4.5,5,8.9,8.5,13.4,10.6c4.5,2.1,9.9,3.2,16.3,3.2
					c6.9,0.1,12.3-1,16.4-3.3c4-2.3,7.4-5.6,9.9-10c5.2,5.3,9.9,8.8,14,10.8c4.3,1.9,9.6,2.9,15.9,3c9.2,0.1,16.4-2.4,21.6-7.5
					c5.3-5.1,7.9-13,8-24l0.5-50.4l-33.2-0.3l-0.4,45.7c0,3.6-0.7,6.3-2.3,8c-2.2,2.7-4.9,4.1-8.3,4.1c-3.8,0-6.9-1.4-9.2-4
					c-2.4-2.6-3.5-6.9-3.4-12.6l0.4-41.5l-33.2-0.2l-0.5,44.2c0,3.5-0.2,5.9-0.7,7.2c-0.7,2.1-2,3.6-3.7,4.9
					c-1.7,1.2-3.8,1.8-6.1,1.8c-3.8,0-6.8-1.4-9.3-4.1c-2.3-2.7-3.6-7.1-3.6-13.2l0.4-41l-33.2-0.2L3433.3-1027.8"/>
				<path id="path108" class="st12" d="M1918.5-928.2l-7.9-24.3c8.4,9.7,17.3,17,26.9,21.9c9.5,4.9,19.8,7.4,30.8,7.4
					c13.6,0.1,24-3,31-9.4c7.1-6.4,10.5-14.6,10.4-24.4c-0.1-9.8-3.1-26.3-9.1-49.3l-47.8-184.8l-80.1-0.7l47.3,182.7
					c4.8,18.1,7,29.2,6.9,33.2c-0.2,4-2.8,5.9-8.2,5.9c-5.4-0.1-9.5-2.4-12.2-6.9c-2.6-4.6-6.5-16.8-11.7-36.7l-46.1-178.3
					l-80.1-0.7l68.2,263.7L1918.5-928.2"/>
				<path id="path110" class="st12" d="M2125.9-1020.1l5,19.4c3.6,13.8,5.1,22.6,4.6,26.6c-0.4,4-2.8,6-7.2,5.9
					c-5.6,0-9.4-1.7-11.6-5.1c-2.2-3.4-5.2-12.6-9.1-27.5l-5-19.4L2125.9-1020.1z M2194.9-1062.1l-103.3-0.9l-14.8-57
					c-3.1-12-4.2-19.6-3.4-23.1c0.8-3.4,3.6-5.1,8.4-5.1c5.9,0,10.5,2.4,13.7,6.9c3.1,4.6,6.4,13.5,9.8,26.6l9,34.8l76.1,0.6
					l-5-19.5c-4.2-16.3-8.5-28.8-12.8-37.6c-4.3-8.8-11.5-18.1-21.6-28.1c-10.1-9.9-21.5-17.5-34.4-22.6
					c-12.8-5.1-27.9-7.6-45.4-7.8c-16.8-0.2-31,2.1-42.7,6.9c-11.7,4.8-20,11.4-25,19.9c-5,8.5-7.5,17.8-7.7,28
					c-0.1,10.3,2.4,25.2,7.4,44.8l19.9,76.8c5.9,23.1,13.7,41.2,23.4,54.6c9.7,13.4,22.5,23.6,38.4,30.8c16,7.2,33.1,10.9,51.4,11
					c22.4,0.2,39.8-4,52.2-12.3c12.4-8.4,19.7-19.7,21.9-33.7c2.2-14.1,0.1-33.8-6.5-59.4L2194.9-1062.1"/>
				<path id="path112" class="st12" d="M2514.7-923.1l-100.4-263.9l-86.1-0.8c3.6,32.2,9.2,74.8,16.5,127.9
					c-8.8-23.5-18.3-47.1-28.3-70.6l-23.1-57.5l-86.1-0.8l34.3,263.4l68.4,0.6c-1-6.8-8.1-57.3-21.5-151.5
					c3.8,10.1,23,60.7,57.5,151.8l65.3,0.6l-22.6-151.5c14.2,44.6,33.4,95.2,57.5,151.8L2514.7-923.1"/>
				<path id="path114" class="st12" d="M2614.2-1015.4l5,19.4c3.5,13.7,5.1,22.6,4.6,26.6c-0.4,4-2.9,6-7.2,5.9
					c-5.6-0.1-9.4-1.7-11.6-5.2c-2.2-3.4-5.2-12.6-9-27.5l-5.1-19.4L2614.2-1015.4z M2683.2-1057.3l-103.3-0.9l-14.8-57
					c-3.1-12-4.2-19.7-3.4-23.1c0.8-3.4,3.6-5.2,8.4-5.1c5.9,0,10.5,2.3,13.7,6.9c3.2,4.6,6.5,13.5,9.9,26.6l9,34.8l76.1,0.6
					l-5.1-19.5c-4.2-16.3-8.4-28.8-12.8-37.6c-4.4-8.8-11.6-18.1-21.6-28.1c-10.1-10-21.5-17.5-34.3-22.6c-12.8-5-27.9-7.6-45.4-7.8
					c-16.8-0.1-30.9,2.2-42.7,7c-11.7,4.8-20,11.4-25,19.9c-5,8.5-7.5,17.8-7.7,28.1c-0.1,10.2,2.3,25.1,7.4,44.8l19.9,76.8
					c5.9,23,13.8,41.2,23.4,54.6c9.6,13.4,22.5,23.6,38.4,30.8c15.9,7.2,33.1,10.9,51.4,11c22.4,0.2,39.8-3.9,52.2-12.3
					c12.4-8.5,19.7-19.6,21.9-33.7c2.2-14.1,0.1-33.9-6.5-59.4L2683.2-1057.3"/>
				<path id="path116" class="st12" d="M2828.9-989.6c3.1,12,4.4,19.8,3.8,23.1c-0.6,3.3-3.2,4.9-7.8,4.9c-4.7-0.1-8.5-2-11.3-5.8
					c-2.9-3.8-5.8-11.3-8.7-22.4l-22.9-88.8c-3.1-11.8-4.4-19.4-3.8-22.9c0.5-3.5,3.1-5.3,7.8-5.2c5.2,0,9.2,2.1,12,6.4
					c2.7,4.3,6,14,9.9,28.9L2828.9-989.6z M2927.1-919l-52.6-203.3c-7.2-27.5-12.4-45.3-15.8-53.2c-3.4-8-10-16.5-20.1-25.6
					c-9.9-9-22.3-15.9-37.2-20.7c-14.9-4.8-32.7-7.4-53.3-7.6c-25.6-0.2-45,4-58.1,12.5c-13.2,8.6-16.8,25.7-10.7,51.1l77.7,0.7
					c-3.1-11.9-0.4-17.8,8.3-17.8c6,0,10.6,1.9,13.5,5.6c2.9,3.7,5.9,11.3,8.9,22.8l5.2,20.2c-8.5-6.3-16.9-11.1-25.3-14.4
					c-8.5-3.2-16.8-4.9-25.2-5c-14.4-0.1-25.6,2.7-33.4,8.4c-7.8,5.7-12.2,13.3-13.3,22.8c-1.1,9.4,0.6,22.9,5.2,40.4l24.8,95.6
					c6.5,25,15.6,43,27.5,54.1c11.8,11,27,16.6,45.2,16.8c10,0.1,18.6-1.9,25.8-5.9c7.3-4.1,13-10.2,17.5-18.3l10.8,20.1L2927.1-919
					"/>
				<path id="path118" class="st12" d="M3039.5-987.9c3.1,12.1,4.3,19.7,3.8,23.1c-0.5,3.3-3.2,4.9-7.8,4.9c-4.7,0-8.4-1.9-11.4-5.8
					c-2.8-3.8-5.7-11.3-8.6-22.4l-23-88.8c-3-11.8-4.3-19.4-3.8-22.9c0.4-3.5,3.1-5.2,7.8-5.2c5.2,0.1,9.1,2.1,11.8,6.4
					c2.8,4.3,6.1,13.9,10,28.9L3039.5-987.9z M3137.7-917.2l-52.6-203.3c-7.1-27.5-12.3-45.2-15.7-53.2c-3.4-8-10-16.5-20-25.5
					c-10-9-22.4-16-37.2-20.8c-14.9-4.8-32.6-7.3-53.3-7.4c-25.6-0.3-44.9,3.9-58.1,12.5c-13.3,8.6-16.8,25.6-10.8,51.2l77.7,0.6
					c-3-11.9-0.4-17.8,8.3-17.7c6.1,0.1,10.6,1.9,13.5,5.6c3,3.7,5.9,11.3,8.9,22.8l5.2,20.2c-8.4-6.3-16.9-11.1-25.4-14.4
					c-8.4-3.3-16.8-4.9-25.2-5c-14.5-0.1-25.6,2.7-33.4,8.4c-7.9,5.7-12.2,13.4-13.3,22.8c-1.1,9.4,0.7,22.8,5.1,40.3l24.7,95.7
					c6.5,25,15.7,43,27.5,54.1c11.9,11.1,26.9,16.7,45.3,16.8c10,0.1,18.6-1.9,25.8-6c7.2-4,13-10.1,17.4-18.3l10.8,20.1
					L3137.7-917.2"/>
			</g>
		</g>
		<g id="g4452">
			<path id="path120" class="st12" d="M5163.4,2937.4h13c5.7,0,10.6-3.4,10.4-7.6c-0.2-5.4-3.9-9.3-8.5-9.3h-15V2937.4z
				 M5151.4,2971v-60.1h26.5c5.3,0,9.3,0.6,12.1,1.6c2.8,1.1,5,3,6.6,5.7c1.6,2.7,3.1,6.5,3.1,9.8c0,4.3-0.9,8-3.6,10.9
				c-2.7,2.9-7,5-12.7,5.8c2.1,1,2.6,0.9,3.6,1.9c2.3,2.1,4.5,4.8,6.6,8l10.3,16.3H5188c-4.6-6.8-7.9-14.4-12.8-20.8
				c-2.1-2.7-3.6-2.9-6.6-3h-5.2v23.7H5151.4"/>
			<path id="path122" class="st13" d="M5227.1,2941.9c0,28.1-22.8,50.9-50.9,50.9c-28.1,0-50.9-22.8-50.9-50.9
				c0-28.1,22.8-50.9,50.9-50.9C5204.3,2891,5227.1,2913.8,5227.1,2941.9z"/>
		</g>
	</g>
</g>
<path class="st14" d="M799.2,187.2c-0.2-14.4-1.2-28.8-3.9-43c-3.3-17.3-7.9-34.2-16.2-49.8C770.3,77.9,759.3,63,745.7,50
	C725,30.1,701,16,673,8.6c-25.2-6.7-50.9-8.2-76.9-8.2c-0.1-0.1-0.1-0.3-0.1-0.4H203.8c0,0.1,0,0.3,0,0.4c-14.7,0.3-29.4,0.2-44.1,2
	c-16,2-31.9,5-47.1,10.6c-23.9,8.8-44.7,22.6-62.4,41C30.1,74.7,16,98.8,8.5,126.8c-6.7,25-8.2,50.5-8.2,76.2L0,596.5v0
	c0.5,17.8,0.6,35.6,3.6,53.3c3.2,18.7,7.7,36.9,16.4,53.8c11.7,22.9,27.7,42.3,48.1,58.1c14.6,11.4,30.5,20.4,48.1,26.1
	c25.7,8.3,52.2,11.5,79.1,11.6c16.8,0.1,33.6,0.5,50.4,0.5c122-0.5,243.9,0.9,365.9-0.8c16.2-0.2,32.1-2.2,48-5.1
	c30.4-5.6,57.3-18.6,80.4-39.1c26.8-23.9,44.9-53.2,53.1-88.5c5.3-23.1,6.7-46.5,6.9-70v-4.7C800,590,799.3,192.5,799.2,187.2z
	 M215.2,530.1c-56.6-35.8-69.6-116.7-29.1-180.9c31.7-50.1,98.7-94.3,153.5-94.2c15,0,29,3.4,41.2,10.8
	c-39.9,16.3-78.5,48.1-100.4,82.7c-40.5,64.2-27.5,145.2,29.1,180.9c4.5,2.8,9.1,5.3,13.9,7.4C287.7,551.7,247.8,550.7,215.2,530.1z
	 M374,545.8c-18.9-0.8-37.4-6.2-54-16.6c-56.6-35.8-69.6-116.8-29.1-180.9c30.3-48,92.9-90.5,146.3-94c2.3-0.1,4.5-0.2,6.7-0.2
	c15.5-0.1,30.1,3.4,42.6,11.3c0.2,0.1,0.5,0.3,0.7,0.4c-38.3,15.6-77,47.5-98.3,81.3c-27.6,40.1-48.9,141.2,41.2,188.2
	C412,543.4,392.9,546.7,374,545.8z M605.7,476.7c-28.7,45.4-76.4,70.2-121.9,68.2c-18.9-0.8-37.4-6.2-54-16.7
	c-56.6-35.7-69.6-116.7-29.1-180.9c30.3-48,92.9-90.5,146.3-94c18-1.2,35,2.1,49.3,11.1C653,300.2,646.2,412.5,605.7,476.7z"/>
<g id="layer9" transform="translate(-33.433072,-1339.3989)" class="st0">
	<g id="g4649" transform="matrix(0.13327437,0,0,0.13327437,30.765225,1336.914)" class="st1">
		<path id="path4517" class="st12" d="M4466.1,3055.9l50.3-0.4l0.4,44.1l-50.4,0.4L4466.1,3055.9"/>
		<path id="path4519" class="st12" d="M4652.1,3075.5l44.9,4.5c-2.5,8.7-6.4,16.2-12.1,22.7c-5.6,6.4-12.5,11.4-21.3,15
			c-8.8,3.6-20,5.4-33.5,5.6c-13,0.1-23.9-0.9-32.5-3.1c-8.7-2.2-16.2-5.7-22.6-10.8c-6.2-5-11.1-10.9-14.7-17.7
			c-3.7-6.9-5.6-15.9-5.7-27.1c-0.1-11.9,2-21.6,6.3-29.5c3-5.8,7.4-11,12.8-15.6c5.4-4.6,11-8.1,16.8-10.4c9-3.6,20.8-5.5,35.2-5.6
			c20-0.2,35.3,3.1,46,9.7c10.5,6.6,18,16.3,22.3,29.1l-44.4,5.9c-1.4-4.9-4-8.7-7.6-11.2c-3.7-2.6-8.5-3.7-14.7-3.7
			c-7.6,0.1-13.9,2.8-18.7,8.1c-4.7,5.3-7.1,13.2-7.1,23.8c0.1,9.5,2.7,16.7,7.4,21.5c4.9,4.9,11,7.3,18.3,7.2
			c6.2-0.1,11.2-1.6,15.5-4.5C4647,3086.2,4650.2,3081.7,4652.1,3075.5"/>
		<path id="path4521" class="st12" d="M4747.9,3108.2c12.3,9.2,28.1,13.8,48,13.6c22.1-0.1,39.5-6,51.8-17.3
			c12.4-11.5,18.7-25.9,18.5-43.5c-0.2-15.7-5.3-28.9-15.6-39.6c-12.6-13.1-31.3-19.7-55.9-19.5c-21.5,0.2-38.5,6-51,17.5
			c-12.7,11.5-18.8,25.9-18.7,43.4C4725.3,3081.7,4733,3096.8,4747.9,3108.2z M4778.9,3039.8c4.4-5,10-7.6,16.9-7.6
			c6.4-0.1,11.9,2.4,16.2,7.2c4.4,4.8,6.7,12.1,6.8,22.1c0.1,10.7-2.1,18.4-6.4,23.2c-4.1,4.8-9.7,7.3-16.4,7.4
			c-6.8,0.1-12.1-2.4-16.7-7.2c-4.3-4.8-6.7-12.3-6.8-22.6C4772.3,3052.3,4774.6,3044.8,4778.9,3039.8"/>
		<path id="path4523" class="st12" d="M4898.5,3003.8l44.1-0.4l0.1,16.7c6.4-7.1,12.6-12.1,19.2-15.1c6.4-3,14.1-4.6,23.3-4.6
			c9.8-0.1,17.5,1.4,23.4,4.7c5.8,3.2,10.5,8,14.1,14.3c7.4-7.5,14.1-12.6,20-15.5c6.1-2.7,13.7-4.2,22.7-4.3
			c13.1-0.1,23.4,3.5,30.8,10.7c7.5,7.3,11.3,18.6,11.4,34.2l0.7,71.9l-47.4,0.4l-0.6-65.3c0-5.1-1-9-3.3-11.5
			c-3.1-3.8-7-5.8-11.8-5.8c-5.4,0-9.9,2-13.2,5.7c-3.4,3.8-5,9.8-4.9,18l0.6,59.2l-47.4,0.3l-0.7-63.1c0-5-0.3-8.4-1-10.3
			c-1-2.9-2.8-5.2-5.3-7c-2.5-1.7-5.5-2.5-8.7-2.5c-5.4,0-9.7,2-13.3,5.8c-3.3,3.8-5.2,10.2-5.1,18.8l0.6,58.5l-47.3,0.3
			L4898.5,3003.8"/>
		<path id="path4525" class="st12" d="M2736.7,2861.6l-11.3,34.6c11.9-13.8,24.7-24.3,38.4-31.3c13.6-6.9,28.3-10.5,44-10.6
			c19.5-0.1,34.2,4.3,44.2,13.4c10.1,9.2,15,20.8,14.9,34.9c-0.1,14-4.5,37.5-13,70.3l-68.1,263.7l-114.4,1l67.4-260.7
			c6.8-25.9,10-41.7,9.9-47.3c-0.2-5.7-4-8.5-11.7-8.4c-7.8,0.1-13.6,3.4-17.4,9.9c-3.8,6.5-9.3,24-16.7,52.4l-65.8,254.4l-114.3,1
			l97.4-376.4L2736.7,2861.6"/>
		<path id="path4527" class="st12" d="M3032.6,2992.8l7.2-27.7c5.1-19.6,7.3-32.3,6.6-37.9c-0.6-5.7-4.1-8.5-10.3-8.4
			c-8,0-13.5,2.5-16.5,7.3c-3.1,4.9-7.5,18-13,39.2l-7.2,27.7L3032.6,2992.8z M3131.1,3052.7l-147.5,1.2l-21.1,81.4
			c-4.4,17.1-6,28-4.9,32.9c1.1,4.9,5.1,7.3,12,7.2c8.4-0.1,14.9-3.5,19.6-9.9c4.5-6.6,9.2-19.2,14.1-38l12.9-49.7l108.6-0.9
			l-7.2,27.8c-6,23.3-12.1,41.1-18.3,53.6c-6.2,12.5-16.4,25.9-30.8,40.2c-14.4,14.2-30.7,25-49,32.2c-18.2,7.2-39.9,10.9-64.8,11.1
			c-24,0.3-44.3-3.1-61-9.9c-16.7-6.8-28.6-16.3-35.7-28.5c-7.1-12.1-10.7-25.4-11-40c-0.2-14.6,3.4-35.9,10.6-63.9l28.4-109.7
			c8.5-32.9,19.6-58.8,33.4-77.9c13.8-19.1,32.1-33.7,54.8-44c22.9-10.2,47.3-15.5,73.3-15.7c32-0.3,56.8,5.7,74.5,17.6
			c17.7,12,28.1,28.1,31.2,48.1c3.2,20.1,0.1,48.3-9.3,84.8L3131.1,3052.7"/>
		<path id="path4529" class="st12" d="M3587.6,2854.4L3444.3,3231l-122.9,1.1c5.2-46,13.1-106.8,23.5-182.5
			c-12.6,33.6-26.1,67.2-40.3,100.8l-32.9,82.1l-122.8,1.1l49-376l97.6-0.9c-1.4,9.8-11.6,81.8-30.7,216.2
			c5.5-14.3,32.8-86.6,82.1-216.6l93.2-0.8l-32.3,216.2c20.3-63.6,47.7-135.8,82.1-216.6L3587.6,2854.4"/>
		<path id="path4531" class="st12" d="M3729.5,2986l7.2-27.7c5-19.6,7.2-32.3,6.6-37.9c-0.6-5.7-4.1-8.5-10.3-8.5
			c-8,0.1-13.5,2.5-16.6,7.4c-3.1,4.9-7.4,18-12.8,39.3l-7.3,27.7L3729.5,2986z M3827.9,3045.9l-147.4,1.3l-21.1,81.3
			c-4.4,17.1-6.1,28.1-4.9,32.9c1.1,4.9,5.1,7.4,12,7.3c8.4-0.1,15-3.3,19.6-9.9c4.5-6.6,9.2-19.3,14.1-38l12.9-49.7l108.6-0.9
			l-7.2,27.8c-6,23.2-12,41.1-18.2,53.6c-6.2,12.5-16.5,25.9-30.8,40.2c-14.4,14.2-30.7,25-49,32.3c-18.3,7.2-39.9,10.9-64.9,11.1
			c-24,0.2-44.2-3.1-61-10c-16.7-6.8-28.6-16.2-35.6-28.4c-7.1-12.2-10.8-25.4-11-40.1s3.3-35.9,10.6-63.9l28.4-109.6
			c8.5-32.9,19.7-58.8,33.5-77.9c13.7-19.1,32.1-33.7,54.8-44c22.7-10.3,47.2-15.6,73.3-15.7c32-0.3,56.8,5.6,74.5,17.6
			c17.7,12.1,28.1,28,31.3,48.1c3.2,20.1,0.1,48.3-9.3,84.8L3827.9,3045.9"/>
		<path id="path4533" class="st12" d="M4035.9,2949.3c4.4-17.2,6.2-28.2,5.4-32.9c-0.8-4.7-4.6-7-11.2-7c-6.7,0.1-12.1,2.8-16.1,8.2
			c-4.2,5.5-8.3,16.1-12.4,32l-32.7,126.7c-4.4,16.8-6.2,27.7-5.5,32.7c0.8,5.1,4.4,7.5,11.1,7.4c7.4,0,13.1-3.1,17.1-9.1
			c3.9-6.1,8.6-19.9,14.1-41.3L4035.9,2949.3z M4176,2848.5l-75,290.1c-10.3,39.2-17.7,64.6-22.5,76c-4.8,11.5-14.3,23.6-28.6,36.5
			c-14.1,12.8-31.9,22.7-53.1,29.5c-21.3,6.9-46.6,10.5-76.1,10.8c-36.5,0.3-64.2-5.7-83-17.9c-18.8-12.3-23.9-36.6-15.2-73l110.9-1
			c-4.4,17-0.6,25.4,11.8,25.3c8.5-0.1,15.1-2.7,19.3-7.9c4.2-5.2,8.5-16.1,12.7-32.5l7.4-28.8c-12.1,9-24.1,15.8-36.2,20.5
			c-12.1,4.6-24,6.9-36,7.1c-20.6,0.1-36.5-3.9-47.6-12.1c-11.1-8.2-17.4-19-18.9-32.5c-1.6-13.4,0.8-32.6,7.4-57.6l35.4-136.5
			c9.3-35.7,22.3-61.4,39.3-77.2c16.9-15.7,38.5-23.7,64.6-24c14.2-0.1,26.5,2.7,36.8,8.5c10.4,5.8,18.6,14.5,25,26.2l15.4-28.7
			L4176,2848.5"/>
		<path id="path4535" class="st12" d="M4336.5,2946.8c4.4-17.2,6.2-28.2,5.4-32.9c-0.8-4.8-4.6-7-11.1-7c-6.7,0.1-12.1,2.8-16.3,8.3
			c-3.9,5.4-8.1,16.1-12.2,31.9l-32.8,126.7c-4.3,16.8-6.1,27.7-5.4,32.8c0.6,5,4.4,7.4,11.1,7.4c7.4-0.1,13-3,16.9-9.2
			c4-6.1,8.7-19.8,14.2-41.2L4336.5,2946.8z M4476.6,2846l-75.1,290.1c-10.1,39.2-17.6,64.5-22.4,76c-4.8,11.4-14.2,23.6-28.5,36.4
			c-14.2,12.9-32,22.8-53.2,29.7c-21.2,6.9-46.6,10.5-76.1,10.6c-36.5,0.4-64.1-5.6-82.9-17.8c-18.9-12.3-24-36.5-15.3-73l110.9-0.9
			c-4.3,17-0.6,25.4,11.8,25.3c8.7-0.1,15.2-2.7,19.3-8c4.2-5.3,8.4-16.1,12.7-32.5l7.4-28.8c-12,9-24.1,15.8-36.2,20.5
			c-12,4.6-23.9,7-35.9,7.1c-20.7,0.1-36.5-3.8-47.6-12c-11.2-8.2-17.4-19.1-18.9-32.5c-1.5-13.5,0.9-32.6,7.3-57.6l35.3-136.5
			c9.2-35.7,22.4-61.3,39.3-77.2c17.1-15.8,38.5-23.9,64.7-24c14.2-0.1,26.5,2.7,36.8,8.5c10.3,5.8,18.6,14.5,24.9,26.1l15.5-28.7
			L4476.6,2846"/>
		<path id="path4539" class="st12" d="M5163.4,2937.4h13c5.7,0,10.6-3.4,10.4-7.6c-0.2-5.4-3.9-9.3-8.5-9.3h-15V2937.4z
			 M5151.4,2971v-60.1h26.5c5.3,0,9.3,0.6,12.1,1.6c2.8,1.1,5,3,6.6,5.7c1.6,2.7,3.1,6.5,3.1,9.8c0,4.3-0.9,8-3.6,10.9
			c-2.7,2.9-7,5-12.7,5.8c2.1,1,2.6,0.9,3.6,1.9c2.3,2.1,4.5,4.8,6.6,8l10.3,16.3H5188c-4.6-6.8-7.9-14.4-12.8-20.8
			c-2.1-2.7-3.6-2.9-6.6-3h-5.2v23.7H5151.4"/>
		<path id="path4541" class="st13" d="M5227.1,2941.9c0,28.1-22.8,50.9-50.9,50.9c-28.1,0-50.9-22.8-50.9-50.9
			c0-28.1,22.8-50.9,50.9-50.9C5204.3,2891,5227.1,2913.8,5227.1,2941.9z"/>
	</g>
</g>
</svg>
