<?xml version="1.0" encoding="utf-8"?>
<!-- Generator: Adobe Illustrator 25.2.3, SVG Export Plug-In . SVG Version: 6.00 Build 0)  -->
<svg version="1.1" id="Layer_1" xmlns="http://www.w3.org/2000/svg" xmlns:xlink="http://www.w3.org/1999/xlink" x="0px" y="0px"
	 viewBox="0 0 800 800" style="enable-background:new 0 0 800 800;" xml:space="preserve">
<style type="text/css">
	.st0{fill:#29FD2E;}
</style>
<desc>Created with Sketch.</desc>
<path class="st0" d="M799.2,187.2c-0.2-14.4-1.2-28.8-3.9-43c-3.3-17.3-7.9-34.2-16.2-49.8C770.3,77.9,759.3,63,745.7,50
	C725,30.1,701,16,673,8.6c-25.2-6.7-50.9-8.2-76.9-8.2C596,0.3,596,0.1,596,0H203.8c0,0.1,0,0.3,0,0.4c-14.7,0.3-29.4,0.2-44.1,2
	c-16,2-31.9,5-47.1,10.6c-23.9,8.8-44.7,22.6-62.4,41C30.1,74.7,16,98.8,8.5,126.8c-6.7,25-8.2,50.5-8.2,76.2L0,596.5
	c0.5,17.8,0.6,35.6,3.6,53.3c3.2,18.7,7.7,36.9,16.4,53.8c11.7,22.9,27.7,42.3,48.1,58.1c14.6,11.4,30.5,20.4,48.1,26.1
	c25.7,8.3,52.2,11.5,79.1,11.6c16.8,0.1,33.6,0.5,50.4,0.5c122-0.5,243.9,0.9,365.9-0.8c16.2-0.2,32.1-2.2,48-5.1
	c30.4-5.6,57.3-18.6,80.4-39.1c26.8-23.9,44.9-53.2,53.1-88.5c5.3-23.1,6.7-46.5,6.9-70v-4.7C800,590,799.3,192.5,799.2,187.2z
	 M217.9,482l-107-155.5L110.4,482H100V313.8h13l178.8,266.3L217.9,482z M355.9,482H241.6V313.8h113.2v9H251.9v67.4h96.7v9h-96.7v74
	h104V482z M487.2,482l-57.1-78.7L372.9,482h-12.3l63.2-86.5l-58.9-81.7h12l53.3,74l54.5-74l74.1-94L437,395.6l62.7,86.5H487.2z
	 M573.8,322.8V482h-10.4V322.8h-59.2v-9h129v9H573.8z M632.1,470.4c-2.1,0-3.7-1.6-3.7-3.7s1.6-3.7,3.7-3.7c2.1,0,3.7,1.6,3.7,3.7
	S634.3,470.4,632.1,470.4z M664.7,459.3c0,7.3-4.2,11.5-11.3,11.5c-6.6,0-11.1-4.1-11.1-10.3h5.6c0.1,3,2.3,5,5.5,5
	c3.6,0,5.7-2.2,5.7-6.2v-25.6h5.7V459.3z M686,470.8c-8.1,0-13.5-4.1-13.9-10.6h5.6c0.5,3.4,3.9,5.6,8.7,5.6c4.5,0,7.9-2.3,7.9-5.6
	c0-2.8-2.1-4.4-6.9-5.6l-4.7-1.1c-6.6-1.5-9.6-4.7-9.6-10c0-6.5,5.3-10.8,13.2-10.8c7.4,0,12.8,4.3,13.1,10.4h-5.5
	c-0.5-3.3-3.5-5.4-7.7-5.4c-4.5,0-7.4,2.1-7.4,5.4c0,2.6,1.9,4.1,6.7,5.2l4,1c7.5,1.7,10.5,4.8,10.5,10.2
	C700,466.5,694.6,470.8,686,470.8z"/>
</svg>
