<?xml version="1.0" encoding="utf-8"?>
<!-- Generator: Adobe Illustrator 25.2.3, SVG Export Plug-In . SVG Version: 6.00 Build 0)  -->
<svg version="1.1" id="Layer_1" xmlns="http://www.w3.org/2000/svg" xmlns:xlink="http://www.w3.org/1999/xlink" x="0px" y="0px"
	 viewBox="0 0 800 800" style="enable-background:new 0 0 800 800;" xml:space="preserve">
<style type="text/css">
	.st0{fill:#29FD2E;}
</style>
<g>
	<path class="st0" d="M499,361.1l-19.7-11.4c-0.5-0.3-1.2-0.3-1.7,0l-19.7,11.4c-0.5,0.3-0.9,0.9-0.9,1.5v22.8
		c0,0.6,0.3,1.2,0.9,1.5l19.7,11.4c0.5,0.3,1.2,0.3,1.7,0l19.7-11.4c0.5-0.3,0.9-0.9,0.9-1.5l0-22.8
		C499.8,362,499.5,361.5,499,361.1z"/>
	<path class="st0" d="M480.9,466.4c-4.7,0-8.7,3.8-8.7,8.7l0,0c0,4.9,3.9,8.8,8.7,8.8c4.9,0,8.8-4,8.8-8.8
		C489.7,470.2,485.7,466.4,480.9,466.4z M483,481c-0.1-0.5-0.4-3.5-0.4-3.7c-0.2-0.7-0.4-1-1.2-1h-2v4.7H477v-11.7h4
		c1.4,0,4.1,0,4.1,3.1c0,2.2-1.4,2.6-2.2,2.9c1.6,0.1,1.7,1.2,1.9,2.7c0.1,0.9,0.3,2.5,0.6,3.1H483z"/>
	<path class="st0" d="M799.2,187.2c-0.2-14.4-1.2-28.8-3.9-43c-3.3-17.3-7.9-34.2-16.2-49.8C770.3,77.9,759.3,63,745.7,50
		C725,30.1,701,16,673,8.6c-25.2-6.7-50.9-8.2-76.9-8.2C596,0.3,596,0.1,596,0H203.8c0,0.1,0,0.3,0,0.4c-14.7,0.3-29.4,0.2-44.1,2
		c-16,2-31.9,5-47.1,10.6c-23.9,8.8-44.7,22.6-62.4,41C30.1,74.7,16,98.8,8.5,126.8c-6.7,25-8.2,50.5-8.2,76.2L0,596.5
		c0.5,17.8,0.6,35.6,3.6,53.3c3.2,18.7,7.7,36.9,16.4,53.8c11.7,22.9,27.7,42.3,48.1,58.1c14.6,11.4,30.5,20.4,48.1,26.1
		c25.7,8.3,52.2,11.5,79.1,11.6c16.8,0.1,33.6,0.5,50.4,0.5c122-0.5,243.9,0.9,365.9-0.8c16.2-0.2,32.1-2.2,48-5.1
		c30.4-5.6,57.3-18.6,80.4-39.1c26.8-23.9,44.9-53.2,53.1-88.5c5.3-23.1,6.7-46.5,6.9-70v-4.7C800,590,799.3,192.5,799.2,187.2z
		 M228.7,428.1c0,1.2-0.7,2.4-1.7,3c-1.1,0.6-2.4,0.6-3.5,0l-34.1-19.5c-2.1-1.3-3.5-3.6-3.5-6v-41.6c0-2.5-1.3-4.8-3.5-6l-14.5-8.4
		c-1-0.6-2.3-0.9-3.5-0.9c-1.2,0-2.4,0.3-3.5,0.9l-14.5,8.4c-2.1,1.2-3.5,3.5-3.5,6v41.6c0,2.5-1.3,4.7-3.5,6l-34.2,19.6
		c-1.1,0.7-2.4,0.7-3.4,0c-1.1-0.6-1.7-1.8-1.7-3l-0.1-89c0-2.5,1.3-4.8,3.5-6l57.4-33.1c1-0.6,2.1-0.9,3.2-0.9h0.6
		c1.1,0,2.2,0.3,3.2,0.9l57.4,33.1c2.2,1.2,3.5,3.5,3.5,6L228.7,428.1z M318,445.1l-57.1-33c-2.1-1.2-3.5-3.5-3.5-6v-66
		c0-2.5,1.3-4.7,3.5-6l57.1-33h0c1.1-0.6,2.3-0.9,3.5-0.9c1.2,0,2.4,0.3,3.5,0.9l57.1,33c2.1,1.2,3.5,3.5,3.5,6v66
		c0,2.5-1.3,4.7-3.4,6l-57.1,33C322.8,446.3,320.1,446.3,318,445.1z M462.1,541c0,4.1-2.2,7.8-5.7,9.9l-54.2,31.3
		c-1.7,1-3.7,1.5-5.7,1.5l0,0c-2,0-3.9-0.5-5.7-1.5l-18.1-10.7c-2.7-1.5-1.4-2-0.5-2.4c3.6-1.3,4.3-1.5,8.2-3.7
		c0.4-0.2,0.9-0.1,1.3,0.1l13.9,8.2c0.5,0.3,1.2,0.3,1.7,0l54.2-31.3c0.5-0.3,0.8-0.9,0.8-1.5v-62.5c0-0.6-0.3-1.2-0.8-1.5
		l-54.2-31.2c-0.5-0.3-1.2-0.3-1.7,0L341.6,477c-0.5,0.3-0.9,0.9-0.9,1.5V541c0,0.6,0.3,1.2,0.8,1.5l14.8,8.6c8.1,4,13-0.7,13-5.5
		v-61.7c0-0.9,0.7-1.6,1.6-1.6h6.9c0.9,0,1.6,0.7,1.6,1.6v61.7c0,10.7-5.9,16.9-16,16.9c-3.1,0-5.6,0-12.5-3.4l-14.2-8.2
		c-3.5-2-5.7-5.8-5.7-9.9v-62.5c0-4.1,2.2-7.9,5.7-9.9l54.2-31.3c3.4-1.9,8-1.9,11.4,0l54.2,31.3c3.5,2,5.7,5.8,5.7,9.9V541z
		 M410.4,514.7c-14.8-1.5-24-4.7-24-16.6c0-10.9,9.2-17.4,24.7-17.4c17.3,0,25.9,6,27,19c0,0.4-0.1,0.9-0.4,1.2
		c-0.3,0.3-0.7,0.5-1.2,0.5h-7c-0.7,0-1.4-0.5-1.5-1.2c-1.7-7.5-5.8-9.9-16.9-9.9c-12.5,0-13.9,4.3-13.9,7.6c0,3.9,1.7,5.1,18.5,7.3
		c16.7,2.2,24.6,5.3,24.6,17c0,11.8-9.8,18.6-27,18.6l0.1-0.1c-23.7,0-28.7-10.9-28.7-20c0-0.9,0.7-1.6,1.6-1.6h7
		c0.8,0,1.4,0.6,1.5,1.3c1.1,7.1,4.2,10.7,18.5,10.7c11.4,0,16.3-2.6,16.3-8.6C429.5,519,428.2,516.4,410.4,514.7z M480.9,485.6
		c-5.7,0-10.4-4.6-10.4-10.4c0-5.9,4.9-10.4,10.4-10.4c5.6,0,10.4,4.5,10.4,10.4h0C491.4,480.9,486.6,485.6,480.9,485.6z
		 M542.9,407.2c0,2.5-1.3,4.8-3.5,6L482,446.4c-2.2,1.2-4.8,1.2-6.9,0l-57.5-33.2c-2.1-1.2-3.5-3.5-3.5-6v-66.4c0-2.5,1.3-4.8,3.5-6
		l57.5-33.2c2.2-1.2,4.8-1.2,6.9,0l14.4,8.3c0.8,0.4,1.7,0.4,2.4,0c0.8-0.4,1.2-1.2,1.2-2.1v-88.2c0-1.2,0.7-2.4,1.7-3
		c1.1-0.6,2.4-0.6,3.5,0l34.2,19.1c2.2,1.2,3.6,3.5,3.6,6.1V407.2z M700,356.1c0,2.5-1.3,4.8-3.4,6l-34.5,20c-1.1,0.6-2.4,0.6-3.5,0
		c-1.1-0.6-1.7-1.8-1.7-3v-16.4c0-1.2-0.7-2.4-1.7-3l-18-10.4c-1.1-0.6-2.4-0.6-3.5,0l-18,10.4c-1.1,0.6-1.7,1.8-1.7,3v20.8
		c0,1.2,0.7,2.4,1.7,3l57.8,33.2c1.1,0.6,1.7,1.8,1.7,3c0,1.2-0.7,2.4-1.8,3L639,444.9c-2.1,1.2-4.7,1.2-6.8,0l-57.1-32.5
		c-2.2-1.2-3.5-3.5-3.5-6V340c0-2.5,1.3-4.8,3.5-6l57.5-33.2c2.2-1.2,4.8-1.2,7,0l57.1,33.1c2.1,1.2,3.5,3.5,3.5,6V356.1z
		 M648.1,366.5v12.7c0,0.5-0.3,0.9-0.7,1.2l-11,6.4c-0.4,0.2-0.9,0.2-1.3,0l-11-6.4c-0.4-0.2-0.7-0.7-0.7-1.2v-12.7
		c0-0.5,0.2-0.9,0.7-1.2l11-6.4c0.4-0.2,0.9-0.2,1.3,0l11,6.4C647.9,365.6,648.1,366,648.1,366.5z"/>
	<path class="st0" d="M481.1,471.1h-1.9l0,3.3h1.8c1.5,0,1.8-1,1.8-1.7C482.8,471.1,481.7,471.1,481.1,471.1z"/>
</g>
</svg>
