<svg id="Layer_1" data-name="Layer 1" xmlns="http://www.w3.org/2000/svg" viewBox="0 0 800 799.97219"><defs><style>.cls-1{fill:#29fd2e;}</style></defs><path class="cls-1" d="M248.97992,183.63116,639.2926,160.1947c8.278,0,1.39453-8.25842-1.36664-9.63067l-64.822-46.86182C560.6828,94.059,544.13531,83.01575,512.41949,85.77832L134.47913,113.344c-13.78357,1.36664-16.53638,8.25843-11.04749,13.78217l53.82752,42.72144C199.3067,187.76038,207.5777,186.39374,248.97992,183.63116Z"/><path class="cls-1" d="M671.014,207.05652,222.753,233.23187c-16.54333,1.39038-22.06146,9.66553-22.06146,27.57825h.00134V671.48706c0,22.07123,11.02936,30.32825,35.85339,28.96307L665.5,675.62885c24.83661-1.36524,27.60333-16.54615,27.60333-34.47565V233.23187C693.10333,215.33167,686.21716,205.67871,671.014,207.05652ZM611.7157,309.0553l-20.667,4.1181V616.36127c-17.94483,9.64459-34.49231,15.15857-48.28144,15.15857-22.07684,0-27.60614-6.896-44.14251-27.556L363.43329,391.7301v205.342l42.78,9.653s0,24.79474-34.51465,24.79474l-95.14887,5.51959c-2.764-5.51959,0-19.28919,9.65155-22.04755l24.82966-6.882V336.60852L276.55676,333.846c-2.76538-12.41553,4.12085-30.31714,23.44489-31.70606l102.07269-6.88067L542.76727,510.25555V320.06378l-35.87152-4.11664c-2.75281-15.1781,8.26538-26.19909,22.06006-27.56573l95.19916-5.54187C626.90491,295.25507,624.155,307.65942,611.7157,309.0553Z"/><path class="cls-1" d="M799.2,187.2a248.25328,248.25328,0,0,0-3.9-43c-3.3-17.3-7.9-34.2-16.2-49.8a174.91962,174.91962,0,0,0-33.4-44.4C725,30.1,701,16,673,8.6,647.8,1.9,622.1.4,596.1.4A.60144.60144,0,0,1,596,0H203.8V.4C189.1.7,174.4.6,159.7,2.4c-16,2-31.9,5-47.1,10.6A163.9856,163.9856,0,0,0,50.2,54C30.1,74.7,16,98.8,8.5,126.8,1.8,151.8.3,177.3.3,203L0,596.5c.5,17.8.6,35.6,3.6,53.3,3.2,18.7,7.7,36.9,16.4,53.8a170.04647,170.04647,0,0,0,48.1,58.1c14.6,11.4,30.5,20.4,48.1,26.1,25.7,8.3,52.2,11.5,79.1,11.6,16.8.1,33.6.5,50.4.5,122-.5,243.9.9,365.9-.8a286.40692,286.40692,0,0,0,48-5.1A164.10537,164.10537,0,0,0,740,754.9c26.8-23.9,44.9-53.2,53.1-88.5,5.3-23.1,6.7-46.5,6.9-70v-4.7C800,590,799.3,192.5,799.2,187.2ZM740,675.62891c0,30.31707-11.04474,48.24658-49.65649,50.98962L233.81439,754.187c-28.98535,1.382-42.78-2.74859-57.95947-22.0545l-92.41144-119.899C66.88617,590.16217,60,573.65094,60,554.33392V124.35382c0-24.792,11.04749-45.4729,42.74658-48.21728L495.865,47.186c48.27588-4.14039,60.697-1.36664,91.03918,20.67395l125.48829,88.19989C733.09845,171.22681,740,175.356,740,191.88959Z"/></svg>