<?xml version="1.0" encoding="utf-8"?>
<!-- Generator: Adobe Illustrator 25.2.3, SVG Export Plug-In . SVG Version: 6.00 Build 0)  -->
<svg version="1.1" id="Layer_1" xmlns="http://www.w3.org/2000/svg" xmlns:xlink="http://www.w3.org/1999/xlink" x="0px" y="0px"
	 viewBox="0 0 800 800" style="enable-background:new 0 0 800 800;" xml:space="preserve">
<style type="text/css">
	.st0{fill:#29FD2E;}
</style>
<g>
	<path class="st0" d="M457.3,512.1c-5.1,6.4-18.1,20.4-18.1,20.4s-1.9,1.8-1.1,2.2c1.1,0.7,3.4-0.2,6-1.5
		c7.2-4.6,23.4-15.9,23.5-32.6c0-0.5,0-1,0-1.5C463.7,504,460.3,508.4,457.3,512.1z"/>
	<path class="st0" d="M332.9,437.8c-5.9,6.6-15.8,23.5-20.5,37.6c-9.3,28.1-5.3,56.6,1.3,58.4c7.7,2,20.3-35.5,26.3-50.2
		c3.8-9.2,18.5-50,15.2-55.5C352.8,423.8,342.4,427.2,332.9,437.8z"/>
	<path class="st0" d="M229.4,497.4L229.4,497.4c0,0-0.4,0.3-1.2,0.7c-4.5,2.7-8.2,4.9-10.7,6.4c-11.1,6.9-27.8,18.2-40.7,30.3
		c-21.2,20-25.6,47.8-14.5,54.3c10.4,6,34.5-1.1,51.8-20c18.1-19.8,25.6-44.9,17.9-73.3C231.2,496.4,230.3,496.9,229.4,497.4z"/>
	<path class="st0" d="M597.4,606.2c-2.9,0-4.9,0.7-6,2.2c-1.2,1.5-1.8,3.9-1.8,7.4h15.6c0-3.6-0.6-6.1-1.7-7.5
		C602.2,606.9,600.2,606.2,597.4,606.2z"/>
	<path class="st0" d="M418,591.8h-10v22.1h10c6.2,0,9.3-3.8,9.3-11.5c0-3.8-0.8-6.5-2.2-8.1C423.5,592.6,421.2,591.8,418,591.8z"/>
	<path class="st0" d="M799.2,187.2c-0.2-14.4-1.2-28.8-3.9-43c-3.3-17.3-7.9-34.2-16.2-49.8C770.3,77.9,759.3,63,745.7,50
		C725,30.1,701,16,673,8.6c-25.2-6.7-50.9-8.2-76.9-8.2C596,0.3,596,0.1,596,0H203.8c0,0.1,0,0.3,0,0.4c-14.7,0.3-29.4,0.2-44.1,2
		c-16,2-31.9,5-47.1,10.6c-23.9,8.8-44.7,22.6-62.4,41C30.1,74.7,16,98.8,8.5,126.8c-6.7,25-8.2,50.5-8.2,76.2L0,596.5
		c0.5,17.8,0.6,35.6,3.6,53.3c3.2,18.7,7.7,36.9,16.4,53.8c11.7,22.9,27.7,42.3,48.1,58.1c14.6,11.4,30.5,20.4,48.1,26.1
		c25.7,8.3,52.2,11.5,79.1,11.6c16.8,0.1,33.6,0.5,50.4,0.5c122-0.5,243.9,0.9,365.9-0.8c16.2-0.2,32.1-2.2,48-5.1
		c30.4-5.6,57.3-18.6,80.4-39.1c26.8-23.9,44.9-53.2,53.1-88.5c5.3-23.1,6.7-46.5,6.9-70v-4.7C800,590,799.3,192.5,799.2,187.2z
		 M434.3,618.8c-3.7,3.8-9.1,5.7-16.2,5.7H408v17.8h-12.4v-61.2h22.5c14.5,0,21.8,7.1,21.8,21.2C439.8,609.5,438,615,434.3,618.8z
		 M473.9,608.4c-4.9,1-9,2.1-12.5,3.2l-1.8,0.6v30.2h-12.1v-45h12v4.8c5-3,9.8-5,14.4-5.8V608.4z M493,642.4H481v-45H493V642.4z
		 M493,591.6H481v-12.2H493V591.6z M569,642.4h-12.1v-24c0-3.8-0.4-6.7-1.3-8.5c-0.8-1.8-2.5-2.7-5-2.7c-1.9,0-4.3,0.4-7,1.3
		l-1.4,0.5c0.2,4.5,0.4,7.9,0.4,10.3v23.3h-12.1v-23.1c0-4.4-0.4-7.6-1.2-9.4c-0.8-1.8-2.5-2.7-5.1-2.7c-2.3,0-4.7,0.4-6.9,1.3
		l-1.1,0.4v33.7h-12.1v-45h12v2.5c4.1-2.4,7.7-3.6,10.6-3.6c4.9,0,8.6,1.4,11.2,4.2c5.5-2.8,10.6-4.2,15.1-4.2
		c5.9,0,10.1,1.7,12.4,5.2c2.3,3.5,3.5,9,3.5,16.5V642.4z M616.1,625h-26.5c0.1,2.8,0.8,4.8,2.2,6c1.4,1.2,3.4,1.8,6.1,1.8
		c5.6,0,10.6-0.2,14.9-0.5l2.5-0.3l0.2,8.9c-6.9,1.7-13.1,2.5-18.7,2.5c-6.8,0-11.7-1.8-14.8-5.4c-3.1-3.6-4.6-9.5-4.6-17.6
		c0-16.1,6.6-24.2,19.9-24.2c13.1,0,19.6,6.8,19.6,20.3L616.1,625z M652,608.4c-4.9,1-9,2.1-12.5,3.2l-1.8,0.6v30.2h-12.1v-45h12
		v4.8c5-3,9.8-5,14.4-5.8V608.4z M700,500.4c-1,25.2-24.1,35.5-28.4,36.3c-3.1,0.5-4.8,0.6-5.3-1.8c-0.3-1.7,0.8-2.5,4.5-4.7
		s14.6-9.8,16.6-23.4c2-13.6-8.3-46.2-60.5-52.3c-24.3-2.8-43.4,0.6-58.2,6.7c2.8,7.1,4.8,14.5,5.1,21.9
		c0.7,16.4-10.6,28.4-22.3,37.1c-6.9,5-14.2,8.4-20.3,10.4c-4.9,2.1-11.4,4.2-16,3.3c-10.2-2.1-15.6-11.1-8.7-31
		c3.8-10.8,14.5-27.2,31.9-41.3c-4-8.2-8.4-16.5-10.7-24.1c-4.4-15.1-5.8-24.2-5.8-24.2s-14.4,29.7-32.9,56.8
		c-1.1,1.6-2.1,3.1-3.2,4.7c3.6,8.4,6.5,17.4,6.9,26.4c0.7,16.3-6.4,28.7-18.1,37.3c-6.4,4.7-13.1,7.9-19,10
		c-3.8,1.6-11.3,4.3-22.1,5c-5.9,0.4-11.6,0-14.7-2.4c-4.4-3.3-4.9-7.4-2.6-12.9c1.9-4.7,16.2-21,28.1-35.2c3.3-3.9,6.5-8,9.3-11.7
		c0-0.1-0.1-0.2-0.1-0.2s2.2-2.8,5.7-7.7c-4.4-9.4-9.9-19.2-12.5-28.1c-4.4-15.1-5.8-24.2-5.8-24.2s-14.5,37.3-29.7,67
		c-11.7,23-19.6,37-23.1,43.1c0,0.2-0.1,0.3-0.1,0.3s-0.5,0.9-1.4,2.3c-0.5,0.8-0.7,1.1-0.7,1.1s0,0,0-0.1
		c-3.9,5.8-12.8,17.2-21.5,17.2c-24.1,0-15.3-48.9-15.3-48.9s-7.1,18.1-15,33.6c-6.5,12.7-12.4,23.4-25.2,23.4
		c-3.7,0-9.6-0.1-14.5-4.7c-11.1-10.5-19.5-37.2-17.9-57.8c1.4-17.6,4.1-29.7,7.8-39.9c-6.6,3.6-14.2,7.9-22,12.4
		c-4,2.4-8,4.7-12,7.1c0.1,0.2,0.3,0.5,0.4,0.7c9.9,19.1,12.5,61-9,93.2c-21.6,32.2-61.7,51.8-100.8,40.9
		c-12.6-3.5-31.7-29.6-15.2-66c14.5-32.1,72.5-62.4,87.8-70c1.3-0.7,2.7-1.5,4.2-2.3c-30.5-26.6-106.5-62.6-117.2-117.8
		c-3-15.5,4.3-52.7,50-95.4c38.4-35.9,91.8-63.4,141.1-80.9c82.9-29.4,170.5-12.1,184,40.7c13.3,52-31.8,114.1-89.6,136.4
		c-51.6,19.9-94.2,16.8-111.7,11c-19.9-6.5-31.6-19.7-34.4-27.1c-1.1-2.9-3.1-7.8,0-9.5c1.9-1.1,2.6-0.8,7.6,4.7
		c4.8,5.2,23.9,19.3,60.2,15.2c95.3-10.7,152.7-84.7,134.6-124.6c-12.7-27.9-86.2-40.5-178,5.3c-112,55.8-118.1,101.9-119.1,119.3
		c-2.7,48.1,59.3,73.4,92.9,109.1c0.5,0.5,0.9,1,1.3,1.4c6.3-3.5,12.9-7.1,19.4-10.7c16.9-9.3,32.8-18,40.3-22
		c11.8-17.1,35.7-36,53-36c27.6,0,18.1,39.7,18.1,39.7s0.6-1.8,1.3-1.9c0.8,0,3.8-5.2,12.4-2.1c8.8,3.2,6.8,9.4,6.8,10
		c0.1,1.2-10.4,36.5-14.7,59.1c-2.1,10.8-0.9,18.7-0.3,18.7c0.9,0,2.6-2.8,4.3-5.7c0-0.1,0-0.1,0-0.1s1.2-2.2,3.3-6.3
		c0.3-0.5,0.4-0.9,0.4-0.9l0,0c2.4-4.7,5.8-11.7,9.7-20.3c7.7-16.9,36.9-82.1,39.4-89.4c2.5-7.2,3.8-14.7,5-17.9
		c1.2-3.2,11.6-5.6,23.7-5.5s13.3,5.2,13.4,6.3c0.1,1.1-5.8,15.4-7.1,25.5c-1.3,10.1,0,15.2,1.1,23.7c0.7,5.6,4.2,12.6,8.3,20.6
		c12.5-20.5,34.5-59.6,36.6-70.5c1.5-7.5,3.8-14.7,5-17.9c1.2-3.2,11.6-5.6,23.7-5.5c12.1,0.1,13.3,5.2,13.4,6.3
		c0.1,1.1-5.8,15.4-7.1,25.5c-1.3,10.1-0.1,15.2,1.1,23.7c1,7.3,6.6,17.1,12.2,28.2c15.2-7.5,33.4-12.6,54.4-12.7
		C670.6,433.3,701.2,468.4,700,500.4z"/>
	<path class="st0" d="M528.9,495.5c-6.3,13.6-6.6,18-4.7,19.4c9.1-3.3,24.2-11.1,24.3-32.2c0-3.2-0.7-6.6-1.8-10.1
		C537,481.2,531.4,490.2,528.9,495.5z"/>
</g>
</svg>
