<svg id="svg2" xmlns="http://www.w3.org/2000/svg" viewBox="0 0 800.00067 800.00073"><defs><style>.cls-1{fill:#29fd2e;}</style></defs><path class="cls-1" d="M400.002,223.9177S318.3204,225.052,297.524,307.48935v61.63691H502.47641V307.48935C481.6796,225.052,400.002,223.9177,400.002,223.9177Z" transform="translate(0.00034 0.00039)"/><path class="cls-1" d="M616.4,0H182.8C81.6.2-.2,82.4,0,183.6V617.2C.2,718.4,82.4,800.2,183.6,800H617.2c101.2-.2,183-82.4,182.8-183.6V182.8C799.8,81.6,717.6-.2,616.4,0ZM580.51694,633.701s-1.02448,19.91583-22.95856,19.91583H242.442c-21.93409,0-22.95893-19.91583-22.95893-19.91583V462.52768S340.50491,548.9982,358.65482,561.5994c18.15393,12.60449,41.34716,14.8761,41.34716,14.8761s23.19-2.27161,41.33991-14.8761c18.1543-12.6012,139.17505-99.07172,139.17505-99.07172Zm0-213.14837s-1.2771,12.10137-35.30963,36.68237c-34.03217,24.577-122.14014,93.77893-145.20533,93.77893-23.06842,0-111.17675-69.202-145.20892-93.77893-34.03217-24.581-35.31-36.68237-35.31-36.68237V307.48935C250.34689,141.48435,400.002,146.39853,400.002,146.39853s149.64783-4.91418,180.515,161.09082Z" transform="translate(0.00034 0.00039)"/></svg>