<?xml version="1.0" encoding="utf-8"?>
<!-- Generator: Adobe Illustrator 25.2.3, SVG Export Plug-In . SVG Version: 6.00 Build 0)  -->
<svg version="1.1" id="Layer_1" xmlns="http://www.w3.org/2000/svg" xmlns:xlink="http://www.w3.org/1999/xlink" x="0px" y="0px"
	 viewBox="0 0 800 800" style="enable-background:new 0 0 800 800;" xml:space="preserve">
<style type="text/css">
	.st0{fill:#29FD2E;}
</style>
<g>
	<path class="st0" d="M572.8,361c-7.8-3.2-16.4-4-24.7-2.4c-8.3,1.6-16,5.6-22.1,11.4c-8.5-5.8-17.4-10.9-26.6-15.4
		c-18.5-9-38.1-15.3-58.3-18.6c-10.1-1.7-20.3-2.6-30.6-2.9l19.5-93.6l64.2,13.5c1.6,14.7,13.6,26,28.3,26.8
		c14.7,0.8,27.8-9.3,30.9-23.7c3.1-14.4-4.8-28.9-18.5-34.2c-13.7-5.3-29.3,0.2-36.7,12.9L424.6,220c-1.2-0.3-2.4-0.3-3.7-0.1
		c-1.2,0.2-2.4,0.7-3.4,1.4c-1,0.7-1.9,1.5-2.6,2.5c-0.7,1-1.2,2.2-1.4,3.4l-22.2,104.1c-10.4,0.2-20.7,1.1-31,2.7
		c-10.2,1.7-20.3,4.1-30.2,7.2c-9.9,3.1-19.5,7-28.9,11.5c-9.3,4.5-18.3,9.7-26.9,15.5c-9.4-8.8-22.1-13.1-34.9-11.6
		c-12.8,1.4-24.3,8.4-31.4,19c-7.2,10.7-9.3,23.9-5.9,36.3c3.5,12.4,12.2,22.6,23.9,28c-0.1,1.1-0.1,2.2-0.2,3.3
		c-0.1,2.2-0.1,4.4,0,6.6c0,1.1,0.1,2.2,0.2,3.3c0,67.2,78.3,121.8,174.9,121.8s174.9-54.6,174.9-121.8c0.1-1.1,0.1-2.2,0.2-3.3
		c0.1-2.2,0.1-4.4,0-6.6c0-1.1-0.1-2.2-0.2-3.3c3.7-1.8,7.1-4.2,10.1-7s5.7-6,7.8-9.5c2.1-3.5,3.8-7.3,4.9-11.3
		c1.1-4,1.6-8.1,1.5-12.2c-0.3-8.4-3.1-16.6-7.9-23.5C587.3,369.5,580.6,364.2,572.8,361z M308.9,451.2c-2.8-2.8-5-6.1-6.5-9.7
		c-1.5-3.6-2.3-7.5-2.3-11.5c0-12.1,7.3-23.1,18.5-27.7c11.2-4.6,24.1-2.1,32.7,6.5c8.6,8.6,11.2,21.5,6.5,32.7
		c-4.7,11.2-15.6,18.5-27.7,18.5c-3.9,0-7.8-0.8-11.5-2.3C315,456.2,311.7,454,308.9,451.2z M474.2,513.5l0.2-1
		c-5.3,4-10.9,7.5-16.7,10.5c-11.8,6-24.5,10-37.6,11.7c-6.5,0.9-13.2,1.1-19.7,0.9c-6.6,0.3-13.2,0-19.7-0.9
		c-6.5-0.9-13-2.3-19.3-4.2c-6.3-2-12.4-4.5-18.3-7.5s-11.5-6.5-16.7-10.5c-1.3-1.6-1.9-3.5-1.8-5.5c0.1-2,0.9-3.9,2.4-5.3
		c1.4-1.4,3.3-2.3,5.3-2.4c2-0.1,4,0.6,5.5,1.8c4.5,3.3,9.2,6.2,14.2,8.6c5,2.5,10.1,4.5,15.4,6.1c5.3,1.6,10.7,2.8,16.2,3.4
		c5.5,0.7,11,0.9,16.6,0.7c5.5,0.3,11.1,0.1,16.6-0.5c5.5-0.6,11-1.7,16.3-3.3c5.3-1.6,10.5-3.6,15.5-6c5-2.4,9.8-5.3,14.3-8.5
		c1.7-1.3,3.8-2.1,6-2.1c2.1,0,4.2,0.9,5.7,2.4c1.5,1.5,2.3,3.6,2.3,5.8C476.6,510,475.7,512,474.2,513.5z M497,443.1
		c-1.5,3.8-3.7,7.3-6.5,10.2c-2.8,2.9-6.2,5.2-10,6.8c-3.8,1.6-7.8,2.3-11.9,2.3l0.3-1.2c-12.1,0-23.1-7.3-27.7-18.5
		c-4.6-11.2-2.1-24.1,6.5-32.7c8.6-8.6,21.5-11.2,32.7-6.5c11.2,4.6,18.5,15.6,18.5,27.7C499.2,435.3,498.5,439.3,497,443.1z"/>
	<path class="st0" d="M798.9,187.2c-0.2-14.4-1.2-28.8-3.9-43c-3.3-17.3-7.9-34.2-16.2-49.8C770,77.9,759.1,63,745.5,50
		c-20.8-19.9-44.7-34-72.7-41.5c-25.2-6.7-50.9-8.2-76.8-8.2c-0.1-0.1-0.1-0.3-0.1-0.4H204c0,0.1,0,0.3,0,0.4
		c-14.7,0.3-29.4,0.2-44,2c-16,2-31.9,5-47.1,10.6C89,21.8,68.2,35.6,50.5,53.9C30.4,74.7,16.3,98.8,8.7,126.8
		c-6.7,25-8.1,50.5-8.2,76.2L0.3,596.5v0c0.5,17.7,0.6,35.6,3.6,53.3c3.2,18.7,7.7,36.9,16.4,53.8C32,726.6,48,746,68.4,761.8
		c14.6,11.4,30.5,20.4,48.1,26.1c25.7,8.3,52.2,11.5,79.1,11.6c16.8,0.1,33.5,0.5,50.3,0.4c121.9-0.5,243.7,0.9,365.6-0.7
		c16.2-0.2,32.1-2.2,48-5.1c30.4-5.6,57.3-18.5,80.3-39.1c26.8-23.9,44.9-53.2,53-88.5c5.3-23.1,6.7-46.5,6.9-70v-4.7
		C799.7,590,799,192.5,798.9,187.2z M400,700c-165.7,0-300-134.3-300-300s134.3-300,300-300s300,134.3,300,300S565.7,700,400,700z"
		/>
</g>
</svg>
