<?xml version="1.0" encoding="utf-8"?>
<!-- Generator: Adobe Illustrator 25.2.3, SVG Export Plug-In . SVG Version: 6.00 Build 0)  -->
<svg version="1.1" id="Layer_1" xmlns="http://www.w3.org/2000/svg" xmlns:xlink="http://www.w3.org/1999/xlink" x="0px" y="0px"
	 viewBox="0 0 800 800" style="enable-background:new 0 0 800 800;" xml:space="preserve">
<g>
	<ellipse transform="matrix(0.9732 -0.2298 0.2298 0.9732 -90.3216 127.605)" fill="#29FD2E" cx="502.8" cy="451.7" rx="46.9" ry="46.9"/>
	<ellipse transform="matrix(0.9732 -0.2298 0.2298 0.9732 -95.8505 80.1201)" fill="#29FD2E" cx="296.1" cy="451.7" rx="46.9" ry="46.9"/>
	<path fill="#29FD2E" d="M512.3,558.2c-4.7-4.7-12.7-4.7-17.4,0c-20.6,20-63.3,27.4-94.4,27.4s-74.3-7.4-94.4-27.4
		c-4.7-4.7-12.7-4.7-17.4,0c-4.7,4.7-4.7,12.7,0,17.4c31.6,31.6,93.3,34.3,111.2,34.3c17.9,0,79.1-2.1,111.2-34.3h0
		C516,570.8,516,563.4,512.3,558.2z"/>
	<path fill="#29FD2E" d="M616.8,0H183.9v0c-0.3,0-0.5,0-0.8,0C82,0.2,0.1,82.4,0.4,183.6v432.8c0,0.3,0,0.5,0,0.8
		c0.2,101.2,82.4,183,183.6,182.8h432.8c0.3,0,0.5,0,0.8,0c101.2-0.2,183-82.4,182.8-183.6V183.6c0-0.3,0-0.5,0-0.8
		C800.1,81.6,717.9-0.2,616.8,0z M700,404.7c0,26.9-16.3,50.1-38,60.6c1.1,6.3,1.6,12.7,1.6,19.5c0,101.2-117.6,183-263.1,183
		s-263.1-81.7-263.1-183c0-6.9,0.5-13.7,1.6-20c-23.2-10.5-39-33.2-39-60.1c0-36.4,29.5-65.9,65.9-65.9c17.4,0,33.7,7.4,45.3,18.5
		c45.3-33.2,108.1-53.8,178.2-55.9l33.2-157.1c1.1-3.2,2.6-5.8,5.3-7.4c2.6-1.6,5.8-2.1,9-1.6L546,158.5
		c7.4-15.8,23.2-26.4,41.7-26.4c25.8,0,46.9,21.1,46.9,46.9c0,25.8-21.1,46.9-46.9,46.9c-25.3,0-45.9-20-46.9-44.8l-97.5-20.6
		l-30.1,140.8c68.5,2.6,130.8,23.7,175.6,55.9c11.6-11.6,27.4-18.5,45.3-18.5C670.5,338.8,700,368.4,700,404.7L700,404.7z"/>
</g>
</svg>
