<?xml version="1.0" encoding="utf-8"?>
<!-- Generator: Adobe Illustrator 25.2.3, SVG Export Plug-In . SVG Version: 6.00 Build 0)  -->
<svg version="1.1"
	 id="Layer_1" xmlns:cc="http://creativecommons.org/ns#" xmlns:dc="http://purl.org/dc/elements/1.1/" xmlns:rdf="http://www.w3.org/1999/02/22-rdf-syntax-ns#"
	 xmlns="http://www.w3.org/2000/svg" xmlns:xlink="http://www.w3.org/1999/xlink" x="0px" y="0px" viewBox="0 0 800 800"
	 style="enable-background:new 0 0 800 800;" xml:space="preserve">
<style type="text/css">
	.st0{fill:#29FD2E;}
</style>
<g>
	<path class="st0" d="M484.3,528.4c-14.6,0-28.3-20.6-31.7-31c-3.4-9.2-8.4-38-10.6-46.8c-7.2-28.8-29.7-30.3-34.9-30.3h-56.7v40.2
		h52.5c2,0,3.4,0.4,3.4,2.2v63.6c0,1.8-1.4,2.2-3.4,2.2H223.4c5.8,7.9,12.2,15.4,19,22.5l36.9-7.9c8.8-1.9,17.4,3.7,19.3,12.5
		l8.9,41.7c28.1,13.1,59.3,20.4,92.3,20.4c32.1,0,63-7,90.6-19.5l8.9-41.7c1.8-8.8,10.5-14.4,19.3-12.5l0.3-0.2l37.7,8.1
		c7.3-7.5,14.1-15.4,20.3-23.9c-1.1,0.2-2.2,0.3-3.2,0.3H484.3z"/>
	<path class="st0" d="M534.7,567c-9.6-2.1-19.1,4.1-21.2,13.7c-2.1,9.6,4,19.1,13.6,21.2h0.1c9.6,2.1,19.1-4.1,21.2-13.7
		S544.3,569.1,534.7,567z"/>
	<path class="st0" d="M262.9,566.2c-9.6,2.1-15.8,11.6-13.7,21.2c2.1,9.6,11.5,15.8,21.2,13.7c9.6-2.1,15.8-11.6,13.7-21.2
		C282,570.2,272.5,564.1,262.9,566.2z"/>
	<path class="st0" d="M410.4,184c7.1-6.8,7.4-18.1,0.6-25.2c-6.8-7.1-18.1-7.4-25.2-0.6v0c-7.1,6.8-7.4,18.1-0.6,25.2
		C392,190.5,403.3,190.8,410.4,184z"/>
	<path class="st0" d="M251,318.4h-31.1l7.9,17.9c3.7,8.2-0.1,17.8-8.3,21.4l-38.2,17c-0.8,7.7-1.2,15.5-1.2,23.4
		c0,20.9,2.9,41.1,8.4,60.2H251V318.4z"/>
	<path class="st0" d="M193,348.9c9-4,13.1-14.6,9.1-23.6c-4-9-14.5-13.1-23.5-9.1c-9,4-13.1,14.6-9.1,23.6S184,352.9,193,348.9z"/>
	<path class="st0" d="M799.2,187.2c-0.2-14.4-1.2-28.8-3.9-43c-3.3-17.3-7.9-34.2-16.2-49.8C770.3,77.9,759.3,63,745.7,50
		C725,30.1,701,16,673,8.6c-25.2-6.7-50.9-8.2-76.9-8.2C596,0.3,596,0.1,596,0H203.8c0,0.1,0,0.3,0,0.4c-14.7,0.3-29.4,0.2-44.1,2
		c-16,2-31.9,5-47.1,10.6c-23.9,8.8-44.7,22.6-62.4,41C30.1,74.7,16,98.8,8.5,126.8c-6.7,25-8.2,50.5-8.2,76.2L0,596.5
		c0.5,17.8,0.6,35.6,3.6,53.3c3.2,18.7,7.7,36.9,16.4,53.8c11.7,22.9,27.7,42.3,48.1,58.1c14.6,11.4,30.5,20.4,48.1,26.1
		c25.7,8.3,52.2,11.5,79.1,11.6c16.8,0.1,33.6,0.5,50.4,0.5c122-0.5,243.9,0.9,365.9-0.8c16.2-0.2,32.1-2.2,48-5.1
		c30.4-5.6,57.3-18.6,80.4-39.1c26.8-23.9,44.9-53.2,53.1-88.5c5.3-23.1,6.7-46.5,6.9-70v-4.7C800,590,799.3,192.5,799.2,187.2z
		 M695.9,407.4L670.7,423c-0.2,2.4-0.5,4.9-0.7,7.3l21.7,20.2c2.2,2.1,3.2,5.1,2.6,8c-0.6,2.9-2.6,5.4-5.5,6.4l-27.7,10.3
		c-0.7,2.4-1.4,4.8-2.2,7.2l17.3,24c1.8,2.4,2.1,5.6,1,8.4c-1.1,2.8-3.6,4.8-6.6,5.2l-29.2,4.7c-1.1,2.2-2.3,4.4-3.5,6.5l12.3,26.9
		c1.3,2.7,1,5.9-0.7,8.4c-1.7,2.5-4.5,4-7.5,3.8l-29.6-1c-1.5,1.9-3.1,3.8-4.7,5.7l6.8,28.8c0.7,2.9-0.2,6-2.3,8.1
		c-2.1,2.1-5.2,3-8.1,2.3l-28.8-6.8c-1.9,1.6-3.8,3.1-5.7,4.7l1,29.6c0.1,3-1.3,5.8-3.8,7.5c-2.5,1.7-5.7,1.9-8.4,0.7l-26.9-12.3
		c-2.2,1.2-4.3,2.4-6.5,3.5l-4.8,29.2c-0.5,3-2.5,5.5-5.2,6.7c-2.8,1.2-5.9,0.8-8.4-1l-24-17.3c-2.4,0.8-4.8,1.5-7.2,2.2L465,688.8
		c-1,2.8-3.5,4.9-6.4,5.5c-2.9,0.6-6-0.4-8-2.6L430.3,670c-2.4,0.3-4.9,0.5-7.3,0.7l-15.6,25.2c-1.6,2.5-4.4,4.1-7.4,4.1
		s-5.8-1.6-7.3-4.1l-15.6-25.2c-2.4-0.2-4.9-0.5-7.3-0.7l-20.2,21.7c-2.1,2.2-5.1,3.2-8,2.6c-2.9-0.6-5.4-2.7-6.4-5.5l-10.3-27.7
		c-2.4-0.7-4.8-1.4-7.2-2.2l-24,17.3c-2.4,1.7-5.6,2.1-8.4,1c-2.8-1.2-4.8-3.7-5.2-6.7l-4.8-29.2c-2.2-1.1-4.4-2.3-6.5-3.5
		l-26.9,12.3c-2.8,1.2-5.9,1-8.4-0.7c-2.5-1.7-4-4.5-3.8-7.5l1-29.6c-1.9-1.5-3.8-3.1-5.7-4.7l-28.8,6.8c-2.9,0.7-6-0.2-8.1-2.3
		c-2.1-2.1-3-5.2-2.3-8.1l6.8-28.8c-1.6-1.9-3.1-3.8-4.7-5.7l-29.6,1c-3,0.1-5.8-1.3-7.5-3.8c-1.7-2.5-1.9-5.7-0.7-8.4l12.3-26.9
		c-1.2-2.1-2.4-4.3-3.5-6.5l-29.2-4.7c-3-0.5-5.5-2.5-6.7-5.2c-1.2-2.8-0.8-5.9,1-8.4l17.3-24c-0.8-2.4-1.5-4.8-2.2-7.2L111.2,465
		c-2.8-1-4.9-3.5-5.5-6.4c-0.6-2.9,0.4-6,2.6-8l21.7-20.2c-0.3-2.4-0.5-4.9-0.7-7.3l-25.2-15.6c-2.6-1.5-4.1-4.3-4.1-7.3
		c0-3,1.6-5.8,4.1-7.4l25.2-15.6c0.2-2.4,0.4-4.9,0.7-7.3l-21.7-20.2c-2.2-2.1-3.2-5.1-2.6-8c0.6-2.9,2.7-5.4,5.5-6.4l27.7-10.3
		c0.7-2.4,1.4-4.8,2.2-7.2l-17.3-24c-1.7-2.4-2.1-5.6-1-8.4c1.1-2.8,3.6-4.8,6.6-5.2l29.2-4.7c1.1-2.2,2.3-4.4,3.5-6.5l-12.3-26.9
		c-1.2-2.8-1-5.9,0.7-8.4c1.7-2.5,4.5-3.9,7.5-3.8l29.6,1c1.5-1.9,3.1-3.8,4.7-5.7l-6.8-28.8c-0.7-2.9,0.2-6,2.3-8.1
		c2.1-2.1,5.2-3,8.1-2.3l28.8,6.8c1.9-1.6,3.8-3.1,5.7-4.7l-1-29.6c-0.1-3,1.3-5.8,3.8-7.5c2.5-1.7,5.7-1.9,8.4-0.7l26.9,12.3
		c2.2-1.2,4.3-2.4,6.5-3.5l4.8-29.2c0.5-2.9,2.5-5.4,5.2-6.6c2.8-1.2,5.9-0.8,8.4,1l24,17.3c2.3-0.7,4.7-1.5,7.1-2.2l10.3-27.7
		c1-2.8,3.5-4.9,6.4-5.5c2.9-0.6,6,0.4,8,2.6l20.2,21.7c2.4-0.3,4.9-0.5,7.3-0.7l15.6-25.2c1.5-2.6,4.3-4.1,7.3-4.1
		c3,0,5.8,1.6,7.4,4.1l15.6,25.2c2.4,0.2,4.9,0.4,7.3,0.7l20.2-21.7c2.1-2.2,5.1-3.2,8-2.6c2.9,0.6,5.4,2.7,6.4,5.5l10.3,27.7
		c2.4,0.7,4.7,1.4,7.1,2.2l24-17.3c2.4-1.8,5.6-2.1,8.4-1c2.8,1.1,4.8,3.6,5.2,6.6l4.8,29.2c2.2,1.1,4.4,2.3,6.5,3.5l26.9-12.3
		c2.8-1.2,5.9-1,8.4,0.7c2.5,1.7,4,4.5,3.8,7.5l-1,29.6c1.9,1.5,3.8,3.1,5.7,4.7l28.8-6.8c3-0.7,6,0.2,8.1,2.3
		c2.1,2.1,3,5.2,2.3,8.1l-6.8,28.8c1.6,1.9,3.1,3.8,4.7,5.7l29.6-1c3-0.1,5.8,1.3,7.5,3.8c1.7,2.5,1.9,5.7,0.7,8.4l-12.3,26.9
		c1.2,2.1,2.4,4.3,3.5,6.5l29.2,4.7c2.9,0.5,5.4,2.5,6.6,5.2c1.1,2.8,0.8,5.9-1,8.4l-17.3,24c0.7,2.4,1.5,4.8,2.2,7.2l27.7,10.3
		c2.8,1,4.9,3.5,5.5,6.4c0.6,2.9-0.4,6-2.6,8l-21.7,20.2c0.3,2.4,0.5,4.9,0.7,7.3l25.2,15.6l0.2,0c2.6,1.6,4.1,4.4,4.1,7.4
		S698.4,405.8,695.9,407.4z"/>
	<path class="st0" d="M618.1,317.1c-9-4-19.5,0.1-23.5,9.1c-4,9,0.1,19.6,9.1,23.6c9,4,19.5-0.1,23.5-9.1
		C631.2,331.7,627.1,321.1,618.1,317.1z"/>
	<path class="st0" d="M577.2,358.5c-8.2-3.6-11.9-13.2-8.3-21.4l21-47.5c-31.5-55.2-86-95.2-150.2-107.2L409,211.7
		c-6.5,6.2-16.8,6-23-0.5l-27.5-28.8c-48.2,9.2-91.1,34.2-122.7,69.4h232.8c5.8,0,27.5,2.6,47.1,15.5c13.9,9.2,34.4,28,34.4,57.9
		c0,27.8-22.9,48.5-45,62.5c17.8,14.1,29,22.2,35.8,60.2c1.5,7,14.2,13.1,25.7,11.8c12-1.3,25.7-6.7,25.7-31v-10.3
		c0-2.2,0.9-3.7,3.2-3.7h22.5c0.4-5.4,0.6-10.8,0.6-16.3l0.1-0.1c0-7.3-0.4-14.6-1.1-21.8L577.2,358.5z"/>
	<path class="st0" d="M450.7,341.7c0-17.3-23.2-21.7-27-21.7h-74v41.3h68.6C432.9,361.2,450.7,356.1,450.7,341.7z"/>
</g>
</svg>
