<?xml version="1.0" encoding="utf-8"?>
<!-- Generator: Adobe Illustrator 25.2.3, SVG Export Plug-In . SVG Version: 6.00 Build 0)  -->
<svg version="1.1" id="Layer_1" xmlns="http://www.w3.org/2000/svg" xmlns:xlink="http://www.w3.org/1999/xlink" x="0px" y="0px"
	 viewBox="0 0 16 16" style="enable-background:new 0 0 16 16;" xml:space="preserve">
<style type="text/css">
	.st0{fill:#29FD2E;}
</style>
<g>
	<path class="st0" d="M7.8,9.2c-0.5,0.4-1,0.7-1.6,0.9c-0.3,0.1-0.7,0.1-1,0.1c-0.7,0-1.3-0.2-1.9-0.5C3,9.6,2.8,9.4,2.6,9.2
		c-0.1,0.6,0,1.2,0.3,1.7h0l0,0c0.3,0.6,0.9,1,1.6,1.2c0.7,0.2,1.4,0.1,2-0.3C7.4,11.3,7.9,10.3,7.8,9.2z"/>
	<path class="st0" d="M3.9,8.6C4.5,9,5.2,9,5.9,8.9c0.4-0.1,0.7-0.3,1-0.5C5.2,7.9,4.2,6.4,4.2,4.8c0-0.3,0-0.5,0.1-0.8
		c-0.6,0.2-1,0.6-1.3,1.1h0C2.2,6.3,2.6,7.9,3.9,8.6z"/>
	<path class="st0" d="M8.9,8.8c0.3,1.6-0.4,3.2-1.8,4c-0.2,0.1-0.5,0.2-0.7,0.3c0.4,0.4,1,0.6,1.6,0.6v0c1.2,0,2.3-0.9,2.5-2.1
		C10.7,10.5,10.1,9.3,8.9,8.8z"/>
	<path class="st0" d="M7.1,7.2C6.7,5.6,7.4,4,8.8,3.1C9.1,3,9.3,2.9,9.6,2.8C9.1,2.4,8.6,2.2,8,2.2v0c-1.4,0-2.5,1.2-2.5,2.5
		C5.5,5.8,6.1,6.8,7.1,7.2z"/>
	<path class="st0" d="M11.9,7.4C11.3,7,10.6,7,10,7.1C9.6,7.2,9.3,7.4,9,7.6c1.6,0.5,2.6,1.9,2.6,3.6c0,0.3,0,0.5-0.1,0.8
		c0.5-0.2,1-0.6,1.3-1.1v0C13.5,9.7,13.1,8.1,11.9,7.4z"/>
	<path class="st0" d="M16,3.7c0-0.3,0-0.6-0.1-0.9c-0.1-0.3-0.2-0.7-0.3-1c-0.2-0.3-0.4-0.6-0.7-0.9c-0.4-0.4-0.9-0.7-1.5-0.8
		C13,0,12.4,0,11.9,0c0,0,0,0,0,0H4.1c0,0,0,0,0,0C3.8,0,3.5,0,3.2,0c-0.3,0-0.6,0.1-0.9,0.2C1.8,0.4,1.4,0.7,1,1.1
		C0.6,1.5,0.3,2,0.2,2.5C0,3,0,3.5,0,4.1l0,7.9c0,0.4,0,0.7,0.1,1.1c0.1,0.4,0.2,0.7,0.3,1.1c0.2,0.5,0.6,0.8,1,1.2
		c0.3,0.2,0.6,0.4,1,0.5c0.5,0.2,1,0.2,1.6,0.2c0.3,0,0.7,0,1,0c2.4,0,4.9,0,7.3,0c0.3,0,0.6,0,1-0.1c0.6-0.1,1.1-0.4,1.6-0.8
		c0.5-0.5,0.9-1.1,1.1-1.8c0.1-0.5,0.1-0.9,0.1-1.4v-0.1C16,11.8,16,3.9,16,3.7z M14,11.5c-0.6,1.1-1.7,1.8-2.9,1.9
		C10.4,14.4,9.2,15,8,15s-2.4-0.6-3.1-1.6c-0.2,0-0.4-0.1-0.6-0.1c-1-0.3-1.8-0.9-2.3-1.8C1.4,10.4,1.3,9.1,1.8,8
		C1.3,6.9,1.4,5.6,2,4.5c0.6-1.1,1.7-1.8,2.9-1.9C5.6,1.6,6.8,1,8,1c1.2,0,2.4,0.6,3.1,1.6c0.2,0,0.4,0.1,0.6,0.1
		c1,0.3,1.8,0.9,2.3,1.8c0.6,1.1,0.7,2.4,0.2,3.5C14.7,9.1,14.6,10.4,14,11.5z"/>
	<path class="st0" d="M11.5,3.8c-0.7-0.2-1.4-0.1-2,0.3C8.6,4.6,8.1,5.7,8.2,6.8c0.5-0.4,1-0.7,1.6-0.9c1-0.3,2-0.1,2.9,0.4
		c0.2,0.1,0.5,0.3,0.7,0.5c0.1-0.6,0-1.2-0.3-1.7C12.7,4.5,12.2,4,11.5,3.8z"/>
</g>
</svg>
