<?xml version="1.0" encoding="utf-8"?>
<!-- Generator: Adobe Illustrator 25.0.0, SVG Export Plug-In . SVG Version: 6.00 Build 0)  -->
<svg version="1.1" id="Layer_1" xmlns="http://www.w3.org/2000/svg" xmlns:xlink="http://www.w3.org/1999/xlink" x="0px" y="0px"
	 viewBox="0 0 16 16" style="enable-background:new 0 0 16 16;" xml:space="preserve">
<style type="text/css">
	.st0{fill:#29FD2E;}
</style>
<g>
	<path class="st0" d="M4.84668,8.75732C4.3623,9.03906,3.76465,9.17969,3.05371,9.17969H2.20996V8.75732H1.78809
		c-0.0625,0-0.11523-0.05273-0.1582-0.1582S1.56543,8.3667,1.56543,8.21826c0-0.11719,0.01562-0.22266,0.04688-0.31641
		c-0.25-0.00781-0.46094-0.03125-0.63281-0.07031S0.72168,7.74561,0.72168,7.69092s0.08594-0.10156,0.25781-0.14062
		S1.3623,7.48779,1.6123,7.47998C1.58105,7.38623,1.56543,7.28076,1.56543,7.16357c0-0.14844,0.02148-0.27344,0.06445-0.375
		s0.0957-0.15234,0.1582-0.15234h0.42188V6.20264h0.84375c0.71094,0,1.30859,0.14453,1.79297,0.43359h7.38281
		c0.14844,0.02344,0.30078,0.04688,0.45703,0.07031s0.30859,0.04883,0.45703,0.07617s0.25781,0.04492,0.32812,0.05273
		c0.29688,0.05469,0.56055,0.12109,0.79102,0.19922s0.41016,0.15625,0.53906,0.23438s0.22266,0.1543,0.28125,0.22852
		s0.08789,0.14062,0.08789,0.19922s-0.0293,0.12305-0.08789,0.19336s-0.15234,0.14453-0.28125,0.22266
		s-0.30859,0.15625-0.53906,0.23438s-0.49414,0.14453-0.79102,0.19922c-0.34375,0.05469-0.75781,0.125-1.24219,0.21094H4.84668z
		 M3.05371,6.09717h-0.1875l0.60938-3.08203h0.64453c0.20312,0,0.40234,0.04102,0.59766,0.12305s0.35156,0.18164,0.46875,0.29883
		l1.91016,1.91016C7.1123,5.36279,7.13574,5.38623,7.16699,5.41748s0.09961,0.08398,0.20508,0.1582s0.21289,0.13867,0.32227,0.19336
		s0.24414,0.10547,0.4043,0.15234S8.4209,5.9917,8.58496,5.9917l3.02344,0.53906H4.87012
		C4.35449,6.2417,3.74902,6.09717,3.05371,6.09717z M4.87012,8.86279h6.73828c-0.96094,0.16455-1.96875,0.34033-3.02344,0.52783
		c-0.16406,0-0.32617,0.02148-0.48633,0.06445s-0.29688,0.0957-0.41016,0.1582s-0.2168,0.125-0.31055,0.1875
		S7.21387,9.91797,7.16699,9.96484l-0.07031,0.07031l-1.91016,1.91016c-0.11719,0.11719-0.27539,0.2168-0.47461,0.29883
		s-0.39648,0.12305-0.5918,0.12305H3.47559L2.86621,9.28516h0.1875C3.75684,9.28516,4.3623,9.14453,4.87012,8.86279z
		 M12.26465,7.08154c0.23438,0.16406,0.35156,0.36914,0.35156,0.61523s-0.11719,0.44727-0.35156,0.60352l0.53906,0.19922
		c0.30469-0.21094,0.45703-0.48047,0.45703-0.80859s-0.15234-0.59766-0.45703-0.80859L12.26465,7.08154z"/>
</g>
</svg>
