<svg id="Layer_1" data-name="Layer 1" xmlns="http://www.w3.org/2000/svg" viewBox="0 0 800 799.97219"><defs><style>.cls-1{fill:#29fd2e;}</style></defs><path class="cls-1" d="M799.2,187.21393a248.25319,248.25319,0,0,0-3.9-43c-3.3-17.3-7.9-34.2-16.2-49.8a174.34582,174.34582,0,0,0-33.4-44.4c-20.7-19.9-44.7-34-72.7-41.4C647.8,1.91394,622.1.41394,596.1.41394a.60147.60147,0,0,1-.1-.4H203.8v.4c-14.69995.3-29.4.2-44.1,2-16,2-31.9,5-47.1,10.6a164.75176,164.75176,0,0,0-62.4,41c-20.1,20.7-34.2,44.8-41.7,72.8-6.7,25-8.2,50.5-8.2,76.2l-.3,393.5c.5,17.8.6,35.6,3.6,53.3,3.2,18.7,7.7,36.9,16.4,53.8a170.98783,170.98783,0,0,0,48.1,58.1c14.6,11.4,30.5,20.4,48.1,26.1,25.7,8.3,52.2,11.5,79.1,11.6,16.8.1,33.6.5,50.4.5,122-.5,243.9.9,365.9-.8a286.4132,286.4132,0,0,0,48-5.1,163.6887,163.6887,0,0,0,80.4-39.1c26.8-23.9,44.9-53.2,53.1-88.5,5.3-23.1,6.7-46.5,6.9-70v-4.7C800,590.01392,799.3,192.51392,799.2,187.21393ZM380.72046,550.35553c-1.31561,33.581-32.14179,47.4129-37.87354,48.37878-4.16113.7052-6.42138.82685-7.01446-2.43792-.41144-2.24475,1.07989-3.28992,5.96161-6.31128,4.88366-3.01752,19.48443-13.02051,22.09631-31.21448,2.60986-18.19006-11.04816-61.66016-80.66547-69.7912-24.67138-2.88037-44.0863-.91186-60.73675,3.48114,12.072,26.61292,14.38251,80.11878-13.39337,121.55267-28.78424,42.933-82.34613,69.05518-134.54224,54.53168-16.84552-4.68475-42.29162-39.504-20.34021-88.02575,20.80579-45.993,109.70087-90.98145,121.84625-96.96045v-.21442C134.87006,447.87976,34.66992,400.08051,20.54437,326.953c-4.00464-20.72461,5.71051-70.32434,66.63459-127.30749,51.23986-47.92871,122.50311-84.63349,188.3302-108.0202C386.12183,52.33,502.99365,75.50031,520.96545,145.98505c17.67237,69.30243-42.49639,152.21466-119.54931,182.0227C332.61792,354.6167,275.73132,350.40533,252.362,342.736c-26.56458-8.71832-42.14478-26.24194-45.94275-36.12329-1.48755-3.87524-4.06262-10.37585,0-12.6264,2.494-1.38123,3.49085-1.04895,10.17108,6.31323,6.34607,6.99322,31.85974,25.77063,80.312,20.34027,127.1723-14.255,203.76544-113.072,179.56543-166.23779-16.94214-37.21479-114.97479-54.00623-237.43341,7.01446C89.54352,235.90778,81.43756,297.31866,80.16254,320.63977c-3.50623,64.14832,79.17413,97.90314,123.89984,145.62128,1.05285,1.12237,2.07092,2.25641,3.07159,3.39618,13.53247-5.03632,32.26734-7.86835,62.062-8.38416C341.541,460.027,382.39923,507.72,380.72046,550.35553ZM574.57062,526c-84,0-94.5-63-136.5-73.5q-42.00321-10.5033-73.5,31.5,20.99679-83.9967,105-84c84,0,94.5,63,136.5,73.5q42.00329,10.5033,73.5-31.5Q658.57391,525.9967,574.57062,526Zm105-126c-84,0-94.5-63-136.5-73.5q-42.00321-10.5033-73.5,31.5,20.9967-83.9967,105-84c84,0,94.50006,63,136.5,73.5q42.00329,10.5033,73.5-31.5Q763.57391,399.9967,679.57062,400Z" transform="translate(0 -0.01392)"/><path class="cls-1" d="M189.52533,507.1618l.06183.12555s-41.38172,19.54816-70.14282,49.9513c-26.73456,28.26074-34.20691,63.72723-19.28931,72.376,13.81451,8.01324,46.02966-1.49915,69.09-26.65345a110.90537,110.90537,0,0,0,18.32916-26.72107q1.38217-2.863,2.57129-5.79937,1.18807-2.9383,2.183-5.94233c5.96545-18.03741,6.59717-37.95465.82489-59.31292Q191.31027,506.19684,189.52533,507.1618Z" transform="translate(0 -0.01392)"/></svg>