<?xml version="1.0" encoding="utf-8"?>
<!-- Generator: Adobe Illustrator 25.2.3, SVG Export Plug-In . SVG Version: 6.00 Build 0)  -->
<svg version="1.1" id="Layer_1" xmlns="http://www.w3.org/2000/svg" xmlns:xlink="http://www.w3.org/1999/xlink" x="0px" y="0px"
	 viewBox="0 0 800 800" style="enable-background:new 0 0 800 800;" xml:space="preserve">
<style type="text/css">
	.st0{fill:#29FD2E;}
</style>
<g>
	<path class="st0" d="M555.2,257.3c-5.5-4.7-14.1-5.3-23.1-1.7h0c-9.4,3.8-266,113.8-276.5,118.3c-1.9,0.7-18.5,6.9-16.8,20.6
		c1.5,12.4,14.9,17.6,16.5,18.2l65.2,22.3c4.3,14.4,20.3,67.6,23.8,78.9c2.2,7.1,5.8,16.4,12.1,18.3c5.5,2.1,11,0.2,14.6-2.6
		l39.9-37l64.4,50.2l1.5,0.9c4.4,1.9,8.6,2.9,12.6,2.9c3.1,0,6.1-0.6,8.9-1.7c9.6-4,13.5-13.2,13.9-14.2l48.1-250
		C563.2,267.4,559.1,260.7,555.2,257.3z M378.1,444l-22,58.7l-22-73.4l168.7-124.7L378.1,444z"/>
	<path class="st0" d="M799.2,187.2c0-14.4-1.4-28.8-3.9-43c-3.3-17.3-7.9-34.2-16.2-49.8c-8.7-16.5-20-31.5-33.4-44.4
		C725,30.1,701,16,673,8.6c-25.2-6.7-50.9-8.2-76.9-8.2C596,0.3,596,0.1,596,0H203.8v0.4c-14.7,0.3-29.4,0.2-44.1,2
		c-16,2-31.9,5-47.1,10.6c-23.7,8.7-45,22.7-62.4,41C30.1,74.7,16,98.8,8.5,126.8c-6.7,25-8.2,50.5-8.2,76.2L0,596.5
		c0.5,17.8,0.6,35.6,3.6,53.3c3.2,18.7,7.7,36.9,16.4,53.8c11.5,22.7,27.9,42.6,48.1,58.1c14.6,11.4,30.5,20.4,48.1,26.1
		c25.7,8.3,52.2,11.5,79.1,11.6c16.8,0.1,33.6,0.5,50.4,0.5c122-0.5,243.9,0.9,365.9-0.8c16.1-0.3,32.2-2.1,48-5.1
		c29.9-5.3,57.7-18.9,80.4-39.1c26.8-23.9,44.9-53.2,53.1-88.5c5.3-23.1,6.7-46.5,6.9-70v-4.7C800,590,799.3,192.5,799.2,187.2z
		 M400,700c-165.7,0-300-134.3-300-300S234.3,100,400,100S700,234.3,700,400S565.7,700,400,700z"/>
</g>
</svg>
