<svg id="Layer_1" data-name="Layer 1" xmlns="http://www.w3.org/2000/svg" viewBox="0 0 800 799.97219"><defs><style>.cls-1{fill:#29fd2e;}</style></defs><polygon class="cls-1" points="318.351 591.006 359.29 481.836 591.276 222.557 277.412 454.543 318.351 591.006"/><path class="cls-1" d="M799.2,187.2a248.257,248.257,0,0,0-3.9-43c-3.3-17.3-7.9-34.2-16.2-49.8a174.91982,174.91982,0,0,0-33.4-44.4C725,30.1,701,16,673,8.6,647.8,1.9,622.1.4,596.1.4A.60169.60169,0,0,1,596,0H203.8V.4C189.1.7,174.4.6,159.7,2.4c-16,2-31.9,5-47.1,10.6A163.98609,163.98609,0,0,0,50.2,54C30.1,74.7,16,98.8,8.5,126.8,1.8,151.8.3,177.3.3,203L0,596.5c.5,17.8.6,35.6,3.6,53.3,3.2,18.7,7.7,36.9,16.4,53.8a170.04727,170.04727,0,0,0,48.1,58.1c14.6,11.4,30.5,20.4,48.1,26.1,25.7,8.3,52.2,11.5,79.1,11.6,16.8.1,33.6.5,50.4.5,122-.5,243.9.9,365.9-.8a286.405,286.405,0,0,0,48-5.1A164.10569,164.10569,0,0,0,740,754.9c26.8-23.9,44.9-53.2,53.1-88.5,5.3-23.1,6.7-46.5,6.9-70v-4.7C800,590,799.3,192.5,799.2,187.2Zm-101.05963-8.95282-89.4649,465.02362c-.75055,1.93781-7.92853,19.03656-25.87329,26.40558a43.22638,43.22638,0,0,1-16.52564,3.23413,57.668,57.668,0,0,1-23.36243-5.40393l-2.85205-1.70575L420.28882,572.39215l-74.19476,68.81812c-6.6048,5.18554-16.81214,8.80181-27.07416,4.84436-11.69483-3.56159-18.36786-20.86512-22.46173-34.03376-6.56391-21.12439-36.24451-120.00525-44.29578-146.80651L130.90619,423.6615c-3.02948-1.10535-27.83838-10.685-30.67682-33.81543-3.17957-25.655,27.68829-37.17242,31.22266-38.40057,19.43225-8.36512,496.7785-213.11365,514.2594-220.12787h.02728c16.62115-6.673,32.69647-5.43122,42.93115,3.24786C696.01154,140.77454,703.59882,153.411,698.14038,178.24719Z"/></svg>