<svg id="Layer_1" data-name="Layer 1" xmlns="http://www.w3.org/2000/svg" viewBox="0 0 25 24.88403"><defs><style>.cls-1{fill:#0a94cf;}.cls-1,.cls-2{fill-rule:evenodd;}.cls-2{fill:#fff;}</style></defs><path class="cls-1" d="M5.64575.058h13.7085A5.662,5.662,0,0,1,25,5.70374V19.2983A5.662,5.662,0,0,1,19.35425,24.942H5.64575A5.662,5.662,0,0,1,0,19.2983V5.70374A5.662,5.662,0,0,1,5.64575.058Z" transform="translate(0 -0.05798)"/><path class="cls-2" d="M12.5,3.5a9,9,0,1,1-9,9A9,9,0,0,1,12.5,3.5Zm4.33182,4.92506-1.60569,8.09561a.59422.59422,0,0,1-.84207.29182l-3.69414-2.90811s4.10961-3.69408,4.278-3.85128c.16843-.15719.11227-.19083.11227-.19083.01118-.19089-.30316,0-.30316,0L9.33134,13.32058,7.06324,12.557s-.34809-.12355-.38173-.39295c-.03369-.26957.393-.41548.393-.41548l9.01636-3.53688S16.83182,7.88609,16.83182,8.42506Zm-4.73239,6.636-1.46561,1.33623a.257.257,0,0,1-.23992.03245l.28063-2.4821Z" transform="translate(0 -0.05798)"/></svg>