<?xml version="1.0" encoding="utf-8"?>
<!-- Generator: Adobe Illustrator 25.2.3, SVG Export Plug-In . SVG Version: 6.00 Build 0)  -->
<svg version="1.1" id="Layer_1" xmlns="http://www.w3.org/2000/svg" xmlns:xlink="http://www.w3.org/1999/xlink" x="0px" y="0px"
	 viewBox="0 0 800 800" style="enable-background:new 0 0 800 800;" xml:space="preserve">
<style type="text/css">
	.st0{fill:#29FD2E;}
</style>
<path class="st0" d="M799.2,187.1c-0.2-14.4-1.2-28.8-3.9-43c-3.3-17.3-7.9-34.2-16.2-49.9c-8.8-16.6-19.7-31.4-33.3-44.4
	C725,29.8,701,15.7,673,8.3c-25.2-6.7-50.9-8.2-76.9-8.2c-0.1-0.1-0.1-0.3-0.1-0.4H203.8c0,0.1,0,0.3,0,0.4
	c-14.7,0.3-29.4,0.2-44.1,2c-16,2-31.9,5-47.1,10.6c-23.9,8.8-44.7,22.6-62.4,41C30.1,74.5,16,98.6,8.5,126.6
	c-6.7,25-8.2,50.5-8.2,76.2L0,596.7v0c0.5,17.8,0.6,35.7,3.6,53.3c3.2,18.7,7.7,36.9,16.4,53.9c11.7,23,27.7,42.3,48.1,58.2
	c14.6,11.4,30.5,20.4,48.1,26.1c25.7,8.3,52.2,11.5,79.1,11.6c16.8,0.1,33.6,0.5,50.4,0.5c122-0.5,243.9,0.9,365.9-0.8
	c16.2-0.2,32.1-2.2,48-5.1c30.4-5.6,57.3-18.6,80.4-39.1c26.8-23.9,44.9-53.2,53.1-88.6c5.3-23.1,6.7-46.5,6.9-70.1V592
	C800,590.2,799.3,192.3,799.2,187.1z M205.5,504.8c-77.2-9.2-104-52.1-109.2-109.2l2.7-74.9h267.2c74.8,10.7,120.8,50.1,128.2,128.2
	v56H205.5z M503.4,627.5c-0.2,72.9-39.7,96.6-97.5,97.5H301.1V546.3h0h202.2V627.5z M505.2,179.8L505.2,179.8
	c0,57.8-46.5,104.7-103.8,104.7c-57.3,0-103.8-46.9-103.8-104.7C297.5,122,343.9,75,401.3,75c57.3-0.1,103.8,46.8,103.9,104.6V179.8
	z M703.7,392.9c-3.4,62.3-28.9,109-113.7,113.7l-66.8-1.8v-79.4c4.7-59.2,26.3-105.6,107.4-107.4h73.1V392.9z"/>
</svg>
