<?xml version="1.0" encoding="utf-8"?>
<!-- Generator: Adobe Illustrator 25.2.3, SVG Export Plug-In . SVG Version: 6.00 Build 0)  -->
<svg version="1.1" id="Layer_1" xmlns="http://www.w3.org/2000/svg" xmlns:xlink="http://www.w3.org/1999/xlink" x="0px" y="0px"
	 viewBox="0 0 800 800" style="enable-background:new 0 0 800 800;" xml:space="preserve">
<style type="text/css">
	.st0{fill:#29FD2E;}
</style>
<g>
	<path class="st0" d="M799.2,187.2c0-14.4-1.4-28.8-3.9-43c-3.3-17.3-7.9-34.2-16.2-49.8c-8.7-16.5-20-31.5-33.4-44.4
		C725,30.1,701,16,673,8.6c-25.2-6.7-50.9-8.2-76.9-8.2C596,0.3,596,0.1,596,0H203.8v0.4c-14.7,0.3-29.4,0.2-44.1,2
		c-16,2-31.9,5-47.1,10.6c-23.7,8.7-45,22.7-62.4,41C30.1,74.7,16,98.8,8.5,126.8c-6.7,25-8.2,50.5-8.2,76.2L0,596.5
		c0.5,17.8,0.6,35.6,3.6,53.3c3.2,18.7,7.7,36.9,16.4,53.8c11.5,22.7,27.9,42.6,48.1,58.1c14.6,11.4,30.5,20.4,48.1,26.1
		c25.7,8.3,52.2,11.5,79.1,11.6c16.8,0.1,33.6,0.5,50.4,0.5c122-0.5,243.9,0.9,365.9-0.8c16.1-0.3,32.2-2.1,48-5.1
		c29.9-5.3,57.7-18.9,80.4-39.1c26.8-23.9,44.9-53.2,53.1-88.5c5.3-23.1,6.7-46.5,6.9-70v-4.7C800,590,799.3,192.5,799.2,187.2z
		 M400,700c-165.7,0-300-134.3-300-300S234.3,100,400,100S700,234.3,700,400S565.7,700,400,700z"/>
	<path class="st0" d="M565.7,513.2c-54.8-94.9-109.6-189.8-164.5-284.8c-0.3-0.5-0.6-0.9-1-1.6c-0.5,0.7-0.8,1.2-1.1,1.7
		c-10.4,18.1-20.9,36.3-31.4,54.4c-39.9,69-79.7,138-119.6,207.1c-15.6,27-31.2,54-46.8,81c-0.4,0.6-0.9,1.2-1.4,1.7
		c0.4,0.8,1.1,0.3,1.6,0.3c132.7,0,265.5,0,398.4-0.1c-0.3-0.6-0.5-1.2-0.8-1.9C588.1,551.8,576.9,532.5,565.7,513.2z"/>
</g>
</svg>
