<?xml version="1.0" encoding="utf-8"?>
<!-- Generator: Adobe Illustrator 25.2.3, SVG Export Plug-In . SVG Version: 6.00 Build 0)  -->
<svg version="1.1" id="Layer_1" xmlns="http://www.w3.org/2000/svg" xmlns:xlink="http://www.w3.org/1999/xlink" x="0px" y="0px"
	 viewBox="0 0 800 800" style="enable-background:new 0 0 800 800;" xml:space="preserve">
<style type="text/css">
	.st0{fill:#29FD2E;}
</style>
<path class="st0" d="M799.2,187.2c0-14.4-1.4-28.8-3.9-43c-3.3-17.3-7.9-34.2-16.2-49.8c-8.7-16.5-20-31.5-33.4-44.4
	C725,30.1,701,16,673,8.6c-25.2-6.7-50.9-8.2-76.9-8.2C596,0.3,596,0.1,596,0H203.8v0.4c-14.7,0.3-29.4,0.2-44.1,2
	c-16,2-31.9,5-47.1,10.6c-23.7,8.7-45,22.7-62.4,41C30.1,74.7,16,98.8,8.5,126.8c-6.7,25-8.2,50.5-8.2,76.2L0,596.5
	c0.5,17.8,0.6,35.6,3.6,53.3c3.2,18.7,7.7,36.9,16.4,53.8c11.5,22.7,27.9,42.6,48.1,58.1c14.6,11.4,30.5,20.4,48.1,26.1
	c25.7,8.3,52.2,11.5,79.1,11.6c16.8,0.1,33.6,0.5,50.4,0.5c122-0.5,243.9,0.9,365.9-0.8c16.1-0.3,32.2-2.1,48-5.1
	c29.9-5.3,57.7-18.9,80.4-39.1c26.8-23.9,44.9-53.2,53.1-88.5c5.3-23.1,6.7-46.5,6.9-70v-4.7C800,590,799.3,192.5,799.2,187.2z
	 M112.3,651c-0.7,0-1.7,0.6-2.3-0.5c0.7-0.8,1.4-1.6,2-2.5c22.6-39.2,45.3-78.4,67.9-117.5c57.8-100.1,115.6-200.2,173.4-300.3
	c15.2-26.3,30.4-52.6,45.5-78.9c0.4-0.8,0.9-1.5,1.6-2.5c0.6,1,1.1,1.6,1.5,2.3c79.5,137.7,159,275.3,238.5,413
	c16.2,28,32.4,56.1,48.5,84.1c0.5,0.9,0.8,1.8,1.2,2.7C497.4,651,304.8,651,112.3,651z"/>
</svg>
