<svg id="Layer_1" data-name="Layer 1" xmlns="http://www.w3.org/2000/svg" viewBox="0 0 800 799.97219"><defs><style>.cls-1{fill:#29fd2e;}</style></defs><path class="cls-1" d="M707.5415,379.57977a31.57712,31.57712,0,0,0-18.671-.91119A23.99107,23.99107,0,0,0,671.101,394.55652a6.93134,6.93134,0,0,0-.19189.821,2.48709,2.48709,0,0,0,.58728.18232q25.20749.0096,50.41491-.00116a2.67834,2.67834,0,0,0,.624-.203c-.107-.366-.1601-.592-.2384-.809A23.76623,23.76623,0,0,0,707.5415,379.57977Z"/><path class="cls-1" d="M426.54047,394.378a23.4762,23.4762,0,0,0-13.72364-14.40234,31.16383,31.16383,0,0,0-23.63073-.00287,23.43612,23.43612,0,0,0-13.66529,14.235,12.22892,12.22892,0,0,0-.31225,1.19086,5.801,5.801,0,0,0,2.17444.18189q23.618.00979,47.236.00494a11.9339,11.9339,0,0,0,1.22815-.01288,6.31354,6.31354,0,0,0,.93548-.23584c-.04181-.22858-.05517-.345-.08545-.45691C426.65149,394.71075,426.60114,394.54224,426.54047,394.378Z"/><path class="cls-1" d="M799.2,187.2a248.25328,248.25328,0,0,0-3.9-43c-3.3-17.3-7.9-34.2-16.2-49.8a174.91962,174.91962,0,0,0-33.4-44.4C725,30.1,701,16,673,8.6,647.8,1.9,622.1.4,596.1.4A.60144.60144,0,0,1,596,0H203.8V.4C189.1.7,174.4.6,159.7,2.4c-16,2-31.9,5-47.1,10.6A163.9856,163.9856,0,0,0,50.2,54C30.1,74.7,16,98.8,8.5,126.8,1.8,151.8.3,177.3.3,203L0,596.5c.5,17.8.6,35.6,3.6,53.3,3.2,18.7,7.7,36.9,16.4,53.8a170.04647,170.04647,0,0,0,48.1,58.1c14.6,11.4,30.5,20.4,48.1,26.1,25.7,8.3,52.2,11.5,79.1,11.6,16.8.1,33.6.5,50.4.5,122-.5,243.9.9,365.9-.8a286.40692,286.40692,0,0,0,48-5.1A164.10537,164.10537,0,0,0,740,754.9c26.8-23.9,44.9-53.2,53.1-88.5,5.3-23.1,6.7-46.5,6.9-70v-4.7C800,590,799.3,192.5,799.2,187.2ZM10.375,487.62811c-.202-.66845.29559-1.09967.57391-1.5852q3.31514-5.78312,6.66535-11.54614,46.42136-80.251,92.844-160.50123c.32044-.55389.65412-1.10015.96417-1.62085.625-.04461.69019.45423.87537.77234q3.8833,6.67055,7.73956,13.35675,45.98145,79.49185,91.96119,158.98475c.40917.70745.79882,1.42614,1.19757,2.13958Zm282.51947-30.61877c-.28381-.20252-.41437-.24878-.46716-.33991q-37.6885-65.11633-75.36219-130.24109a3.31272,3.31272,0,0,1-.1845-.61462,6.65,6.65,0,0,1,1.00042-.15942c2.57691-.01313,5.15387-.00824,7.73084-.00836q8.69733-.00028,17.39459,0h1.83881a4.27551,4.27551,0,0,1,1.2965,1.75714q10.81083,18.66705,21.6034,37.3446Q279.686,385.395,291.63586,406.03711a3.38627,3.38627,0,0,0,1.22071,1.59723q23.71115-40.93754,47.35675-81.85108a11.92789,11.92789,0,0,1,1.23913-.131q12.91416-.01107,25.82831-.00476a2.99606,2.99606,0,0,1,1.139.11237c.02972.21051.09656.34912.05316.42425Q330.71628,391.55738,292.89447,457.00934Zm159.98822-46.65619c-.15314,1.38928-.4118,2.76691-.64935,4.32983H375.45856a7.80475,7.80475,0,0,0,.29968,1.24311,25.6627,25.6627,0,0,0,8.34,10.43261,31.43562,31.43562,0,0,0,14.85107,5.86487,35.35829,35.35829,0,0,0,15.11371-1.18506,29.02845,29.02845,0,0,0,12.41192-7.33844c.20435-.20532.42188-.39746.71631-.6737,1.78748.86065,3.44928,1.93994,5.17023,2.90661,1.78516,1.00287,3.54559,2.04938,5.31946,3.07233,1.72314.99371,3.45178,1.97784,5.1737,2.97351,1.71418.99115,3.423,1.99146,5.18586,3.01782a4.76719,4.76719,0,0,1-1.17084,1.60913,50.91607,50.91607,0,0,1-16.88495,12.342,60.22247,60.22247,0,0,1-18.18256,5.05707,66.93086,66.93086,0,0,1-13.32537.28382c-11.20734-.89917-21.55933-4.24585-30.63709-11.01044a45.68422,45.68422,0,0,1-18.11243-28.4812,51.93393,51.93393,0,0,1-.62072-15.36017,48.71315,48.71315,0,0,1,3.7785-14.8877c4.97168-11.36694,13.34637-19.312,24.68957-24.201a55.12014,55.12014,0,0,1,15.04529-3.99329,66.143,66.143,0,0,1,14.1977-.28552,53.97732,53.97732,0,0,1,25.386,8.43377,45.01794,45.01794,0,0,1,19.65692,28.60151A51.65219,51.65219,0,0,1,452.88269,410.35315Zm77.72339-27.19269c-.00031.57416-.035,1.14826-.058,1.85553-.701-.15362-1.26715-.26965-1.8294-.4021a29.65349,29.65349,0,0,0-16.12531.53864c-9.37811,3.00879-15.12079,9.42431-17.45312,18.9237a31.03933,31.03933,0,0,0-.77442,7.48194q.02655,18.94527.00617,37.89068c-.00012.69208-.02289,1.38416-.03638,2.14539a5.35128,5.35128,0,0,1-.91687.17572q-11.336.014-22.67181.00482a7.1075,7.1075,0,0,1-.83014-.09369,1.865,1.865,0,0,1-.21424-.5437q-.02544-45.784-.02893-91.568a5.707,5.707,0,0,1,.11994-.83435,2.21472,2.21472,0,0,1,.55-.16663q11.85929-.011,23.68249-.00641c.55536.60565.33405,1.283.336,1.89594.01923,5.84723.01148,11.69458.01148,17.54193v2.31494c.54827-.17761.4168-.60016.49328-.882a22.23748,22.23748,0,0,1,5.93-9.99127,34.336,34.336,0,0,1,11.41907-7.39417,48.80883,48.80883,0,0,1,16.76007-3.4812c.45832-.019.91809-.0025,1.37433-.0025a3.48968,3.48968,0,0,1,.25049,1.96759Q530.61844,371.84586,530.60608,383.16046Zm104.154,50.41937a46.46469,46.46469,0,0,1-21.50738,16.86078,56.555,56.555,0,0,1-14.26014,3.57111,66.48194,66.48194,0,0,1-13.50348.25922,54.68082,54.68082,0,0,1-23.493-7.10517,44.66692,44.66692,0,0,1-21.11377-27.13733,52.90458,52.90458,0,0,1,.06879-29.94079c4.15906-14.113,13.26916-23.93488,26.73608-29.768a54.56871,54.56871,0,0,1,14.87879-3.95465,65.473,65.473,0,0,1,14.375-.2887c9.74145.90271,18.783,3.79041,26.81164,9.50464a44.89663,44.89663,0,0,1,11.52155,11.92548c.31567.4779.59387.98047.8811,1.45764-1.16278.9281-19.20654,11.33978-20.955,12.09991-.18067-.26519-.38721-.53509-.5589-.82543a24.15182,24.15182,0,0,0-15.49842-11.48908,32.20166,32.20166,0,0,0-18.02331.49237,23.65945,23.65945,0,0,0-16.01911,15.93164,31.6798,31.6798,0,0,0-.04113,19.84235,23.62848,23.62848,0,0,0,16.42877,16.16858,32.03673,32.03673,0,0,0,19.20379-.05426,23.93247,23.93247,0,0,0,13.79-10.77326c.21033-.34656.41718-.69531.67517-1.12567a7.75443,7.75443,0,0,1,.96582.39111q9.51408,5.464,19.01685,10.94758c.34509.19909.65363.46148,1.08069.767C635.70911,432.12445,635.25494,432.86621,634.76007,433.57983Zm114.07672-26.78845c-.1076,2.32959-.4718,4.64777-.73932,6.96887a4.90589,4.90589,0,0,1-.32733.93225q-9.563.00743-19.134.00239-9.57816.00072-19.15643.00012h-38.063c-.356.50549-.10932.86541.05053,1.23333a25.4959,25.4959,0,0,0,8.063,10.22309,31.24323,31.24323,0,0,0,15.13672,6.07342,35.35227,35.35227,0,0,0,15.28375-1.2456,28.95927,28.95927,0,0,0,12.2425-7.29346c.20282-.20434.42572-.38891.71551-.65173,1.791.86523,3.455,1.93951,5.17456,2.90857,1.78424,1.00543,3.54852,2.04626,5.32263,3.06964,1.72345.9942,3.45667,1.97168,5.17005,2.9826,1.70385,1.00519,3.4779,1.89783,5.18957,3.09687-.32086.42846-.56793.808-.86346,1.14526A51.02549,51.02549,0,0,1,724.855,449.325a60.37462,60.37462,0,0,1-17.39087,4.68549,66.87549,66.87549,0,0,1-13.32855.27484c-11.39679-.92645-21.895-4.38074-31.05188-11.36536a45.61089,45.61089,0,0,1-17.75794-28.70947,50.99562,50.99562,0,0,1-.544-14.49762,49.85275,49.85275,0,0,1,3.77484-15.07184c4.83618-11.139,12.96271-19.02478,24.0003-23.97455a55.30407,55.30407,0,0,1,16.03449-4.342,63.50131,63.50131,0,0,1,25.40253,1.85852,48.33834,48.33834,0,0,1,20.96875,11.9751,45.37864,45.37864,0,0,1,12.51892,22.53748A51.19981,51.19981,0,0,1,748.83679,406.79138ZM789.672,451.84167c-.6427-.01989-1.28546-.05657-1.92816-.057q-10.09735-.00631-20.19465-.00488c-.63482-.00037-1.26959-.03284-2.00659-.05317-.06323-.3999-.142-.7257-.16058-1.05487-.02631-.466-.0091-.93445-.0091-1.40185q-.00009-60.55737.00068-121.11469c0-.75323.01178-1.50647.01751-2.19061a3.00687,3.00687,0,0,1,1.99036-.31018c6.7901-.01355,13.5802-.00562,20.37024-.01331.64014-.00073,1.28015-.06811,1.92029-.10461Z"/></svg>