<?xml version="1.0" encoding="utf-8"?>
<!-- Generator: Adobe Illustrator 25.2.3, SVG Export Plug-In . SVG Version: 6.00 Build 0)  -->
<svg version="1.1" id="Layer_1" xmlns="http://www.w3.org/2000/svg" xmlns:xlink="http://www.w3.org/1999/xlink" x="0px" y="0px"
	 viewBox="0 0 800 800" style="enable-background:new 0 0 800 800;" xml:space="preserve">
<style type="text/css">
	.st0{fill:#29FD2E;}
</style>
<g>
	<path class="st0" d="M401.3,150.2c-136.3,0-247.2,110.8-247.2,247.1c-0.1,46.5,13,92.1,37.8,131.5l5.9,9.4l-25,91.2l93.5-24.5
		l9,5.4c38.1,22.6,81.5,34.5,125.8,34.4h0.1c136.2,0,247.1-110.9,247.1-247.1c0,0,0,0,0,0C648.4,261,537.8,150.3,401.3,150.2z
		 M546.7,503.6c-6.2,17.4-35.9,33.2-50.1,35.3c-12.8,1.9-29,2.7-46.8-2.9c-14.4-4.5-28.5-9.7-42.4-15.7
		c-74.5-32.2-123.2-107.2-126.9-112.2c-3.7-5-30.3-40.3-30.3-76.8c0-36.6,19.2-54.5,26-62c5-5.7,12.2-9.1,19.8-9.3
		c5,0,9.9,0,14.2,0.3c4.6,0.2,10.7-1.7,16.7,12.8c6.2,14.9,21,51.4,22.9,55.2c1.9,3.7,3.1,8.1,0.6,13c-2.5,5-3.7,8.1-7.4,12.4
		c-3.7,4.3-7.8,9.7-11.1,13c-3.7,3.7-7.6,7.7-3.3,15.2c4.3,7.4,19.2,31.8,41.3,51.5c28.4,25.3,52.3,33.2,59.7,36.9
		c7.4,3.7,11.8,3.1,16.1-1.9c4.3-5,18.6-21.7,23.5-29.1c5-7.4,9.9-6.2,16.7-3.7c6.8,2.5,43.3,20.5,50.8,24.2
		c7.4,3.7,12.4,5.6,14.2,8.7C552.9,471.3,552.9,486.2,546.7,503.6z"/>
	<path class="st0" d="M616.4,0H182.8C81.6,0.2-0.2,82.4,0,183.6v433.6c0.2,101.2,82.4,183,183.6,182.8h433.6
		c101.2-0.2,183-82.4,182.8-183.6V182.8C799.8,81.6,717.6-0.2,616.4,0z M401.2,694.8h-0.1c-49.6,0-98.5-12.4-142.1-36.2L101.4,700
		l42.2-154.1c-26.1-45.2-39.8-96.5-39.7-148.6C104,233.4,237.4,100,401.2,100c78.9-0.2,154.7,31.2,210.3,87.2
		c55.9,55.7,87.2,131.4,87,210.3C698.5,561.5,565.1,694.8,401.2,694.8z"/>
</g>
</svg>
