<svg id="Layer_1" data-name="Layer 1" xmlns="http://www.w3.org/2000/svg" viewBox="0 0 800.00073 800.00073"><defs><style>.cls-1{fill:#29fd2e;}.cls-2{fill:#fff;fill-rule:evenodd;}</style></defs><path class="cls-1" d="M616.4,0H182.8C81.6.2-.2,82.4,0,183.6V617.2C.2,718.4,82.4,800.2,183.6,800H617.2c101.2-.2,183-82.4,182.8-183.6V182.8C799.8,81.6,717.6-.2,616.4,0Z" transform="translate(0.00037 0.00037)"/><path class="cls-2" d="M611.561,187.19607A295.38986,295.38986,0,0,0,401.24577,100c-163.87664,0-297.25385,133.36862-297.31963,297.29676a296.79911,296.79911,0,0,0,39.68763,148.63836L101.43458,700l157.612-41.34391a297.06507,297.06507,0,0,0,142.07907,36.18915h.123c163.85948,0,297.24813-133.38577,297.31675-297.31679A295.52822,295.52822,0,0,0,611.561,187.19607ZM401.24865,644.63357h-.10013A246.73011,246.73011,0,0,1,275.37473,610.1865l-9.02512-5.35214-93.52937,24.53231,24.96423-91.18945-5.87562-9.35409A246.51756,246.51756,0,0,1,154.12637,397.311c.05435-136.24923,110.91024-247.09651,247.22237-247.09651A247.15409,247.15409,0,0,1,648.36233,397.51413C648.308,533.77483,537.45209,644.63357,401.24865,644.63357Zm135.5484-185.08211c-7.42892-3.71587-43.94988-21.68888-50.7609-24.169-6.80818-2.47442-11.76269-3.71588-16.71435,3.72159s-19.1916,24.169-23.52537,29.12924c-4.33377,4.9545-8.66754,5.57811-16.09362,1.85652-7.43179-3.71588-31.3662-11.56243-59.7431-36.87282-22.08365-19.69793-36.993-44.02426-41.32673-51.46461-4.33377-7.43751-.46342-11.45662,3.25819-15.16106,3.34115-3.32971,7.42892-8.679,11.14479-13.01562s4.95167-7.4375,7.42892-12.39488,1.23862-9.29687-.62073-13.01277c-1.85652-3.72161-16.71435-40.28834-22.90464-55.16332-6.0301-14.48311-12.15459-12.5236-16.71435-12.75245-4.32805-.21454-9.28544-.26318-14.23994-.26318a27.29293,27.29293,0,0,0-19.80949,9.29687c-6.80816,7.43749-25.99976,25.4105-25.99976,61.97723s26.61765,71.88911,30.33353,76.84938c3.713,4.95738,52.38573,79.99314,126.90657,112.17462a427.36338,427.36338,0,0,0,42.35084,15.65019c17.7985,5.65537,33.99221,4.85441,46.79042,2.94355,14.27429-2.134,43.95276-17.973,50.143-35.32525,6.19029-17.35511,6.19029-32.2301,4.33377-35.32812C549.17758,465.13246,544.226,463.2731,536.79705,459.55146Z" transform="translate(0.00037 0.00037)"/></svg>