<?xml version="1.0" encoding="utf-8"?>
<!-- Generator: Adobe Illustrator 25.2.3, SVG Export Plug-In . SVG Version: 6.00 Build 0)  -->
<svg version="1.1" id="Layer_1" xmlns="http://www.w3.org/2000/svg" xmlns:xlink="http://www.w3.org/1999/xlink" x="0px" y="0px"
	 viewBox="0 0 800 800" style="enable-background:new 0 0 800 800;" xml:space="preserve">
<style type="text/css">
	.st0{fill:#29FD2E;}
</style>
<g>
	<path class="st0" d="M359.1,384.2c0,14.2,3.5,25.5,10.6,34.1c7.1,8.5,16.6,12.8,28.6,12.8c1.1,0,2.6-0.2,4.6-0.5
		c2-0.4,3.4-0.5,4.1-0.5c15.3-4,27.1-13.8,35.5-29.5c4-6.9,7-14.5,9-22.6c2-8.2,3.1-14.8,3.3-19.9c0.2-5.1,0.3-13.5,0.3-25.1v-13.6
		c-21.1,0-37.1,1.5-48,4.4C375.1,332.7,359.1,352.9,359.1,384.2z"/>
	<path class="st0" d="M799.2,187.2c-0.2-14.4-1.2-28.8-3.9-43c-3.3-17.3-7.9-34.2-16.2-49.8C770.3,77.9,759.3,63,745.7,50
		C725,30.1,701,16,673,8.6c-25.2-6.7-50.9-8.2-76.9-8.2c-0.1-0.1-0.1-0.3-0.1-0.4H203.8c0,0.1,0,0.3,0,0.4
		c-14.7,0.3-29.4,0.2-44.1,2c-16,2-31.9,5-47.1,10.6c-23.9,8.8-44.7,22.6-62.4,41C30.1,74.7,16,98.8,8.5,126.8
		c-6.7,25-8.2,50.5-8.2,76.2L0,596.5v0c0.5,17.8,0.6,35.6,3.6,53.3c3.2,18.7,7.7,36.9,16.4,53.8c11.7,22.9,27.7,42.3,48.1,58.1
		c14.6,11.4,30.5,20.4,48.1,26.1c25.7,8.3,52.2,11.5,79.1,11.6c16.8,0.1,33.6,0.5,50.4,0.5c122-0.5,243.9,0.9,365.9-0.8
		c16.2-0.2,32.1-2.2,48-5.1c30.4-5.6,57.3-18.6,80.4-39.1c26.8-23.9,44.9-53.2,53.1-88.5c5.3-23.1,6.7-46.5,6.9-70v-4.7
		C800,590,799.3,192.5,799.2,187.2z M447.5,211.8c-7.6-10.9-19.6-16.4-36-16.4h-4.4c-12,1.1-22.4,4.9-31.1,11.5
		s-14.4,15.6-16.9,27.3c-1.5,7.3-5.1,11.5-10.9,12.5l-62.7-7.6c-6.2-1.5-9.3-4.7-9.3-9.8c0-1.1,0.2-2.4,0.5-3.8
		c6.2-32.4,21.4-56.4,45.5-72c24.2-15.6,52.5-24.4,84.8-26.2h13.6c41.5,0,73.8,10.7,97.1,32.2c3.7,3.7,7,7.6,10.1,11.7
		c3.1,4.2,5.5,7.9,7.4,11.2c1.8,3.3,3.5,8,4.9,14.2c1.5,6.2,2.5,10.5,3.3,12.8c0.7,2.4,1.3,7.5,1.6,15.3c0.4,7.8,0.5,12.5,0.5,13.9
		v132c0,9.5,1.4,18.1,4.1,25.9c2.7,7.8,5.4,13.5,7.9,16.9c2.5,3.5,6.7,9,12.5,16.6c2.2,3.3,3.3,6.2,3.3,8.7c0,2.9-1.5,5.5-4.4,7.6
		c-30.2,26.2-46.5,40.4-49.1,42.5c-4.4,3.3-9.6,3.6-15.8,1.1c-5.1-4.4-9.5-8.5-13.4-12.5c-3.8-4-6.5-6.9-8.2-8.7
		c-1.6-1.8-4.3-5.4-7.9-10.6c-3.6-5.3-6.2-8.8-7.6-10.6c-20.4,22.2-40.4,36-60,41.5c-12.4,3.6-27.6,5.5-45.8,5.5
		c-28,0-51-8.6-69-25.9c-18-17.3-27-41.7-27-73.4c0-25.1,6.2-46.5,18.5-64.4c12.4-17.8,29.3-31.3,50.7-40.4
		c19.6-8.4,43.8-14.4,72.5-18c9.8-1.1,25.8-2.5,48-4.4v-9.3C455.1,235.5,452.5,219.8,447.5,211.8z M642.7,598
		c-6.5,4.7-14.9,10.2-25.1,16.4c-31.3,18.5-66.2,32.9-104.7,43.1c-38.5,10.2-76.2,15.3-112.9,15.3c-56.7,0-110.4-9.9-160.9-29.7
		c-50.5-19.8-95.8-47.7-135.8-83.7c-2.2-1.8-3.3-3.6-3.3-5.5c0-1.1,0.4-2.2,1.1-3.3c1.8-2.9,4.7-3.1,8.7-0.5
		c90.9,52.7,189.8,79.1,296.7,79.1c71.3,0,141.6-13.3,211.1-39.8c1.8-0.7,4.5-1.8,7.9-3.3c3.5-1.5,5.9-2.5,7.4-3.3
		c5.5-2.2,9.7-1.1,12.8,3.3C648.8,590.4,647.8,594.4,642.7,598z M700,559.3c0,12.7-3.5,27.7-10.4,45c-6.9,17.3-16.5,31.2-28.9,41.7
		c-1.8,1.5-3.5,2.2-4.9,2.2c-0.7,0-1.5-0.2-2.2-0.5c-2.2-1.1-2.7-3.1-1.6-6c13.5-31.6,20.2-53.6,20.2-66c0-4-0.7-6.9-2.2-8.7
		c-3.6-4.4-13.8-6.5-30.5-6.5c-6.2,0-13.5,0.4-21.8,1.1c-9.1,1.1-17.5,2.2-25.1,3.3c-2.2,0-3.6-0.4-4.4-1.1
		c-0.7-0.7-0.9-1.5-0.5-2.2c0-0.4,0.2-0.9,0.5-1.6c0.7-1.5,1.8-2.9,3.3-4.4c9.1-6.2,17.8-10.4,26.2-12.5c13.8-3.6,27.3-5.6,40.4-6
		c3.6-0.4,7.1-0.2,10.4,0.5c16.4,1.5,26.2,4.2,29.5,8.2c1.5,2.2,2.2,5.5,2.2,9.8V559.3z"/>
</g>
</svg>
