<?xml version="1.0" encoding="utf-8"?>
<!-- Generator: Adobe Illustrator 25.2.3, SVG Export Plug-In . SVG Version: 6.00 Build 0)  -->
<svg version="1.1" id="Layer_1" xmlns="http://www.w3.org/2000/svg" xmlns:xlink="http://www.w3.org/1999/xlink" x="0px" y="0px"
	 viewBox="0 0 800 800" style="enable-background:new 0 0 800 800;" xml:space="preserve">
<style type="text/css">
	.st0{fill:#29FD2E;}
</style>
<path class="st0" d="M799.2,187.2c-0.2-14.4-1.2-28.8-3.9-43c-3.3-17.3-7.9-34.2-16.2-49.8C770.3,77.9,759.3,63,745.7,50
	C725,30.1,701,16,673,8.6c-25.2-6.7-50.9-8.2-76.9-8.2c-0.1-0.1-0.1-0.3-0.1-0.4H203.8c0,0.1,0,0.3,0,0.4c-14.7,0.3-29.4,0.2-44.1,2
	c-16,2-31.9,5-47.1,10.6c-23.9,8.8-44.7,22.6-62.4,41C30.1,74.7,16,98.8,8.5,126.8c-6.7,25-8.2,50.5-8.2,76.2L0,596.5v0
	c0.5,17.8,0.6,35.6,3.6,53.3c3.2,18.7,7.7,36.9,16.4,53.8c11.7,22.9,27.7,42.3,48.1,58.1c14.6,11.4,30.5,20.4,48.1,26.1
	c25.7,8.3,52.2,11.5,79.1,11.6c16.8,0.1,33.6,0.5,50.4,0.5c122-0.5,243.9,0.9,365.9-0.8c16.2-0.2,32.1-2.2,48-5.1
	c30.4-5.6,57.3-18.6,80.4-39.1c26.8-23.9,44.9-53.2,53.1-88.5c5.3-23.1,6.7-46.5,6.9-70v-4.7C800,590,799.3,192.5,799.2,187.2z
	 M512.7,521.1l-2.9,10.6c-0.7,2.3-2.8,3.9-5.1,3.9H105.1c-2.1,0-3.9-1.5-4.2-3.7c-0.5-4.4-0.9-8.8-0.9-13.2
	c0-49.4,39.3-89.5,88.3-90.9c-1.8-7-2.3-14.6-1.6-22.3c2.9-30,27-54.1,57.1-57.1c16.9-1.5,32.5,3.3,44.8,12.5
	c19-56.1,72.1-96.5,134.7-96.5c67.9,0,124.7,47.5,138.7,111.1c0.4,1.4,0.2,2.8-0.3,4.2l-12.5,32.5c-9.8,25.7-38,46.6-63.8,47.8
	L267,462.8c-2.3,0.2-4.3,1.7-5.1,3.9c-0.3,1.4-0.2,2.8,0.5,3.9c0.7,1,1.9,1.7,3.3,1.7l216.5,2.8c11.4,0.5,20.9,5.2,26.6,13
	C515,496.8,516.4,508.5,512.7,521.1z M695.6,532.4c-0.5,1.9-2.3,3.1-4.2,3.1H526.5c-1.9,0-3.2-1.8-2.5-3.5l3.5-9
	c9.8-25.7,37.8-46.6,63.8-47.8l48-2.8c2.3-0.2,4.3-1.7,5.1-3.9c0.3-1.3,0.2-2.8-0.5-3.9c-0.7-1-1.9-1.7-3.3-1.7l-46.1-2.8
	c-11.4-0.5-20.9-5.2-26.6-13c-6.2-8.6-7.6-20.3-3.9-32.9l8.4-29.4c0.5-1.4,1.7-2.5,3.1-2.5c1.9-0.2,4-0.2,6-0.2
	c65.2,0,118.3,53.1,118.3,118.3C700,511.4,698.4,522.2,695.6,532.4z"/>
</svg>
