<?xml version="1.0" encoding="UTF-8" standalone="no"?>
<svg xmlns="http://www.w3.org/2000/svg" viewBox="0 0 640 92" width="640" height="92">
<path fill="#29FD2E" d="M35.3,7.7H7.9L7.3,7.8v76.6h28.1c26.6,0,38.5-19.7,38.5-39.2C73.8,27.1,61.8,7.7,35.3,7.7z M35.3,17.9
	c19.3,0,27.9,13.7,27.9,27.2c0,13.2-7.3,28.7-27.9,28.7H17.8V17.9L35.3,17.9z M124.5,59.1c0,9.6-6.6,16.6-15.8,16.7
	c-9.7,0-15.6-6-15.6-16V29.9h-10v30c0,15.4,9.3,25.3,23.8,25.3h0c7.5-0.1,13.5-2.9,18-8.3l0.4,7.5h9.2V30h-10L124.5,59.1z
	 M193.2,76.1l-6.2-6.2l-0.4,0.4c-3.4,3.5-8.2,5.4-13.5,5.4c-9.1,0-18.4-5.7-18.4-18.6c0-10.9,7.6-18.6,18.5-18.6
	c4.9,0,9.6,1.9,13,5.2l0.4,0.4l6.4-6.7l-0.4-0.4c-5.5-5.4-12.1-8.1-19.7-8.1c-17,0-28.4,11.3-28.4,28.2c0,19.5,14.3,28.2,28.4,28.2
	c7.9,0,14.7-2.8,20.2-8.4l0.4-0.4L193.2,76.1z M232.8,30l-21,21.5V7.8h-9.9v76.6h9.9V60.1L236,84.4h11.6v-1.5l-27.3-27.2l24.3-24.3
	V30L232.8,30z M283.6,7.7h-27.5l-0.6,0.1v76.6h28c26.6,0,38.5-19.7,38.5-39.2C322.1,27.1,310.1,7.7,283.6,7.7z M283.6,17.9
	c19.3,0,28,13.7,28,27.2c0,13.2-7.3,28.7-28,28.7h-17.5V17.9H283.6z M372.8,59.1c0,9.6-6.6,16.6-15.8,16.7c-9.7,0-15.6-6-15.6-16
	V29.9h-10v30c0,15.4,9.3,25.3,23.7,25.3h0c7.4-0.1,13.5-2.9,18-8.3l0.4,7.5h9.2V30h-10L372.8,59.1L372.8,59.1z M441.5,76.1l-6.2-6.2
	l-0.4,0.4c-3.4,3.5-8.2,5.4-13.5,5.4c-9.1,0-18.4-5.7-18.4-18.6c0-10.9,7.6-18.6,18.5-18.6c4.9,0,9.6,1.9,13,5.2l0.4,0.4l6.4-6.7
	l-0.4-0.4c-5.5-5.4-12.1-8.1-19.7-8.1c-17,0-28.4,11.3-28.4,28.2c0,19.5,14.3,28.2,28.4,28.2c7.9,0,14.7-2.8,20.2-8.4l0.4-0.4
	L441.5,76.1z M481.1,30l-21,21.5V7.8h-9.9v76.6h9.9V60.1l24.3,24.3h11.6v-1.5l-27.3-27.2l24.3-24.3V30L481.1,30z M533.8,51.4h23.5
	v17c-5.7,4.8-12.6,7.3-20,7.3c-20.4,0-29.6-14.6-29.6-29c0-14.7,9.2-30.5,29.3-30.5c7.9,0,16.3,3.3,21.9,8.7l0.4,0.4l6.2-7.2
	l-0.4-0.4c-7.5-7.4-17.5-11.5-28.1-11.5c-11.6,0-21.5,3.8-28.6,11c-7.3,7.3-11.2,17.8-11.2,29.5c0,18,10.4,39,39.9,39
	c11.7,0,21.4-4.3,29.6-13l0.2-0.2V41.9h-33.2V51.4z M603.2,28.8c-16.3,0-28.2,12-28.2,28.5c0,16.3,11.8,28.1,28.2,28.1
	c16.4,0,28.3-11.8,28.3-28.1C631.5,40.5,619.8,28.8,603.2,28.8L603.2,28.8z M603.2,75.8c-10.5,0-18.1-7.8-18.1-18.6
	c0-11.3,7.5-19.2,18.3-19.2c10.6,0,18.3,8.1,18.3,19.2C621.4,68.2,613.9,75.8,603.2,75.8z"/>
</svg>