<?xml version="1.0" encoding="utf-8"?>
<!-- Generator: Adobe Illustrator 25.2.3, SVG Export Plug-In . SVG Version: 6.00 Build 0)  -->
<svg version="1.1" id="Layer_1" xmlns="http://www.w3.org/2000/svg" xmlns:xlink="http://www.w3.org/1999/xlink" x="0px" y="0px"
	 viewBox="0 0 800 800" style="enable-background:new 0 0 800 800;" xml:space="preserve">
<style type="text/css">
	.st0{fill:#29FD2E;}
</style>
<g>
	<path class="st0" d="M435.4,430.6c0,13.1,9.7,24.5,32.4,24.5c41.4,0,48.5-28.3,48.5-39.7v-8.7C468.2,406.6,435.4,406.7,435.4,430.6
		z"/>
	<path class="st0" d="M176.5,352.5c-22.3,0-44.8,14.1-44.8,38.8h87.4C219.1,368,201.8,352.5,176.5,352.5z"/>
	<path class="st0" d="M328.4,353.3c-32.1,0-47,25.5-47,50.2c0,26.5,16.5,50.5,47.2,50.5c25.7,0,46.8-20.1,46.8-50.7
		C375.3,374.7,357.1,353.3,328.4,353.3z"/>
	<path class="st0" d="M799.2,187.2c-0.2-14.4-1.2-28.8-3.9-43c-3.3-17.3-7.9-34.2-16.2-49.8C770.3,77.9,759.3,63,745.7,50
		C725,30.1,701,16,673,8.6c-25.2-6.7-50.9-8.2-76.9-8.2c-0.1-0.1-0.1-0.3-0.1-0.4H203.8c0,0.1,0,0.3,0,0.4
		c-14.7,0.3-29.4,0.2-44.1,2c-16,2-31.9,5-47.1,10.6c-23.9,8.8-44.7,22.6-62.4,41C30.1,74.7,16,98.8,8.5,126.8
		c-6.7,25-8.2,50.5-8.2,76.2L0,596.5v0c0.5,17.8,0.6,35.6,3.6,53.3c3.2,18.7,7.7,36.9,16.4,53.8c11.7,22.9,27.7,42.3,48.1,58.1
		c14.6,11.4,30.5,20.4,48.1,26.1c25.7,8.3,52.2,11.5,79.1,11.6c16.8,0.1,33.6,0.5,50.4,0.5c122-0.5,243.9,0.9,365.9-0.8
		c16.2-0.2,32.1-2.2,48-5.1c30.4-5.6,57.3-18.6,80.4-39.1c26.8-23.9,44.9-53.2,53.1-88.5c5.3-23.1,6.7-46.5,6.9-70v-4.7
		C800,590,799.3,192.5,799.2,187.2z M607,520.2h-33.9l26.8-50.9l-57.1-107.2c2.6,6.2,4,13.5,4,22.4v65.9c0,7.6,1.1,19.5,1.1,19.5
		h-28.2c0,0-0.8-9.6-0.8-19.4c0,0-14.3,24.5-58.7,24.5c-32.6,0-56.7-15.7-56.7-44.5c0-1.7,0.1-3.3,0.3-4.8
		c-8.4,29.7-33.8,48.9-68,48.9c-40.2,0-54.9-23.1-54.9-23.1c0,8.8-1.1,18.3-1.1,18.3h-29.9c0,0,0.7-13.3,0.7-22.8v-35.7H131
		c0,25.2,19.1,43.2,45.8,43.2c32.7,0,39.4-22.9,39.4-22.9h31.3c0,0-4.1,42.6-68.8,42.6c-55,0-78.7-27-78.7-69.9
		c0-54.2,35.3-72.1,77.6-72.1c56.2,0,72.6,36.9,73.2,61.9V279.8h30.6v75.4c0,0,13-22.5,54.7-22.5c44.6,0,71,31.5,71,70.6
		c0,4.9-0.4,9.6-1.1,14.1c7.1-20.4,32.1-30.4,73.3-30.4h37.2v-6.6c0-18.4-16.2-28-37.2-28c-32.2,0-33.9,20.4-33.9,20.4h-31.7
		c0-5.6,4.1-40.4,67.7-40.4c21.8,0,45.6,4.6,57.6,22.6l-9.1-17.1h35.6l51.2,102.5l51-102.5H700L607,520.2z"/>
</g>
</svg>
