<?xml version="1.0" encoding="utf-8"?>
<!-- Generator: Adobe Illustrator 25.2.3, SVG Export Plug-In . SVG Version: 6.00 Build 0)  -->
<svg version="1.1" id="Layer_1" xmlns="http://www.w3.org/2000/svg" xmlns:xlink="http://www.w3.org/1999/xlink" x="0px" y="0px"
	 viewBox="0 0 800 800" style="enable-background:new 0 0 800 800;" xml:space="preserve">
<style type="text/css">
	.st0{fill:#29FD2E;}
</style>
<g>
	<path class="st0" d="M566.6,418.8c-92.6-56.9-228-72.9-337-39.9c-12.4,3.8-19.3,16.8-15.6,29.2c3.8,12.3,16.8,19.3,29.2,15.6
		c95.4-29,218.3-14.6,298.9,35c11,6.8,25.4,3.3,32.2-7.7v0C581.1,440,577.6,425.6,566.6,418.8z"/>
	<path class="st0" d="M531.4,507c-79.1-48.3-177.1-59.6-291.4-33.5c0,0,0,0,0,0c-10.1,2.3-16.3,12.3-14,22.4
		c2.3,10.1,12.3,16.4,22.4,14.1c104.4-23.9,193.1-14.1,263.5,28.9c0,0,0,0,0,0c8.8,5.4,20.3,2.6,25.7-6.2
		C543,523.9,540.2,512.4,531.4,507z"/>
	<path class="st0" d="M606.1,317.7c-111.3-66.1-287.5-72.3-393.5-40.1c-14.8,4.5-23.2,20.2-18.7,35c4.5,14.8,20.2,23.2,35,18.7
		c92.3-28,251.8-22.7,348.5,34.7h0c13.3,7.9,30.6,3.5,38.4-9.8c0,0,0,0,0-0.1C623.8,342.7,619.4,325.6,606.1,317.7z"/>
	<path class="st0" d="M799.2,187.2c-0.2-14.4-1.2-28.8-3.9-43c-3.3-17.3-7.9-34.2-16.2-49.8C770.3,77.9,759.3,63,745.7,50
		C725,30.1,701,16,673,8.6c-25.2-6.7-50.9-8.2-76.9-8.2c-0.1-0.1-0.1-0.3-0.1-0.4H203.8c0,0.1,0,0.3,0,0.4
		c-14.7,0.3-29.4,0.2-44.1,2c-16,2-31.9,5-47.1,10.6c-23.9,8.8-44.7,22.6-62.4,41C30.1,74.7,16,98.8,8.5,126.8
		c-6.7,25-8.2,50.5-8.2,76.2L0,596.5v0c0.5,17.8,0.6,35.6,3.6,53.3c3.2,18.7,7.7,36.9,16.4,53.8c11.7,22.9,27.7,42.3,48.1,58.1
		c14.6,11.4,30.5,20.4,48.1,26.1c25.7,8.3,52.2,11.5,79.1,11.6c16.8,0.1,33.6,0.5,50.4,0.5c122-0.5,243.9,0.9,365.9-0.8
		c16.2-0.2,32.1-2.2,48-5.1c30.4-5.6,57.3-18.6,80.4-39.1c26.8-23.9,44.9-53.2,53.1-88.5c5.3-23.1,6.7-46.5,6.9-70v-4.7
		C800,590,799.3,192.5,799.2,187.2z M400,700c-165.7,0-300-134.3-300-300c0-165.7,134.3-300,300-300l0,0c165.7,0,300,134.3,300,300
		C700,565.7,565.7,700,400,700z"/>
</g>
</svg>
