<svg xmlns="http://www.w3.org/2000/svg" width="1023.999" height="768.001" viewBox="0 0 1023.999 768.001">
  <path id="Union_1" data-name="Union 1" d="M525,767c0-.552.223-1,.5-1s.5.448.5,1-.224,1-.5,1S525,767.552,525,767Zm-230-6c0-.553.223-1,.5-1s.5.447.5,1-.224,1-.5,1S295,761.553,295,761Zm95-13c0-.553.223-1,.5-1s.5.447.5,1-.224,1-.5,1S390,748.552,390,748Zm-168,0c0-.553.224-1,.5-1s.5.447.5,1-.224,1-.5,1S222,748.552,222,748Zm79-16c0-.553.672-1,1.5-1s1.5.447,1.5,1-.671,1-1.5,1S301,732.552,301,732Zm-271-.5c0-.828.448-1.5,1-1.5s1,.672,1,1.5-.448,1.5-1,1.5S30,732.329,30,731.5Zm844-2a.5.5,0,1,1,.5.5A.5.5,0,0,1,874,729.5Zm-517-5a.5.5,0,1,1,.5.5A.5.5,0,0,1,357,724.5ZM670,723a1,1,0,1,1,1,1A1,1,0,0,1,670,723Zm238-1a1,1,0,1,1,1,1A1,1,0,0,1,908,722Zm-402-5c0-.551.223-1,.5-1s.5.449.5,1-.224,1-.5,1S506,717.552,506,717Zm-257,.5a.5.5,0,1,1,.5.5A.5.5,0,0,1,249,717.5Zm505-3c0-.276.447-.5,1-.5s1,.223,1,.5-.447.5-1,.5S754,714.776,754,714.5Zm56,0c0-.276.448-.5,1-.5s1,.223,1,.5-.448.5-1,.5S810,714.776,810,714.5ZM502,713a1,1,0,1,1,1,1A1,1,0,0,1,502,713Zm-201,.5c0-.276.447-.5,1-.5s1,.224,1,.5-.447.5-1,.5S301,713.776,301,713.5ZM863,711a1,1,0,1,1,1,1A1,1,0,0,1,863,711Zm-500-6c0-.553.223-1,.5-1s.5.448.5,1-.224,1-.5,1S363,705.553,363,705Zm298-1.5a.5.5,0,1,1,.5.5A.5.5,0,0,1,661,703.5Zm-612-1a.5.5,0,1,1,.5.5A.5.5,0,0,1,49,702.5ZM567,699c0-.551.224-1,.5-1s.5.449.5,1-.223,1-.5,1S567,699.552,567,699Zm370-5a1,1,0,1,1,1,1A1,1,0,0,1,937,694Zm-543-.5a.5.5,0,1,1,.5.5A.5.5,0,0,1,394,693.5ZM378,691a1,1,0,1,1,1,1A1,1,0,0,1,378,691Zm144-3.5a.5.5,0,1,1,.5.5A.5.5,0,0,1,522,687.5ZM712,686a1,1,0,1,1,1,1A1,1,0,0,1,712,686Zm114-.5c0-.275.448-.5,1-.5s1,.224,1,.5-.447.5-1,.5S826,685.777,826,685.5Zm-612,0a.5.5,0,1,1,.5.5A.5.5,0,0,1,214,685.5ZM449,683a1,1,0,1,1,1,1A1,1,0,0,1,449,683Zm108-3a1,1,0,1,1,1,1A1,1,0,0,1,557,680Zm-448-2.5c0-.828.448-1.5,1-1.5s1,.672,1,1.5-.447,1.5-1,1.5S109,678.329,109,677.5Zm818-2c0-.275.448-.5,1-.5s1,.224,1,.5-.448.5-1,.5S927,675.776,927,675.5ZM387,675c0-.553.224-1,.5-1s.5.447.5,1-.223,1-.5,1S387,675.553,387,675Zm-97,0a1,1,0,1,1,1,1A1,1,0,0,1,290,675Zm366-3a1,1,0,1,1,1,1A1,1,0,0,1,656,672Zm-415,0c0-.553.671-1,1.5-1s1.5.447,1.5,1-.671,1-1.5,1S241,672.553,241,672Zm87-4v0Zm616-2c0-.553.224-1,.5-1s.5.447.5,1-.223,1-.5,1S944,666.553,944,666Zm-148,.5c0-.275.447-.5,1-.5s1,.224,1,.5-.447.5-1,.5S796,666.776,796,666.5Zm-21-1c0-.829.448-1.5,1-1.5s1,.671,1,1.5-.447,1.5-1,1.5S775,666.328,775,665.5Zm-766,0c0-.829.447-1.5,1-1.5s1,.671,1,1.5-.447,1.5-1,1.5S9,666.328,9,665.5Zm822-7c0-.277.447-.5,1-.5s1,.224,1,.5-.448.5-1,.5S831,658.777,831,658.5Zm-176,0c0-.277.448-.5,1-.5s1,.224,1,.5-.447.5-1,.5S655,658.777,655,658.5Zm-148,0c0-.277.447-.5,1-.5s1,.224,1,.5-.448.5-1,.5S507,658.777,507,658.5Zm279-11c0-.276.447-.5,1-.5s1,.223,1,.5-.448.5-1,.5S786,647.776,786,647.5ZM443,647a1,1,0,1,1,1,1A1,1,0,0,1,443,647Zm-115,0c0-.552.672-1,1.5-1s1.5.448,1.5,1-.671,1-1.5,1S328,647.553,328,647Zm-147,0c0-.552.671-1,1.5-1s1.5.448,1.5,1-.671,1-1.5,1S181,647.553,181,647Zm426-2a1,1,0,1,1,1,1A1,1,0,0,1,607,645Zm-91-.5c0-.828.448-1.5,1-1.5s1,.671,1,1.5-.448,1.5-1,1.5S516,645.329,516,644.5Zm-56,.5a1,1,0,1,1,1,1A1,1,0,0,1,460,645Zm-233,.5a.5.5,0,1,1,.5.5A.5.5,0,0,1,227,645.5ZM895,638c0-.553.224-1,.5-1s.5.447.5,1-.224,1-.5,1S895,638.552,895,638Zm-324-1c0-.553.223-1,.5-1s.5.446.5,1-.224,1-.5,1S571,637.552,571,637Zm-148,0c0-.553.224-1,.5-1s.5.446.5,1-.223,1-.5,1S423,637.552,423,637Zm537.5-1h0ZM291,635a1,1,0,1,1,1,1A1,1,0,0,1,291,635Zm-148,0a1,1,0,1,1,1,1A1,1,0,0,1,143,635Zm542-1.5a.5.5,0,1,1,.5.5A.5.5,0,0,1,685,633.5Zm244-3c0-.275.447-.5,1-.5s1,.224,1,.5-.448.5-1,.5S929,630.776,929,630.5ZM847,629a1,1,0,1,1,1,1A1,1,0,0,1,847,629Zm-213,0a1,1,0,1,1,1,1A1,1,0,0,1,634,629Zm-148,0a1,1,0,1,1,1,1A1,1,0,0,1,486,629Zm-167,0c0-.553.223-1,.5-1s.5.447.5,1-.224,1-.5,1S319,629.552,319,629Zm690-4h0Zm-256-1a1,1,0,1,1,1,1A1,1,0,0,1,753,624Zm132-4.5a.5.5,0,1,1,.5.5A.5.5,0,0,1,885,619.5ZM425,618a1,1,0,1,1,1,1A1,1,0,0,1,425,618Zm-119-3c0-.553.224-1,.5-1s.5.448.5,1-.223,1-.5,1S306,615.553,306,615ZM38,613.5a.5.5,0,1,1,.5.5A.5.5,0,0,1,38,613.5ZM541,612a1,1,0,1,1,1,1A1,1,0,0,1,541,612Zm-175,0a1,1,0,1,1,1,1A1,1,0,0,1,366,612Zm-148,0a1,1,0,1,1,1,1A1,1,0,0,1,218,612Zm281-7.5c0-.277.447-.5,1-.5s1,.224,1,.5-.448.5-1,.5S499,604.777,499,604.5Zm-148,0c0-.277.448-.5,1-.5s1,.224,1,.5-.448.5-1,.5S351,604.777,351,604.5Zm572-1a.5.5,0,1,1,.5.5A.5.5,0,0,1,923,603.5Zm-203-2a.5.5,0,1,1,.5.5A.5.5,0,0,1,720,601.5Zm63-3c0-.275.448-.5,1-.5s1,.225,1,.5-.448.5-1,.5S783,598.777,783,598.5Zm-176,0c0-.275.447-.5,1-.5s1,.225,1,.5-.447.5-1,.5S607,598.777,607,598.5Zm-147,0c0-.275.448-.5,1-.5s1,.225,1,.5-.448.5-1,.5S460,598.777,460,598.5Zm498-3c0-.277.447-.5,1-.5s1,.224,1,.5-.447.5-1,.5S958,595.777,958,595.5ZM555,594c0-.553.224-1,.5-1s.5.447.5,1-.224,1-.5,1S555,594.553,555,594Zm-148,0c0-.553.223-1,.5-1s.5.447.5,1-.224,1-.5,1S407,594.553,407,594Zm-173,0c0-.553.224-1,.5-1s.5.447.5,1-.223,1-.5,1S234,594.553,234,594Zm409-3a1,1,0,1,1,1,1A1,1,0,0,1,643,591Zm-338-4c0-.553.224-1,.5-1s.5.447.5,1-.223,1-.5,1S305,587.552,305,587Zm188-1.5c0-.275.448-.5,1-.5s1,.224,1,.5-.447.5-1,.5S493,585.776,493,585.5Zm-147,0a.5.5,0,1,1,.5.5A.5.5,0,0,1,346,585.5ZM913,584a1,1,0,1,1,1,1A1,1,0,0,1,913,584Zm-390-1c0-.553.671-1,1.5-1s1.5.447,1.5,1-.671,1-1.5,1S523,583.553,523,583Zm-175,0a1,1,0,1,1,1,1A1,1,0,0,1,348,583Zm-148,0a1,1,0,1,1,1,1A1,1,0,0,1,200,583Zm627-.5a.5.5,0,1,1,.5.5A.5.5,0,0,1,827,582.5Zm190-1.5c0-.552.224-1,.5-1s.5.448.5,1-.223,1-.5,1S1017,581.552,1017,581Zm-375,0a1,1,0,1,1,1,1A1,1,0,0,1,642,581Zm-178,0a1,1,0,1,1,1,1A1,1,0,0,1,464,581Zm376-14v0Zm134-1v0Zm-332,0a1,1,0,1,1,1,1A1,1,0,0,1,642,566Zm-147,0c0-.553.224-1,.5-1s.5.447.5,1-.223,1-.5,1S495,566.552,495,566Zm-175,0a1,1,0,1,1,1,1A1,1,0,0,1,320,566Zm248-5c0-.553.671-1,1.5-1s1.5.447,1.5,1-.671,1-1.5,1S568,561.552,568,561Zm-281-3a1,1,0,1,1,1,1A1,1,0,0,1,287,558Zm-4,.5a.5.5,0,1,1,.5.5A.5.5,0,0,1,283,558.5ZM139,558c0-.552.672-1,1.5-1s1.5.448,1.5,1-.671,1-1.5,1S139,558.553,139,558ZM2,557c0-.552.671-1,1.5-1s1.5.448,1.5,1-.672,1-1.5,1S2,557.553,2,557Zm564-1.5a.5.5,0,1,1,.5.5A.5.5,0,0,1,566,555.5Zm-148,0c0-.276.447-.5,1-.5s1,.223,1,.5-.447.5-1,.5S418,555.776,418,555.5ZM529,548c0-.553.224-1,.5-1s.5.447.5,1-.224,1-.5,1S529,548.552,529,548Zm-147,0c0-.553.223-1,.5-1s.5.447.5,1-.224,1-.5,1S382,548.552,382,548Zm-176,0a1,1,0,1,1,1,1A1,1,0,0,1,206,548Zm181-2a1,1,0,1,1,1,1A1,1,0,0,1,387,546Zm-148,0a1,1,0,1,1,1,1A1,1,0,0,1,239,546Zm-137-.5c0-.828.448-1.5,1-1.5s1,.671,1,1.5-.448,1.5-1,1.5S102,546.329,102,545.5Zm409.958-6.583a1.051,1.051,0,1,1,.232.026A1.026,1.026,0,0,1,511.958,538.917ZM898,537.5c0-.276.448-.5,1-.5s1,.223,1,.5-.447.5-1,.5S898,537.776,898,537.5Zm-531.51-.866a1.054,1.054,0,1,1,.889.487A1.055,1.055,0,0,1,366.489,536.634ZM718,533a1,1,0,1,1,1,1A1,1,0,0,1,718,533Zm-76,0a1,1,0,1,1,1,1A1,1,0,0,1,642,533Zm128-3.5a.5.5,0,1,1,.5.5A.5.5,0,0,1,770,529.5Zm-266-1a.5.5,0,1,1,.5.5A.5.5,0,0,1,504,528.5Zm-148,0c0-.276.447-.5,1-.5s1,.223,1,.5-.447.5-1,.5S356,528.776,356,528.5Zm-61-8v0ZM41,520a1,1,0,1,1,1,1A1,1,0,0,1,41,520Zm914-4a1,1,0,1,1,1,1A1,1,0,0,1,955,516Zm-150,.5c0-.276.447-.5,1-.5s1,.223,1,.5-.447.5-1,.5S805,516.776,805,516.5ZM241,516a1,1,0,1,1,1,1A1,1,0,0,1,241,516Zm323-6c0-.552.224-1,.5-1s.5.449.5,1-.224,1-.5,1S564,510.552,564,510Zm-67,0c0-.552.223-1,.5-1s.5.449.5,1-.224,1-.5,1S497,510.552,497,510Zm-80,0v0Zm-67,0c0-.552.224-1,.5-1s.5.449.5,1-.223,1-.5,1S350,510.552,350,510Zm655-4c0-.553.224-1,.5-1s.5.447.5,1-.224,1-.5,1S1005,506.552,1005,506Zm-343-6a1,1,0,1,1,1,1A1,1,0,0,1,662,500ZM23,491.5c0-.275.671-.5,1.5-.5s1.5.224,1.5.5-.671.5-1.5.5S23,491.776,23,491.5ZM530,485c0-.553.224-1,.5-1s.5.447.5,1-.223,1-.5,1S530,485.552,530,485Zm-147,0c0-.553.224-1,.5-1s.5.447.5,1-.224,1-.5,1S383,485.552,383,485Zm-168,0a1,1,0,1,1,1,1A1,1,0,0,1,215,485Zm253.514.251a1.052,1.052,0,1,1,.229.025A1.052,1.052,0,0,1,468.513,485.251ZM948,484.5a.5.5,0,1,1,.5.5A.5.5,0,0,1,948,484.5ZM784,483c0-.552.224-1,.5-1s.5.449.5,1-.224,1-.5,1S784,483.552,784,483Zm41-1a1,1,0,1,1,1,1A1,1,0,0,1,825,482Zm-57-3a1,1,0,1,1,1,1A1,1,0,0,1,768,479Zm93-2c0-.553.224-1,.5-1s.5.447.5,1-.224,1-.5,1S861,477.553,861,477Zm-379-7a1,1,0,1,1,1,1A1,1,0,0,1,482,470Zm105-2c0-.553.223-1,.5-1s.5.447.5,1-.224,1-.5,1S587,468.553,587,468Zm-147,0c0-.553.224-1,.5-1s.5.447.5,1-.223,1-.5,1S440,468.553,440,468Zm110-7.5a.5.5,0,1,1,.5.5A.5.5,0,0,1,550,460.5Zm-147,0a.5.5,0,1,1,.5.5A.5.5,0,0,1,403,460.5Zm-138-1c0-.275.447-.5,1-.5s1,.224,1,.5-.447.5-1,.5S265,459.776,265,459.5Zm757-2.5a1,1,0,1,1,1,1A1,1,0,0,1,1022,457Zm-613.5-6.6a1.052,1.052,0,1,1,.229.025A1.053,1.053,0,0,1,408.5,450.406ZM369,447a1,1,0,1,1,1,1A1,1,0,0,1,369,447Zm-148,0a1,1,0,1,1,1,1A1,1,0,0,1,221,447Zm99-.5c0-.276.447-.5,1-.5s1,.224,1,.5-.447.5-1,.5S320,446.777,320,446.5ZM990,443a1,1,0,1,1,1,1A1,1,0,0,1,990,443Zm-150-.5a.5.5,0,1,1,.5.5A.5.5,0,0,1,840,442.5Zm-399.38-3.673a1.052,1.052,0,1,1,.229.025A1.053,1.053,0,0,1,440.619,438.827ZM525,437c0-.552.223-1,.5-1s.5.448.5,1-.224,1-.5,1S525,437.552,525,437ZM47,435c0-.553.671-1,1.5-1s1.5.447,1.5,1-.672,1-1.5,1S47,435.552,47,435Zm714.5,1h0ZM295,431c0-.553.223-1,.5-1s.5.447.5,1-.224,1-.5,1S295,431.553,295,431Zm328-.5a.5.5,0,1,1,.5.5A.5.5,0,0,1,623,430.5Zm-148,0c0-.277.448-.5,1-.5s1,.222,1,.5-.447.5-1,.5S475,430.776,475,430.5ZM239,429c0-.552.224-1,.5-1s.5.449.5,1-.224,1-.5,1S239,429.552,239,429Zm323-6.5v0Zm-8-.5a1,1,0,1,1,1,1A1,1,0,0,1,554,422Zm-140,.5a.5.5,0,1,1,.5.5A.5.5,0,0,1,414,422.5ZM308,422a1,1,0,1,1,1,1A1,1,0,0,1,308,422Zm-147,0a1,1,0,1,1,1,1A1,1,0,0,1,161,422Zm772-.5c0-.277.447-.5,1-.5s1,.222,1,.5-.447.5-1,.5S933,421.776,933,421.5ZM390,418c0-.553.223-1,.5-1s.5.447.5,1-.224,1-.5,1S390,418.552,390,418Zm-168,0c0-.553.224-1,.5-1s.5.447.5,1-.224,1-.5,1S222,418.552,222,418Zm531-3c0-.552.671-1,1.5-1s1.5.448,1.5,1-.671,1-1.5,1S753,415.553,753,415Zm-76,0a1,1,0,1,1,1,1A1,1,0,0,1,677,415Zm64-.5a.5.5,0,1,1,.5.5A.5.5,0,0,1,741,414.5Zm-236-2a.5.5,0,1,1,.5.5A.5.5,0,0,1,505,412.5Zm-147,0a.5.5,0,1,1,.5.5A.5.5,0,0,1,358,412.5ZM95,408a1,1,0,1,1,1,1A1,1,0,0,1,95,408Zm163-2.5a.5.5,0,1,1,.5.5A.5.5,0,0,1,258,405.5Zm43-3.5c0-.553.672-1,1.5-1s1.5.447,1.5,1-.671,1-1.5,1S301,402.552,301,402Zm-271-.5c0-.828.448-1.5,1-1.5s1,.672,1,1.5-.448,1.5-1,1.5S30,402.329,30,401.5Zm844-2a.5.5,0,1,1,.5.5A.5.5,0,0,1,874,399.5ZM543,398c0-.553.223-1,.5-1s.5.447.5,1-.224,1-.5,1S543,398.552,543,398Zm-148,0c0-.553.224-1,.5-1s.5.447.5,1-.223,1-.5,1S395,398.552,395,398Zm-160,0a1,1,0,1,1,1,1A1,1,0,0,1,235,398Zm122-3.5a.5.5,0,1,1,.5.5A.5.5,0,0,1,357,394.5Zm651-1.5a1,1,0,1,1,1,1A1,1,0,0,1,1008,393Zm-363,0a1,1,0,1,1,1,1A1,1,0,0,1,645,393Zm-147,0c0-.553.223-1,.5-1s.5.448.5,1-.224,1-.5,1S498,393.552,498,393Zm172,0a1,1,0,1,1,1,1A1,1,0,0,1,670,393Zm238-1a1,1,0,1,1,1,1A1,1,0,0,1,908,392Zm-34,0c0-.552.224-1,.5-1s.5.448.5,1-.224,1-.5,1S874,392.552,874,392Zm-270-5.5c0-.829.448-1.5,1-1.5s1,.671,1,1.5-.447,1.5-1,1.5S604,387.329,604,386.5Zm-98,.5c0-.551.223-1,.5-1s.5.449.5,1-.224,1-.5,1S506,387.552,506,387Zm-257,.5a.5.5,0,1,1,.5.5A.5.5,0,0,1,249,387.5Zm435-2a.5.5,0,1,1,.5.5A.5.5,0,0,1,684,385.5Zm70-1c0-.276.447-.5,1-.5s1,.223,1,.5-.447.5-1,.5S754,384.776,754,384.5Zm56,0c0-.276.448-.5,1-.5s1,.223,1,.5-.448.5-1,.5S810,384.776,810,384.5ZM538,383a1,1,0,1,1,1,1A1,1,0,0,1,538,383Zm-36,0a1,1,0,1,1,1,1A1,1,0,0,1,502,383Zm-201,.5c0-.276.447-.5,1-.5s1,.224,1,.5-.447.5-1,.5S301,383.775,301,383.5ZM863,381a1,1,0,1,1,1,1A1,1,0,0,1,863,381Zm-531,0a1,1,0,1,1,1,1A1,1,0,0,1,332,381Zm394.5-1h0Zm-92.5-.5c0-.276.447-.5,1-.5s1,.224,1,.5-.447.5-1,.5S634,379.776,634,379.5Zm228-3a.5.5,0,1,1,.5.5A.5.5,0,0,1,862,376.5Zm86-1.5a1,1,0,1,1,1,1A1,1,0,0,1,948,375Zm-485,0a1,1,0,1,1,1,1A1,1,0,0,1,463,375Zm-100,0c0-.553.223-1,.5-1s.5.448.5,1-.224,1-.5,1S363,375.553,363,375Zm298-1.5a.5.5,0,1,1,.5.5A.5.5,0,0,1,661,373.5ZM361,372c0-.552.224-1,.5-1s.5.448.5,1-.224,1-.5,1S361,372.552,361,372Zm-312,.5a.5.5,0,1,1,.5.5A.5.5,0,0,1,49,372.5ZM567,369c0-.551.224-1,.5-1s.5.449.5,1-.223,1-.5,1S567,369.552,567,369Zm110-2a1,1,0,1,1,1,1A1,1,0,0,1,677,367Zm-421,0c0-.553.223-1,.5-1s.5.447.5,1-.224,1-.5,1S256,367.552,256,367Zm33-1c0-.553.224-1,.5-1s.5.448.5,1-.224,1-.5,1S289,366.552,289,366Zm230,0a1,1,0,1,1,1,1A1,1,0,0,1,519,366Zm474-2a1,1,0,1,1,1,1A1,1,0,0,1,993,364Zm-56,0a1,1,0,1,1,1,1A1,1,0,0,1,937,364Zm-543-.5a.5.5,0,1,1,.5.5A.5.5,0,0,1,394,363.5ZM321,362c0-.553.224-1,.5-1s.5.447.5,1-.224,1-.5,1S321,362.552,321,362Zm57-1a1,1,0,1,1,1,1A1,1,0,0,1,378,361Zm-90-1a1,1,0,1,1,1,1A1,1,0,0,1,288,360Zm418-1.5a.5.5,0,1,1,.5.5A.5.5,0,0,1,706,358.5Zm119-1c0-.276.447-.5,1-.5s1,.223,1,.5-.447.5-1,.5S825,357.776,825,357.5Zm-303,0a.5.5,0,1,1,.5.5A.5.5,0,0,1,522,357.5Zm436-1c0-.276.447-.5,1-.5s1,.224,1,.5-.447.5-1,.5S958,356.777,958,356.5ZM712,356a1,1,0,1,1,1,1A1,1,0,0,1,712,356Zm-58,.5c0-.276.447-.5,1-.5s1,.224,1,.5-.447.5-1,.5S654,356.777,654,356.5Zm172-1c0-.275.448-.5,1-.5s1,.224,1,.5-.447.5-1,.5S826,355.776,826,355.5Zm-612,0a.5.5,0,1,1,.5.5A.5.5,0,0,1,214,355.5ZM395,354c0-.552.224-1,.5-1s.5.448.5,1-.223,1-.5,1S395,354.552,395,354Zm54-1a1,1,0,1,1,1,1A1,1,0,0,1,449,353Zm-238-1a1,1,0,1,1,1,1A1,1,0,0,1,211,352Zm343-1a1,1,0,1,1,1,1A1,1,0,0,1,554,351ZM0,350.5c0-.829.447-1.5,1-1.5s1,.671,1,1.5S1.553,352,1,352,0,351.329,0,350.5Zm557-.5a1,1,0,1,1,1,1A1,1,0,0,1,557,350Zm206-2a1,1,0,1,1,1,1A1,1,0,0,1,763,348Zm-654-.5c0-.828.448-1.5,1-1.5s1,.672,1,1.5-.447,1.5-1,1.5S109,348.329,109,347.5Zm818-2c0-.275.448-.5,1-.5s1,.224,1,.5-.448.5-1,.5S927,345.776,927,345.5ZM387,345c0-.553.224-1,.5-1s.5.447.5,1-.223,1-.5,1S387,345.552,387,345Zm-97,0a1,1,0,1,1,1,1A1,1,0,0,1,290,345Zm366-3a1,1,0,1,1,1,1A1,1,0,0,1,656,342Zm-415,0c0-.553.671-1,1.5-1s1.5.447,1.5,1-.671,1-1.5,1S241,342.553,241,342Zm-130-3a1,1,0,1,1,1,1A1,1,0,0,1,111,339Zm217-1v0Zm616-2c0-.553.224-1,.5-1s.5.447.5,1-.223,1-.5,1S944,336.552,944,336Zm-148,.5c0-.275.447-.5,1-.5s1,.224,1,.5-.447.5-1,.5S796,336.776,796,336.5Zm-21-1c0-.829.448-1.5,1-1.5s1,.671,1,1.5-.447,1.5-1,1.5S775,336.328,775,335.5Zm-502,1a.5.5,0,1,1,.5.5A.5.5,0,0,1,273,336.5Zm-264-1c0-.829.447-1.5,1-1.5s1,.671,1,1.5-.447,1.5-1,1.5S9,336.328,9,335.5Zm998,0a.5.5,0,1,1,.5.5A.5.5,0,0,1,1007,335.5Zm-443-4c0-.275.447-.5,1-.5s1,.223,1,.5-.447.5-1,.5S564,331.776,564,331.5ZM188,331a1,1,0,1,1,1,1A1,1,0,0,1,188,331Zm643-2.5c0-.277.447-.5,1-.5s1,.224,1,.5-.448.5-1,.5S831,328.776,831,328.5Zm-176,0c0-.277.448-.5,1-.5s1,.224,1,.5-.447.5-1,.5S655,328.776,655,328.5Zm-148,0c0-.277.447-.5,1-.5s1,.224,1,.5-.448.5-1,.5S507,328.776,507,328.5Zm279-11c0-.276.447-.5,1-.5s1,.223,1,.5-.448.5-1,.5S786,317.776,786,317.5ZM443,317a1,1,0,1,1,1,1A1,1,0,0,1,443,317Zm-115,0c0-.552.672-1,1.5-1s1.5.448,1.5,1-.671,1-1.5,1S328,317.552,328,317Zm-147,0c0-.552.671-1,1.5-1s1.5.448,1.5,1-.671,1-1.5,1S181,317.552,181,317Zm426-2a1,1,0,1,1,1,1A1,1,0,0,1,607,315Zm-91-.5c0-.828.448-1.5,1-1.5s1,.671,1,1.5-.448,1.5-1,1.5S516,315.329,516,314.5Zm-56,.5a1,1,0,1,1,1,1A1,1,0,0,1,460,315Zm-233,.5a.5.5,0,1,1,.5.5A.5.5,0,0,1,227,315.5ZM895,308c0-.553.224-1,.5-1s.5.447.5,1-.224,1-.5,1S895,308.552,895,308Zm-324-1c0-.553.223-1,.5-1s.5.446.5,1-.224,1-.5,1S571,307.552,571,307Zm-148,0c0-.553.224-1,.5-1s.5.446.5,1-.223,1-.5,1S423,307.552,423,307Zm537.5-1h0ZM291,305a1,1,0,1,1,1,1A1,1,0,0,1,291,305Zm-148,0a1,1,0,1,1,1,1A1,1,0,0,1,143,305Zm542-1.5a.5.5,0,1,1,.5.5A.5.5,0,0,1,685,303.5Zm244-3c0-.275.447-.5,1-.5s1,.224,1,.5-.448.5-1,.5S929,300.776,929,300.5ZM847,299a1,1,0,1,1,1,1A1,1,0,0,1,847,299Zm-213,0a1,1,0,1,1,1,1A1,1,0,0,1,634,299Zm-148,0a1,1,0,1,1,1,1A1,1,0,0,1,486,299Zm-167,0c0-.553.223-1,.5-1s.5.447.5,1-.224,1-.5,1S319,299.552,319,299Zm690-4h0Zm-256-1a1,1,0,1,1,1,1A1,1,0,0,1,753,294Zm132-4.5a.5.5,0,1,1,.5.5A.5.5,0,0,1,885,289.5ZM425,288a1,1,0,1,1,1,1A1,1,0,0,1,425,288Zm-119-3c0-.553.224-1,.5-1s.5.448.5,1-.223,1-.5,1S306,285.553,306,285ZM38,283.5a.5.5,0,1,1,.5.5A.5.5,0,0,1,38,283.5ZM541,282a1,1,0,1,1,1,1A1,1,0,0,1,541,282Zm-175,0a1,1,0,1,1,1,1A1,1,0,0,1,366,282Zm-148,0a1,1,0,1,1,1,1A1,1,0,0,1,218,282Zm281-7.5c0-.277.447-.5,1-.5s1,.224,1,.5-.448.5-1,.5S499,274.776,499,274.5Zm-148,0c0-.277.448-.5,1-.5s1,.224,1,.5-.448.5-1,.5S351,274.776,351,274.5Zm572-1a.5.5,0,1,1,.5.5A.5.5,0,0,1,923,273.5Zm-203-2a.5.5,0,1,1,.5.5A.5.5,0,0,1,720,271.5Zm63-3c0-.275.448-.5,1-.5s1,.225,1,.5-.448.5-1,.5S783,268.777,783,268.5Zm-176,0c0-.275.447-.5,1-.5s1,.225,1,.5-.447.5-1,.5S607,268.777,607,268.5Zm-147,0c0-.275.448-.5,1-.5s1,.225,1,.5-.448.5-1,.5S460,268.777,460,268.5Zm498-3c0-.277.447-.5,1-.5s1,.224,1,.5-.447.5-1,.5S958,265.776,958,265.5ZM555,264c0-.553.224-1,.5-1s.5.447.5,1-.224,1-.5,1S555,264.552,555,264Zm-148,0c0-.553.223-1,.5-1s.5.447.5,1-.224,1-.5,1S407,264.552,407,264Zm-173,0c0-.553.224-1,.5-1s.5.447.5,1-.223,1-.5,1S234,264.552,234,264Zm409-3a1,1,0,1,1,1,1A1,1,0,0,1,643,261Zm-338-4c0-.553.224-1,.5-1s.5.447.5,1-.223,1-.5,1S305,257.552,305,257Zm188-1.5c0-.275.448-.5,1-.5s1,.224,1,.5-.447.5-1,.5S493,255.776,493,255.5Zm-147,0a.5.5,0,1,1,.5.5A.5.5,0,0,1,346,255.5ZM913,254a1,1,0,1,1,1,1A1,1,0,0,1,913,254Zm-390-1c0-.553.671-1,1.5-1s1.5.447,1.5,1-.671,1-1.5,1S523,253.553,523,253Zm-175,0a1,1,0,1,1,1,1A1,1,0,0,1,348,253Zm-148,0a1,1,0,1,1,1,1A1,1,0,0,1,200,253Zm627-.5a.5.5,0,1,1,.5.5A.5.5,0,0,1,827,252.5Zm190-1.5c0-.552.224-1,.5-1s.5.448.5,1-.223,1-.5,1S1017,251.552,1017,251Zm-375,0a1,1,0,1,1,1,1A1,1,0,0,1,642,251Zm-178,0a1,1,0,1,1,1,1A1,1,0,0,1,464,251Zm376-14v0Zm134-1v0Zm-332,0a1,1,0,1,1,1,1A1,1,0,0,1,642,236Zm-147,0c0-.553.224-1,.5-1s.5.447.5,1-.223,1-.5,1S495,236.551,495,236Zm-175,0a1,1,0,1,1,1,1A1,1,0,0,1,320,236Zm248-5c0-.553.671-1,1.5-1s1.5.447,1.5,1-.671,1-1.5,1S568,231.552,568,231Zm-281-3a1,1,0,1,1,1,1A1,1,0,0,1,287,228Zm-4,.5a.5.5,0,1,1,.5.5A.5.5,0,0,1,283,228.5ZM139,228c0-.552.672-1,1.5-1s1.5.448,1.5,1-.671,1-1.5,1S139,228.552,139,228ZM2,227c0-.552.671-1,1.5-1s1.5.448,1.5,1-.672,1-1.5,1S2,227.552,2,227Zm564-1.5a.5.5,0,1,1,.5.5A.5.5,0,0,1,566,225.5Zm-148,0c0-.276.447-.5,1-.5s1,.223,1,.5-.447.5-1,.5S418,225.776,418,225.5ZM529,218c0-.553.224-1,.5-1s.5.447.5,1-.224,1-.5,1S529,218.551,529,218Zm-147,0c0-.553.223-1,.5-1s.5.447.5,1-.224,1-.5,1S382,218.551,382,218Zm-176,0a1,1,0,1,1,1,1A1,1,0,0,1,206,218Zm181-2a1,1,0,1,1,1,1A1,1,0,0,1,387,216Zm-148,0a1,1,0,1,1,1,1A1,1,0,0,1,239,216Zm-137-.5c0-.828.448-1.5,1-1.5s1,.671,1,1.5-.448,1.5-1,1.5S102,216.329,102,215.5Zm409.958-6.583a1.052,1.052,0,1,1,.232.026A1.027,1.027,0,0,1,511.958,208.917ZM898,207.5c0-.276.448-.5,1-.5s1,.223,1,.5-.447.5-1,.5S898,207.776,898,207.5Zm-531.51-.866a1.054,1.054,0,1,1,.889.487A1.055,1.055,0,0,1,366.489,206.634ZM718,203a1,1,0,1,1,1,1A1,1,0,0,1,718,203Zm-76,0a1,1,0,1,1,1,1A1,1,0,0,1,642,203Zm128-3.5a.5.5,0,1,1,.5.5A.5.5,0,0,1,770,199.5Zm-266-1a.5.5,0,1,1,.5.5A.5.5,0,0,1,504,198.5Zm-148,0c0-.276.447-.5,1-.5s1,.223,1,.5-.447.5-1,.5S356,198.776,356,198.5Zm-61-8v0ZM41,190a1,1,0,1,1,1,1A1,1,0,0,1,41,190Zm914-4a1,1,0,1,1,1,1A1,1,0,0,1,955,186Zm-150,.5c0-.276.447-.5,1-.5s1,.223,1,.5-.447.5-1,.5S805,186.776,805,186.5ZM241,186a1,1,0,1,1,1,1A1,1,0,0,1,241,186Zm323-6c0-.552.224-1,.5-1s.5.449.5,1-.224,1-.5,1S564,180.552,564,180Zm-67,0c0-.552.223-1,.5-1s.5.449.5,1-.224,1-.5,1S497,180.552,497,180Zm-80,0v0Zm-67,0c0-.552.224-1,.5-1s.5.449.5,1-.223,1-.5,1S350,180.552,350,180Zm655-4c0-.553.224-1,.5-1s.5.447.5,1-.224,1-.5,1S1005,176.552,1005,176Zm-343-6a1,1,0,1,1,1,1A1,1,0,0,1,662,170ZM23,161.5c0-.275.671-.5,1.5-.5s1.5.224,1.5.5-.671.5-1.5.5S23,161.776,23,161.5ZM530,155c0-.553.224-1,.5-1s.5.447.5,1-.223,1-.5,1S530,155.551,530,155Zm-147,0c0-.553.224-1,.5-1s.5.447.5,1-.224,1-.5,1S383,155.551,383,155Zm-168,0a1,1,0,1,1,1,1A1,1,0,0,1,215,155Zm253.514.251a1.052,1.052,0,1,1,.229.025A1.052,1.052,0,0,1,468.513,155.251ZM948,154.5a.5.5,0,1,1,.5.5A.5.5,0,0,1,948,154.5ZM784,153c0-.552.224-1,.5-1s.5.449.5,1-.224,1-.5,1S784,153.552,784,153Zm41-1a1,1,0,1,1,1,1A1,1,0,0,1,825,152Zm-57-3a1,1,0,1,1,1,1A1,1,0,0,1,768,149Zm93-2c0-.553.224-1,.5-1s.5.447.5,1-.224,1-.5,1S861,147.552,861,147Zm-379-7a1,1,0,1,1,1,1A1,1,0,0,1,482,140Zm105-2c0-.553.223-1,.5-1s.5.447.5,1-.224,1-.5,1S587,138.552,587,138Zm-147,0c0-.553.224-1,.5-1s.5.447.5,1-.223,1-.5,1S440,138.552,440,138Zm110-7.5a.5.5,0,1,1,.5.5A.5.5,0,0,1,550,130.5Zm-147,0a.5.5,0,1,1,.5.5A.5.5,0,0,1,403,130.5Zm-138-1c0-.275.447-.5,1-.5s1,.224,1,.5-.447.5-1,.5S265,129.775,265,129.5Zm757-2.5a1,1,0,1,1,1,1A1,1,0,0,1,1022,127Zm-613.5-6.6a1.052,1.052,0,1,1,.229.025A1.053,1.053,0,0,1,408.5,120.406ZM369,117a1,1,0,1,1,1,1A1,1,0,0,1,369,117Zm-148,0a1,1,0,1,1,1,1A1,1,0,0,1,221,117Zm99-.5c0-.276.447-.5,1-.5s1,.224,1,.5-.447.5-1,.5S320,116.777,320,116.5ZM990,113a1,1,0,1,1,1,1A1,1,0,0,1,990,113Zm-150-.5a.5.5,0,1,1,.5.5A.5.5,0,0,1,840,112.5Zm-399.38-3.673a1.052,1.052,0,1,1,.229.025A1.053,1.053,0,0,1,440.619,108.827ZM47,105c0-.553.671-1,1.5-1s1.5.447,1.5,1-.672,1-1.5,1S47,105.552,47,105Zm714.5,1h0ZM623,100.5a.5.5,0,1,1,.5.5A.5.5,0,0,1,623,100.5Zm-148,0c0-.277.448-.5,1-.5s1,.222,1,.5-.447.5-1,.5S475,100.776,475,100.5ZM239,99c0-.552.224-1,.5-1s.5.449.5,1-.224,1-.5,1S239,99.552,239,99Zm323-6.5v0Zm-8-.5a1,1,0,1,1,1,1A1,1,0,0,1,554,92Zm-140,.5a.5.5,0,1,1,.5.5A.5.5,0,0,1,414,92.5ZM308,92a1,1,0,1,1,1,1A1,1,0,0,1,308,92ZM161,92a1,1,0,1,1,1,1A1,1,0,0,1,161,92Zm772-.5c0-.277.447-.5,1-.5s1,.222,1,.5-.447.5-1,.5S933,91.776,933,91.5ZM753,85c0-.552.671-1,1.5-1s1.5.448,1.5,1-.671,1-1.5,1S753,85.552,753,85Zm-76,0a1,1,0,1,1,1,1A1,1,0,0,1,677,85Zm64-.5a.5.5,0,1,1,.5.5A.5.5,0,0,1,741,84.5Zm-236-2a.5.5,0,1,1,.5.5A.5.5,0,0,1,505,82.5Zm-147,0a.5.5,0,1,1,.5.5A.5.5,0,0,1,358,82.5ZM95,78a1,1,0,1,1,1,1A1,1,0,0,1,95,78Zm163-2.5a.5.5,0,1,1,.5.5A.5.5,0,0,1,258,75.5ZM543,68c0-.553.223-1,.5-1s.5.447.5,1-.224,1-.5,1S543,68.552,543,68ZM395,68c0-.553.224-1,.5-1s.5.447.5,1-.223,1-.5,1S395,68.552,395,68ZM235,68a1,1,0,1,1,1,1A1,1,0,0,1,235,68Zm773-5a1,1,0,1,1,1,1A1,1,0,0,1,1008,63ZM645,63a1,1,0,1,1,1,1A1,1,0,0,1,645,63ZM498,63c0-.553.223-1,.5-1s.5.448.5,1-.224,1-.5,1S498,63.552,498,63Zm376-1c0-.552.224-1,.5-1s.5.448.5,1-.224,1-.5,1S874,62.552,874,62ZM604,56.5c0-.829.448-1.5,1-1.5s1,.671,1,1.5-.447,1.5-1,1.5S604,57.328,604,56.5Zm80-1a.5.5,0,1,1,.5.5A.5.5,0,0,1,684,55.5ZM538,53a1,1,0,1,1,1,1A1,1,0,0,1,538,53ZM332,51a1,1,0,1,1,1,1A1,1,0,0,1,332,51Zm394.5-1h0ZM634,49.5c0-.276.447-.5,1-.5s1,.224,1,.5-.447.5-1,.5S634,49.775,634,49.5Zm228-3a.5.5,0,1,1,.5.5A.5.5,0,0,1,862,46.5ZM948,45a1,1,0,1,1,1,1A1,1,0,0,1,948,45ZM463,45a1,1,0,1,1,1,1A1,1,0,0,1,463,45ZM361,42c0-.552.224-1,.5-1s.5.448.5,1-.224,1-.5,1S361,42.552,361,42Zm316-5a1,1,0,1,1,1,1A1,1,0,0,1,677,37ZM256,37c0-.554.223-1,.5-1s.5.447.5,1-.224,1-.5,1S256,37.552,256,37Zm33-1c0-.553.224-1,.5-1s.5.448.5,1-.224,1-.5,1S289,36.552,289,36Zm230,0a1,1,0,1,1,1,1A1,1,0,0,1,519,36Zm474-2a1,1,0,1,1,1,1A1,1,0,0,1,993,34ZM321,32c0-.553.224-1,.5-1s.5.447.5,1-.224,1-.5,1S321,32.552,321,32Zm-33-2a1,1,0,1,1,1,1A1,1,0,0,1,288,30Zm418-1.5a.5.5,0,1,1,.5.5A.5.5,0,0,1,706,28.5Zm119-1c0-.276.447-.5,1-.5s1,.223,1,.5-.447.5-1,.5S825,27.776,825,27.5Zm133-1c0-.276.447-.5,1-.5s1,.224,1,.5-.447.5-1,.5S958,26.777,958,26.5Zm-304,0c0-.276.447-.5,1-.5s1,.224,1,.5-.447.5-1,.5S654,26.777,654,26.5ZM395,24c0-.552.224-1,.5-1s.5.448.5,1-.223,1-.5,1S395,24.552,395,24ZM211,22a1,1,0,1,1,1,1A1,1,0,0,1,211,22Zm343-1a1,1,0,1,1,1,1A1,1,0,0,1,554,21ZM0,20.5C0,19.671.447,19,1,19s1,.671,1,1.5S1.553,22,1,22,0,21.328,0,20.5ZM763,18a1,1,0,1,1,1,1A1,1,0,0,1,763,18ZM111,9a1,1,0,1,1,1,1A1,1,0,0,1,111,9ZM273,6.5a.5.5,0,1,1,.5.5A.5.5,0,0,1,273,6.5Zm734-1a.5.5,0,1,1,.5.5A.5.5,0,0,1,1007,5.5Zm-443-4c0-.275.447-.5,1-.5s1,.223,1,.5-.447.5-1,.5S564,1.776,564,1.5ZM188,1a1,1,0,1,1,1,1A1,1,0,0,1,188,1Z" fill="rgba(255,255,255,0.2)"/>
</svg>
