<?xml version="1.0" encoding="utf-8"?>
<!-- Generator: Adobe Illustrator 25.2.3, SVG Export Plug-In . SVG Version: 6.00 Build 0)  -->
<svg version="1.1" id="Layer_1" xmlns="http://www.w3.org/2000/svg" xmlns:xlink="http://www.w3.org/1999/xlink" x="0px" y="0px"
	 viewBox="0 0 800 800" style="enable-background:new 0 0 800 800;" xml:space="preserve">
<style type="text/css">
	.st0{fill:#29FD2E;}
</style>
<path class="st0" d="M799.2,187.2c-0.2-14.4-1.2-28.8-3.9-43c-3.3-17.3-7.9-34.2-16.2-49.8C770.3,77.9,759.3,63,745.7,50
	C725,30.1,701,16,673,8.6c-25.2-6.7-50.9-8.2-76.9-8.2c-0.1-0.1-0.1-0.3-0.1-0.4H203.8c0,0.1,0,0.3,0,0.4c-14.7,0.3-29.4,0.2-44.1,2
	c-16,2-31.9,5-47.1,10.6c-23.9,8.8-44.7,22.6-62.4,41C30.1,74.7,16,98.8,8.5,126.8c-6.7,25-8.2,50.5-8.2,76.2L0,596.5v0
	c0.5,17.8,0.6,35.6,3.6,53.3c3.2,18.7,7.7,36.9,16.4,53.8c11.7,22.9,27.7,42.3,48.1,58.1c14.6,11.4,30.5,20.4,48.1,26.1
	c25.7,8.3,52.2,11.5,79.1,11.6c16.8,0.1,33.6,0.5,50.4,0.5c122-0.5,243.9,0.9,365.9-0.8c16.2-0.2,32.1-2.2,48-5.1
	c30.4-5.6,57.3-18.6,80.4-39.1c26.8-23.9,44.9-53.2,53.1-88.5c5.3-23.1,6.7-46.5,6.9-70v-4.7C800,590,799.3,192.5,799.2,187.2z
	 M125.1,520.7c-8.2-5.5-51.3-36.6-0.8-96c48.5-57,146.8-97.2,168.3-106c26.4-10.8,97.1-39.2,174.4-47.3c19.2-2,68.2-6.8,101,6.4
	c4.6,1.8,25.9,10.9,28.8,31.1c2.6,18.5-11.6,37.9-13.6,38.3c-1.9,0.4,8.7-16.6,2.4-34.3c-2.1-5.9-6.8-18.5-28.3-26.5
	c-29.7-11-72.3-6.9-92.9-4.9c-76.3,7.7-146.4,35.5-165.7,43.2c-25.9,10.4-113.4,47.6-157.2,98.7c-47.1,55.1-7.5,84.3,1.2,90.6
	c51,37.6,168.9,22.3,187,19.8C315.2,536.7,182.9,559.4,125.1,520.7z M477.8,404.8c2.7-1.4,5.4-3,8.1-4.6s5.3-3.3,8-5.1
	c0,0,0,0,0.1,0c5.3-3.4,10.3-7.1,15.1-11.1c0.2-0.1,0.4-0.3,0.6-0.4c3.6-3,7.1-6.1,10.2-9.2c2.5-2.5,5-5,7.1-7.5
	c0.7-0.8,1.5-1.6,2.1-2.5c6.3-7.7,10.5-15.4,11.7-22.6c0.1-0.6,0.2-1.2,0.2-1.8c0.2-1.5,0.2-2.9,0.1-4.3c0-0.7-0.1-1.3-0.3-1.9
	c-0.5-3.1-1.7-6-3.8-8.7c-14.2-18.6-59.7-17.2-74.8-16.7c-2.6,0.1-5.2,0.2-7.7,0.4c-2.5,0.1-5,0.3-7.5,0.6c-1.2,0.1-2.5,0.1-3.7,0.3
	c-2.3,0.2-4.5,0.5-6.7,0.8c-3.4,0.4-6.6,0.8-9.9,1.3c-0.1-0.1-0.2,0-0.2,0c-2.9-1.1-5.7-2-8.6-2.6c-0.1,0-0.2,0-0.2,0
	c-1-0.3-1.8-0.5-2.9-0.7c-0.1-0.1-0.2,0-0.2,0c-4.1-0.8-8.1-1.3-12.3-1.4c21.8-4.9,46.1-8.9,70.7-10.1c17.6-0.8,73.3-3.5,91.6,18.3
	c21.2,25.4-19.2,70.7-72.3,96.3c-6.6,3.2-13.4,6.1-19.8,8.6c-3.8,1.5-7.5,2.9-11,4.1c-4.5,1.5-8.8,3-12.6,4.2l-0.1,0
	c-12.6,4-21.1,5.9-21.1,5.9c-22.3,5.2-43.3,7.1-42.7,5.6c0.5-1.4,16.4-4.4,38.8-12c0,0,15.5-5.1,33.8-13.4c3.3-1.5,6.9-3.1,10.4-4.8
	c1.9-0.9,3.8-1.9,5.7-2.8C475.2,406.2,476.6,405.5,477.8,404.8L477.8,404.8z M428.8,329.6c15.4,7.8,26.8,21.3,32.1,37.7
	c4.4,13.8,4.1,28.3-0.8,41.8c-19.7,9.1-37.2,15-37.4,15c-11.5,3.9-21.1,6.6-28.2,8.5c-10.5,2.9-12.1,3.3-13.1,5.9l-0.7,2.4l1.6,1.7
	c4.5,5.1,46.2-4.4,46.5-4.5c0.6-0.1,6.2-1.4,14.7-4c-6.8,6.6-15.1,11.5-24.5,14.5c-16.4,5.3-33.9,3.9-49.3-4
	c-15.3-7.9-26.7-21.3-32-37.7c-4.8-14.8-4.1-30.6,1.9-44.8c0.6-1.5,1.3-3,2-4.5c1.7-3.4,3.7-6.5,5.9-9.4
	c8.1-10.8,19.3-18.6,31.7-22.6c2.2-0.6,4.3-1.2,6.4-1.7C399.9,320.9,415,322.6,428.8,329.6z M345.9,327c-0.3,0.3-0.7,0.5-0.9,0.8
	c-0.1,0-0.1,0-0.2,0c-2,2-4,4-5.8,6.3c-0.1-0.1-0.2,0-0.2,0.1c-3.2,1-5.7,2-7.8,2.7c-52.9,19.5-85.9,41.9-98.6,51
	c-59.8,43.4-57.1,79.2-59.6,80c-2.7,0.5-10.9-34.9,46.4-80.1c39.7-31.4,91.4-52,105.4-57.4c6.2-2.4,17-6.4,31-10.9
	C352.1,321.8,349,324.3,345.9,327z M307.7,364.1c5.8-2.8,11.6-5.3,17.3-7.5c-2.1,5-3.6,10-4.6,15.3c-37.2,20.5-74.2,56.8-57.3,78.7
	c14.3,18.6,59.7,17.2,74.9,16.7c12.4-0.4,24.7-1.6,36.7-3.5c7.7-1.1,15.2-2.6,22.4-4.1c14.3-3,27.5-6.5,38.9-10
	c8.3-2.5,15.5-4.9,21.4-6.9c4.9-1.8,8.9-3.2,11.7-4.3c52.9-19.5,86-41.8,98.5-51c59.8-43.4,57.1-79.2,59.7-80
	c2.7-0.5,10.8,35-46.4,80.1c-39.8,31.4-91.5,52-105.4,57.4c-7.3,2.9-21,7.9-38.9,13.3c-10.1,3.2-21.5,6.3-33.8,9.2
	c-23.1,5.4-49.4,10-75.9,11.3c-17.6,0.8-73.3,3.5-91.5-18.4C214.2,435,254.6,389.6,307.7,364.1z M676,350.7
	c-48.5,57-146.8,97.2-168.3,106c-26.4,10.8-97.1,39.2-174.4,47.3c-19.2,2-68.2,6.8-101-6.4c-4.6-1.8-25.9-10.9-28.8-31.1
	c-2.6-18.5,11.6-37.9,13.6-38.3c1.9-0.4-8.7,16.6-2.4,34.3c2.1,5.9,6.8,18.5,28.3,26.5c29.7,11,72.3,6.9,92.9,4.9
	c76.3-7.7,146.4-35.5,165.7-43.2c25.9-10.4,113.4-47.6,157.2-98.7c47.1-55.1,7.5-84.3-1.2-90.6c-51-37.6-168.9-22.3-187-19.8
	c14.5-2.6,146.9-25.4,204.7,13.3C683.3,260.2,726.5,291.4,676,350.7z"/>
</svg>
