<?xml version="1.0" encoding="utf-8"?>
<!-- Generator: Adobe Illustrator 25.2.3, SVG Export Plug-In . SVG Version: 6.00 Build 0)  -->
<svg version="1.1" id="Layer_1" xmlns="http://www.w3.org/2000/svg" xmlns:xlink="http://www.w3.org/1999/xlink" x="0px" y="0px"
	 viewBox="0 0 2496 2500" style="enable-background:new 0 0 2496 2500;" xml:space="preserve">
<style type="text/css">
	.st0{fill:none;}
	.st1{fill:#29FD2E;}
</style>
<path class="st0" d="M0.2,0.8h2495.5v2495.5H0.2V0.8z"/>
<g>
	<path class="st1" d="M1051.7,1539.6c171.2-98.3,339.2-195,509.4-292.6c-171.5-98.3-339.2-195-509.4-292.6V1539.6z"/>
	<path class="st1" d="M2493.4,584.5c-0.5-45.1-3.9-89.8-12.3-134.1c-10.3-54-24.8-106.7-50.7-155.5
		c-27.3-51.6-61.5-98.1-103.9-138.7C2261.7,94,2186.9,50.1,2099.7,26.8c-78.7-21-158.9-25.7-239.8-25.6c-0.3-0.4-0.4-0.8-0.4-1.2
		H636c0,0.4,0,0.8-0.1,1.2c-45.9,0.8-91.8,0.5-137.5,6.2c-50,6.2-99.5,15.6-146.9,33.1C277.1,68,212.3,111,157,168.3
		C94.3,233.3,50.1,308.4,26.6,395.9C5.7,473.9,1.2,553.5,1.1,633.7L0.2,1862.2v0.1c1.5,55.4,2,111.2,11.3,166.3
		c9.9,58.3,24.1,115.1,51.1,168c36.5,71.6,86.6,132.1,150.1,181.5c45.5,35.5,95.2,63.6,150.2,81.4c80.2,25.9,162.9,35.8,246.8,36.3
		c52.4,0.3,104.7,1.6,157.1,1.4c380.4-1.6,760.9,2.7,1141.4-2.3c50.5-0.7,100.1-6.8,149.7-15.9c95-17.4,178.9-57.9,250.7-122
		c83.7-74.6,140.2-166,165.6-276.2c16.7-72.1,20.8-145.2,21.6-218.6v-14.6C2495.8,1841.9,2493.6,600.9,2493.4,584.5z M2217.9,1610.9
		c-22.5,156.8-65.4,288.4-246.8,301.1c-227.2,16.6-449.2,30-677,25.7c0-1-1.3-1-1.9-1l-409.1-7.5c-132.5-2.6-265.3,2.6-395.1-24.4
		c-197.6-40.4-211.6-238.3-226.2-404.3c-20.2-233.4-12.4-471,25.7-702.4c21.5-129.9,106.1-207.3,236.9-215.8
		c441.7-30.6,886.3-27,1327-12.7c46.5,1.3,93.4,8.5,139.3,16.6c226.5,39.7,232.1,264,246.8,452.8
		C2252.1,1229.8,2245.9,1421.5,2217.9,1610.9z"/>
</g>
</svg>
